<svg width="300" height="310" viewBox="0 0 300 310" fill="none" xmlns="http://www.w3.org/2000/svg">
<path d="M289.647 149.52C334.308 266.643 222.5 294.372 144.911 294.372C29.1224 353.968 0.175269 229.519 0.175269 149.52C0.175269 69.5208 -10.9901 15.4289 144.911 4.6685C241.264 -21.8187 289.647 69.5208 289.647 149.52Z" fill="#F3F6F7"/>
<g opacity="0.45">
<path d="M150.476 242.426C200.512 242.426 241.073 236.594 241.073 229.4C241.073 222.206 200.512 216.374 150.476 216.374C100.441 216.374 59.8798 222.206 59.8798 229.4C59.8798 236.594 100.441 242.426 150.476 242.426Z" fill="#E6E6E6"/>
</g>
<path d="M206.374 144.146H118.322V219.909H206.374V144.146Z" fill="#E6E6E6"/>
<g opacity="0.51">
<path d="M194.035 154.76H130.662V209.287H194.035V154.76Z" fill="#005CA9"/>
</g>
<g opacity="0.08">
<path d="M182.474 219.661L167.988 219.909L168.779 200.277C168.945 196.158 172.239 192.847 176.358 192.66L188.325 192.121L182.478 219.665L182.474 219.661Z" fill="#000001"/>
</g>
<g opacity="0.08">
<path d="M148.674 140.499C148.674 140.499 141.617 148.464 135.099 154.764C128.581 161.063 127.214 219.909 127.214 219.909H118.318V182.03L117.278 158.067L119.867 145.911L148.674 140.503V140.499Z" fill="#000001"/>
</g>
<path d="M169.616 179.017C171.427 177.981 172.396 175.925 172.044 173.869C171.605 170.695 167.814 169.522 164.826 169.29L164.797 164.516L161.855 164.532L161.884 169.265L159.907 169.277L159.878 164.545L156.936 164.561L156.965 169.294L151.036 169.331L151.057 172.382L153.265 172.369C154.251 172.365 154.74 172.655 154.744 173.455L154.827 186.555C154.836 187.649 154.289 187.989 153.7 187.993L151.45 188.006L151.471 191.118L157.189 191.081L157.218 195.918L160.181 195.901L160.152 191.064L162.128 191.052L162.157 195.889L165.037 195.872L165.008 191.035H165.638C171.692 190.994 173.693 188.014 173.668 183.978C173.606 181.599 171.941 179.56 169.62 179.017H169.616ZM159.924 172.514L162.025 172.502C163.496 172.493 166.401 172.726 166.413 175.125C166.525 176.688 165.398 178.068 163.848 178.275L159.957 178.3L159.92 172.518L159.924 172.514ZM163.276 187.633V187.612L160.015 187.633L159.974 181.325L163.757 181.3C164.639 181.296 167.963 181.57 167.979 183.924C167.996 186.278 166.425 187.612 163.272 187.633H163.276Z" fill="white"/>
<path d="M123.489 219.905V226.71H130.662L134.296 219.905H123.489Z" fill="#A5A5A5"/>
<path d="M203.329 219.905V226.71H196.16L192.522 219.905H203.329Z" fill="#A5A5A5"/>
<path d="M180.431 138.762H143.051V144.141H180.431V138.762Z" fill="#A5A5A5"/>
<g opacity="0.34">
<path d="M188.771 196.024C188.771 194.209 187.301 192.739 185.486 192.739C185.305 192.739 185.131 192.757 184.959 192.785C184.212 191.398 182.746 190.453 181.059 190.453C181.004 190.453 180.951 190.459 180.897 190.461C180.999 190.052 181.059 189.627 181.059 189.186C181.059 186.284 178.705 183.93 175.803 183.93C172.901 183.93 170.547 186.284 170.547 189.186C170.547 189.627 170.607 190.052 170.71 190.461C170.655 190.459 170.602 190.453 170.547 190.453C168.103 190.453 166.12 192.435 166.12 194.881C166.12 197.326 168.103 199.308 170.547 199.308H185.915L185.912 199.279C187.525 199.07 188.771 197.694 188.771 196.023V196.024Z" fill="#E6E6E6"/>
</g>
<path d="M204.514 234.154C220.388 234.154 233.256 221.284 233.256 205.407C233.256 189.531 220.388 176.66 204.514 176.66C188.64 176.66 175.772 189.531 175.772 205.407C175.772 221.284 188.64 234.154 204.514 234.154Z" fill="#E6E6E6"/>
<g opacity="0.37">
<path d="M183.273 186.59C183.273 186.59 183.525 190.736 186.371 189.493C189.217 188.25 193.051 186.902 192.636 191.462C192.222 196.023 194.503 196.644 197.715 195.506C200.927 194.367 199.372 194.055 199.581 189.907C199.788 185.761 194.4 185.554 195.229 182.651C196.057 179.749 202.533 183.21 200.281 176.97C200.281 176.97 188.94 177.908 183.275 186.59H183.273Z" fill="#A5A5A5"/>
</g>
<g opacity="0.37">
<path d="M207.199 197.395C206.597 197.404 205.996 197.518 205.452 197.777C204.317 198.319 202.948 199.625 203.725 202.745C204.968 207.738 207.041 204.028 209.737 204.638C212.432 205.248 218.546 205.872 215.541 211.365C212.536 216.859 215.955 218 218.858 216.652C221.76 215.304 219.791 209.915 222.796 212.299C225.801 214.682 222.348 222.197 229.671 219.321C229.671 219.321 238.101 206.556 229.671 191.495C229.671 191.495 225.85 184.183 222.844 186.774C219.839 189.365 223.974 189.513 224.39 192.488C224.804 195.464 223.053 199.095 220.654 195.754C218.256 192.414 219.065 192.709 215.229 192.293C212.166 191.961 210.03 192.329 209.98 194.932C209.954 196.285 208.856 197.372 207.506 197.392L207.199 197.397V197.395Z" fill="#A5A5A5"/>
</g>
<g opacity="0.37">
<path d="M206.441 181.201C206.441 181.201 203.458 180.372 203.499 183.999C203.541 187.628 205.51 187.417 207.686 186.486C209.862 185.554 207.998 188.56 212.143 187.731C216.288 186.902 216.6 185.93 215.667 184.498C214.734 183.066 213.179 177.572 206.443 181.201H206.441Z" fill="#A5A5A5"/>
</g>
<g opacity="0.37">
<path d="M175.772 205.407C175.772 205.407 179.279 199.673 183.108 203.549C186.936 207.425 179.403 206.803 183.273 210.535C187.144 214.266 189.835 205.596 192.013 208.895C194.191 212.194 198.459 214.434 193.457 217.337C188.453 220.239 191.446 224.271 193.752 223.415C196.057 222.56 200.153 228.399 193.752 232.009C193.752 232.009 174.971 225.156 175.772 205.407Z" fill="#A5A5A5"/>
</g>
<g opacity="0.37">
<path d="M205.823 211.987C205.823 211.987 201.885 211.987 201.874 215.719C201.862 219.45 209.229 215.922 207.514 219.967C205.798 224.012 209.828 225.101 212.064 223.416C214.298 221.731 210.443 216.66 210.816 213.079C211.188 209.499 206.261 210.328 205.823 211.987Z" fill="#A5A5A5"/>
</g>
<g opacity="0.37">
<path d="M204.514 234.154C204.514 234.154 201.973 231.474 207.514 230.852C213.053 230.231 213.176 227.328 214.981 226.085C216.786 224.841 220.606 229.231 220.606 229.231C220.606 229.231 213.512 235.592 204.516 234.154H204.514Z" fill="#A5A5A5"/>
</g>
<path d="M242.287 224.355C242.287 222.713 240.956 221.38 239.312 221.38C239.15 221.38 238.991 221.396 238.835 221.421C238.159 220.165 236.831 219.309 235.303 219.309C235.253 219.309 235.205 219.314 235.155 219.316C235.248 218.946 235.303 218.56 235.303 218.162C235.303 215.533 233.171 213.403 230.544 213.403C227.917 213.403 225.786 215.535 225.786 218.162C225.786 218.56 225.84 218.946 225.933 219.316C225.883 219.314 225.835 219.309 225.786 219.309C223.571 219.309 221.776 221.105 221.776 223.319C221.776 225.534 223.571 227.33 225.786 227.33H239.7L239.697 227.301C241.157 227.112 242.286 225.866 242.286 224.354L242.287 224.355Z" fill="#A5A5A5"/>
<path d="M202.709 204.263C202.709 204.263 202.694 204.263 202.687 204.263L202.356 204.242C202.173 204.23 202.034 204.073 202.046 203.891C202.057 203.708 202.215 203.571 202.397 203.581L202.729 203.602C202.911 203.614 203.05 203.771 203.039 203.953C203.027 204.129 202.881 204.263 202.709 204.263ZM204.341 204.207C204.202 204.207 204.073 204.119 204.027 203.98C203.969 203.806 204.063 203.619 204.237 203.561L204.552 203.456C204.726 203.398 204.913 203.493 204.971 203.667C205.029 203.841 204.935 204.028 204.761 204.086L204.446 204.191C204.411 204.202 204.376 204.207 204.341 204.207ZM200.723 204.136C200.723 204.136 200.708 204.136 200.702 204.136L200.37 204.114C200.188 204.103 200.049 203.945 200.06 203.763C200.072 203.581 200.229 203.443 200.412 203.453L200.743 203.474C200.925 203.486 201.065 203.643 201.053 203.826C201.041 204.002 200.896 204.136 200.723 204.136ZM198.738 204.008C198.738 204.008 198.723 204.008 198.716 204.008L198.385 203.987C198.202 203.975 198.063 203.818 198.075 203.635C198.086 203.453 198.249 203.315 198.426 203.325L198.757 203.347C198.94 203.358 199.079 203.516 199.067 203.698C199.056 203.874 198.91 204.008 198.738 204.008ZM196.752 203.881C196.752 203.881 196.737 203.881 196.73 203.881L196.399 203.859C196.217 203.847 196.077 203.69 196.089 203.508C196.101 203.325 196.261 203.188 196.44 203.198L196.772 203.219C196.954 203.231 197.093 203.388 197.082 203.571C197.07 203.746 196.924 203.881 196.752 203.881ZM194.766 203.753C194.766 203.753 194.751 203.753 194.745 203.753L194.413 203.731C194.231 203.72 194.092 203.562 194.103 203.38C194.115 203.198 194.272 203.06 194.455 203.07L194.786 203.091C194.969 203.103 195.108 203.261 195.096 203.443C195.085 203.619 194.939 203.753 194.766 203.753ZM192.781 203.625C192.781 203.625 192.766 203.625 192.759 203.625L192.428 203.604C192.245 203.592 192.106 203.435 192.118 203.252C192.129 203.07 192.285 202.932 192.469 202.942L192.801 202.964C192.983 202.975 193.122 203.133 193.11 203.315C193.099 203.491 192.953 203.625 192.781 203.625ZM206.228 203.582C206.088 203.582 205.959 203.494 205.913 203.355C205.855 203.181 205.949 202.994 206.123 202.936L206.438 202.831C206.612 202.773 206.799 202.868 206.857 203.042C206.915 203.216 206.821 203.403 206.647 203.461L206.332 203.566C206.297 203.577 206.262 203.582 206.228 203.582ZM190.797 203.498C190.797 203.498 190.782 203.498 190.775 203.498L190.444 203.476C190.261 203.464 190.122 203.307 190.134 203.125C190.145 202.942 190.301 202.805 190.485 202.815L190.817 202.836C190.999 202.848 191.138 203.005 191.127 203.188C191.115 203.363 190.969 203.498 190.797 203.498ZM188.811 203.37C188.811 203.37 188.796 203.37 188.789 203.37L188.458 203.348C188.276 203.337 188.136 203.179 188.148 202.997C188.16 202.815 188.315 202.677 188.499 202.687L188.831 202.709C189.013 202.72 189.152 202.878 189.141 203.06C189.129 203.236 188.983 203.37 188.811 203.37ZM186.827 203.242C186.827 203.242 186.812 203.242 186.806 203.242L186.474 203.221C186.292 203.209 186.152 203.052 186.164 202.869C186.176 202.687 186.331 202.549 186.515 202.559L186.847 202.581C187.029 202.592 187.169 202.75 187.157 202.932C187.145 203.108 186.999 203.242 186.827 203.242ZM184.841 203.115C184.841 203.115 184.827 203.115 184.82 203.115L184.488 203.093C184.306 203.082 184.167 202.924 184.178 202.742C184.19 202.559 184.346 202.422 184.53 202.432L184.861 202.453C185.044 202.465 185.183 202.622 185.171 202.805C185.16 202.98 185.014 203.115 184.841 203.115ZM182.856 202.987C182.856 202.987 182.841 202.987 182.834 202.987L182.503 202.965C182.32 202.954 182.181 202.796 182.193 202.614C182.204 202.432 182.359 202.294 182.544 202.304L182.876 202.326C183.058 202.337 183.197 202.495 183.186 202.677C183.174 202.853 183.028 202.987 182.856 202.987ZM208.115 202.957C207.976 202.957 207.847 202.869 207.801 202.73C207.743 202.556 207.837 202.369 208.011 202.311L208.326 202.206C208.5 202.148 208.687 202.243 208.745 202.417C208.803 202.591 208.709 202.778 208.535 202.836L208.22 202.941C208.185 202.952 208.15 202.957 208.115 202.957ZM210.005 202.334C209.866 202.334 209.736 202.246 209.69 202.107C209.632 201.933 209.727 201.745 209.901 201.687L210.215 201.583C210.389 201.525 210.577 201.619 210.635 201.793C210.693 201.968 210.598 202.155 210.424 202.213L210.109 202.317C210.075 202.329 210.04 202.334 210.005 202.334ZM183.52 201.732C183.448 201.732 183.373 201.707 183.312 201.659C183.169 201.545 183.148 201.336 183.262 201.193L183.471 200.935C183.585 200.792 183.794 200.771 183.936 200.885C184.079 200.999 184.101 201.208 183.986 201.351L183.777 201.609C183.713 201.691 183.617 201.732 183.519 201.732H183.52ZM211.894 201.712C211.755 201.712 211.626 201.624 211.58 201.483C211.522 201.309 211.616 201.122 211.79 201.066L212.105 200.961C212.279 200.903 212.466 200.998 212.524 201.172C212.582 201.346 212.488 201.533 212.314 201.59L211.999 201.694C211.964 201.706 211.929 201.711 211.894 201.711V201.712ZM213.784 201.089C213.645 201.089 213.515 201.001 213.469 200.862C213.411 200.688 213.506 200.5 213.68 200.442L213.994 200.338C214.169 200.28 214.356 200.374 214.414 200.548C214.472 200.723 214.377 200.91 214.203 200.968L213.888 201.072C213.854 201.084 213.819 201.089 213.784 201.089ZM215.673 200.466C215.534 200.466 215.405 200.378 215.359 200.238C215.301 200.064 215.395 199.877 215.569 199.819L215.884 199.715C216.058 199.657 216.245 199.751 216.303 199.925C216.361 200.099 216.267 200.287 216.093 200.345L215.778 200.449C215.743 200.461 215.708 200.466 215.673 200.466ZM184.772 200.184C184.699 200.184 184.626 200.159 184.565 200.111C184.422 199.996 184.401 199.788 184.515 199.645L184.724 199.386C184.84 199.244 185.047 199.222 185.189 199.337C185.332 199.451 185.354 199.66 185.239 199.802L185.03 200.061C184.964 200.142 184.87 200.184 184.772 200.184ZM217.563 199.844C217.424 199.844 217.294 199.756 217.248 199.617C217.19 199.443 217.285 199.255 217.459 199.197L217.773 199.093C217.948 199.035 218.135 199.129 218.193 199.303C218.251 199.478 218.156 199.665 217.982 199.723L217.667 199.827C217.633 199.839 217.598 199.844 217.563 199.844ZM219.452 199.221C219.313 199.221 219.184 199.133 219.138 198.993C219.08 198.819 219.174 198.632 219.348 198.574L219.663 198.47C219.837 198.412 220.024 198.506 220.082 198.68C220.14 198.854 220.046 199.042 219.872 199.1L219.557 199.204C219.522 199.216 219.487 199.221 219.452 199.221ZM186.022 198.635C185.949 198.635 185.874 198.611 185.813 198.562C185.67 198.448 185.649 198.239 185.763 198.097L185.972 197.838C186.088 197.695 186.295 197.674 186.438 197.788C186.58 197.903 186.602 198.112 186.487 198.254L186.278 198.513C186.212 198.594 186.118 198.635 186.02 198.635H186.022ZM221.342 198.597C221.203 198.597 221.073 198.509 221.027 198.369C220.969 198.194 221.064 198.007 221.238 197.951L221.552 197.846C221.727 197.788 221.914 197.883 221.972 198.057C222.03 198.231 221.935 198.418 221.761 198.475L221.446 198.579C221.412 198.591 221.377 198.596 221.342 198.596V198.597ZM223.231 197.974C223.092 197.974 222.963 197.886 222.917 197.745C222.859 197.571 222.953 197.384 223.127 197.327L223.442 197.223C223.616 197.165 223.803 197.259 223.861 197.434C223.919 197.608 223.825 197.795 223.651 197.853L223.336 197.956C223.301 197.967 223.266 197.972 223.231 197.972V197.974ZM225.121 197.351C224.982 197.351 224.852 197.263 224.806 197.122C224.748 196.948 224.843 196.761 225.017 196.704L225.331 196.6C225.506 196.542 225.693 196.638 225.751 196.81C225.809 196.984 225.714 197.172 225.54 197.228L225.225 197.332C225.191 197.344 225.156 197.349 225.121 197.349V197.351ZM187.273 197.085C187.2 197.085 187.125 197.061 187.064 197.012C186.922 196.898 186.9 196.689 187.014 196.547L187.223 196.288C187.339 196.145 187.546 196.124 187.689 196.238C187.831 196.353 187.853 196.562 187.739 196.704L187.53 196.963C187.464 197.044 187.369 197.085 187.271 197.085H187.273ZM224.453 196.693C224.415 196.693 224.377 196.686 224.34 196.673L224.029 196.56C223.856 196.497 223.767 196.308 223.83 196.136C223.893 195.963 224.082 195.874 224.254 195.937L224.566 196.049C224.738 196.112 224.828 196.301 224.765 196.474C224.717 196.608 224.589 196.693 224.453 196.693ZM222.582 196.018C222.544 196.018 222.507 196.011 222.469 195.998L222.157 195.885C221.985 195.824 221.896 195.633 221.959 195.461C222.022 195.288 222.21 195.199 222.383 195.262L222.694 195.375C222.867 195.436 222.956 195.627 222.893 195.799C222.845 195.933 222.718 196.018 222.582 196.018ZM188.521 195.539C188.448 195.539 188.375 195.514 188.314 195.466C188.171 195.351 188.15 195.143 188.264 195L188.473 194.741C188.589 194.599 188.796 194.577 188.939 194.692C189.081 194.806 189.103 195.015 188.988 195.157L188.78 195.416C188.713 195.497 188.619 195.539 188.521 195.539ZM220.71 195.343C220.672 195.343 220.636 195.336 220.598 195.323L220.286 195.211C220.114 195.149 220.024 194.959 220.087 194.786C220.149 194.614 220.339 194.524 220.512 194.587L220.823 194.7C220.996 194.761 221.085 194.952 221.022 195.124C220.974 195.259 220.846 195.343 220.71 195.343ZM218.839 194.668C218.801 194.668 218.763 194.662 218.727 194.649L218.415 194.536C218.243 194.473 218.153 194.284 218.216 194.111C218.279 193.939 218.468 193.849 218.64 193.912L218.952 194.025C219.124 194.088 219.214 194.277 219.151 194.45C219.103 194.584 218.975 194.668 218.839 194.668ZM216.968 193.994C216.93 193.994 216.893 193.987 216.855 193.974L216.544 193.861C216.371 193.8 216.282 193.609 216.345 193.437C216.408 193.264 216.597 193.175 216.769 193.238L217.081 193.351C217.253 193.412 217.343 193.602 217.28 193.775C217.231 193.911 217.104 193.994 216.968 193.994ZM189.771 193.99C189.698 193.99 189.623 193.966 189.562 193.917C189.419 193.803 189.398 193.594 189.512 193.452L189.721 193.193C189.835 193.05 190.044 193.029 190.187 193.143C190.329 193.258 190.351 193.467 190.236 193.609L190.028 193.868C189.963 193.949 189.867 193.99 189.769 193.99H189.771ZM215.098 193.319C215.06 193.319 215.024 193.312 214.986 193.299L214.674 193.186C214.502 193.125 214.412 192.934 214.475 192.762C214.538 192.59 214.727 192.5 214.899 192.563L215.211 192.676C215.383 192.737 215.473 192.928 215.41 193.1C215.362 193.234 215.234 193.319 215.098 193.319ZM213.227 192.644C213.189 192.644 213.152 192.638 213.114 192.624L212.803 192.512C212.63 192.45 212.541 192.26 212.604 192.087C212.667 191.915 212.856 191.825 213.028 191.888L213.34 192.001C213.512 192.062 213.602 192.253 213.539 192.425C213.491 192.56 213.363 192.644 213.227 192.644ZM191.02 192.444C190.948 192.444 190.873 192.419 190.812 192.371C190.669 192.256 190.648 192.048 190.762 191.905L190.971 191.646C191.085 191.504 191.296 191.482 191.436 191.597C191.579 191.711 191.601 191.92 191.486 192.062L191.277 192.321C191.213 192.402 191.117 192.444 191.019 192.444H191.02ZM211.356 191.97C211.318 191.97 211.28 191.963 211.243 191.95L210.931 191.837C210.759 191.774 210.67 191.585 210.733 191.413C210.794 191.24 210.985 191.151 211.157 191.214L211.469 191.326C211.641 191.389 211.73 191.578 211.667 191.751C211.619 191.885 211.492 191.97 211.356 191.97ZM209.485 191.295C209.446 191.295 209.41 191.288 209.372 191.275L209.06 191.162C208.888 191.101 208.798 190.91 208.861 190.738C208.924 190.565 209.113 190.476 209.286 190.539L209.597 190.652C209.77 190.713 209.859 190.904 209.796 191.076C209.748 191.21 209.62 191.295 209.485 191.295ZM192.27 190.897C192.197 190.897 192.124 190.872 192.063 190.824C191.92 190.71 191.899 190.501 192.013 190.358L192.222 190.1C192.338 189.957 192.545 189.936 192.688 190.05C192.83 190.164 192.852 190.373 192.738 190.516L192.529 190.774C192.462 190.856 192.368 190.897 192.27 190.897ZM207.613 190.62C207.575 190.62 207.539 190.614 207.501 190.6L207.189 190.488C207.017 190.426 206.927 190.236 206.99 190.063C207.053 189.891 207.242 189.801 207.414 189.864L207.726 189.977C207.898 190.038 207.988 190.229 207.925 190.401C207.877 190.536 207.749 190.62 207.613 190.62ZM205.742 189.945C205.704 189.945 205.667 189.939 205.629 189.926L205.318 189.813C205.145 189.752 205.056 189.561 205.119 189.388C205.182 189.216 205.371 189.127 205.543 189.19L205.855 189.302C206.027 189.364 206.117 189.554 206.054 189.727C206.006 189.861 205.878 189.945 205.742 189.945ZM193.518 189.349C193.445 189.349 193.371 189.324 193.309 189.276C193.167 189.161 193.145 188.952 193.26 188.81L193.469 188.551C193.583 188.409 193.793 188.387 193.934 188.502C194.077 188.616 194.098 188.825 193.984 188.967L193.775 189.226C193.71 189.307 193.614 189.349 193.517 189.349H193.518ZM203.871 189.271C203.833 189.271 203.796 189.264 203.758 189.251L203.446 189.138C203.274 189.077 203.185 188.886 203.248 188.714C203.31 188.541 203.499 188.452 203.672 188.515L203.983 188.628C204.156 188.689 204.245 188.88 204.182 189.052C204.134 189.186 204.007 189.271 203.871 189.271ZM201.999 188.596C201.961 188.596 201.923 188.589 201.887 188.576L201.575 188.463C201.403 188.4 201.313 188.211 201.376 188.039C201.439 187.867 201.628 187.777 201.801 187.84L202.112 187.953C202.285 188.016 202.374 188.205 202.311 188.377C202.263 188.512 202.135 188.596 201.999 188.596ZM200.128 187.921C200.09 187.921 200.054 187.915 200.015 187.901L199.704 187.789C199.531 187.727 199.442 187.537 199.505 187.364C199.568 187.192 199.757 187.102 199.929 187.165L200.241 187.278C200.413 187.339 200.503 187.53 200.44 187.703C200.392 187.837 200.264 187.921 200.128 187.921ZM194.768 187.802C194.695 187.802 194.622 187.777 194.561 187.729C194.418 187.615 194.397 187.406 194.511 187.263L194.72 187.005C194.834 186.862 195.043 186.841 195.186 186.955C195.328 187.069 195.35 187.278 195.235 187.421L195.027 187.679C194.96 187.761 194.866 187.802 194.768 187.802ZM198.259 187.247C198.22 187.247 198.184 187.24 198.146 187.227L197.834 187.114C197.662 187.053 197.572 186.862 197.635 186.69C197.698 186.517 197.887 186.428 198.06 186.491L198.371 186.603C198.544 186.665 198.633 186.855 198.57 187.028C198.522 187.162 198.394 187.247 198.259 187.247ZM196.387 186.572C196.349 186.572 196.313 186.565 196.275 186.552L195.963 186.439C195.791 186.378 195.701 186.187 195.764 186.015C195.827 185.843 196.016 185.753 196.188 185.816L196.5 185.929C196.672 185.99 196.762 186.181 196.699 186.353C196.651 186.487 196.523 186.572 196.387 186.572Z" fill="#24285B"/>
<path d="M214.344 227.134C214.319 227.134 214.293 227.131 214.266 227.124L213.943 227.048C213.766 227.005 213.655 226.826 213.698 226.648C213.741 226.471 213.92 226.361 214.097 226.403L214.42 226.479C214.599 226.522 214.709 226.701 214.666 226.879C214.629 227.031 214.493 227.134 214.344 227.134ZM212.41 226.671C212.385 226.671 212.359 226.668 212.332 226.661L212.009 226.585C211.832 226.542 211.72 226.363 211.764 226.186C211.807 226.008 211.986 225.899 212.163 225.94L212.486 226.017C212.664 226.06 212.775 226.239 212.732 226.416C212.695 226.569 212.559 226.671 212.41 226.671ZM210.476 226.209C210.451 226.209 210.424 226.206 210.398 226.199L210.075 226.123C209.897 226.08 209.786 225.9 209.829 225.723C209.872 225.546 210.051 225.436 210.229 225.478L210.552 225.554C210.729 225.597 210.84 225.776 210.797 225.954C210.761 226.106 210.625 226.209 210.476 226.209ZM208.541 225.746C208.517 225.746 208.49 225.743 208.464 225.736L208.14 225.66C207.963 225.617 207.852 225.438 207.895 225.261C207.938 225.083 208.117 224.972 208.294 225.015L208.618 225.092C208.795 225.135 208.906 225.314 208.863 225.491C208.827 225.644 208.691 225.746 208.541 225.746ZM214.987 225.69C214.949 225.69 214.909 225.683 214.87 225.668C214.699 225.604 214.611 225.413 214.676 225.241L214.793 224.931C214.858 224.76 215.049 224.672 215.221 224.737C215.392 224.801 215.48 224.992 215.415 225.164L215.297 225.474C215.248 225.607 215.122 225.69 214.987 225.69ZM206.607 225.284C206.582 225.284 206.556 225.28 206.529 225.274L206.206 225.198C206.029 225.155 205.918 224.975 205.961 224.798C206.004 224.621 206.183 224.511 206.36 224.553L206.683 224.629C206.861 224.672 206.972 224.851 206.929 225.029C206.892 225.181 206.756 225.284 206.607 225.284ZM204.673 224.821C204.648 224.821 204.622 224.818 204.595 224.811L204.272 224.735C204.094 224.692 203.983 224.513 204.027 224.336C204.07 224.158 204.249 224.047 204.426 224.09L204.749 224.166C204.927 224.21 205.038 224.389 204.994 224.566C204.958 224.719 204.822 224.821 204.673 224.821ZM202.739 224.359C202.714 224.359 202.687 224.355 202.661 224.349L202.338 224.273C202.16 224.229 202.049 224.05 202.092 223.873C202.135 223.696 202.314 223.586 202.492 223.628L202.815 223.704C202.992 223.747 203.103 223.926 203.06 224.103C203.024 224.256 202.888 224.359 202.739 224.359ZM200.804 223.896C200.78 223.896 200.753 223.893 200.727 223.886L200.403 223.81C200.226 223.767 200.115 223.588 200.158 223.411C200.201 223.232 200.382 223.124 200.557 223.165L200.881 223.241C201.06 223.285 201.169 223.464 201.126 223.641C201.09 223.793 200.954 223.896 200.804 223.896ZM215.688 223.827C215.65 223.827 215.611 223.82 215.571 223.805C215.4 223.74 215.312 223.55 215.377 223.377L215.494 223.067C215.559 222.897 215.75 222.809 215.922 222.873C216.093 222.938 216.181 223.129 216.116 223.301L215.998 223.611C215.949 223.744 215.823 223.827 215.688 223.827ZM198.87 223.434C198.845 223.434 198.819 223.43 198.792 223.424L198.469 223.348C198.292 223.304 198.181 223.125 198.224 222.948C198.267 222.771 198.446 222.661 198.623 222.703L198.946 222.779C199.124 222.822 199.235 223.001 199.192 223.178C199.155 223.331 199.019 223.434 198.87 223.434ZM196.936 222.971C196.911 222.971 196.885 222.968 196.858 222.961L196.535 222.885C196.357 222.842 196.246 222.663 196.29 222.486C196.333 222.306 196.512 222.199 196.689 222.24L197.012 222.316C197.19 222.36 197.301 222.539 197.257 222.716C197.221 222.868 197.085 222.971 196.936 222.971ZM195.002 222.509C194.977 222.509 194.95 222.505 194.924 222.499L194.601 222.423C194.423 222.379 194.312 222.2 194.355 222.023C194.398 221.844 194.577 221.736 194.755 221.778L195.076 221.854C195.255 221.897 195.365 222.076 195.322 222.253C195.285 222.406 195.149 222.509 195 222.509H195.002ZM193.067 222.046C193.043 222.046 193.016 222.043 192.99 222.036L192.666 221.96C192.489 221.917 192.378 221.738 192.421 221.56C192.464 221.381 192.645 221.274 192.82 221.315L193.144 221.391C193.323 221.435 193.432 221.614 193.389 221.791C193.353 221.943 193.217 222.046 193.067 222.046ZM216.391 221.963C216.353 221.963 216.313 221.957 216.273 221.942C216.103 221.877 216.015 221.686 216.08 221.514L216.197 221.204C216.262 221.033 216.453 220.945 216.625 221.01C216.796 221.075 216.883 221.265 216.819 221.438L216.701 221.748C216.651 221.88 216.525 221.963 216.391 221.963ZM191.133 221.584C191.108 221.584 191.082 221.58 191.055 221.574L190.734 221.498C190.555 221.454 190.445 221.275 190.488 221.098C190.532 220.919 190.711 220.811 190.888 220.853L191.211 220.929C191.388 220.972 191.499 221.151 191.456 221.328C191.42 221.481 191.284 221.584 191.135 221.584H191.133ZM189.199 221.121C189.174 221.121 189.148 221.118 189.121 221.111L188.798 221.035C188.62 220.992 188.509 220.813 188.553 220.635C188.596 220.458 188.775 220.349 188.952 220.39L189.275 220.466C189.453 220.509 189.564 220.689 189.52 220.866C189.484 221.018 189.348 221.121 189.199 221.121ZM187.372 220.548C187.227 220.548 187.094 220.451 187.053 220.304L186.965 219.984C186.917 219.808 187.019 219.624 187.197 219.576C187.374 219.528 187.556 219.631 187.604 219.808L187.692 220.128C187.74 220.304 187.638 220.488 187.46 220.536C187.43 220.544 187.401 220.548 187.372 220.548ZM217.092 220.1C217.054 220.1 217.014 220.093 216.975 220.078C216.804 220.014 216.716 219.823 216.781 219.651L216.898 219.341C216.963 219.17 217.154 219.082 217.326 219.147C217.497 219.211 217.585 219.402 217.52 219.575L217.402 219.885C217.353 220.017 217.227 220.1 217.092 220.1ZM186.844 218.63C186.698 218.63 186.565 218.533 186.524 218.386L186.436 218.066C186.388 217.89 186.491 217.706 186.668 217.658C186.845 217.61 187.028 217.713 187.076 217.89L187.164 218.21C187.212 218.386 187.109 218.57 186.932 218.618C186.902 218.626 186.872 218.63 186.844 218.63ZM217.793 218.238C217.755 218.238 217.715 218.232 217.677 218.217C217.507 218.152 217.419 217.962 217.483 217.789L217.599 217.479C217.664 217.308 217.855 217.22 218.027 217.285C218.198 217.35 218.286 217.54 218.221 217.713L218.105 218.023C218.055 218.155 217.929 218.238 217.795 218.238H217.793ZM186.317 216.712C186.171 216.712 186.038 216.615 185.997 216.468L185.909 216.148C185.861 215.972 185.964 215.788 186.141 215.74C186.318 215.692 186.501 215.795 186.549 215.972L186.636 216.292C186.685 216.468 186.582 216.652 186.404 216.7C186.375 216.708 186.345 216.712 186.317 216.712ZM218.494 216.377C218.456 216.377 218.417 216.37 218.378 216.355C218.208 216.29 218.12 216.1 218.185 215.927L218.301 215.617C218.365 215.447 218.556 215.36 218.728 215.423C218.899 215.488 218.987 215.679 218.922 215.851L218.806 216.161C218.756 216.294 218.63 216.377 218.496 216.377H218.494ZM185.79 214.794C185.644 214.794 185.511 214.697 185.47 214.55L185.382 214.23C185.334 214.054 185.436 213.87 185.614 213.822C185.791 213.774 185.973 213.877 186.022 214.054L186.109 214.374C186.157 214.55 186.055 214.734 185.877 214.782C185.848 214.79 185.818 214.794 185.79 214.794ZM219.196 214.515C219.157 214.515 219.118 214.508 219.078 214.493C218.907 214.429 218.819 214.238 218.884 214.066L219.002 213.756C219.066 213.585 219.257 213.497 219.429 213.562C219.6 213.626 219.688 213.817 219.623 213.99L219.506 214.3C219.456 214.432 219.33 214.515 219.196 214.515ZM185.261 212.876C185.115 212.876 184.982 212.779 184.941 212.632L184.853 212.312C184.805 212.136 184.908 211.952 185.085 211.904C185.262 211.856 185.445 211.959 185.493 212.136L185.581 212.456C185.629 212.632 185.526 212.816 185.349 212.864C185.319 212.872 185.289 212.876 185.261 212.876ZM219.897 212.653C219.859 212.653 219.819 212.647 219.779 212.632C219.608 212.567 219.52 212.377 219.585 212.204L219.703 211.894C219.767 211.723 219.958 211.636 220.13 211.7C220.301 211.765 220.389 211.955 220.324 212.128L220.207 212.438C220.157 212.571 220.031 212.653 219.897 212.653ZM184.734 210.958C184.588 210.958 184.455 210.861 184.414 210.714L184.326 210.394C184.278 210.218 184.381 210.034 184.558 209.986C184.735 209.938 184.918 210.041 184.966 210.218L185.054 210.538C185.102 210.714 184.999 210.898 184.822 210.946C184.792 210.954 184.762 210.958 184.734 210.958ZM220.598 210.792C220.56 210.792 220.52 210.785 220.48 210.77C220.309 210.706 220.222 210.515 220.286 210.342L220.404 210.032C220.469 209.862 220.659 209.774 220.832 209.839C221.002 209.903 221.09 210.094 221.025 210.266L220.908 210.576C220.858 210.709 220.732 210.792 220.598 210.792ZM184.207 209.039C184.061 209.039 183.928 208.943 183.887 208.796L183.799 208.476C183.751 208.3 183.854 208.116 184.031 208.068C184.208 208.02 184.391 208.123 184.439 208.3L184.527 208.62C184.575 208.796 184.472 208.98 184.294 209.028C184.265 209.036 184.235 209.039 184.207 209.039ZM221.299 208.93C221.261 208.93 221.221 208.923 221.181 208.909C221.011 208.844 220.923 208.653 220.987 208.481L221.105 208.171C221.17 208 221.36 207.912 221.533 207.977C221.703 208.042 221.791 208.232 221.727 208.405L221.609 208.715C221.559 208.847 221.433 208.93 221.299 208.93ZM183.678 207.121C183.532 207.121 183.399 207.025 183.358 206.878L183.27 206.558C183.222 206.382 183.325 206.198 183.502 206.15C183.68 206.102 183.862 206.205 183.91 206.382L183.998 206.702C184.046 206.878 183.943 207.062 183.766 207.11C183.736 207.118 183.706 207.121 183.678 207.121ZM222 207.068C221.962 207.068 221.922 207.062 221.882 207.047C221.712 206.982 221.624 206.792 221.688 206.619L221.806 206.309C221.871 206.138 222.061 206.051 222.234 206.115C222.404 206.18 222.492 206.37 222.428 206.543L222.31 206.853C222.26 206.986 222.134 207.068 222 207.068ZM222.701 205.207C222.663 205.207 222.623 205.2 222.585 205.185C222.414 205.121 222.327 204.93 222.391 204.758L222.507 204.448C222.572 204.277 222.762 204.189 222.935 204.254C223.106 204.318 223.193 204.509 223.129 204.681L223.013 204.991C222.963 205.124 222.837 205.207 222.703 205.207H222.701ZM183.151 205.203C183.005 205.203 182.872 205.107 182.831 204.96L182.743 204.64C182.695 204.464 182.798 204.28 182.975 204.232C183.153 204.184 183.335 204.287 183.383 204.464L183.471 204.784C183.519 204.96 183.416 205.144 183.239 205.192C183.209 205.2 183.179 205.203 183.151 205.203ZM223.402 203.345C223.364 203.345 223.324 203.338 223.286 203.324C223.115 203.259 223.028 203.068 223.092 202.896L223.208 202.586C223.273 202.415 223.464 202.329 223.636 202.392C223.807 202.457 223.894 202.647 223.83 202.82L223.714 203.13C223.664 203.262 223.538 203.345 223.404 203.345H223.402ZM182.624 203.285C182.478 203.285 182.345 203.189 182.304 203.042L182.216 202.722C182.168 202.546 182.271 202.362 182.448 202.314C182.624 202.266 182.808 202.369 182.856 202.546L182.944 202.866C182.992 203.042 182.889 203.226 182.712 203.274C182.682 203.282 182.652 203.285 182.624 203.285ZM224.103 201.483C224.065 201.483 224.025 201.477 223.986 201.462C223.815 201.397 223.727 201.207 223.792 201.034L223.909 200.724C223.974 200.553 224.165 200.466 224.337 200.53C224.508 200.595 224.596 200.786 224.531 200.958L224.413 201.268C224.364 201.401 224.238 201.483 224.103 201.483ZM224.804 199.622C224.766 199.622 224.727 199.615 224.687 199.6C224.516 199.536 224.428 199.345 224.493 199.173L224.611 198.863C224.675 198.692 224.866 198.604 225.038 198.669C225.209 198.733 225.297 198.924 225.232 199.096L225.114 199.406C225.065 199.539 224.939 199.622 224.804 199.622ZM225.506 197.76C225.467 197.76 225.428 197.753 225.388 197.739C225.217 197.674 225.129 197.483 225.194 197.311L225.312 197.001C225.376 196.83 225.567 196.742 225.739 196.807C225.91 196.872 225.998 197.062 225.933 197.235L225.815 197.545C225.766 197.677 225.64 197.76 225.506 197.76Z" fill="#24285B"/>
<path d="M214.364 227.01C214.241 227.01 214.122 226.94 214.066 226.822L213.921 226.524C213.842 226.358 213.912 226.161 214.076 226.081C214.24 226.002 214.439 226.071 214.518 226.237L214.662 226.535C214.742 226.701 214.672 226.898 214.508 226.978C214.462 227 214.412 227.011 214.364 227.011V227.01ZM213.502 225.218C213.379 225.218 213.26 225.148 213.204 225.03L213.06 224.732C212.98 224.566 213.05 224.369 213.215 224.289C213.379 224.21 213.578 224.279 213.658 224.445L213.802 224.743C213.882 224.909 213.812 225.106 213.646 225.186C213.6 225.208 213.55 225.219 213.502 225.219V225.218ZM212.64 223.425C212.518 223.425 212.398 223.356 212.342 223.238L212.198 222.94C212.118 222.774 212.188 222.577 212.352 222.497C212.516 222.418 212.715 222.487 212.794 222.653L212.939 222.951C213.018 223.117 212.949 223.314 212.784 223.394C212.738 223.416 212.688 223.427 212.64 223.427V223.425ZM211.778 221.633C211.656 221.633 211.536 221.564 211.48 221.446L211.336 221.148C211.256 220.982 211.326 220.785 211.49 220.705C211.656 220.626 211.853 220.695 211.933 220.861L212.077 221.159C212.156 221.325 212.087 221.522 211.923 221.602C211.876 221.624 211.826 221.635 211.778 221.635V221.633ZM187.409 220.702C187.324 220.702 187.241 220.67 187.177 220.607C187.046 220.48 187.044 220.269 187.172 220.138L187.404 219.901C187.531 219.77 187.742 219.768 187.873 219.896C188.004 220.024 188.005 220.234 187.878 220.365L187.646 220.602C187.581 220.669 187.495 220.702 187.409 220.702ZM210.917 219.841C210.794 219.841 210.675 219.772 210.618 219.654L210.474 219.356C210.394 219.19 210.464 218.993 210.63 218.913C210.796 218.834 210.993 218.903 211.072 219.069L211.217 219.367C211.296 219.533 211.226 219.73 211.061 219.81C211.014 219.831 210.966 219.843 210.917 219.843V219.841ZM188.803 219.283C188.718 219.283 188.635 219.251 188.571 219.188C188.44 219.061 188.438 218.85 188.566 218.719L188.798 218.482C188.925 218.351 189.136 218.349 189.267 218.477C189.398 218.605 189.399 218.815 189.272 218.946L189.04 219.183C188.975 219.25 188.889 219.283 188.803 219.283ZM210.055 218.049C209.932 218.049 209.813 217.98 209.756 217.862L209.612 217.564C209.533 217.398 209.602 217.201 209.766 217.121C209.93 217.041 210.129 217.111 210.209 217.277L210.353 217.575C210.433 217.741 210.363 217.938 210.199 218.018C210.152 218.039 210.103 218.051 210.055 218.051V218.049ZM190.197 217.864C190.112 217.864 190.029 217.832 189.965 217.769C189.834 217.642 189.832 217.431 189.96 217.3L190.192 217.063C190.319 216.932 190.53 216.93 190.661 217.058C190.792 217.186 190.793 217.396 190.666 217.527L190.434 217.764C190.369 217.831 190.283 217.864 190.197 217.864ZM191.591 216.445C191.506 216.445 191.423 216.413 191.359 216.35C191.228 216.223 191.226 216.012 191.354 215.881L191.586 215.644C191.713 215.513 191.924 215.511 192.055 215.639C192.186 215.767 192.187 215.977 192.06 216.108L191.828 216.345C191.763 216.412 191.677 216.445 191.591 216.445ZM209.194 216.257C209.072 216.257 208.952 216.188 208.896 216.07L208.752 215.772C208.672 215.606 208.742 215.409 208.906 215.329C209.072 215.249 209.269 215.319 209.349 215.485L209.493 215.783C209.572 215.949 209.503 216.146 209.339 216.226C209.292 216.247 209.242 216.259 209.194 216.259V216.257ZM192.984 215.024C192.9 215.024 192.817 214.992 192.752 214.929C192.621 214.802 192.62 214.591 192.747 214.46L192.979 214.223C193.107 214.092 193.318 214.091 193.449 214.218C193.579 214.346 193.581 214.556 193.454 214.687L193.221 214.925C193.157 214.991 193.071 215.024 192.984 215.024ZM208.333 214.464C208.21 214.464 208.091 214.394 208.034 214.276L207.89 213.978C207.81 213.812 207.88 213.615 208.044 213.535C208.21 213.456 208.407 213.525 208.487 213.691L208.631 213.99C208.71 214.155 208.641 214.353 208.477 214.432C208.43 214.454 208.381 214.465 208.333 214.465V214.464ZM194.378 213.603C194.294 213.603 194.211 213.572 194.146 213.509C194.015 213.381 194.014 213.171 194.141 213.04L194.373 212.803C194.501 212.672 194.712 212.67 194.842 212.798C194.973 212.925 194.975 213.136 194.847 213.267L194.615 213.504C194.551 213.57 194.465 213.603 194.378 213.603ZM207.471 212.67C207.348 212.67 207.229 212.6 207.172 212.483L207.028 212.184C206.949 212.018 207.018 211.821 207.182 211.742C207.348 211.662 207.545 211.732 207.625 211.897L207.769 212.196C207.849 212.362 207.779 212.559 207.615 212.638C207.568 212.66 207.519 212.672 207.471 212.672V212.67ZM195.772 212.183C195.688 212.183 195.605 212.151 195.54 212.088C195.409 211.96 195.408 211.75 195.535 211.619L195.767 211.382C195.895 211.251 196.105 211.249 196.236 211.377C196.367 211.505 196.369 211.715 196.241 211.846L196.009 212.083C195.945 212.149 195.859 212.183 195.772 212.183ZM206.609 210.876C206.486 210.876 206.367 210.807 206.31 210.689L206.166 210.391C206.087 210.225 206.156 210.028 206.322 209.948C206.486 209.868 206.685 209.938 206.765 210.104L206.909 210.402C206.988 210.568 206.919 210.765 206.753 210.845C206.707 210.866 206.659 210.878 206.609 210.878V210.876ZM197.166 210.762C197.082 210.762 196.999 210.73 196.934 210.667C196.803 210.54 196.802 210.329 196.929 210.198L197.161 209.961C197.289 209.83 197.499 209.829 197.63 209.956C197.761 210.084 197.763 210.294 197.635 210.425L197.403 210.662C197.339 210.729 197.252 210.762 197.166 210.762ZM198.56 209.343C198.476 209.343 198.393 209.311 198.328 209.248C198.197 209.121 198.196 208.91 198.323 208.779L198.555 208.542C198.683 208.411 198.893 208.41 199.024 208.537C199.155 208.665 199.157 208.875 199.029 209.006L198.797 209.243C198.733 209.31 198.646 209.343 198.56 209.343ZM205.749 209.083C205.626 209.083 205.507 209.013 205.45 208.895L205.306 208.597C205.226 208.431 205.296 208.234 205.46 208.154C205.626 208.075 205.823 208.144 205.903 208.31L206.047 208.608C206.126 208.774 206.057 208.972 205.893 209.051C205.846 209.073 205.797 209.084 205.749 209.084V209.083ZM199.954 207.922C199.87 207.922 199.787 207.891 199.722 207.828C199.591 207.7 199.589 207.489 199.717 207.359L199.949 207.121C200.077 206.991 200.287 206.989 200.418 207.117C200.549 207.244 200.551 207.455 200.423 207.586L200.191 207.823C200.126 207.889 200.04 207.922 199.954 207.922ZM204.887 207.289C204.764 207.289 204.645 207.219 204.588 207.102L204.444 206.803C204.365 206.637 204.434 206.44 204.598 206.361C204.764 206.281 204.961 206.351 205.041 206.516L205.185 206.815C205.265 206.981 205.195 207.178 205.031 207.257C204.984 207.279 204.935 207.291 204.887 207.291V207.289ZM201.348 206.501C201.263 206.501 201.181 206.47 201.116 206.407C200.985 206.279 200.983 206.069 201.111 205.938L201.343 205.701C201.471 205.57 201.681 205.568 201.812 205.696C201.943 205.823 201.945 206.034 201.817 206.165L201.585 206.402C201.52 206.468 201.434 206.501 201.348 206.501ZM204.025 205.495C203.902 205.495 203.783 205.426 203.726 205.308L203.582 205.009C203.503 204.844 203.572 204.646 203.736 204.567C203.9 204.487 204.099 204.557 204.179 204.723L204.323 205.021C204.403 205.187 204.333 205.384 204.169 205.464C204.123 205.485 204.073 205.497 204.025 205.497V205.495ZM202.742 205.081C202.657 205.081 202.575 205.049 202.51 204.986C202.379 204.859 202.377 204.648 202.505 204.517L202.737 204.28C202.865 204.149 203.075 204.147 203.206 204.275C203.337 204.403 203.339 204.613 203.211 204.744L202.979 204.981C202.914 205.048 202.828 205.081 202.742 205.081Z" fill="#24285B"/>
<path d="M225.726 200.069C227.516 200.069 228.966 198.618 228.966 196.828C228.966 195.039 227.516 193.588 225.726 193.588C223.936 193.588 222.486 195.039 222.486 196.828C222.486 198.618 223.936 200.069 225.726 200.069Z" fill="#005CA9"/>
<path d="M187.409 223.61C189.198 223.61 190.649 222.159 190.649 220.369C190.649 218.579 189.198 217.128 187.409 217.128C185.619 217.128 184.168 218.579 184.168 220.369C184.168 222.159 185.619 223.61 187.409 223.61Z" fill="#005CA9"/>
<path d="M203.463 204.343C203.334 204.343 203.211 204.267 203.158 204.141L203.029 203.836C202.957 203.667 203.037 203.473 203.206 203.401C203.375 203.33 203.569 203.41 203.64 203.579L203.77 203.884C203.841 204.053 203.761 204.247 203.592 204.318C203.551 204.336 203.506 204.345 203.463 204.345V204.343ZM202.691 202.51C202.561 202.51 202.439 202.433 202.386 202.307L202.256 202.002C202.185 201.833 202.265 201.639 202.434 201.568C202.603 201.497 202.797 201.576 202.868 201.745L202.997 202.05C203.068 202.219 202.989 202.413 202.82 202.485C202.778 202.503 202.734 202.511 202.691 202.511V202.51ZM201.918 200.676C201.789 200.676 201.666 200.6 201.613 200.474L201.484 200.169C201.413 200 201.492 199.806 201.661 199.734C201.83 199.663 202.024 199.743 202.096 199.912L202.225 200.217C202.296 200.386 202.217 200.58 202.047 200.651C202.006 200.669 201.961 200.678 201.918 200.678V200.676ZM201.146 198.843C201.017 198.843 200.894 198.766 200.841 198.64L200.712 198.335C200.64 198.166 200.72 197.972 200.889 197.901C201.058 197.83 201.252 197.909 201.323 198.078L201.452 198.383C201.524 198.553 201.444 198.746 201.275 198.818C201.234 198.836 201.189 198.844 201.146 198.844V198.843ZM200.373 197.009C200.244 197.009 200.121 196.933 200.068 196.807L199.939 196.502C199.868 196.333 199.947 196.139 200.117 196.068C200.286 195.996 200.479 196.076 200.551 196.245L200.68 196.55C200.751 196.719 200.672 196.913 200.503 196.984C200.461 197.003 200.417 197.011 200.373 197.011V197.009ZM199.601 195.176C199.472 195.176 199.349 195.099 199.296 194.973L199.167 194.668C199.096 194.499 199.175 194.305 199.344 194.234C199.513 194.163 199.707 194.242 199.778 194.411L199.908 194.716C199.979 194.886 199.899 195.08 199.73 195.151C199.689 195.169 199.644 195.177 199.601 195.177V195.176ZM198.829 193.342C198.699 193.342 198.577 193.266 198.524 193.14L198.394 192.835C198.323 192.666 198.403 192.472 198.572 192.401C198.741 192.329 198.935 192.409 199.006 192.578L199.135 192.883C199.207 193.052 199.127 193.246 198.958 193.317C198.917 193.336 198.872 193.344 198.829 193.344V193.342ZM198.056 191.509C197.927 191.509 197.804 191.432 197.751 191.306L197.622 191.001C197.551 190.832 197.63 190.638 197.799 190.567C197.968 190.496 198.162 190.575 198.234 190.744L198.363 191.05C198.434 191.219 198.355 191.413 198.186 191.484C198.144 191.502 198.099 191.51 198.056 191.51V191.509ZM197.284 189.675C197.155 189.675 197.032 189.599 196.979 189.473L196.85 189.168C196.778 188.999 196.858 188.805 197.027 188.734C197.196 188.662 197.39 188.742 197.461 188.911L197.591 189.216C197.662 189.385 197.582 189.579 197.413 189.65C197.372 189.669 197.327 189.677 197.284 189.677V189.675ZM196.512 187.842C196.382 187.842 196.26 187.766 196.207 187.64L196.077 187.334C196.006 187.165 196.086 186.971 196.255 186.9C196.422 186.829 196.618 186.908 196.689 187.078L196.818 187.383C196.889 187.552 196.81 187.746 196.641 187.817C196.599 187.835 196.555 187.843 196.512 187.843V187.842Z" fill="#24285B"/>
<path d="M214.434 229.475C215.898 229.475 217.086 228.288 217.086 226.823C217.086 225.359 215.898 224.171 214.434 224.171C212.969 224.171 211.782 225.359 211.782 226.823C211.782 228.288 212.969 229.475 214.434 229.475Z" fill="#005CA9"/>
<path d="M182.529 205.292C183.994 205.292 185.181 204.105 185.181 202.64C185.181 201.175 183.994 199.988 182.529 199.988C181.065 199.988 179.877 201.175 179.877 202.64C179.877 204.105 181.065 205.292 182.529 205.292Z" fill="#005CA9"/>
<path d="M203.463 207.748C205.526 207.748 207.199 206.075 207.199 204.011C207.199 201.948 205.526 200.275 203.463 200.275C201.4 200.275 199.727 201.948 199.727 204.011C199.727 206.075 201.4 207.748 203.463 207.748Z" fill="#FFD200"/>
<path d="M195.905 189.312C197.695 189.312 199.145 187.861 199.145 186.071C199.145 184.281 197.695 182.83 195.905 182.83C194.115 182.83 192.665 184.281 192.665 186.071C192.665 187.861 194.115 189.312 195.905 189.312Z" fill="#005CA9"/>
<g opacity="0.58">
<path d="M71.6436 218.728C71.6436 218.728 65.4322 217.029 64.0773 211.248C64.0773 211.248 73.703 209.3 73.9764 219.238L71.6394 218.728H71.6436Z" fill="#68E1FD"/>
</g>
<g opacity="0.73">
<path d="M72.4061 218.111C72.4061 218.111 68.0635 211.248 71.884 204.828C71.884 204.828 79.2016 209.478 75.953 218.123L72.4061 218.107V218.111Z" fill="#68E1FD"/>
</g>
<path d="M73.5248 218.115C73.5248 218.115 75.8204 210.866 82.7527 209.495C82.7527 209.495 84.0538 214.203 78.2651 218.136L73.5289 218.115H73.5248Z" fill="#68E1FD"/>
<path d="M69.0206 217.953L70.2762 226.569L78.2112 226.603L79.3797 217.995L69.0206 217.953Z" fill="#24285B"/>
<path d="M223.968 83.2814H164.167V116.785H223.968V83.2814Z" fill="#005CA9"/>
<path d="M197.925 92.3245H174.157V97.6905H197.925V92.3245Z" fill="white"/>
<g opacity="0.49">
<path d="M197.925 101.852H174.157V107.218H197.925V101.852Z" fill="white"/>
</g>
<path d="M203.217 94.1978H215.399L209.308 106.121L203.217 94.1978Z" fill="#68E1FD"/>
<path d="M111.315 93.6879C111.315 93.6879 99.4309 100.945 105.883 107.273C112.334 113.602 117.709 102.379 117.709 102.379L117.377 93.2321L111.319 93.6879H111.315Z" fill="#24285B"/>
<path d="M110.055 102.221C110.055 102.221 100.135 97.9691 95.4157 109.209C92.5359 116.064 109.015 133.362 91.1312 131.874C78.0041 130.78 75.1574 118.505 75.6795 112.052C75.9862 108.247 74.3246 104.468 71.1174 102.399C69.8619 101.587 68.4323 101.082 66.9116 101.268C61.6947 101.91 69.8909 109.362 69.8909 109.362C69.8909 109.362 67.1602 145.19 92.2458 147.175C117.331 149.165 117.489 124.323 110.051 102.221H110.055Z" fill="#F4A28C"/>
<path d="M109.575 102.138L118.612 103.767C118.612 103.767 149.039 114.199 127.227 144.133C123.46 149.306 120.957 155.298 119.867 161.602L95.9172 158.063L95.5111 153.578C94.9558 147.449 93.2818 141.431 90.2279 136.089C86.3951 129.384 84.5594 116.706 109.575 102.138Z" fill="#68E1FD"/>
<path d="M112.214 85.9006C112.214 85.9006 110.76 89.8668 110.71 92.7513C110.689 93.92 111.638 94.9022 112.811 94.9064C114.265 94.9064 116.229 94.4919 117.269 92.4612L119.453 89.2327C119.453 89.2327 120.75 87.1605 118.902 84.8853C117.054 82.61 112.981 83.443 112.218 85.9006H112.214Z" fill="#F4A28C"/>
<g opacity="0.08">
<path d="M118.815 117.166C118.815 117.166 113.312 122.591 117.783 132.695C122.25 142.799 111.837 148.017 111.837 148.017L105.53 159.48L119.872 161.602C119.872 161.602 121.347 152.02 125.155 147.287C128.959 142.554 137.652 138.766 137.652 138.766L135.104 128.89L118.815 117.17V117.166Z" fill="#000001"/>
</g>
<path d="M119.055 89.8171L117.576 103.576L110.055 102.221L114.153 92.7513L119.055 89.8171Z" fill="#F4A28C"/>
<path d="M115.599 90.5629C115.599 90.5629 116.055 89.0007 117.203 89.4441C118.351 89.8833 117.704 92.1416 116.043 91.922L115.599 90.567V90.5629Z" fill="#F4A28C"/>
<path d="M111.427 88.4453L109.865 89.7091C109.479 90.0199 109.55 90.629 109.993 90.8445L111.472 91.5613L111.423 88.4495L111.427 88.4453Z" fill="#F4A28C"/>
<g opacity="0.31">
<path d="M113.167 94.7861C113.167 94.7861 114.605 94.8773 115.939 94.0112C115.939 94.0112 115.173 96.427 111.837 98.1093L113.171 94.7861H113.167Z" fill="#CE8172"/>
</g>
<path d="M113.66 79.796C110.979 80.7243 110.213 84.131 112.052 86.2902C112.624 86.9616 113.424 87.691 114.547 88.4246C118.421 90.9568 108.767 108.616 118.686 109.636C128.61 110.655 127.334 105.653 124.728 100.563C122.122 95.4783 123.058 88.3831 122.847 84.5247C122.693 81.719 117.323 78.5278 113.66 79.796Z" fill="#24285B"/>
<path d="M119.95 114.505C122.461 110.295 128.233 109.449 131.996 112.586C138.965 118.401 147.369 130.026 149.076 137.585C151.558 148.58 110.557 151.278 110.557 151.278C110.557 151.278 111.787 156.231 105.965 156.977C102.124 157.47 104.457 153.089 106.488 150.052C107.652 148.307 109.285 146.927 111.191 146.061L131.822 136.686C131.822 136.686 113.204 125.811 119.946 114.505H119.95Z" fill="#F4A28C"/>
<path d="M79.5208 187.637L96.1658 222.408L99.8122 220.659L91.4752 189.892L79.5208 187.637Z" fill="#F4A28C"/>
<path d="M105.526 170.376L110.544 224.92H115.479L117.779 170.376H105.526Z" fill="#F4A28C"/>
<path d="M95.9172 158.063L79.5208 187.637L117.709 194.832L119.867 161.602L95.9172 158.063Z" fill="#005CA9"/>
<path d="M95.3205 220.614C95.3205 220.614 94.7072 223.627 92.4821 224.617C90.2528 225.608 91.4876 228.84 94.8232 226.76C96.0953 225.964 97.0608 225.21 97.7652 224.58C98.6064 223.83 100.314 223.266 101.416 223.034C101.76 222.964 102.07 222.715 102.211 222.135C102.617 220.469 99.2611 218.625 99.2611 218.625L95.3205 220.614Z" fill="#68E1FD"/>
<path d="M110.627 222.98C110.627 222.98 108.804 225.454 106.367 225.417C103.931 225.379 103.691 228.831 107.59 228.346C109.077 228.16 110.271 227.882 111.174 227.605C112.251 227.277 114.037 227.484 115.135 227.737C115.479 227.816 115.861 227.725 116.238 227.257C117.307 225.914 115.566 222.815 115.566 222.815L110.623 222.98H110.627Z" fill="#68E1FD"/>
<path d="M71.971 110.896C81.3904 110.896 89.0263 103.258 89.0263 93.8372C89.0263 84.4162 81.3904 76.7789 71.971 76.7789C62.5517 76.7789 54.9158 84.4162 54.9158 93.8372C54.9158 103.258 62.5517 110.896 71.971 110.896Z" fill="#FFD200"/>
<g opacity="0.46">
<path d="M71.971 110.896C81.3904 110.896 89.0263 103.258 89.0263 93.8372C89.0263 84.4162 81.3904 76.7789 71.971 76.7789C62.5517 76.7789 54.9158 84.4162 54.9158 93.8372C54.9158 103.258 62.5517 110.896 71.971 110.896Z" fill="white"/>
</g>
<path d="M72.1326 105.694C81.552 105.694 89.1879 98.057 89.1879 88.636C89.1879 79.215 81.552 71.5777 72.1326 71.5777C62.7133 71.5777 55.0774 79.215 55.0774 88.636C55.0774 98.057 62.7133 105.694 72.1326 105.694Z" fill="#FFD200"/>
<path d="M76.9931 86.887C78.1243 86.2405 78.7293 84.9557 78.5097 83.6751C78.2362 81.6941 75.8702 80.9606 74.0055 80.8155L73.9848 77.8357L72.1492 77.8481L72.1657 80.7989L70.9309 80.8072L70.9144 77.8564L69.0787 77.8688L69.0953 80.8197L65.395 80.8445L65.4074 82.7468L66.7831 82.7385C67.4005 82.7385 67.703 82.9167 67.7072 83.414L67.7569 91.5909C67.761 92.2747 67.4213 92.4861 67.0525 92.4861L65.6478 92.4944L65.6602 94.4381L69.2279 94.4174L69.2486 97.4345L71.0967 97.4221L71.076 94.4049L72.3108 94.3967L72.3315 97.4138L74.1298 97.4013L74.1091 94.3842H74.5028C78.2818 94.3594 79.529 92.4985 79.5124 89.9787C79.471 88.4951 78.4351 87.2227 76.9889 86.8829L76.9931 86.887ZM70.9434 82.8297L72.2569 82.8214C73.1768 82.8172 74.9876 82.9623 74.9958 84.4584C75.0663 85.4324 74.3619 86.2944 73.3923 86.4229L70.9641 86.4394L70.9434 82.8297ZM73.0359 92.2664V92.254L71.0014 92.2664L70.9765 88.3293L73.3384 88.3127C73.8895 88.3127 75.9655 88.4785 75.9737 89.9497C75.982 91.421 75.0041 92.254 73.0359 92.2664Z" fill="white"/>
</svg>
