<svg width="300" height="310" viewBox="0 0 300 310" fill="none" xmlns="http://www.w3.org/2000/svg">
<path d="M289.647 149.52C334.308 266.643 222.5 294.372 144.911 294.372C29.1224 353.968 0.175269 229.519 0.175269 149.52C0.175269 69.5208 -10.9901 15.4289 144.911 4.6685C241.264 -21.8187 289.647 69.5208 289.647 149.52Z" fill="#F3F6F7"/>
<path opacity="0.18" d="M65.4331 203.522C65.4331 203.522 46.6665 194.215 50.5374 170.195C54.4083 146.174 92.3928 125.23 107.305 109.519C122.217 93.8118 137.668 66.8065 177.615 68.4584C217.562 70.1102 217.023 96.8878 235.765 106.65C254.503 116.412 236.866 150.327 238.522 158.45C240.178 166.572 261.326 191.11 235.869 208.055C210.412 225.004 65.4373 203.518 65.4373 203.518L65.4331 203.522Z" fill="#68E1FD"/>
<path d="M50.5375 227.244V234.361C50.5375 234.361 51.4441 238.815 59.7448 238.571C68.0497 238.327 243.594 238.571 243.594 238.571C243.594 238.571 248.086 237.838 248.984 234.178V227.244H50.5375Z" fill="#005CA9"/>
<path d="M223.759 191.714H73.2868C69.7222 191.714 66.8325 188.829 66.8325 185.542V93.4888C66.8325 89.6469 69.7222 86.7531 73.2868 86.7531H223.759C227.32 86.7613 230.201 89.6469 230.201 93.2073V185.26C230.201 188.821 227.32 191.706 223.759 191.71V191.714Z" fill="#68E1FD"/>
<path d="M220.348 90.5494H76.636C73.3184 90.5494 70.6289 93.2389 70.6289 96.5566V179.998C70.6289 183.316 73.3184 186.005 76.636 186.005H220.348C223.666 186.005 226.355 183.316 226.355 179.998V96.5566C226.355 93.2389 223.666 90.5494 220.348 90.5494Z" fill="#68E1FD"/>
<path d="M220.948 90.5494H77.2364C73.9187 90.5494 71.2292 93.2389 71.2292 96.5566V179.998C71.2292 183.316 73.9187 186.005 77.2364 186.005H220.948C224.266 186.005 226.955 183.316 226.955 179.998V96.5566C226.955 93.2389 224.266 90.5494 220.948 90.5494Z" fill="url(#paint0_linear_1446_4970)"/>
<path d="M73.2867 191.714L51.204 224.897C50.0116 226.685 50.5002 229.103 52.2886 230.291C52.9262 230.717 53.6755 230.941 54.4414 230.941H245.093C247.241 230.941 248.984 229.202 248.988 227.053C248.988 226.217 248.723 225.406 248.227 224.735L223.767 191.706H73.2867V191.714Z" fill="#68E1FD"/>
<path d="M73.2867 191.714L51.204 224.897C50.0116 226.685 50.5002 229.103 52.2886 230.291C52.9262 230.717 53.6755 230.941 54.4414 230.941H245.093C247.241 230.941 248.984 229.202 248.988 227.053C248.988 226.217 248.723 225.406 248.227 224.735L223.767 191.706H73.2867V191.714Z" fill="url(#paint1_linear_1446_4970)"/>
<path d="M219.847 197.668H76.3835L77.6918 195.055H217.889L219.847 197.668Z" fill="url(#paint2_linear_1446_4970)"/>
<path d="M222.712 201.497H74.4708L76.3835 197.668H219.847L222.712 201.497Z" fill="url(#paint3_linear_1446_4970)"/>
<path d="M225.738 205.542H72.4464L74.4709 201.497H222.712L225.738 205.542Z" fill="url(#paint4_linear_1446_4970)"/>
<path d="M228.462 209.181H70.6289L72.4464 205.542H225.738L228.462 209.181Z" fill="url(#paint5_linear_1446_4970)"/>
<path d="M123.658 211.707H175.648L182.972 223.725H119.998L123.658 211.707Z" fill="url(#paint6_linear_1446_4970)"/>
<path d="M123.356 98.2498H80.627V132.065H123.356V98.2498Z" fill="url(#paint7_linear_1446_4970)"/>
<path d="M109.052 108.964C109.094 109.159 109.085 109.362 109.027 109.552C108.953 109.9 108.8 110.227 108.576 110.504C108.348 110.782 108.009 110.947 107.649 110.96C107.599 110.964 107.549 110.947 107.516 110.91C107.496 110.881 107.487 110.848 107.487 110.815C107.462 110.285 107.438 109.482 107.773 109.039C108.079 108.658 108.87 108.298 109.052 108.964Z" fill="#FFB4A3"/>
<path d="M95.5268 108.935C95.2577 109.092 95.1004 109.386 95.1087 109.697C95.0962 110.016 95.1997 110.326 95.3943 110.579C95.5682 110.777 95.7752 110.951 96.0029 111.084C96.272 111.291 96.5991 111.419 96.9385 111.452C97.0338 111.465 97.129 111.427 97.1952 111.357C97.2325 111.299 97.2532 111.229 97.249 111.158C97.2822 110.339 96.8599 108.293 95.5309 108.939L95.5268 108.935Z" fill="#FFB4A3"/>
<path d="M96.7398 110.368C96.5204 110.401 96.2968 110.31 96.1685 110.127C95.9573 109.825 95.8828 109.457 95.5972 109.622C95.3115 109.788 95.4978 110.401 95.7379 110.74C95.978 111.08 96.7812 111.336 96.9178 111.105C97.0544 110.873 96.7357 110.372 96.7357 110.372L96.7398 110.368Z" fill="#FFB4A3"/>
<path d="M107.516 109.999C107.731 110.032 107.947 109.937 108.071 109.759C108.286 109.457 108.357 109.088 108.642 109.254C108.928 109.42 108.746 110.032 108.502 110.372C108.257 110.711 107.462 110.968 107.326 110.736C107.189 110.504 107.52 110.003 107.52 110.003L107.516 109.999Z" fill="#FFB4A3"/>
<path d="M85.8144 132.061C85.8144 132.061 85.2638 123.069 92.7738 119.248C100.284 115.427 118.028 118.706 117.117 132.061H85.8144Z" fill="#005CA9"/>
<path d="M98.9009 112.939V115.588C98.9009 116.83 98.0025 117.89 96.7812 118.097L94.9182 118.407C94.9182 118.407 97.6009 124.249 103.215 122.705C108.829 121.161 109.077 119.6 109.077 119.6L107.74 119.136C106.601 118.739 105.835 117.666 105.831 116.462L105.819 112.939H98.9009Z" fill="#FFB4A3"/>
<path d="M98.9009 112.939V115.588C98.9009 116.83 98.0025 117.89 96.7812 118.097L94.9182 118.407C94.9182 118.407 97.6009 124.249 103.215 122.705C108.829 121.161 109.077 119.6 109.077 119.6L107.74 119.136C106.601 118.739 105.835 117.666 105.831 116.462L105.819 112.939H98.9009Z" fill="url(#paint8_linear_1446_4970)"/>
<path d="M96.3797 107.238C96.3797 107.238 96.1892 111.063 98.4621 114.168C100.93 117.538 104.345 118.155 106.63 114.168C107.293 113.03 108.51 106.915 108.017 104.799C107.525 102.684 99.3853 96.6601 96.3797 107.238Z" fill="#FFB4A3"/>
<path d="M95.3033 104.228C95.4772 104.124 95.6304 103.992 95.7628 103.839C95.8788 103.615 95.9326 103.363 95.9202 103.11C96.0485 101.4 97.5555 100.096 99.1452 99.4504C101.994 98.2912 105.525 98.7839 107.806 100.875C108.63 101.628 109.35 102.584 110.418 102.903C110.638 102.936 110.845 103.023 111.023 103.16C111.367 103.495 111.11 104.095 110.754 104.418C110.667 104.485 110.596 104.572 110.547 104.671C110.443 104.957 110.816 105.197 111.118 105.292C110.845 105.66 110.501 105.975 110.112 106.211C110.311 106.232 110.377 106.517 110.274 106.691C110.149 106.849 109.992 106.977 109.814 107.068C109.317 107.42 109.065 108.016 108.746 108.538C108.427 109.059 107.926 109.564 107.322 109.527C107.686 108.136 107.529 106.662 106.879 105.379C104.101 106.128 101.182 105.234 98.4042 104.472C98.1972 104.389 97.9695 104.389 97.7625 104.472C97.4064 104.679 97.5223 105.209 97.6838 105.586C97.3319 105.586 97.158 106.008 97.0876 106.356C96.9841 106.869 96.9262 107.395 96.9096 107.921C96.9096 108.235 97.1373 109.275 96.9924 109.494C96.7068 109.929 96.2928 109.237 96.0402 108.906C95.2371 107.826 93.9205 105.342 95.2992 104.228H95.3033Z" fill="#231F20"/>
<path d="M133.437 131.577C133.437 131.577 131.537 129.209 129.988 131.163C128.44 133.117 130.742 137.75 134.397 137.832C138.053 137.915 133.437 131.573 133.437 131.573V131.577Z" fill="#FFB4A3"/>
<path d="M159.49 152.956C159.49 152.956 158.939 155.804 162.272 158.23C161.465 159.402 159.283 161.646 155.569 162.681C153.917 163.128 152.208 163.298 150.502 163.186C147.587 163.02 145.016 161.778 142.963 160.308L142.64 160.072C141.05 158.872 139.614 157.481 138.368 155.928C140.823 154.372 142.876 152.314 140.719 150.493C140.707 150.48 140.69 150.468 140.678 150.459C140.657 150.439 140.636 150.422 140.611 150.406L140.57 150.372C132.369 144.03 133.015 122.183 133.015 122.183C141.328 90.5784 161.792 104.837 166.205 106.522C170.618 108.207 173.769 118.652 171.777 130.219C169.463 143.604 159.482 152.956 159.482 152.956H159.49Z" fill="#FFB4A3"/>
<path d="M195.959 186.005H109.114C109.4 185.463 109.748 183.911 110.058 179.916C111.449 162.093 133.528 158.363 133.528 158.363C134.625 157.924 135.697 157.427 136.741 156.872L140.14 160.859C141.096 161.977 143.613 162.83 143.613 162.83C156.608 169.172 162.284 161.613 163.729 159.112C168.623 161.642 181.026 165.529 187.845 170.687C195.334 176.339 195.951 186.001 195.951 186.001L195.959 186.005Z" fill="#68E1FD"/>
<path d="M193.119 186.005L196.249 156.905H209.787L211.066 186.266L193.119 186.005Z" fill="#68E1FD"/>
<path d="M193.931 178.495L193.123 186.005H109.102C109.388 185.463 109.735 183.911 110.046 179.916C111.453 162.093 133.532 158.363 133.532 158.363C134.629 157.924 135.701 157.427 136.745 156.872L140.144 160.859C141.1 161.977 143.617 162.83 143.617 162.83C156.613 169.172 162.289 161.613 163.733 159.112C168.627 161.642 181.03 165.529 187.849 170.687C190.503 172.737 192.589 175.419 193.926 178.495H193.931Z" fill="url(#paint9_linear_1446_4970)"/>
<path d="M211.066 186.266L193.123 186.005L193.931 178.495L196.249 156.905H209.787L211.066 186.266Z" fill="url(#paint10_linear_1446_4970)"/>
<path d="M218.452 134.504C218.232 135.117 216.953 137.195 215.79 139.232C214.784 140.999 213.877 142.734 213.836 143.454C213.753 144.999 211.708 151.784 209.443 153.85C208.048 155.125 208.686 156.901 208.686 156.901L205.792 156.996L196.965 157.282C196.965 157.282 197.681 155.928 196.651 155.378C195.62 154.827 186.4 143.595 186.4 143.595C186.4 143.595 187.071 140.3 191.037 142.498C195.003 144.696 195.661 146.464 196.646 146.278C197.632 146.092 197.719 130.952 197.719 130.952C197.719 130.952 197.926 124.03 199.764 122.759C201.602 121.488 201.275 127.35 201.275 127.35L202.488 135.295C202.488 135.295 205.465 122.68 206.359 122.109C207.253 121.537 209.021 122.022 208.582 124.452C208.479 125.023 207.882 131.299 207.882 131.299L207.394 135.419C207.394 135.419 212.06 125.309 212.908 124.982C213.761 124.655 215.103 125.06 214.697 126.77C214.291 128.48 212.238 137.273 212.176 137.551C212.345 137.348 216.345 132.541 217.301 132.065C218.257 131.589 218.858 133.369 218.448 134.508L218.452 134.504Z" fill="#FFB4A3"/>
<path d="M164.127 158.363C164.127 158.363 162.549 165.508 154.24 165.935C141.299 166.605 136.219 156.239 136.219 156.239L137.759 155.129C137.759 155.129 137.966 155.436 138.363 155.928C139.945 157.895 144.499 162.846 150.502 163.202C157.366 163.596 161.146 159.87 162.272 158.243C162.363 158.11 162.45 157.973 162.529 157.833L164.127 158.363Z" fill="white"/>
<path d="M131.52 102.961C131.545 103.466 131.669 103.984 131.549 104.481C131.396 104.936 131.152 105.358 130.833 105.718C127.74 109.892 127.591 115.476 127.57 120.668C127.57 121.976 127.57 123.313 127.947 124.568C128.32 125.777 129.036 126.845 129.74 127.901C130.079 128.406 132.828 131.519 133.441 131.585C134.261 131.672 131.847 117.956 148.225 116.636C149.86 116.503 151.483 116.706 153.127 116.76C154.1 116.793 155.068 116.669 156.041 116.706C157.677 116.772 159.254 117.298 160.806 117.82C163.609 118.764 166.594 119.836 168.329 122.229L169.894 121.376L170.125 127.052L170.183 128.414L170.535 136.673L174.133 131.241C176.377 127.855 178.708 123.678 177.056 119.964C176.278 118.217 174.7 116.896 174.034 115.1C173.102 112.595 174.129 109.796 173.835 107.143C173.264 101.972 167.786 98.6307 162.611 98.0801C161.456 97.9559 160.289 97.931 159.15 97.7199C158.024 97.4756 156.915 97.1486 155.834 96.7429C153.603 95.9811 151.032 95.3187 148.999 96.511C148.204 96.9747 147.575 97.6951 146.722 98.0759C145.248 98.7383 143.547 98.225 141.94 98.0552C138.773 97.7323 131.292 98.4196 131.52 102.974V102.961Z" fill="#231F20"/>
<path d="M170.279 133.249C170.279 133.249 172.179 130.881 173.723 132.835C175.267 134.789 172.97 139.422 169.318 139.505C165.667 139.588 170.279 133.245 170.279 133.245V133.249Z" fill="#FFB4A3"/>
<path d="M154.261 159.311C154.116 159.365 153.967 159.41 153.818 159.456C151.582 160.093 149.173 159.476 147.045 158.532C146.159 158.139 145.286 157.68 144.578 157.013C143.915 156.388 143.427 155.601 142.967 154.819C142.52 154.057 142.077 153.279 141.75 152.455C141.444 151.681 141.415 151.085 140.719 150.497C142.081 151.59 143.551 152.567 145.087 153.399C146.147 153.974 147.235 154.517 148.382 154.893C148.966 155.084 149.562 155.233 150.171 155.303C150.705 155.365 151.164 155.262 151.686 155.245C154.145 155.171 156.418 154.748 158.571 153.486C158.902 153.291 159.225 153.084 159.535 152.861C159.022 154.181 158.5 155.514 157.672 156.661C156.815 157.845 155.627 158.81 154.257 159.311H154.261Z" fill="url(#paint11_linear_1446_4970)"/>
<path d="M215.79 139.236C214.784 141.004 213.877 142.738 213.836 143.459C213.753 145.003 211.708 151.788 209.443 153.854C208.048 155.129 208.685 156.905 208.685 156.905L205.792 157.001L205.506 156.972C205.506 156.972 206.566 152.732 203.879 150.861C201.192 148.99 198.029 146.953 198.431 144.676C198.832 142.399 200.956 137.352 206.404 140.122C211.853 142.891 215.794 139.236 215.794 139.236H215.79Z" fill="#FFB4A3"/>
<defs>
<linearGradient id="paint0_linear_1446_4970" x1="147.89" y1="62.7245" x2="150.506" y2="227.02" gradientUnits="userSpaceOnUse">
<stop stop-color="white"/>
<stop offset="1" stop-color="white" stop-opacity="0"/>
</linearGradient>
<linearGradient id="paint1_linear_1446_4970" x1="173.09" y1="149.507" x2="147.649" y2="234.108" gradientUnits="userSpaceOnUse">
<stop stop-color="white"/>
<stop offset="0.89" stop-color="white" stop-opacity="0"/>
</linearGradient>
<linearGradient id="paint2_linear_1446_4970" x1="148.175" y1="182.23" x2="147.906" y2="249.645" gradientUnits="userSpaceOnUse">
<stop stop-color="#231F20" stop-opacity="0"/>
<stop offset="1" stop-color="#231F20"/>
</linearGradient>
<linearGradient id="paint3_linear_1446_4970" x1="149.657" y1="152.5" x2="148.068" y2="225.489" gradientUnits="userSpaceOnUse">
<stop stop-color="white"/>
<stop offset="0.6" stop-color="white" stop-opacity="0.48"/>
<stop offset="0.87" stop-color="white" stop-opacity="0.13"/>
<stop offset="1" stop-color="white" stop-opacity="0"/>
</linearGradient>
<linearGradient id="paint4_linear_1446_4970" x1="149.185" y1="182.234" x2="148.92" y2="249.654" gradientUnits="userSpaceOnUse">
<stop stop-color="#231F20" stop-opacity="0"/>
<stop offset="1" stop-color="#231F20"/>
</linearGradient>
<linearGradient id="paint5_linear_1446_4970" x1="150.713" y1="155.68" x2="149.119" y2="228.672" gradientUnits="userSpaceOnUse">
<stop stop-color="white"/>
<stop offset="1" stop-color="white" stop-opacity="0"/>
</linearGradient>
<linearGradient id="paint6_linear_1446_4970" x1="152.249" y1="198.16" x2="149.33" y2="295.835" gradientUnits="userSpaceOnUse">
<stop stop-color="#231F20" stop-opacity="0"/>
<stop offset="1" stop-color="#231F20"/>
</linearGradient>
<linearGradient id="paint7_linear_1446_4970" x1="103.285" y1="89.0549" x2="99.9815" y2="155.746" gradientUnits="userSpaceOnUse">
<stop stop-color="white"/>
<stop offset="1" stop-color="white" stop-opacity="0"/>
</linearGradient>
<linearGradient id="paint8_linear_1446_4970" x1="101.832" y1="121.339" x2="103.045" y2="103.942" gradientUnits="userSpaceOnUse">
<stop stop-color="#231F20" stop-opacity="0"/>
<stop offset="1" stop-color="#231F20"/>
</linearGradient>
<linearGradient id="paint9_linear_1446_4970" x1="151.732" y1="156.487" x2="150.945" y2="249.898" gradientUnits="userSpaceOnUse">
<stop stop-color="#005CA9" stop-opacity="0.5"/>
<stop offset="1" stop-color="#005CA9"/>
</linearGradient>
<linearGradient id="paint10_linear_1446_4970" x1="204.732" y1="165.26" x2="196.129" y2="215.958" gradientUnits="userSpaceOnUse">
<stop stop-color="#231F20" stop-opacity="0"/>
<stop offset="1" stop-color="#231F20"/>
</linearGradient>
<linearGradient id="paint11_linear_1446_4970" x1="150.038" y1="165.363" x2="150.444" y2="105.747" gradientUnits="userSpaceOnUse">
<stop stop-color="#231F20" stop-opacity="0"/>
<stop offset="1" stop-color="#231F20"/>
</linearGradient>
</defs>
</svg>
