<svg width="362" height="362" viewBox="0 0 362 362" fill="none" xmlns="http://www.w3.org/2000/svg">
    <path
        d="M349.507 174.601C403.399 311.37 271.315 343.75 174.859 343.75C35.1411 413.343 0.211491 268.02 0.211491 174.601C0.211491 81.1823 -13.2614 18.017 174.859 5.45161C291.125 -25.4786 349.507 81.1823 349.507 174.601Z"
        fill="#F3F6F7" />
    <path
        d="M284.4 194.95L203.1 147.65C201.9 146.95 200.45 146.95 199.25 147.65L77.6001 217.25C75.7501 218.3 75.1001 220.65 76.2001 222.5C76.5501 223.1 77.0501 223.6 77.6001 223.9L155.4 268.8C159.3 271.05 164.05 271.05 167.95 268.8L284.4 201.6C286.25 200.55 286.85 198.2 285.8 196.35C285.45 195.75 285 195.25 284.4 194.95Z"
        fill="#005CA9" />
    <path
        d="M192.45 91.85C201.65 97.3 224.45 110.8 231.25 114.75C232.45 115.45 233.15 116.7 233.15 118.05V211.55C233.3 213.45 231.15 215.2 229.4 214.2L191.1 192.4C189.55 191.5 188.6 190.3 188.6 188.5V94.1C188.6 92.65 189.75 91.5 191.2 91.5C191.6 91.5 192.05 91.65 192.45 91.85Z"
        fill="#68E1FD" />
    <path
        d="M188.8 93L201 100V102.6C201 103.05 201.25 103.45 201.6 103.7L210.9 109.1C211.3 109.35 211.8 109.2 212 108.8C212.05 108.65 212.1 108.55 212.1 108.4V106.5L229.6 116.75C229.95 116.95 230.15 117.3 230.15 117.7V211.15C230.15 211.55 229.8 211.9 229.4 211.9C229.25 211.9 229.15 211.85 229 211.8L188.45 188.3C188.3 189.8 189 191.2 190.25 192.05C192.35 193.4 229.3 214.3 229.3 214.3C229.3 214.3 232.25 215.6 233.05 212.15V118.15C233.05 116.9 232.45 115.75 231.45 115.05C229.75 113.85 192.35 91.95 192.35 91.95C192.35 91.95 190.15 90.6 188.8 93Z"
        fill="#124577" />
    <path
        d="M198.38 181.092C199.411 180.893 200.009 179.501 199.716 177.983C199.423 176.465 198.351 175.395 197.32 175.593C196.29 175.792 195.692 177.184 195.985 178.702C196.277 180.221 197.35 181.291 198.38 181.092Z"
        fill="#507282" />
    <path
        d="M204.831 184.544C205.862 184.345 206.46 182.953 206.167 181.435C205.874 179.916 204.802 178.846 203.771 179.045C202.741 179.244 202.143 180.636 202.436 182.154C202.729 183.672 203.801 184.742 204.831 184.544Z"
        fill="#507282" />
    <path
        d="M211.027 187.895C212.057 187.696 212.655 186.304 212.362 184.786C212.07 183.268 210.997 182.198 209.967 182.396C208.936 182.595 208.338 183.987 208.631 185.505C208.924 187.024 209.996 188.094 211.027 187.895Z"
        fill="#507282" />
    <path
        d="M217.234 191.294C218.265 191.095 218.863 189.703 218.57 188.185C218.277 186.666 217.205 185.596 216.174 185.795C215.144 185.994 214.546 187.386 214.839 188.904C215.131 190.423 216.204 191.492 217.234 191.294Z"
        fill="#507282" />
    <path
        d="M123.1 204.2C123.1 200.2 127.95 197.05 134.15 197.05C140.35 197.05 145.2 200.2 145.2 204.2C145.2 208.2 140.35 211.35 134.15 211.35C127.95 211.35 123.1 208.2 123.1 204.2ZM126.25 204.2C126.25 206.1 129.5 208.2 134.15 208.2C138.8 208.2 142.05 206.1 142.05 204.2C142.05 202.3 138.8 200.2 134.15 200.2C129.5 200.2 126.25 202.3 126.25 204.2Z"
        fill="white" />
    <path
        d="M126.55 207.2C126.2 206.85 111 215.95 111 215.95L101.2 221.65L103.35 223.3C103.9 223.7 104.65 223.8 105.25 223.45L128.9 209.8L126.55 207.2Z"
        fill="white" />
    <path d="M101.4 217.75L105.4 220.4L103.3 223.35L99 220.65C99 219.2 100.05 217.8 101.4 217.75Z"
        fill="white" />
    <path
        d="M106.15 214.75C106.7 214.25 107.45 214.05 108.2 214.15L112 216.65L109.9 219.6L105.2 216.65C105.25 215.9 105.6 215.2 106.15 214.75Z"
        fill="white" />
    <path
        d="M138.25 118.45L132.9 115.45C132.9 115.45 127.85 120.5 114.3 114.1C114.3 114.1 106.4 129.55 96.0002 137.05C96.0002 137.05 95.4002 165.25 110.9 170.45"
        fill="#68E1FD" />
    <path opacity="0.51"
        d="M138.25 118.45L132.9 115.45C132.9 115.45 127.85 120.5 114.3 114.1C114.3 114.1 106.4 129.55 96.0002 137.05C96.0002 137.05 95.4002 165.25 110.9 170.45"
        fill="#124577" />
    <path
        d="M100.65 139.95C108.3 133.55 114.5 125.6 118.95 116.65C118.95 116.65 127.15 123.15 138.3 118.45C138.3 118.45 136.55 142.25 131.1 153.9C125.65 165.55 124.55 167.4 119.5 173C119.5 173 113.15 174.4 107.8 167.15C100.25 157.1 100.65 139.95 100.65 139.95Z"
        fill="#68E1FD" />
    <path
        d="M118.05 151.5C116.9 149.5 115.8 147.45 114.75 145.4C114.25 144.4 113 144 112 144.55C111.7 144.7 111.45 144.95 111.25 145.2L111.2 145.25C110.8 145.85 110.75 146.65 111.1 147.35C112.2 149.45 113.3 151.55 114.5 153.65C115.8 155.85 119.4 153.8 118.05 151.5Z"
        fill="white" />
    <path
        d="M114.65 151.55C118.9 144.95 122.75 138.15 126.25 131.1C127.45 128.7 131 130.8 129.8 133.2C126.3 140.2 122.45 147.05 118.2 153.65C116.8 155.85 113.2 153.75 114.65 151.55Z"
        fill="white" />
    <path
        d="M214.6 159.55C214.6 159.55 219.1 156.65 219.15 156.6C219.2 156.55 216.15 154.25 216.15 154.25L214.4 157.55"
        fill="#124577" />
    <path d="M197.2 124.35L201.2 121.75L202.2 127.05L198.15 126.2" fill="#124577" />
    <path
        d="M202.75 121.65C202.05 121.25 201.2 121.5 200.8 122.15C200.7 122.35 200.6 122.6 200.6 122.85L200.15 145.45C200.15 146.15 200.55 146.85 201.15 147.2L217.05 156.65C218 157.25 219.2 156.95 219.8 156C220 155.65 220.1 155.3 220.1 154.9V132.8C220.1 132.05 219.7 131.4 219.05 131.05L202.75 121.65Z"
        fill="#124577" />
    <path
        d="M198.5 124.45C197.8 124.05 196.95 124.3 196.55 124.95C196.45 125.15 196.35 125.4 196.35 125.65L195.9 148.2C195.9 148.9 196.3 149.6 196.9 149.95L212.8 159.4C213.75 160 214.95 159.7 215.55 158.75C215.75 158.4 215.85 158.05 215.85 157.65V135.55C215.85 134.8 215.45 134.15 214.8 133.8L198.5 124.45Z"
        fill="#382624" />
    <path
        d="M205.579 143.48C207.451 143.331 208.775 140.778 208.535 137.778C208.296 134.777 206.585 132.466 204.713 132.615C202.841 132.765 201.518 135.318 201.757 138.318C201.996 141.319 203.708 143.63 205.579 143.48Z"
        fill="#68E1FD" />
    <path
        d="M204.1 138.8H205.25C205.65 138.8 205.95 139.1 205.95 139.5V148.8C205.95 149.2 205.65 149.5 205.25 149.5H204.1C203.7 149.5 203.4 149.2 203.4 148.8V139.5C203.4 139.1 203.7 138.8 204.1 138.8Z"
        fill="#68E1FD" />
    <path
        d="M213.9 131.75C214.811 131.75 215.55 131.302 215.55 130.75C215.55 130.198 214.811 129.75 213.9 129.75C212.989 129.75 212.25 130.198 212.25 130.75C212.25 131.302 212.989 131.75 213.9 131.75Z"
        fill="white" />
    <path
        d="M208.95 113.3C201.25 111.45 201.35 120.35 201.35 120.35V123.55C201.35 124 201.3 124.7 201.5 124.95C201.9 125.35 202.4 125.55 202.95 125.5C203.4 125.5 204.05 125.45 204.35 125C204.5 124.6 204.5 124.2 204.45 123.8C204.4 123.05 204.4 122.3 204.4 121.6C204.45 120 204.6 118.05 205.6 116.75C206.3 115.9 207.45 115.6 208.45 116.05C212.4 117.35 212.3 122.1 212.3 122.1V130.85H215.6V121.85C215.55 121.75 214.95 114.7 208.95 113.3Z"
        fill="white" />
    <path
        d="M186.7 160.2C186.75 160.1 186.8 159.95 186.8 159.85C186.8 158.55 186.3 157.3 185.35 156.4C184.7 155.8 183.65 155.85 183.1 156.55C183 156.65 182.95 156.75 182.85 156.9C181.8 159 184.15 161.1 186.05 161.35C186.55 161.4 186.8 161 186.7 160.55C186.65 160.45 186.7 160.3 186.7 160.2Z"
        fill="#FBB5AD" />
    <path d="M184.8 196.4L181.05 194.3L184.2 202.85L184.8 196.4Z" fill="#382624" />
    <path
        d="M219 146.45C218.95 146.4 218.95 146.3 218.9 146.25C219.2 145.95 219.35 145.55 219.35 145.1C219.3 144.85 219.2 144.6 218.95 144.4C219.2 144.1 219.15 143.65 218.85 143.35C218.7 143.2 218.45 143.15 218.25 143.2C217.2 143.4 216.5 144.8 215.95 145.6C215.55 146.2 215.15 146.85 214.75 147.45C214.7 146.55 214.55 145.6 214.5 144.75C214.45 143.9 213.1 143.85 213.1 144.75C213.2 146.1 213.05 147.5 212.7 148.85C212.55 148.9 212.45 149 212.35 149.1C208.4 153.25 203.5 156.3 198.05 157.95C197.35 158.2 197.05 158.95 197.3 159.65C197.45 160.05 197.8 160.35 198.2 160.45C198.25 161 198.6 161.45 199.15 161.6C199.25 162 199.5 162.35 199.85 162.55L198.95 162.95C197.45 163.55 198.1 166.05 199.65 165.4C205.35 163 210.4 159.25 214.25 154.4C214.7 153.95 215.15 153.55 215.55 153.1C216.2 152.4 219.5 149.15 218.65 147.75C218.8 147.45 219.25 147.05 219 146.45Z"
        fill="#FBB5AD" />
    <path
        d="M196.45 131.25C194.9 131.85 193.75 135.15 193.85 135.85L195.05 135.25L195.25 135C195.5 133.7 195.9 132.4 196.45 131.25Z"
        fill="#FBB5AD" />
    <path
        d="M196.65 133.9C196.5 133.85 196.4 133.8 196.3 133.7C195.7 133.25 194.8 133.85 194.25 134.15C193.55 134.5 192.9 134.95 192.3 135.45C192 135.8 191.8 136.25 191.7 136.7C191.45 137.25 191.25 137.8 191 138.3C190.45 139.4 189.85 140.5 189.2 141.55C187.9 143.6 186.4 145.45 184.65 147.1C183.85 147.9 185.1 149.1 185.9 148.3L186.45 147.75C186.7 147.9 187 147.9 187.25 147.7C187.4 147.6 187.55 147.5 187.65 147.4C187.7 147.35 187.75 147.3 187.85 147.25C188 147.7 188.5 147.9 188.95 147.75C189.05 147.7 189.15 147.65 189.25 147.55L189.85 146.95C190.05 146.9 190.2 146.75 190.25 146.55C190.25 146.5 190.35 147.75 190.35 147.7C191.3 146.7 192.4 143.95 193.35 142.3C193.35 142.2 193.35 142.15 193.4 142.1C194.15 140.9 194.05 140.2 194.15 138.85C194.15 138.05 194.2 137.3 194.35 136.55L195.9 135.35C196.25 135.05 196.65 134.65 196.6 134.2C196.65 134.1 196.65 134 196.65 133.9Z"
        fill="#FBB5AD" />
    <path
        d="M202.4 155.65C196.9 157.25 196 156.65 193.4 156.55C190.8 156.45 188 152.85 188 152.85C188 152.85 187.35 144.7 182.5 151.1C178.9 155.85 177.5 169.6 177.05 176.25C178.85 177.7 181.25 178.2 183.5 178.55C185 178.8 186.5 178.95 188 178.95C188.95 178.95 189.85 178.75 190.7 178.35L193.25 166.4C199.8 166.95 204.85 163.1 204.85 163.1L202.4 155.65Z"
        fill="#FFC60B" />
    <path
        d="M190.6 145.9C190.6 145.9 194.15 152.65 190.65 154.55C187.15 156.45 184.45 153.3 184.15 152.5C183.85 151.7 183.9 145.4 190.6 145.9Z"
        fill="#FBB5AD" />
    <path
        d="M190.9 144.85C189.1 143.55 186.9 143.55 184.85 144C183.15 144.4 181.35 145.15 180.15 146.45C179.7 146.15 179.15 146 178.6 145.95C177.25 145.85 176 146.65 175.5 147.9C175.05 149.1 175.5 150.4 176.55 151.1C177.35 151.5 178.25 151.6 179.15 151.35C179.15 151.4 179.15 151.45 179.15 151.5C179.25 152.8 178.05 153.45 177.6 154.5C177.35 155 177.3 155.55 177.4 156.1C177.5 156.65 178.05 157.2 178.05 157.75C177.95 158.15 177.75 158.55 177.5 158.9C177.25 159.25 177.05 159.65 176.9 160.1C179.45 161.45 182.6 161.45 185.35 160.9C188.3 160.3 191.3 158.95 193.25 156.65C193.15 156.35 192.95 156.1 192.7 155.9C192.25 155.6 191.75 155.3 191.2 155.1C190.45 154.65 191.2 153.35 191.2 152.65C191.15 151.45 190.25 150.95 189.25 150.5C188.55 150.2 188.5 149.75 188.5 149C188.45 148.4 188.55 147.8 188.85 147.3C189.05 147.35 189.3 147.3 189.5 147.15C189.9 146.95 190.3 146.75 190.7 146.6C191.15 146.45 191.35 145.95 191.2 145.55C191.2 145.25 191.1 145 190.9 144.85Z"
        fill="#382624" />
    <path
        d="M188.2 147.55C189.35 147.3 190.45 146.9 191.5 146.4C191.5 146.3 191.85 142.1 184.35 143.55C176.85 145 180.4 153.95 180.4 153.95"
        fill="#382624" />
    <path
        d="M180.05 240.65C179.35 240.4 178.35 240.25 177.9 239.6C177.45 238.95 177.45 238 177.45 237.25C177.45 236.5 177.45 235.75 177.45 235C177.35 234.95 177.3 234.85 177.3 234.7C177.25 234.1 177.25 233.45 177.3 232.85L174.2 232.55C174.2 232.55 172.8 237.85 172.9 238.45C173 239.05 175.95 243.1 177.45 243.35C178.95 243.6 183.1 242.3 183.45 241.75C183.45 241.75 183.45 241.7 183.5 241.7C182.35 241.4 181.2 241.05 180.05 240.65Z"
        fill="#FBB5AD" />
    <path
        d="M201.5 229.55C200.5 229.35 196.25 230.05 196.25 230.05C196.25 230.05 195.65 226.6 195.75 226.4L191.35 226.7C191.35 226.7 190.8 233.15 190.8 233.95C190.8 235.5 192.75 236 193.15 235.95C193.45 235.85 193.75 235.75 194.05 235.6C193.9 234.8 193.8 234 193.8 233.15C193.8 232.75 193.9 232.5 194.25 232.4C194.9 232.15 196.1 232.5 196.75 232.65C197.55 232.8 198.3 233 199.1 233.15C200.85 232.2 202.3 231.35 202.45 231C202.7 230.1 203.1 229.9 201.5 229.55Z"
        fill="#FBB5AD" />
    <path
        d="M203 229.85C202.95 229.8 202.95 229.75 202.9 229.75C202.55 229.4 201.65 229.45 201.25 229.45C199.55 229.45 197.9 229.65 196.25 230.1C196.25 230.1 200.25 229.55 200.4 230.25C200.55 230.85 200.4 231.45 200 231.9C198.3 233.4 195.7 231.75 194.1 231.05L191.1 229.75L190.9 232.2C190.9 232.2 190.7 235.25 190.9 235.6C191.1 235.95 192.9 236.9 193.3 236.7C193.7 236.5 194.85 235.8 194.85 235.8L194.6 232.85C194.6 232.85 197.1 233.95 198.3 233.6C199.15 233.35 204 231.25 203 229.85Z"
        fill="#382624" />
    <path
        d="M188.75 228.45C192.7 229.2 196.85 228.5 199.8 225.85C199.85 219.3 200.45 213.4 200.3 206.9C200 196.25 198.45 185.75 190.95 177.45L177.35 175.35C171.8 185.85 170.7 234 170.7 234C170.7 234 177.6 238.45 182.9 236.3L184.95 196.2C184.95 196.2 188.55 200.45 189.2 202.85C189.65 204.55 188.65 220.4 188.75 228.45Z"
        fill="#D46A00" />
    <path
        d="M175.55 238.55C175.55 238.55 177.15 243.6 177.75 243.95C178.35 244.3 184.6 242.3 183.65 241.1C183.05 240.35 179.3 240.35 178.95 240.25C178.95 240.25 180.95 240.9 180.95 241.2C180.95 241.5 178.45 242.65 178.35 242.45C178.25 242.25 175.5 237.75 175.5 237.75L172.95 236.85L170.85 241.5L172.65 242.25C172.65 242.25 173.2 243.65 173.4 243.65C173.6 243.65 175.05 241.05 175.05 241.05C175.05 241.05 175.4 242.7 175.65 242.9C175.9 243.1 178 244.8 178.95 243.5L177.2 241.55"
        fill="#382624" />
    <path d="M170.8 241.55L171.15 242.7L173.3 243.75V241.55L172.05 241.1" fill="#382624" />
</svg>