<svg width="100" height="100" viewBox="0 0 100 100" fill="none" xmlns="http://www.w3.org/2000/svg">
<path d="M27.0834 83.3333C20.7501 83.3333 15.3473 81.1527 10.8751 76.7916C6.40286 72.4027 4.16675 67.0555 4.16675 60.75C4.16675 55.3333 5.79175 50.5 9.04175 46.25C12.3195 42 16.5973 39.2916 21.8751 38.125C23.6251 31.7361 27.0973 26.5694 32.2917 22.625C37.514 18.6527 43.4167 16.6666 50.0001 16.6666C58.139 16.6666 65.0279 19.5 70.6667 25.1666C76.3334 30.8055 79.1667 37.6944 79.1667 45.8333C83.9723 46.3888 87.9445 48.4722 91.0834 52.0833C94.2501 55.6388 95.8334 59.8055 95.8334 64.5833C95.8334 69.8055 94.014 74.2361 90.3751 77.875C86.7362 81.5138 82.3056 83.3333 77.0834 83.3333H54.1667C51.889 83.3333 49.9306 82.5138 48.2917 80.875C46.6529 79.2638 45.8334 77.3055 45.8334 75V53.5416L39.1667 60L33.3334 54.1666L50.0001 37.5L66.6667 54.1666L60.8334 60L54.1667 53.5416V75H77.0834C80.0001 75 82.4584 73.9861 84.4584 71.9583C86.4862 69.9583 87.5001 67.5 87.5001 64.5833C87.5001 61.6666 86.4862 59.2083 84.4584 57.2083C82.4584 55.1805 80.0001 54.1666 77.0834 54.1666H70.8334V45.8333C70.8334 40.0833 68.8056 35.1666 64.7501 31.0833C60.6945 27.0277 55.7779 25 50.0001 25C44.2501 25 39.3334 27.0277 35.2501 31.0833C31.1945 35.1666 29.1667 40.0833 29.1667 45.8333H27.0834C23.0556 45.8333 19.6251 47.2638 16.7917 50.125C13.9306 52.9583 12.5001 56.3888 12.5001 60.4166C12.5001 64.4444 13.9306 67.9166 16.7917 70.8333C19.6251 73.6111 23.0556 75 27.0834 75H37.5001V83.3333" fill="#005CA9"/>
</svg>
