<svg width="300" height="310" viewBox="0 0 300 310" fill="none" xmlns="http://www.w3.org/2000/svg">
<path d="M289.647 149.52C334.308 266.643 222.5 294.372 144.911 294.372C29.1224 353.968 0.175269 229.519 0.175269 149.52C0.175269 69.5208 -10.9901 15.4289 144.911 4.6685C241.264 -21.8187 289.647 69.5208 289.647 149.52Z" fill="#E9EEF1" fill-opacity="0.5"/>
<g opacity="0.03">
<path d="M141.709 239.498C185.481 239.498 220.965 235.139 220.965 229.761C220.965 224.383 185.481 220.024 141.709 220.024C97.9366 220.024 62.4524 224.383 62.4524 229.761C62.4524 235.139 97.9366 239.498 141.709 239.498Z" fill="black"/>
</g>
<path opacity="0.58" d="M203.341 221.489C203.341 221.489 209.199 219.891 210.474 214.439C210.474 214.439 201.399 212.605 201.138 221.974L203.341 221.493V221.489Z" fill="#68E1FD"/>
<path opacity="0.73" d="M202.62 220.91C202.62 220.91 206.715 214.439 203.113 208.39C203.113 208.39 196.212 212.775 199.279 220.922L202.625 220.91H202.62Z" fill="#68E1FD"/>
<path d="M201.569 220.914C201.569 220.914 199.408 214.083 192.871 212.787C192.871 212.787 191.645 217.225 197.102 220.935L201.569 220.914Z" fill="#68E1FD"/>
<path d="M205.817 220.761L204.628 228.883L197.152 228.916L196.046 220.802L205.817 220.761Z" fill="#24285B"/>
<path d="M244.654 153.361C244.778 160.246 242.898 166.858 239.437 172.314C234.258 180.491 225.531 186.076 214.672 186.096C197.776 186.134 180.881 186.154 163.99 186.163H159.225C152.357 186.171 145.472 186.171 138.603 186.163H137.784C126.887 186.154 115.999 186.142 105.107 186.105C99.377 186.096 93.6472 186.076 87.9216 186.055C74.1312 185.997 64.158 179.104 57.8155 166.999C54.6443 160.954 53.5844 154.546 54.2344 148.393C55.0293 140.884 58.3868 133.75 63.566 128.136C67.7805 123.57 73.2039 120.01 79.4511 118.068C81.7364 117.352 82.1049 115.373 82.7549 113.522C86.2118 103.768 94.2185 97.4839 103.761 96.8671C105.902 96.7263 108.117 96.8753 110.373 97.3266C114.339 98.1215 116.078 96.9333 118.206 93.9152C119.369 92.2551 120.603 90.686 121.903 89.1874C139.258 69.1291 167.931 63.5235 191.372 76.4279C200.654 81.5449 207.704 88.2062 212.623 96.2957C216.56 102.742 219.139 110.09 220.426 118.292C220.559 119.103 220.675 119.923 220.778 120.747C221.035 122.8 220.845 125.073 223.436 125.988C233.674 129.581 242.435 138.747 244.289 149.561C244.335 149.809 244.376 150.066 244.405 150.323C244.55 151.325 244.633 152.331 244.645 153.361H244.654Z" fill="#005CA9" fill-opacity="0.2"/>
<path opacity="0.08" d="M163 133.278H158.647V168H146.357V133.278H142L152.501 121L163 133.278Z" fill="black"/>
<path opacity="0.04" d="M83.136 128.136V148.393H54.2346C55.0295 140.884 58.387 133.75 63.5662 128.136H83.136Z" fill="#000001"/>
<path opacity="0.04" d="M135.428 89.1873V111.191H103.765V96.8712C105.906 96.7304 108.121 96.8795 110.377 97.3307C114.343 98.1256 116.082 96.9374 118.21 93.9194C119.373 92.2592 120.607 90.6902 121.907 89.1915H135.424L135.428 89.1873Z" fill="#000001"/>
<path opacity="0.04" d="M220.431 118.292H187.46V96.2957H212.627C216.564 102.742 219.143 110.09 220.431 118.292Z" fill="#000001"/>
<path opacity="0.04" d="M244.654 153.362C244.778 160.246 242.898 166.858 239.437 172.314H209.849V150.319H244.414C244.559 151.32 244.641 152.327 244.654 153.357V153.362Z" fill="#000001"/>
<path d="M226.417 116.126H183.299L184.566 85.6021H227.684L226.417 116.126Z" fill="#68E1FD"/>
<g opacity="0.7">
<path opacity="0.38" d="M216.502 92.9009H191.977V109.221H216.502V92.9009Z" fill="white"/>
<path d="M219.619 95.2525L218.829 92.4869H207.965L205.941 95.2525H196.232L193.115 109.242H217.64L220.762 95.2525H219.619Z" fill="white"/>
<path d="M204.529 98.6679H198.282L198.696 98.0262H204.943L204.529 98.6679Z" fill="#E6E6E6"/>
</g>
<path d="M132.547 86.6205H101.96V109.44H132.547V86.6205Z" fill="#68E1FD"/>
<path opacity="0.46" d="M113.424 103.975V92.0812L124.465 98.0262L113.424 103.975Z" fill="white"/>
<path d="M80.6477 124.361H51.0798V146.419H80.6477V124.361Z" fill="#68E1FD"/>
<path opacity="0.46" d="M68.799 129.085C66.6586 127.462 64.7253 128.327 64.7253 128.327V138.379C63.7938 138.13 62.3075 138.002 60.7923 138.992C58.3083 140.614 58.6519 142.614 60.4818 142.891C62.1792 143.148 66.6586 142.718 65.694 138.751V130.786C66.2985 130.964 67.4287 131.299 68.799 131.713C70.869 132.334 72.111 130.542 72.111 130.542C72.111 130.542 70.9394 130.716 68.799 129.093V129.085Z" fill="white"/>
<path d="M247.92 171.958L208.752 170.489V142.941L247.92 144.415V171.958Z" fill="#68E1FD"/>
<path opacity="0.46" d="M241.714 156.943C241.714 152.219 236.241 148.393 229.485 148.393C222.728 148.393 217.255 152.223 217.255 156.943C217.255 161.662 222.728 165.492 229.485 165.492C230.922 165.492 232.296 165.31 233.579 164.991L233.65 168.439L237.997 163.074C240.286 161.521 241.714 159.348 241.714 156.943Z" fill="white"/>
<path d="M222.675 158.652C223.619 158.652 224.384 157.887 224.384 156.943C224.384 155.998 223.619 155.233 222.675 155.233C221.73 155.233 220.965 155.998 220.965 156.943C220.965 157.887 221.73 158.652 222.675 158.652Z" fill="#68E1FD"/>
<path d="M229.485 158.652C230.429 158.652 231.195 157.887 231.195 156.943C231.195 155.998 230.429 155.233 229.485 155.233C228.541 155.233 227.775 155.998 227.775 156.943C227.775 157.887 228.541 158.652 229.485 158.652Z" fill="#68E1FD"/>
<path d="M236.295 158.652C237.24 158.652 238.005 157.887 238.005 156.943C238.005 155.998 237.24 155.233 236.295 155.233C235.351 155.233 234.585 155.998 234.585 156.943C234.585 157.887 235.351 158.652 236.295 158.652Z" fill="#68E1FD"/>
<path opacity="0.04" d="M119.634 124.361H100.979V133.258H119.634V124.361Z" fill="#000001"/>
<path d="M117.253 123.686H98.5986V132.583H117.253V123.686Z" fill="#68E1FD"/>
<path opacity="0.04" d="M195.127 147.45H182.26V156.177H195.127V147.45Z" fill="#000001"/>
<path d="M193.45 145.868H180.583V154.595H193.45V145.868Z" fill="#68E1FD"/>
<path opacity="0.04" d="M168.722 82.7828H157.822V93.6834H168.722V82.7828Z" fill="#000001"/>
<path d="M167.728 81.1682H156.828V92.0688H167.728V81.1682Z" fill="#68E1FD"/>
<path opacity="0.04" d="M178.592 181.571C178.157 183.124 177.652 184.656 177.068 186.159C168.391 186.167 159.693 186.167 151.011 186.159H149.976C136.211 186.15 122.449 186.13 108.684 186.084C106.44 181.087 107.454 174.848 109.089 169.835C111.002 163.989 110.567 158.209 110.845 152.099C110.948 149.967 111.101 147.739 112.165 145.876C112.886 144.614 114.231 143.363 115.738 143.384C117.535 143.409 119.174 143.194 120.917 142.61C121.567 142.391 122.333 142.15 122.896 142.54C123.364 142.862 123.484 143.533 123.31 144.075C123.136 144.618 122.722 145.044 122.284 145.409C121.986 145.657 121.658 145.901 121.485 146.249C121.323 146.584 121.327 146.969 121.331 147.342C121.352 148.53 121.373 149.718 121.394 150.906C121.41 151.855 121.381 152.919 120.698 153.573C120.375 153.883 119.928 154.074 119.704 154.463C119.526 154.773 119.531 155.15 119.547 155.506C119.597 156.707 119.721 157.903 119.924 159.087C119.982 159.422 120.052 159.774 120.263 160.043C120.495 160.342 120.859 160.495 121.211 160.64C122.511 161.17 123.807 161.699 125.107 162.229C129.276 163.931 133.706 165.839 136.161 169.615C137.693 171.971 138.272 174.794 139.154 177.46C139.866 179.613 140.86 181.82 142.594 183.348C144.561 185.078 147.463 185.434 149.976 185.095C153.007 184.697 156.054 183.248 158.562 181.447C162.938 178.297 166.569 174.078 171.388 171.669C172.415 171.159 173.52 170.729 174.667 170.791C176.874 170.911 178.629 172.898 179.147 175.047C179.664 177.2 179.192 179.452 178.592 181.576V181.571Z" fill="#000001"/>
<path d="M122.665 161.244C122.665 161.244 138.045 166.966 140.131 177.183C142.218 187.401 153.893 203.663 170.362 171.967L175.781 174.057C175.781 174.057 160.769 224.93 134.29 200.119C107.81 175.308 122.66 161.244 122.66 161.244H122.665Z" fill="#68E1FD"/>
<path opacity="0.46" d="M122.665 161.244C122.665 161.244 138.045 166.966 140.131 177.183C142.218 187.401 153.893 203.663 170.362 171.967L175.781 174.057C175.781 174.057 160.769 224.93 134.29 200.119C107.81 175.308 122.66 161.244 122.66 161.244H122.665Z" fill="white"/>
<path d="M95.5104 158.992C95.5104 158.992 112.112 152.529 127.45 164.275C142.785 176.02 122.925 217.482 122.925 217.482L94.2228 218.438C94.2228 218.438 56.5612 183.989 95.5145 158.992H95.5104Z" fill="#68E1FD"/>
<path opacity="0.08" d="M102.855 163.678C102.855 163.678 113.308 180.18 102.598 190.319C87.4041 204.706 105.144 205.927 122.892 206.445L104.374 220.541L81.2107 207.815L83.8272 191.189L102.855 163.678Z" fill="#000001"/>
<path d="M118.624 216.029C107.603 216.397 104.767 215.573 94.583 211.342C88.4061 208.775 81.07 206.954 75.4603 209.276C63.5785 214.195 73.055 233.504 103.542 228.834L131.694 227.559C131.694 227.559 142.495 227.559 144.408 223.684C146.739 218.956 141.858 214.046 119.365 216L118.624 216.025V216.029Z" fill="#24285B"/>
<path d="M118.769 143.98C118.769 143.98 118.959 147.971 118.189 150.592C117.874 151.656 116.744 152.269 115.684 151.941C114.372 151.536 112.712 150.6 112.352 148.476L111.292 144.945C111.292 144.945 110.704 142.709 113.018 141.177C115.332 139.646 118.773 141.546 118.769 143.984V143.98Z" fill="#F4A28C"/>
<path d="M111.482 145.582L108.928 158.425L116.107 159.327L115.08 149.619L111.482 145.582Z" fill="#F4A28C"/>
<path d="M117.771 144.109C117.071 144.117 115.792 144.063 114.103 143.682C114.103 143.682 115.283 145.467 113.962 147.334C112.641 149.201 110.646 148.29 110.646 148.29L110.911 143.165C110.94 141.67 111.78 140.304 113.109 139.617C113.652 139.335 114.252 139.062 114.852 138.847C116.351 138.313 118.475 139.381 119.837 138.433C120.433 138.019 121.261 138.4 121.34 139.124C121.509 140.693 121.137 143.136 118.992 143.91C118.599 144.051 118.185 144.1 117.767 144.109H117.771Z" fill="#24285B"/>
<path d="M114.393 147.234C114.393 147.234 114.422 145.698 113.263 145.769C112.103 145.843 112.046 148.066 113.61 148.331L114.393 147.23V147.234Z" fill="#F4A28C"/>
<path d="M118.76 146.502L119.812 148.083C120.073 148.472 119.837 149.002 119.373 149.072L117.837 149.3L118.76 146.502Z" fill="#F4A28C"/>
<path d="M105.881 208.933C105.881 208.933 114.62 207.624 114.343 212.978L106.295 213.669L105.877 208.937L105.881 208.933Z" fill="#F4A28C"/>
<path opacity="0.31" d="M115.399 151.735C115.399 151.735 114.078 151.412 113.118 150.252C113.118 150.252 113.13 152.649 115.664 155.113L115.399 151.735Z" fill="#CE8172"/>
<path d="M131.512 215.623L138.322 195.113H113.859L110.646 213.371L101.348 214V216.381L131.512 215.623Z" fill="#FFD200"/>
<path d="M124.42 207.484C125.954 207.484 127.198 206.24 127.198 204.706C127.198 203.172 125.954 201.928 124.42 201.928C122.886 201.928 121.642 203.172 121.642 204.706C121.642 206.24 122.886 207.484 124.42 207.484Z" fill="white"/>
<path d="M170.361 171.967C170.361 171.967 172.249 166.084 175.499 164.366C175.934 164.138 176.439 164.523 176.344 165.003L175.781 167.868C175.781 167.868 180.02 170.646 175.781 174.053L170.361 171.963V171.967Z" fill="#F4A28C"/>
<path d="M97.9529 225.108C97.9529 225.108 108.435 226.524 105.906 228.95C103.376 231.376 97.1787 229.562 97.1787 229.562L97.9529 225.112V225.108Z" fill="#68E1FD"/>
<path d="M115.875 228.213L113.722 224.963C113.722 224.963 107.082 229.48 107.719 231.496C108.99 235.528 115.879 228.213 115.879 228.213H115.875Z" fill="#68E1FD"/>
<path d="M103.637 167.007C103.637 161.782 98.3668 158.127 93.4485 159.89C88.1203 161.803 81.3887 165.583 76.9548 173.014C68.6168 186.982 53.9405 224.242 106.299 213.665L105.819 208.208C105.819 208.208 85.4169 210.361 83.4794 201.174C81.811 193.263 103.633 184.246 103.637 167.007Z" fill="#68E1FD"/>
<path opacity="0.46" d="M103.637 167.007C103.637 161.782 98.3668 158.127 93.4485 159.89C88.1203 161.803 81.3887 165.583 76.9548 173.014C68.6168 186.982 53.9405 224.242 106.299 213.665L105.819 208.208C105.819 208.208 85.4169 210.361 83.4794 201.174C81.811 193.263 103.633 184.246 103.637 167.007Z" fill="white"/>
</svg>
