<svg width="250" height="150" viewBox="0 0 250 150" fill="none" xmlns="http://www.w3.org/2000/svg">
<g clip-path="url(#clip0_854_1911)">
<path d="M41.9516 142.784C41.7513 142.793 41.553 142.74 41.3836 142.633C41.2142 142.526 41.0818 142.369 41.0044 142.184C40.9271 141.999 40.9085 141.795 40.9511 141.599C40.9938 141.403 41.0956 141.225 41.2428 141.089L41.3099 140.823C41.301 140.801 41.2922 140.78 41.2832 140.759C41.0814 140.282 40.7433 139.876 40.3113 139.591C39.8793 139.306 39.3726 139.155 38.855 139.157C38.3374 139.159 37.832 139.314 37.4021 139.602C36.9722 139.89 36.6371 140.299 36.4388 140.777C35.6465 142.684 34.6377 144.595 34.3893 146.612C34.28 147.504 34.3261 148.408 34.5257 149.284C32.6648 145.225 31.6984 140.815 31.6922 136.351C31.6918 135.23 31.7541 134.111 31.8787 132.998C31.9817 132.085 32.1246 131.179 32.3074 130.279C33.3048 125.398 35.4463 120.822 38.5561 116.929C40.0612 116.108 41.2784 114.845 42.0437 113.311C42.3209 112.76 42.5169 112.172 42.6255 111.564C42.4557 111.586 41.9853 109.001 42.1133 108.843C41.8767 108.484 41.4532 108.305 41.1948 107.955C39.9096 106.213 38.1389 106.517 37.2145 108.885C35.2398 109.881 35.2207 111.533 36.4324 113.122C37.2032 114.133 37.3092 115.501 37.9855 116.584C37.9159 116.673 37.8435 116.759 37.774 116.848C36.5019 118.483 35.3933 120.239 34.4639 122.09C34.6899 120.016 34.4201 117.918 33.6768 115.969C32.9234 114.152 31.5113 112.622 30.2678 111.051C28.7742 109.165 25.7113 109.988 25.4482 112.379C25.4456 112.403 25.4431 112.426 25.4407 112.449C25.6254 112.553 25.8062 112.664 25.9831 112.781C26.2053 112.929 26.3775 113.141 26.4772 113.389C26.5768 113.637 26.5991 113.909 26.5413 114.17C26.4835 114.431 26.3482 114.668 26.1532 114.851C25.9581 115.034 25.7124 115.153 25.4483 115.194L25.4212 115.198C25.487 115.863 25.6033 116.523 25.7691 117.171C24.1739 123.338 27.6179 125.584 32.5356 125.685C32.6442 125.741 32.7499 125.797 32.8585 125.849C31.9247 128.495 31.339 131.25 31.1161 134.047C30.9899 135.696 30.9973 137.354 31.1384 139.002L31.13 138.944C30.7737 137.111 29.7955 135.457 28.3605 134.261C26.2292 132.511 23.2181 131.866 20.9188 130.459C20.6745 130.303 20.3904 130.219 20.1 130.218C19.8096 130.217 19.5251 130.3 19.2799 130.455C19.0348 130.611 18.8393 130.834 18.7166 131.097C18.5938 131.36 18.5488 131.652 18.5869 131.94C18.59 131.961 18.5931 131.981 18.5963 132.002C18.9391 132.141 19.2728 132.302 19.5956 132.483C19.7803 132.587 19.9611 132.698 20.138 132.815C20.3602 132.963 20.5324 133.175 20.632 133.423C20.7316 133.671 20.754 133.943 20.6961 134.204C20.6383 134.465 20.5031 134.702 20.308 134.885C20.113 135.068 19.8673 135.187 19.6031 135.228L19.5761 135.232C19.5566 135.235 19.5399 135.238 19.5204 135.24C20.1061 136.638 20.928 137.925 21.9503 139.044C22.9478 144.428 27.232 144.939 31.8147 143.371H31.8175C32.3203 145.555 33.0488 147.681 33.9914 149.715H41.757C41.7849 149.629 41.8099 149.54 41.835 149.453C41.1162 149.498 40.3945 149.456 39.6862 149.325C40.2623 148.619 40.8385 147.906 41.4147 147.2C41.4275 147.186 41.4396 147.172 41.4509 147.158C41.7431 146.796 42.0382 146.437 42.3304 146.075L42.3306 146.075C42.3462 144.966 42.2186 143.86 41.9516 142.784Z" fill="#F2F2F2"/>
<path d="M204.151 142.784C204.351 142.793 204.549 142.74 204.719 142.633C204.888 142.526 205.021 142.369 205.098 142.184C205.175 141.999 205.194 141.795 205.151 141.599C205.109 141.403 205.007 141.225 204.86 141.089L204.793 140.823C204.801 140.801 204.81 140.78 204.819 140.759C205.021 140.282 205.359 139.876 205.791 139.591C206.223 139.306 206.73 139.155 207.247 139.157C207.765 139.159 208.271 139.314 208.7 139.602C209.13 139.89 209.465 140.299 209.664 140.777C210.456 142.684 211.465 144.595 211.713 146.612C211.823 147.504 211.776 148.408 211.577 149.284C213.438 145.225 214.404 140.815 214.41 136.351C214.411 135.23 214.348 134.111 214.224 132.998C214.121 132.085 213.978 131.179 213.795 130.279C212.798 125.398 210.656 120.822 207.546 116.929C206.041 116.108 204.824 114.845 204.059 113.311C203.782 112.76 203.586 112.172 203.477 111.564C203.647 111.586 204.117 109.001 203.989 108.843C204.226 108.484 204.649 108.305 204.908 107.955C206.193 106.213 207.964 106.517 208.888 108.885C210.863 109.881 210.882 111.533 209.67 113.122C208.899 114.133 208.793 115.501 208.117 116.584C208.187 116.673 208.259 116.759 208.329 116.848C209.601 118.483 210.709 120.239 211.639 122.09C211.413 120.016 211.682 117.918 212.426 115.969C213.179 114.152 214.591 112.622 215.835 111.051C217.328 109.165 220.391 109.988 220.654 112.379C220.657 112.403 220.659 112.426 220.662 112.449C220.477 112.553 220.296 112.664 220.119 112.781C219.897 112.929 219.725 113.141 219.625 113.389C219.526 113.637 219.503 113.909 219.561 114.17C219.619 114.431 219.754 114.668 219.949 114.851C220.144 115.034 220.39 115.153 220.654 115.194L220.681 115.198C220.615 115.863 220.499 116.523 220.333 117.171C221.929 123.338 218.485 125.584 213.567 125.685C213.458 125.741 213.353 125.797 213.244 125.849C214.178 128.495 214.763 131.25 214.986 134.047C215.113 135.696 215.105 137.354 214.964 139.002L214.972 138.944C215.329 137.111 216.307 135.457 217.742 134.261C219.873 132.511 222.884 131.866 225.184 130.459C225.428 130.303 225.712 130.219 226.003 130.218C226.293 130.217 226.577 130.3 226.823 130.455C227.068 130.611 227.263 130.834 227.386 131.097C227.509 131.36 227.554 131.652 227.516 131.94C227.513 131.961 227.509 131.981 227.506 132.002C227.163 132.141 226.83 132.302 226.507 132.483C226.322 132.587 226.141 132.698 225.965 132.815C225.742 132.963 225.57 133.175 225.471 133.423C225.371 133.671 225.349 133.943 225.406 134.204C225.464 134.465 225.599 134.702 225.794 134.885C225.99 135.068 226.235 135.187 226.499 135.228L226.526 135.232C226.546 135.235 226.563 135.238 226.582 135.24C225.996 136.638 225.174 137.925 224.152 139.044C223.155 144.428 218.871 144.939 214.288 143.371H214.285C213.782 145.555 213.054 147.681 212.111 149.715H204.345C204.318 149.629 204.293 149.54 204.268 149.453C204.986 149.498 205.708 149.456 206.416 149.325C205.84 148.619 205.264 147.906 204.688 147.2C204.675 147.186 204.663 147.172 204.652 147.158C204.359 146.796 204.064 146.437 203.772 146.075L203.772 146.075C203.756 144.966 203.884 143.86 204.151 142.784Z" fill="#F2F2F2"/>
<path d="M50.8833 149.541H63.4147C65.5579 142.327 63.4261 125.278 66.2511 118.309C71.671 104.948 78.595 90.8496 91.5184 84.3255C97.0363 81.5398 103.053 80.4517 109.197 80.511C117.685 80.5914 126.411 82.8691 134.4 85.8877C137.668 87.1197 140.907 88.4745 144.132 89.8589C156.284 95.079 168.304 100.765 181.373 102.302C197.909 104.245 217.352 96.8486 221.869 80.9174C225.316 68.7203 219.107 56.0575 212.597 45.1644C206.086 34.2712 198.808 22.616 199.997 10.004C200.001 9.96167 200.006 9.91508 200.014 9.87276C200.462 5.34276 203.167 2.08718 206.947 0H190.491C190.274 11.7653 197.083 22.1503 203.21 32.4042C209.721 43.2931 215.929 55.9601 212.482 68.1572C207.965 84.0842 170.566 65.4145 154.029 63.467C149.359 62.9209 156.777 64.8641 152.325 63.467C145.341 61.2782 144.567 81.3535 137.771 78.4069C133.54 76.5695 129.304 74.7448 125.014 73.1233C123.237 72.4502 121.422 71.8194 119.585 71.2351C119.581 71.2351 119.581 71.2351 119.577 71.2309C107.245 67.3275 93.7596 65.8076 82.3659 71.451C82.2892 71.4891 82.2083 71.5272 82.1316 71.5653C69.2082 78.0851 62.2842 92.1831 56.8643 105.545C52.386 116.59 53.0904 137.89 50.8833 149.541Z" fill="#F2F2F2"/>
<path d="M120.603 149.171C152.39 149.171 178.158 123.411 178.158 91.6348C178.158 59.8582 152.39 34.0981 120.603 34.0981C88.8158 34.0981 63.0474 59.8582 63.0474 91.6348C63.0474 123.411 88.8158 149.171 120.603 149.171Z" fill="white"/>
<path d="M120.439 149.541C63.4933 150.849 62.2446 123.804 62.2446 91.6348C62.2446 59.4669 88.4241 33.2959 120.603 33.2959C152.782 33.2959 178.961 59.4669 178.961 91.6348C178.961 123.804 152.617 149.541 120.439 149.541ZM120.603 34.9012C89.3093 34.9012 64.3774 60.3562 63.8504 91.6348C63.3602 120.728 94.2768 157.032 120.603 148.369C134.721 132.826 174.636 116.085 177.356 91.6348C180.814 60.5434 151.897 34.9012 120.603 34.9012Z" fill="#3F3D56"/>
<path d="M112.751 121.58C111.757 121.58 110.777 121.349 109.888 120.904C108.999 120.46 108.226 119.814 107.63 119.019L91.9281 98.0899C91.4232 97.4176 91.0558 96.6524 90.8468 95.838C90.6378 95.0237 90.5914 94.1762 90.7102 93.3439C90.8289 92.5116 91.1106 91.7109 91.539 90.9874C91.9674 90.264 92.5342 89.632 93.207 89.1276C93.8798 88.6232 94.6454 88.2562 95.4601 88.0477C96.2748 87.8392 97.1227 87.7931 97.9552 87.9123C98.7877 88.0314 99.5885 88.3133 100.312 88.7419C101.036 89.1705 101.667 89.7374 102.172 90.4102L112.444 104.102L138.829 64.5387C139.771 63.1273 141.236 62.1478 142.9 61.8154C144.565 61.483 146.293 61.8251 147.705 62.7664C149.118 63.7076 150.098 65.171 150.432 66.8349C150.765 68.4987 150.424 70.2268 149.483 71.6392L118.079 118.73C117.511 119.581 116.747 120.285 115.851 120.78C114.955 121.276 113.953 121.549 112.93 121.578C112.87 121.579 112.811 121.58 112.751 121.58Z" fill="#F2F2F2"/>
<path d="M1.83485e-06 149.586C-0.000160522 149.64 0.0104534 149.694 0.0312298 149.745C0.0520062 149.795 0.082537 149.841 0.121065 149.879C0.159593 149.918 0.205355 149.948 0.255725 149.969C0.306095 149.99 0.36008 150.001 0.414565 150H249.585C249.695 150 249.801 149.957 249.879 149.879C249.956 149.801 250 149.696 250 149.586C250 149.476 249.956 149.371 249.879 149.293C249.801 149.215 249.695 149.171 249.585 149.171H0.414565C0.36008 149.171 0.3061 149.182 0.255731 149.203C0.205362 149.223 0.159598 149.254 0.121071 149.292C0.0825427 149.331 0.0520121 149.377 0.0312351 149.427C0.010458 149.477 -0.000158673 149.531 1.83485e-06 149.586Z" fill="#CCCCCC"/>
<path d="M157.356 145.523H153.986L152.383 132.528L157.357 132.529L157.356 145.523Z" fill="#FFB6B6"/>
<path d="M157.475 149.038L147.112 149.038V148.907C147.112 147.837 147.537 146.812 148.293 146.055C149.05 145.299 150.076 144.874 151.146 144.874L153.039 143.438L156.571 144.874L157.476 144.874L157.475 149.038Z" fill="#2F2E41"/>
<path d="M142.705 129.418L139.592 130.709L133.131 119.319L137.726 117.415L142.705 129.418Z" fill="#FFB6B6"/>
<path d="M144.161 132.619L134.588 136.587L134.538 136.466C134.128 135.478 134.128 134.368 134.537 133.38C134.946 132.392 135.731 131.606 136.719 131.197L137.918 129.146L141.73 129.119L142.566 128.773L144.161 132.619Z" fill="#2F2E41"/>
<path d="M161.21 71.6006L137.293 74.0986L134.094 84.8704L123.014 102.67C123.014 102.67 130.745 115.678 130.019 115.536C129.293 115.395 130.744 118.94 131.761 118.735C132.777 118.529 133.834 120.841 133.131 121.252C132.429 121.663 135.247 125.139 135.247 125.139L139.556 121.273C140.472 114.363 139.365 108.213 135.42 103.129L147.763 89.8083L150.104 88.8374L151.962 138.268L158.834 138.381C160.73 128.63 161.682 119.854 160.2 113.593C160.2 113.593 160.413 94.7857 161.226 94.9913C162.038 95.197 161.349 92.7468 161.349 92.7468C161.349 92.7468 160.638 90.6601 161.512 89.7944C162.387 88.9287 161.841 83.8372 161.841 83.8372C163.286 79.0188 162.851 75.0403 161.21 71.6006Z" fill="#2F2E41"/>
<path d="M142.82 31.8491L149.432 30.1363L152.519 25.8809L159.848 26.7816L161.409 32.5861L166.627 35.614C166.627 35.614 163.743 66.1096 164.429 67.7841C165.115 69.4585 167.575 69.3203 165.474 71.4788C163.373 73.6374 163.095 72.7679 163.582 75.118C164.07 77.468 167.623 79.955 163.582 79.9303C159.541 79.9056 135.157 79.5574 135.854 76.7715C136.55 73.9856 136.539 74.693 137.59 72.9464C138.64 71.1997 139.347 72.1758 138.994 69.5983C138.64 67.0209 138.989 65.2797 138.989 63.8868C138.989 62.4938 140.156 49.836 140.156 49.836L142.82 31.8491Z" fill="#E6E6E6"/>
<path d="M156.165 25.0941C160.455 25.0941 163.933 21.6177 163.933 17.3293C163.933 13.0409 160.455 9.56445 156.165 9.56445C151.876 9.56445 148.398 13.0409 148.398 17.3293C148.398 21.6177 151.876 25.0941 156.165 25.0941Z" fill="#FFB6B6"/>
<path d="M148.026 12.6303C148.708 13.1813 148.552 15.8608 149.312 15.4241C150.072 14.9873 150.23 14.2052 151.105 14.197C151.819 14.2364 152.492 14.5408 152.992 15.0506C153.085 15.1348 153.174 15.223 153.26 15.3102C153.339 15.2826 153.416 15.2576 153.498 15.2371C154.112 15.0873 154.76 15.1785 155.308 15.4919C154.802 15.5281 154.32 15.7225 153.93 16.0476C154.097 16.2348 154.266 16.423 154.444 16.5969C155.932 18.0542 158.982 16.5023 161.033 16.1521C159.325 18.0165 159.662 19.0574 160.086 21.5494L160.088 21.6855C160.176 21.1108 162.017 21.1395 161.713 21.9021C161.332 22.6554 160.855 23.3563 160.294 23.9875C162.803 22.2501 164.828 19.8552 165.276 16.9622C165.368 16.354 165.547 15.7334 165.374 15.1403C165.3 14.8405 165.129 14.5734 164.888 14.381C164.646 14.1885 164.348 14.0814 164.039 14.0764C164.318 13.189 164.352 12.2425 164.136 11.3375C163.921 10.4324 163.464 9.60275 162.814 8.93661C162.164 8.27047 161.346 7.79277 160.447 7.55431C159.547 7.31584 158.6 7.32553 157.705 7.58233C156.889 7.87222 156.093 8.21563 155.323 8.61032C154.545 9.00653 153.664 9.1556 152.799 9.03757C152.26 8.92629 151.715 8.64737 151.186 8.8053C150.574 8.98879 150.311 9.63495 150.066 10.2587C150.526 10.4268 150.926 10.7284 151.214 11.1248C150.738 10.9492 150.219 10.9281 149.73 11.0645C149.721 11.0661 149.713 11.0685 149.704 11.0717C149.15 12.0644 149.118 12.3078 148.026 12.6303Z" fill="#2F2E41"/>
<path d="M150.587 28.0564C146.609 27.7362 142.976 30.7778 141.32 34.408C139.664 38.0383 139.555 42.1565 139.475 46.1457L139.225 58.5458C139.188 60.3808 139.151 62.2161 139.06 64.0491C139.013 65.8327 138.788 67.6073 138.39 69.3465C137.579 72.5381 135.794 75.3821 134.036 78.1667C138.538 79.527 143.116 80.6199 147.746 81.4399C150.059 73.9628 152.397 66.2708 151.829 58.4652C151.528 54.3347 150.417 50.302 149.994 46.1822C149.396 40.3474 150.189 34.4696 150.981 28.6579" fill="#3F3D56"/>
<path d="M160.244 28.7539C164.185 29.3873 166.991 33.2043 167.738 37.1238C168.484 41.0434 167.611 45.0696 166.742 48.9637C165.841 52.9987 164.94 57.0336 164.039 61.0685C163.639 62.8597 163.239 64.6513 162.892 66.4536C162.556 68.2045 163.966 70.45 163.982 72.2328C164.012 75.5256 163.372 78.2376 164.419 81.3599C159.723 81.6127 155.016 81.5876 150.323 81.2849C149.853 73.4727 149.408 65.4455 151.815 57.9981C153.088 54.0572 155.126 50.4037 156.515 46.502C158.482 40.9761 159.108 35.0782 159.72 29.2448" fill="#3F3D56"/>
<path d="M162.872 85.0466C162.579 84.5367 162.497 83.9328 162.643 83.3634C162.789 82.794 163.151 82.3039 163.653 81.9976C163.756 81.9369 163.864 81.8848 163.976 81.842L163.473 64.7381L168.916 63.353L166.841 83.2797C166.983 83.756 166.963 84.2659 166.785 84.7299C166.606 85.1938 166.28 85.5857 165.855 85.8443C165.612 85.9892 165.343 86.0848 165.063 86.1257C164.783 86.1665 164.498 86.1519 164.224 86.0826C163.949 86.0133 163.691 85.8906 163.464 85.7216C163.238 85.5527 163.046 85.3407 162.901 85.0978C162.891 85.0809 162.881 85.0638 162.872 85.0466Z" fill="#FFB6B6"/>
<path d="M162.474 35.5869C162.474 35.5869 166.274 32.3748 169.471 38.7974C172.669 45.2201 170.882 59.8927 170.432 60.6758C169.982 61.4589 169.707 60.368 169.954 62.4554C170.154 64.1531 168.962 63.9407 169.39 64.303C170.517 65.2583 167.36 65.367 168.981 66.2088C170.603 67.0505 163.346 67.2081 163.346 67.2081C163.346 67.2081 162.468 66.5814 163.078 64.2183C163.42 62.891 164.277 62.4054 163.363 61.7912C162.449 61.177 164.307 59.2783 164.309 58.8617C164.31 58.445 161.41 49.3328 161.41 49.3328L162.474 35.5869Z" fill="#3F3D56"/>
<path d="M131.032 114.709C130.038 114.709 129.058 114.477 128.169 114.033C127.28 113.588 126.507 112.943 125.911 112.148L110.209 91.2186C109.704 90.5463 109.337 89.7811 109.128 88.9667C108.919 88.1524 108.872 87.3049 108.991 86.4726C109.11 85.6403 109.391 84.8396 109.82 84.1161C110.248 83.3927 110.815 82.7607 111.488 82.2563C112.161 81.7519 112.926 81.3849 113.741 81.1764C114.556 80.9679 115.403 80.9219 116.236 81.041C117.068 81.1601 117.869 81.442 118.593 81.8706C119.316 82.2992 119.948 82.8661 120.452 83.539L130.725 97.2305L157.11 57.6674C157.576 56.9681 158.176 56.3674 158.874 55.8997C159.573 55.4321 160.357 55.1065 161.181 54.9417C162.006 54.7768 162.854 54.7759 163.679 54.9391C164.504 55.1022 165.289 55.4261 165.988 55.8923C166.688 56.3585 167.289 56.9579 167.756 57.6563C168.224 58.3547 168.55 59.1383 168.715 59.9625C168.88 60.7866 168.881 61.6352 168.717 62.4597C168.554 63.2842 168.23 64.0686 167.764 64.7679L136.36 111.859C135.792 112.71 135.028 113.413 134.132 113.909C133.236 114.404 132.234 114.678 131.21 114.707C131.151 114.708 131.092 114.709 131.032 114.709Z" fill="#005CA9"/>
<path d="M143.002 82.0754C143.322 81.5825 143.437 80.9841 143.323 80.4074C143.209 79.8308 142.874 79.3215 142.39 78.9879C142.291 78.9216 142.186 78.8637 142.077 78.8147L143.524 61.7648L138.166 60.0811L139.136 80.092C138.968 80.5597 138.96 81.0699 139.112 81.543C139.265 82.0161 139.569 82.4254 139.979 82.7071C140.213 82.8652 140.477 82.9755 140.754 83.0318C141.031 83.0881 141.317 83.0892 141.595 83.0351C141.872 82.9811 142.137 82.8729 142.373 82.7167C142.608 82.5605 142.811 82.3594 142.969 82.1249C142.98 82.1086 142.991 82.0921 143.002 82.0754Z" fill="#FFB6B6"/>
<path d="M146.138 32.7482C146.138 32.7482 142.521 29.3311 138.974 35.5673C135.427 41.8035 136.399 56.5524 136.805 57.3592C137.212 58.1659 137.546 57.0919 137.185 59.1625C136.891 60.8464 138.092 60.7003 137.645 61.0384C136.467 61.9299 139.613 62.2129 137.948 62.9638C136.282 63.7146 143.52 64.2729 143.52 64.2729C143.52 64.2729 144.431 63.6957 143.953 61.3025C143.684 59.9583 142.855 59.4261 143.802 58.8634C144.749 58.3007 142.998 56.3021 143.019 55.8861C143.041 55.47 146.44 46.5319 146.44 46.5319L146.138 32.7482Z" fill="#3F3D56"/>
</g>
<defs>
<clipPath id="clip0_854_1911">
<rect width="250" height="150" fill="white"/>
</clipPath>
</defs>
</svg>
