<svg width="200" height="164" viewBox="0 0 200 164" fill="none" xmlns="http://www.w3.org/2000/svg">
<g clip-path="url(#clip0_826_3895)">
<path d="M159.749 17.0649C159.316 18.6641 159.814 21.182 160.002 22.6748C160.202 24.2707 157.428 25.6989 155.84 25.7892C155.879 25.2609 155.73 24.7359 155.42 24.3061C155.416 24.8172 155.31 25.3224 155.109 25.7924H141.862C140.193 22.6619 138.774 18.3836 140.306 13.9602C140.384 13.0718 140.723 12.2261 141.281 11.5292C141.839 10.8323 142.591 10.3153 143.443 10.043L150.666 7.73779C153.515 7.73779 157.011 8.1408 158.585 10.2558C159.282 11.2295 159.749 12.3479 159.951 13.5272C160.152 14.7065 160.083 15.916 159.749 17.0649Z" fill="#2F2E41"/>
<path d="M172.433 155.402C172.67 155.41 172.903 155.346 173.101 155.218C173.299 155.09 173.454 154.905 173.543 154.687C173.632 154.468 173.651 154.228 173.599 153.998C173.547 153.769 173.425 153.561 173.25 153.402C173.219 153.288 173.198 153.205 173.168 153.09C173.388 152.516 173.775 152.02 174.28 151.667C174.785 151.314 175.384 151.119 176 151.107C176.617 151.095 177.223 151.268 177.741 151.602C178.259 151.936 178.665 152.416 178.907 152.982C180.303 156.156 182.102 159.439 181.256 162.958C186.945 150.633 184.825 135.39 176.144 124.978C173.76 123.698 171.815 121.402 171.289 118.719C172.467 119.105 173.921 118.139 173.027 116.914C172.64 116.447 172.249 115.983 171.862 115.515C176.276 110.738 181.66 118.129 176.813 124.567C178.437 126.558 179.849 128.714 181.024 130.999C180.734 128.564 181.029 126.095 181.883 123.796C182.75 121.652 184.397 119.838 185.844 117.978C187.604 115.712 191.281 116.715 191.548 119.567C189.909 120.121 189.718 122.491 191.601 122.797C191.16 128.112 187.727 133.024 182.958 135.399C184.775 140.332 185.516 145.595 185.132 150.837C185.92 144.708 192.495 143.16 197.078 140.683C197.37 140.493 197.71 140.391 198.058 140.391C198.407 140.39 198.748 140.491 199.04 140.68C199.332 140.869 199.562 141.139 199.703 141.457C199.843 141.775 199.888 142.126 199.832 142.469C199.199 142.733 198.593 143.059 198.024 143.442C197.758 143.624 197.555 143.884 197.442 144.186C197.33 144.488 197.314 144.818 197.397 145.129C197.479 145.441 197.656 145.719 197.904 145.926C198.152 146.133 198.457 146.259 198.779 146.286C196.512 152.037 190.546 155.942 184.381 155.979C183.813 158.551 182.979 161.058 181.891 163.459L172.74 163.545C172.707 163.444 172.676 163.34 172.646 163.239C173.493 163.284 174.343 163.225 175.176 163.064C172.91 160.44 171.164 159.107 172.433 155.402L172.433 155.402Z" fill="#F2F2F2"/>
<path d="M153.548 157.237H149.979L148.281 143.511H153.548V157.237Z" fill="#FFB6B6"/>
<path d="M155.432 163.402H152.873L152.416 160.993L151.246 163.402H144.457C144.132 163.402 143.815 163.299 143.553 163.106C143.291 162.914 143.097 162.643 143 162.334C142.903 162.024 142.908 161.691 143.015 161.385C143.121 161.078 143.322 160.813 143.59 160.629L149.011 156.896V154.46L154.713 154.799L155.432 163.402Z" fill="#2F2E41"/>
<path d="M159.151 132.376L156.645 134.91L145.649 126.48L149.347 122.74L159.151 132.376Z" fill="#FFB6B6"/>
<path d="M164.877 135.367L163.08 137.185L161.038 135.817L161.937 138.34L157.172 143.16C156.943 143.391 156.647 143.543 156.325 143.594C156.004 143.645 155.675 143.593 155.385 143.444C155.096 143.295 154.862 143.058 154.718 142.767C154.573 142.477 154.526 142.148 154.582 141.828L155.722 135.358L153.982 133.648L158.228 129.838L164.877 135.367Z" fill="#2F2E41"/>
<path d="M130.601 58.1189L141.396 40.9932C141.851 40.2662 142.002 39.39 141.815 38.5536C141.628 37.7171 141.118 36.9875 140.397 36.5222C140.023 36.2815 139.605 36.1191 139.166 36.045C138.728 35.9709 138.279 35.9865 137.847 36.091C137.415 36.1955 137.008 36.3867 136.653 36.6528C136.297 36.919 136 37.2545 135.778 37.6391L125.111 55.7713L118.164 66.5166C117.586 66.416 116.991 66.4952 116.46 66.7435C115.928 66.9918 115.487 67.3972 115.194 67.9045C114.902 68.4119 114.774 68.9966 114.827 69.5793C114.879 70.1619 115.111 70.7143 115.489 71.1613C115.868 71.6083 116.375 71.9283 116.942 72.0778C117.51 72.2273 118.109 72.199 118.66 71.9969C119.21 71.7947 119.685 71.4284 120.02 70.9478C120.354 70.4672 120.532 69.8955 120.53 69.3105L130.601 58.1189Z" fill="#FFB6B6"/>
<path d="M140.775 45.4719L141.685 45.3007C141.562 45.078 141.511 44.8232 141.538 44.5706C141.565 44.318 141.669 44.0798 141.836 43.8879C142.003 43.696 142.225 43.5598 142.472 43.4975C142.719 43.4352 142.979 43.4498 143.218 43.5394C142.121 42.399 142.654 40.5214 143.359 39.1066C143.869 38.0841 144.442 37.0737 144.692 35.9591C145.071 34.2671 144.582 32.2191 142.319 31.814C141.394 31.6697 140.447 31.8608 139.651 32.3526C138.229 33.1906 137.909 32.8258 137.011 34.1748L136.5 35.1225C135.843 36.1485 135.059 37.0879 134.167 37.9185C133.528 38.5522 133.014 39.2989 132.65 40.1202C132.602 40.2219 132.531 40.3112 132.443 40.381C132.093 40.6509 131.617 40.6643 131.179 40.7218C130.626 40.7943 129.993 41.0277 130.007 41.7116C130.015 41.8751 130.057 42.0351 130.13 42.1817C130.203 42.3283 130.306 42.4582 130.432 42.5633C132.766 44.6005 135.498 46.1341 138.456 47.068C139.113 47.2751 139.851 47.4464 140.469 47.1427C141.087 46.839 141.353 45.8459 140.775 45.4719Z" fill="#005CA9"/>
<path d="M154.472 78.0216L133.454 77.6992L132.808 72.8631L134.748 61.9014H151.239L154.472 78.0216Z" fill="#FFB6B6"/>
<path d="M109.527 90.918H27.719C25.7472 90.9158 23.8569 90.1338 22.4626 88.7437C21.0684 87.3535 20.2841 85.4687 20.2819 83.5027V36.7542C20.2842 34.7882 21.0684 32.9034 22.4627 31.5132C23.8569 30.1231 25.7472 29.3411 27.719 29.3389H109.527C111.498 29.3411 113.389 30.1231 114.783 31.5132C116.177 32.9034 116.961 34.7882 116.964 36.7542V83.5027C116.961 85.4687 116.177 87.3535 114.783 88.7437C113.389 90.1338 111.498 90.9158 109.527 90.918Z" fill="white"/>
<path d="M109.527 90.918H27.719C25.7472 90.9158 23.8569 90.1338 22.4626 88.7437C21.0684 87.3535 20.2841 85.4687 20.2819 83.5027V36.7542C20.2842 34.7882 21.0684 32.9034 22.4627 31.5132C23.8569 30.1231 25.7472 29.3411 27.719 29.3389H109.527C111.498 29.3411 113.389 30.1231 114.783 31.5132C116.177 32.9034 116.961 34.7882 116.964 36.7542V83.5027C116.961 85.4687 116.177 87.3535 114.783 88.7437C113.389 90.1338 111.498 90.9158 109.527 90.918ZM27.719 29.9837C25.9187 29.9857 24.1927 30.6997 22.9197 31.9689C21.6467 33.2382 20.9306 34.9591 20.9286 36.7542V83.5027C20.9307 85.2977 21.6467 87.0187 22.9197 88.2879C24.1927 89.5572 25.9187 90.2712 27.719 90.2732H109.527C111.327 90.2712 113.053 89.5572 114.326 88.2879C115.599 87.0187 116.315 85.2977 116.317 83.5027V36.7542C116.315 34.9591 115.599 33.2382 114.326 31.9689C113.053 30.6997 111.327 29.9857 109.527 29.9837H27.719Z" fill="#E6E6E6"/>
<path d="M116.317 63.3006H20.605C20.5192 63.3006 20.437 63.2666 20.3763 63.2061C20.3157 63.1457 20.2816 63.0637 20.2816 62.9782C20.2816 62.8927 20.3157 62.8107 20.3763 62.7502C20.437 62.6897 20.5192 62.6558 20.605 62.6558H116.317C116.403 62.6558 116.485 62.6897 116.546 62.7502C116.606 62.8107 116.641 62.8927 116.641 62.9782C116.641 63.0637 116.606 63.1457 116.546 63.2061C116.485 63.2666 116.403 63.3006 116.317 63.3006Z" fill="#E6E6E6"/>
<path d="M109.203 15.1529C110.81 15.1529 112.113 13.8538 112.113 12.2512C112.113 10.6487 110.81 9.34961 109.203 9.34961C107.596 9.34961 106.293 10.6487 106.293 12.2512C106.293 13.8538 107.596 15.1529 109.203 15.1529Z" fill="#F2F2F2"/>
<path d="M2.91015 61.3536C4.51739 61.3536 5.8203 60.0545 5.8203 58.4519C5.8203 56.8494 4.51739 55.5503 2.91015 55.5503C1.30292 55.5503 0 56.8494 0 58.4519C0 60.0545 1.30292 61.3536 2.91015 61.3536Z" fill="#F2F2F2"/>
<path d="M62.7299 111.003C64.3372 111.003 65.6401 109.704 65.6401 108.102C65.6401 106.499 64.3372 105.2 62.7299 105.2C61.1227 105.2 59.8198 106.499 59.8198 108.102C59.8198 109.704 61.1227 111.003 62.7299 111.003Z" fill="#F2F2F2"/>
<path d="M45.1545 77.4734H35.0517C34.9659 77.4734 34.8836 77.4394 34.823 77.379C34.7624 77.3185 34.7283 77.2365 34.7283 77.151C34.7283 77.0655 34.7624 76.9835 34.823 76.923C34.8836 76.8626 34.9659 76.8286 35.0517 76.8286H45.1545C45.2402 76.8286 45.3225 76.8626 45.3831 76.923C45.4437 76.9835 45.4778 77.0655 45.4778 77.151C45.4778 77.2365 45.4437 77.3185 45.3831 77.379C45.3225 77.4394 45.2402 77.4734 45.1545 77.4734Z" fill="#CCCCCC"/>
<path d="M45.1545 82.6321H35.0517C34.9659 82.6321 34.8836 82.5981 34.823 82.5377C34.7624 82.4772 34.7283 82.3952 34.7283 82.3097C34.7283 82.2242 34.7624 82.1422 34.823 82.0817C34.8836 82.0213 34.9659 81.9873 35.0517 81.9873H45.1545C45.2402 81.9873 45.3225 82.0213 45.3831 82.0817C45.4437 82.1422 45.4778 82.2242 45.4778 82.3097C45.4778 82.3952 45.4437 82.4772 45.3831 82.5377C45.3225 82.5981 45.2402 82.6321 45.1545 82.6321Z" fill="#CCCCCC"/>
<path d="M100.447 77.4734H90.3445C90.2588 77.4734 90.1765 77.4394 90.1159 77.379C90.0553 77.3185 90.0212 77.2365 90.0212 77.151C90.0212 77.0655 90.0553 76.9835 90.1159 76.923C90.1765 76.8626 90.2588 76.8286 90.3445 76.8286H100.447C100.533 76.8286 100.615 76.8626 100.676 76.923C100.737 76.9835 100.771 77.0655 100.771 77.151C100.771 77.2365 100.737 77.3185 100.676 77.379C100.615 77.4394 100.533 77.4734 100.447 77.4734Z" fill="#CCCCCC"/>
<path d="M100.447 82.6321H90.3445C90.2588 82.6321 90.1765 82.5981 90.1159 82.5377C90.0553 82.4772 90.0212 82.3952 90.0212 82.3097C90.0212 82.2242 90.0553 82.1422 90.1159 82.0817C90.1765 82.0213 90.2588 81.9873 90.3445 81.9873H100.447C100.533 81.9873 100.615 82.0213 100.676 82.0817C100.737 82.1422 100.771 82.2242 100.771 82.3097C100.771 82.3952 100.737 82.4772 100.676 82.5377C100.615 82.5981 100.533 82.6321 100.447 82.6321Z" fill="#CCCCCC"/>
<path d="M82.0164 77.4734H71.9136C71.8278 77.4734 71.7456 77.4394 71.6849 77.379C71.6243 77.3185 71.5902 77.2365 71.5902 77.151C71.5902 77.0655 71.6243 76.9835 71.6849 76.923C71.7456 76.8626 71.8278 76.8286 71.9136 76.8286H82.0164C82.1021 76.8286 82.1844 76.8626 82.245 76.923C82.3057 76.9835 82.3397 77.0655 82.3397 77.151C82.3397 77.2365 82.3057 77.3185 82.245 77.379C82.1844 77.4394 82.1021 77.4734 82.0164 77.4734Z" fill="#CCCCCC"/>
<path d="M82.0164 82.6321H71.9136C71.8278 82.6321 71.7456 82.5981 71.6849 82.5377C71.6243 82.4772 71.5902 82.3952 71.5902 82.3097C71.5902 82.2242 71.6243 82.1422 71.6849 82.0817C71.7456 82.0213 71.8278 81.9873 71.9136 81.9873H82.0164C82.1021 81.9873 82.1844 82.0213 82.245 82.0817C82.3057 82.1422 82.3397 82.2242 82.3397 82.3097C82.3397 82.3952 82.3057 82.4772 82.245 82.5377C82.1844 82.5981 82.1021 82.6321 82.0164 82.6321Z" fill="#CCCCCC"/>
<path d="M63.5854 77.4734H53.4826C53.3968 77.4734 53.3146 77.4394 53.2539 77.379C53.1933 77.3185 53.1592 77.2365 53.1592 77.151C53.1592 77.0655 53.1933 76.9835 53.2539 76.923C53.3146 76.8626 53.3968 76.8286 53.4826 76.8286H63.5854C63.6712 76.8286 63.7534 76.8626 63.814 76.923C63.8747 76.9835 63.9087 77.0655 63.9087 77.151C63.9087 77.2365 63.8747 77.3185 63.814 77.379C63.7534 77.4394 63.6712 77.4734 63.5854 77.4734Z" fill="#CCCCCC"/>
<path d="M63.5854 82.6321H53.4826C53.3968 82.6321 53.3146 82.5981 53.2539 82.5377C53.1933 82.4772 53.1592 82.3952 53.1592 82.3097C53.1592 82.2242 53.1933 82.1422 53.2539 82.0817C53.3146 82.0213 53.3968 81.9873 53.4826 81.9873H63.5854C63.6712 81.9873 63.7534 82.0213 63.814 82.0817C63.8747 82.1422 63.9087 82.2242 63.9087 82.3097C63.9087 82.3952 63.8747 82.4772 63.814 82.5377C63.7534 82.5981 63.6712 82.6321 63.5854 82.6321Z" fill="#CCCCCC"/>
<path d="M132.808 72.5408L132.161 81.2457L119.96 103.038C119.374 104.008 119.117 105.141 119.227 106.268C119.337 107.395 119.808 108.457 120.571 109.297L139.704 126.583C139.704 126.583 143.465 126.706 143.148 128.479C142.832 130.251 144.842 130.167 144.842 130.167L147.104 131.797L148.329 122.513C144.215 113.355 138.115 110.561 132.808 106.337C132.808 106.337 135.046 105.673 134.573 104.905C134.101 104.136 135.584 104.085 135.584 104.085C135.584 104.085 136.568 103.953 136.628 103.239C136.688 102.524 137.642 102.416 137.642 102.416L142.995 97.0435L157.059 96.3987C157.059 96.3987 163.011 81.5326 153.179 71.896L132.808 72.5408Z" fill="#2F2E41"/>
<path d="M143.027 93.0063L147.682 148.306L154.538 147.892L157.059 96.3987L143.027 93.0063Z" fill="#2F2E41"/>
<path d="M143.361 27.0482L151.21 26.645L154.855 32.3886C154.855 32.3886 161.715 33.532 161.239 41.5911C160.764 49.6502 152.893 56.7221 152.893 56.7221L153.23 60.9189L152.646 62.5835L152.72 63.5182L153.518 64.5081L153.6 65.5318L152.893 67.1515L153.179 69.3167C153.179 69.3167 146.077 70.7223 142.353 67.9239C138.628 65.1254 133.131 66.7375 133.131 66.7375L132.924 64.0701L134.001 62.63L133.4 60.7516L134.304 58.945L134.776 53.2062C134.776 53.2062 129.616 45.4772 135.539 39.6558L137.917 35.6262L140.577 32.3904L143.361 27.0482Z" fill="#005CA9"/>
<path d="M162.607 61.9998L162.03 41.7805C162.003 40.9239 161.639 40.1123 161.017 39.5207C160.395 38.9292 159.565 38.6052 158.706 38.6186C158.261 38.6255 157.822 38.7226 157.417 38.9041C157.011 39.0855 156.647 39.3474 156.346 39.6738C156.045 40.0002 155.814 40.3843 155.667 40.8027C155.52 41.221 155.459 41.6649 155.49 42.1072L156.736 63.0918L156.954 75.8747C156.417 76.1115 155.967 76.5072 155.664 77.0081C155.36 77.5091 155.219 78.0909 155.259 78.6746C155.3 79.2582 155.519 79.8155 155.888 80.2705C156.256 80.7256 156.757 81.0564 157.321 81.2181C157.885 81.3798 158.485 81.3644 159.04 81.1742C159.594 80.9839 160.077 80.628 160.422 80.1547C160.767 79.6814 160.957 79.1137 160.967 78.5287C160.977 77.9438 160.807 77.3699 160.478 76.8851L162.607 61.9998Z" fill="#FFB6B6"/>
<path d="M164.011 45.8474C164.159 45.6972 164.254 45.5026 164.281 45.2934C164.307 45.0843 164.264 44.8722 164.158 44.6897C164.032 44.4621 163.98 44.2008 164.01 43.9424C164.016 43.8924 164.026 43.843 164.038 43.7943C164.123 43.503 164.135 43.1957 164.075 42.8985C164.015 42.6013 163.884 42.323 163.693 42.0872C163.052 41.3202 162.743 40.1591 162.609 39.124C162.463 37.9914 162.376 36.8339 161.961 35.7691C161.364 34.2332 159.937 32.8644 157.988 33.5195C157.164 33.811 156.465 34.3768 156.011 35.1217C155.039 36.6666 155.029 38.5345 155.036 40.3216L154.686 39.6154C154.728 41.5671 154.374 43.5072 153.646 45.3192C154.08 45.2352 154.387 45.8169 154.247 46.2352C154.106 46.6536 153.718 46.9285 153.386 47.2194C152.967 47.5862 152.571 48.131 152.964 48.6914C153.062 48.8229 153.186 48.9327 153.329 49.014C153.471 49.0954 153.629 49.1465 153.792 49.1641C156.869 49.5629 159.995 49.323 162.974 48.4595C163.635 48.2673 164.344 48.0005 164.689 47.4053C165.033 46.8102 164.7 45.8379 164.011 45.8474Z" fill="#005CA9"/>
<path d="M147.682 25.4697C151.789 25.4697 155.119 22.1498 155.119 18.0544C155.119 13.9591 151.789 10.6392 147.682 10.6392C143.575 10.6392 140.245 13.9591 140.245 18.0544C140.245 22.1498 143.575 25.4697 147.682 25.4697Z" fill="#FFB6B6"/>
<path d="M70.5922 17.293C75.3815 17.293 79.2641 13.4219 79.2641 8.64652C79.2641 3.87118 75.3815 0 70.5922 0C65.8028 0 61.9203 3.87118 61.9203 8.64652C61.9203 13.4219 65.8028 17.293 70.5922 17.293Z" fill="#005CA9"/>
<path d="M70.2872 12.1149C70.1708 12.1149 70.056 12.0879 69.952 12.036C69.8479 11.9841 69.7573 11.9087 69.6875 11.8159L67.8488 9.3714C67.7895 9.29289 67.7464 9.20348 67.7218 9.10831C67.6972 9.01314 67.6916 8.91407 67.7055 8.81677C67.7194 8.71947 67.7523 8.62584 67.8025 8.54125C67.8527 8.45667 67.9191 8.38278 67.9979 8.32381C68.0768 8.26485 68.1666 8.22197 68.262 8.19762C68.3575 8.17328 68.4569 8.16795 68.5545 8.18194C68.652 8.19594 68.7459 8.22897 68.8306 8.27917C68.9154 8.32936 68.9893 8.39572 69.0483 8.47446L70.2513 10.0736L73.3409 5.45279C73.4514 5.28824 73.6228 5.17412 73.8176 5.13547C74.0123 5.09683 74.2145 5.13681 74.3798 5.24664C74.545 5.35648 74.6598 5.52719 74.6989 5.72132C74.738 5.91545 74.6983 6.11712 74.5885 6.28208L70.9111 11.782C70.8446 11.8815 70.7551 11.9636 70.6502 12.0215C70.5453 12.0794 70.428 12.1113 70.3081 12.1147L70.2872 12.1149Z" fill="white"/>
<path d="M87.1982 33.3444H50.0474C49.1423 33.3444 48.2744 32.9859 47.6344 32.3478C46.9945 31.7097 46.635 30.8443 46.635 29.942C46.635 29.0396 46.9945 28.1742 47.6344 27.5361C48.2744 26.898 49.1423 26.5396 50.0474 26.5396H87.1982C87.6466 26.5391 88.0907 26.6268 88.5051 26.7976C88.9195 26.9684 89.2961 27.2189 89.6133 27.5349C89.9305 27.8509 90.1822 28.2261 90.3539 28.6391C90.5256 29.0522 90.6139 29.4949 90.6139 29.942C90.6139 30.389 90.5256 30.8317 90.3539 31.2448C90.1822 31.6578 89.9305 32.033 89.6133 32.349C89.2961 32.665 88.9195 32.9155 88.5051 33.0863C88.0907 33.2571 87.6466 33.3448 87.1982 33.3444Z" fill="#005CA9"/>
<path d="M199.617 163.901L117.047 164C116.945 164 116.848 163.959 116.776 163.887C116.705 163.815 116.664 163.718 116.664 163.616C116.664 163.515 116.705 163.418 116.776 163.346C116.848 163.274 116.945 163.233 117.047 163.232L199.617 163.133C199.719 163.134 199.816 163.174 199.888 163.246C199.96 163.318 200 163.416 200 163.517C200 163.619 199.96 163.716 199.888 163.788C199.816 163.86 199.719 163.901 199.617 163.901Z" fill="#CACACA"/>
<path d="M157.059 16.1201V17.7322H150.624C150.69 17.421 150.69 17.0997 150.625 16.7884C150.56 16.4772 150.431 16.1827 150.246 15.9235C150.241 16.5544 150.083 17.1747 149.787 17.7322C146.066 18.8292 142.943 18.8082 140.384 17.7322C140.004 17.7322 139.64 17.5817 139.371 17.3138C139.102 17.0459 138.951 16.6825 138.951 16.3036C138.951 11.3612 142.859 7.19665 147.815 7.0948C149.019 7.06936 150.217 7.28401 151.338 7.72616C152.458 8.16832 153.479 8.82907 154.34 9.66968C155.201 10.5103 155.885 11.5139 156.352 12.6215C156.819 13.7292 157.059 14.9186 157.059 16.1201Z" fill="#2F2E41"/>
<path d="M71.6946 43.8468H58.7606C58.4176 43.8468 58.0886 43.7109 57.846 43.4691C57.6035 43.2272 57.4672 42.8992 57.4672 42.5572C57.4672 42.2152 57.6035 41.8871 57.846 41.6453C58.0886 41.4034 58.4176 41.2676 58.7606 41.2676H71.6946C72.0376 41.2676 72.3666 41.4034 72.6092 41.6453C72.8517 41.8871 72.988 42.2152 72.988 42.5572C72.988 42.8992 72.8517 43.2272 72.6092 43.4691C72.3666 43.7109 72.0376 43.8468 71.6946 43.8468Z" fill="#CCCCCC"/>
<path d="M74.9281 71.3478H61.9941C61.6511 71.3478 61.3221 71.2119 61.0795 70.9701C60.837 70.7282 60.7007 70.4002 60.7007 70.0582C60.7007 69.7161 60.837 69.3881 61.0795 69.1463C61.3221 68.9044 61.6511 68.7686 61.9941 68.7686H74.9281C75.2712 68.7686 75.6001 68.9044 75.8427 69.1463C76.0853 69.3881 76.2215 69.7161 76.2215 70.0582C76.2215 70.4002 76.0853 70.7282 75.8427 70.9701C75.6001 71.2119 75.2712 71.3478 74.9281 71.3478Z" fill="#CCCCCC"/>
<path d="M99.5027 50.9396H58.4373C58.0942 50.9396 57.7652 50.8037 57.5227 50.5619C57.2801 50.32 57.1439 49.992 57.1439 49.65C57.1439 49.3079 57.2801 48.9799 57.5227 48.7381C57.7652 48.4962 58.0942 48.3604 58.4373 48.3604H99.5027C99.8458 48.3604 100.175 48.4962 100.417 48.7381C100.66 48.9799 100.796 49.3079 100.796 49.65C100.796 49.992 100.66 50.32 100.417 50.5619C100.175 50.8037 99.8458 50.9396 99.5027 50.9396Z" fill="#CCCCCC"/>
<path d="M43.4002 54.7501C48.1896 54.7501 52.0721 50.8789 52.0721 46.1035C52.0721 41.3282 48.1896 37.457 43.4002 37.457C38.6108 37.457 34.7283 41.3282 34.7283 46.1035C34.7283 50.8789 38.6108 54.7501 43.4002 54.7501Z" fill="#E6E6E6"/>
</g>
<defs>
<clipPath id="clip0_826_3895">
<rect width="200" height="164" fill="white"/>
</clipPath>
</defs>
</svg>
