<svg width="200" height="258" viewBox="0 0 200 258" fill="none" xmlns="http://www.w3.org/2000/svg">
<g clip-path="url(#clip0_846_1488)">
<path d="M200 166.519L164.189 140.53C164.189 140.53 143.676 105.878 140.2 83.7004C136.723 61.5231 121.078 22.0199 121.078 22.0199V1.22866C121.078 1.22866 102.998 -5.70174 101.608 13.3569C100.217 32.4155 105.432 57.0184 105.432 57.0184C105.432 57.0184 110.647 88.2052 98.8262 96.1752L55.7144 166.519C55.7144 166.519 97.0879 204.289 129.422 209.141L200 258V166.519Z" fill="#FFB8B8"/>
<path d="M13.8193 66.894H12.6388C2.00303 66.894 -3.97549 79.4088 3.01314 87.3996C5.26249 89.9715 8.68137 91.7521 13.8193 91.8435V66.894Z" fill="#FFB8B8"/>
<path d="M13.8193 91.8438H12.6388C2.00303 91.8438 -3.97549 104.359 3.01314 112.349C5.26249 114.921 8.68137 116.702 13.8193 116.793V91.8438Z" fill="#FFB8B8"/>
<path d="M13.8193 116.793H12.6388C2.00303 116.793 -3.97549 129.308 3.01314 137.299C5.26249 139.87 8.68137 141.651 13.8193 141.742V116.793Z" fill="#FFB8B8"/>
<path d="M13.8193 141.743H12.6388C2.00303 141.743 -3.97549 154.257 3.01314 162.248C5.26249 164.82 8.68137 166.601 13.8193 166.692V141.743Z" fill="#FFB8B8"/>
<path d="M106.127 60.9373H105.093V32.686C105.093 30.5388 104.668 28.4125 103.844 26.4287C103.019 24.4449 101.811 22.6424 100.288 21.1241C98.7642 19.6057 96.9556 18.4013 94.9652 17.5796C92.9748 16.7579 90.8415 16.335 88.687 16.335H28.6332C26.4788 16.335 24.3455 16.7579 22.355 17.5796C20.3646 18.4013 18.5561 19.6057 17.0326 21.1241C15.5092 22.6424 14.3008 24.4449 13.4763 26.4287C12.6519 28.4125 12.2275 30.5388 12.2275 32.686V187.675C12.2275 189.822 12.6519 191.948 13.4763 193.932C14.3008 195.916 15.5092 197.718 17.0326 199.237C18.5561 200.755 20.3646 201.959 22.355 202.781C24.3455 203.603 26.4788 204.026 28.6332 204.026H88.687C90.8415 204.026 92.9748 203.603 94.9652 202.781C96.9556 201.959 98.7642 200.755 100.288 199.237C101.811 197.718 103.019 195.916 103.844 193.932C104.668 191.948 105.093 189.822 105.093 187.675V81.047H106.127V60.9373Z" fill="#3F3D56"/>
<path d="M101.601 32.8002V187.56C101.598 189.37 101.193 191.157 100.415 192.792C99.6374 194.428 98.5058 195.872 97.1017 197.02C96.7911 197.273 96.4673 197.51 96.1317 197.73C94.1231 199.064 91.7624 199.775 89.3485 199.771H29.0058C28.0276 199.773 27.0528 199.656 26.1027 199.424C23.4361 198.776 21.0651 197.254 19.3699 195.103C17.6746 192.952 16.7533 190.295 16.7537 187.56V32.8002C16.754 29.5617 18.0449 26.4558 20.3425 24.1658C22.6402 21.8758 25.7564 20.5892 29.0058 20.5889H36.3278C35.9673 21.4696 35.8297 22.4253 35.9271 23.3716C36.0245 24.3178 36.3539 25.2257 36.8863 26.0152C37.4188 26.8047 38.1378 27.4515 38.9802 27.8987C39.8226 28.3459 40.7624 28.5797 41.7168 28.5796H76.1194C77.0735 28.5786 78.0127 28.344 78.8546 27.8966C79.6965 27.4492 80.4152 26.8025 80.9477 26.0135C81.4802 25.2244 81.8101 24.3171 81.9085 23.3713C82.0069 22.4254 81.8707 21.47 81.5119 20.5889H89.3485C92.5979 20.5892 95.7141 21.8758 98.0117 24.1658C100.309 26.4558 101.6 29.5617 101.601 32.8002Z" fill="#005CA9"/>
<path d="M46.5139 137.211C46.5139 137.211 52.4373 153.61 47.8302 162.794C43.2232 171.977 55.0699 182.473 55.0699 182.473C55.0699 182.473 86.0029 166.73 82.054 158.858C78.1051 150.987 71.5236 140.491 72.8399 133.932L46.5139 137.211Z" fill="#FFB8B8"/>
<path d="M58.0315 143.443C69.6631 143.443 79.0923 134.045 79.0923 122.452C79.0923 110.859 69.6631 101.461 58.0315 101.461C46.3999 101.461 36.9707 110.859 36.9707 122.452C36.9707 134.045 46.3999 143.443 58.0315 143.443Z" fill="#FFB8B8"/>
<path d="M98.9792 196.109C98.4256 196.813 97.796 197.454 97.1018 198.021C96.7912 198.275 96.4674 198.512 96.1318 198.732C94.1882 200.021 91.8588 200.426 89.3486 200.426H36.0498L36.9712 174.929L42.8956 161.81C44.2256 162.85 45.649 163.765 47.1476 164.544C47.5023 164.735 47.8778 164.925 48.2706 165.112C53.8195 167.784 62.8904 170.133 71.6832 163.591C74.4507 161.533 77.1904 158.591 79.7875 154.502L96.2048 163.778L97.067 173.827L98.9792 196.109Z" fill="white"/>
<path d="M49.5291 151.993L48.7051 160.576L48.2705 165.112L47.6204 171.866L44.8424 200.773H29.0058C28.0276 200.775 27.0528 200.658 26.1027 200.426L19.8584 171.648L20.0392 171.53L49.5291 151.993Z" fill="#2F2E41"/>
<path d="M101.601 157.891V188.561C101.598 190.371 101.193 192.158 100.415 193.794C99.6375 195.43 98.5059 196.873 97.1018 198.021C96.7912 198.275 96.4674 198.512 96.1318 198.732C94.1232 200.066 91.7625 200.776 89.3486 200.773H68.1577C68.6201 191.081 69.4372 181.621 70.3933 173.38C70.8035 169.87 71.2382 166.582 71.6832 163.591C73.1156 153.951 74.6523 147.405 75.7545 146.521L83.0418 151.314L101.601 157.891Z" fill="#2F2E41"/>
<path d="M34.9962 195.263L34.2383 200.773H29.0058C28.0276 200.774 27.0528 200.658 26.1027 200.426C23.4361 199.778 21.0651 198.256 19.3699 196.105C17.6746 193.953 16.7533 191.297 16.7537 188.561V187.452L19.2013 171.648L20.0392 171.53L23.808 170.993L34.9962 195.263Z" fill="#2F2E41"/>
<path d="M101.601 161.89V188.561C101.598 190.371 101.193 192.158 100.415 193.794C99.6373 195.43 98.5057 196.873 97.1016 198.021C96.7911 198.275 96.4673 198.512 96.1316 198.732L92.9121 184.767L97.0668 173.827L101.601 161.89Z" fill="#2F2E41"/>
<path d="M78.1152 103.467C74.9305 98.3128 69.9454 94.5145 64.1195 92.8034L59.8404 96.2153L61.504 92.2357C60.105 92.023 58.6891 91.9414 57.2748 91.9921L53.4247 96.9258L55.0182 92.1611C48.3656 93.0064 42.0411 96.618 38.2074 102.127C33.3072 109.169 32.4803 118.963 37.2999 126.06C38.6229 122.008 40.2287 118.205 41.5517 114.153C41.8569 114.283 43.0139 114.275 44.6864 114.168L46.2961 110.425L46.7458 114.01C51.7348 113.577 59.1348 112.626 63.8646 111.754L63.4047 109.004L66.1563 111.289C67.6055 110.957 68.4658 110.655 68.3947 110.425C71.9124 116.077 75.3978 119.687 78.9154 125.339C80.2507 117.367 82.6079 110.74 78.1152 103.467Z" fill="#2F2E41"/>
<path d="M76.9489 124.635C77.7363 124.635 78.3746 123.362 78.3746 121.793C78.3746 120.223 77.7363 118.951 76.9489 118.951C76.1615 118.951 75.5232 120.223 75.5232 121.793C75.5232 123.362 76.1615 124.635 76.9489 124.635Z" fill="#FFB8B8"/>
<path d="M123.337 195.973C137.835 195.973 149.587 169.754 149.587 137.411C149.587 105.068 137.835 78.8491 123.337 78.8491C108.84 78.8491 97.0879 105.068 97.0879 137.411C97.0879 169.754 108.84 195.973 123.337 195.973Z" fill="#FFB8B8"/>
<path opacity="0.2" d="M28.9296 64.2954C27.5543 64.2954 26.2099 63.8889 25.0664 63.1274C23.9229 62.3659 23.0317 61.2835 22.5054 60.0171C21.9791 58.7508 21.8414 57.3573 22.1097 56.0129C22.378 54.6686 23.0402 53.4337 24.0127 52.4644C24.9852 51.4952 26.2242 50.8351 27.573 50.5677C28.9219 50.3003 30.32 50.4376 31.5906 50.9621C32.8612 51.4867 33.9472 52.375 34.7113 53.5147C35.4753 54.6544 35.8831 55.9943 35.8831 57.365C35.881 59.2024 35.1478 60.9639 33.8442 62.2632C32.5406 63.5624 30.7732 64.2933 28.9296 64.2954ZM28.9296 51.1276C27.6919 51.1276 26.4819 51.4934 25.4528 52.1788C24.4236 52.8642 23.6215 53.8383 23.1478 54.978C22.6741 56.1178 22.5502 57.3719 22.7917 58.5818C23.0332 59.7918 23.6292 60.9031 24.5044 61.7755C25.3796 62.6478 26.4947 63.2418 27.7087 63.4825C28.9227 63.7232 30.181 63.5996 31.3245 63.1276C32.468 62.6555 33.4454 61.856 34.1331 60.8303C34.8208 59.8045 35.1878 58.5986 35.1878 57.365C35.1859 55.7113 34.526 54.1259 33.3528 52.9566C32.1795 51.7872 30.5888 51.1295 28.9296 51.1276Z" fill="black"/>
<path opacity="0.2" d="M26.1483 56.6719C26.7243 56.6719 27.1913 56.2065 27.1913 55.6323C27.1913 55.0582 26.7243 54.5928 26.1483 54.5928C25.5722 54.5928 25.1052 55.0582 25.1052 55.6323C25.1052 56.2065 25.5722 56.6719 26.1483 56.6719Z" fill="black"/>
<path opacity="0.2" d="M31.3633 56.6719C31.9394 56.6719 32.4064 56.2065 32.4064 55.6323C32.4064 55.0582 31.9394 54.5928 31.3633 54.5928C30.7873 54.5928 30.3203 55.0582 30.3203 55.6323C30.3203 56.2065 30.7873 56.6719 31.3633 56.6719Z" fill="black"/>
<path opacity="0.2" d="M31.3634 59.7907H26.1482C26.056 59.7907 25.9676 59.7542 25.9024 59.6892C25.8372 59.6242 25.8005 59.5361 25.8005 59.4442C25.8005 59.3523 25.8372 59.2641 25.9024 59.1991C25.9676 59.1342 26.056 59.0977 26.1482 59.0977H31.3634C31.4556 59.0977 31.544 59.1342 31.6092 59.1991C31.6744 59.2641 31.711 59.3523 31.711 59.4442C31.711 59.5361 31.6744 59.6242 31.6092 59.6892C31.544 59.7542 31.4556 59.7907 31.3634 59.7907Z" fill="black"/>
<path opacity="0.2" d="M89.4252 64.2954C88.0499 64.2954 86.7055 63.8889 85.562 63.1274C84.4185 62.3659 83.5273 61.2835 83.001 60.0171C82.4747 58.7508 82.337 57.3573 82.6053 56.0129C82.8736 54.6686 83.5358 53.4337 84.5083 52.4644C85.4808 51.4952 86.7198 50.8351 88.0687 50.5677C89.4175 50.3003 90.8156 50.4376 92.0862 50.9621C93.3568 51.4867 94.4428 52.375 95.2069 53.5147C95.9709 54.6544 96.3787 55.9943 96.3787 57.365C96.3767 59.2024 95.6434 60.964 94.3398 62.2632C93.0362 63.5625 91.2688 64.2933 89.4252 64.2954ZM89.4252 51.1276C88.1875 51.1276 86.9775 51.4934 85.9484 52.1788C84.9192 52.8642 84.1171 53.8383 83.6434 54.978C83.1697 56.1178 83.0458 57.3719 83.2873 58.5818C83.5288 59.7918 84.1248 60.9031 85 61.7755C85.8752 62.6478 86.9903 63.2418 88.2043 63.4825C89.4183 63.7232 90.6766 63.5996 91.8201 63.1276C92.9636 62.6555 93.941 61.856 94.6287 60.8303C95.3164 59.8045 95.6834 58.5986 95.6834 57.365C95.6815 55.7113 95.0215 54.1259 93.8483 52.9566C92.6751 51.7873 91.0844 51.1295 89.4252 51.1276Z" fill="black"/>
<path opacity="0.2" d="M86.6439 56.6719C87.2199 56.6719 87.6869 56.2065 87.6869 55.6323C87.6869 55.0582 87.2199 54.5928 86.6439 54.5928C86.0678 54.5928 85.6008 55.0582 85.6008 55.6323C85.6008 56.2065 86.0678 56.6719 86.6439 56.6719Z" fill="black"/>
<path opacity="0.2" d="M91.8589 56.6719C92.435 56.6719 92.902 56.2065 92.902 55.6323C92.902 55.0582 92.435 54.5928 91.8589 54.5928C91.2829 54.5928 90.8159 55.0582 90.8159 55.6323C90.8159 56.2065 91.2829 56.6719 91.8589 56.6719Z" fill="black"/>
<path opacity="0.2" d="M91.8586 60.4834C91.7978 60.4834 91.7381 60.4675 91.6854 60.4373C90.9575 59.9772 90.1133 59.733 89.2514 59.733C88.3894 59.733 87.5452 59.9772 86.8173 60.4373C86.7777 60.4601 86.734 60.4749 86.6887 60.4809C86.6433 60.4868 86.5973 60.4838 86.5531 60.472C86.5089 60.4602 86.4675 60.4399 86.4313 60.4121C86.395 60.3843 86.3646 60.3497 86.3418 60.3102C86.319 60.2707 86.3042 60.2271 86.2983 60.1819C86.2924 60.1367 86.2955 60.0908 86.3075 60.0468C86.3194 60.0029 86.3399 59.9616 86.3679 59.9256C86.3958 59.8895 86.4306 59.8593 86.4703 59.8366C87.3045 59.3179 88.2681 59.043 89.2514 59.043C90.2346 59.043 91.1982 59.3179 92.0324 59.8366C92.0988 59.8747 92.1508 59.9336 92.1801 60.0041C92.2095 60.0746 92.2147 60.1528 92.1949 60.2266C92.175 60.3003 92.1313 60.3655 92.0705 60.412C92.0097 60.4584 91.9352 60.4835 91.8586 60.4834Z" fill="black"/>
<path d="M59.525 71.4356C56.7328 71.4356 54.0032 70.6103 51.6816 69.0642C49.3599 67.5181 47.5504 65.3205 46.4819 62.7494C45.4133 60.1783 45.1338 57.3492 45.6785 54.6197C46.2232 51.8902 47.5678 49.383 49.5422 47.4152C51.5166 45.4474 54.0322 44.1072 56.7708 43.5643C59.5093 43.0214 62.348 43.3 64.9276 44.365C67.5073 45.43 69.7122 47.2335 71.2635 49.5474C72.8148 51.8614 73.6428 54.5818 73.6428 57.3648C73.6385 61.0953 72.1497 64.6718 69.503 67.3096C66.8564 69.9475 63.268 71.4313 59.525 71.4356ZM59.525 44.701C57.012 44.701 54.5554 45.4437 52.4659 46.8353C50.3764 48.2268 48.7479 50.2046 47.7862 52.5186C46.8245 54.8326 46.5729 57.3788 47.0632 59.8353C47.5534 62.2919 48.7635 64.5483 50.5405 66.3194C52.3175 68.0904 54.5815 69.2965 57.0462 69.7852C59.5109 70.2738 62.0657 70.023 64.3874 69.0645C66.7091 68.106 68.6935 66.4829 70.0896 64.4004C71.4858 62.3178 72.231 59.8694 72.231 57.3648C72.2272 54.0073 70.8873 50.7884 68.5053 48.4143C66.1233 46.0402 62.8937 44.7048 59.525 44.701Z" fill="white"/>
<path d="M53.8779 55.9581C55.0475 55.9581 55.9956 55.0131 55.9956 53.8474C55.9956 52.6818 55.0475 51.7368 53.8779 51.7368C52.7084 51.7368 51.7603 52.6818 51.7603 53.8474C51.7603 55.0131 52.7084 55.9581 53.8779 55.9581Z" fill="white"/>
<path d="M64.4663 55.9581C65.6358 55.9581 66.584 55.0131 66.584 53.8474C66.584 52.6818 65.6358 51.7368 64.4663 51.7368C63.2967 51.7368 62.3486 52.6818 62.3486 53.8474C62.3486 55.0131 63.2967 55.9581 64.4663 55.9581Z" fill="white"/>
<path d="M59.5328 64.2345C57.634 64.2345 55.6211 63.5484 53.4941 62.1764C53.3373 62.0748 53.2274 61.9153 53.1885 61.733C53.1496 61.5507 53.1849 61.3604 53.2867 61.204C53.3884 61.0476 53.5483 60.9379 53.7312 60.8989C53.9141 60.8599 54.105 60.8948 54.2621 60.996C58.0035 63.4134 61.1914 63.431 64.0101 61.0496C64.1529 60.9293 64.3378 60.8703 64.5242 60.8858C64.7106 60.9012 64.8832 60.9897 65.0042 61.1319C65.1251 61.2741 65.1845 61.4584 65.1692 61.6442C65.1539 61.83 65.0653 62.0021 64.9228 62.1228C63.2573 63.5306 61.4557 64.2345 59.5328 64.2345Z" fill="white"/>
<path d="M82.8194 80.5818H73.6428V79.175H81.4076V71.436H82.8194V80.5818Z" fill="white"/>
<path d="M37.6425 43.294H36.2307V34.1479H45.4073V35.5551H37.6425V43.294Z" fill="white"/>
</g>
<defs>
<clipPath id="clip0_846_1488">
<rect width="200" height="258" fill="white"/>
</clipPath>
</defs>
</svg>
