<svg width="200" height="180" viewBox="0 0 200 180" fill="none" xmlns="http://www.w3.org/2000/svg">
<g clip-path="url(#clip0_846_1520)">
<path d="M191.938 71.3515C191.938 102.578 171.856 129.117 143.887 138.791C132.629 142.662 120.584 143.681 108.835 141.755C107.72 141.574 106.613 141.365 105.513 141.129C104.024 140.813 102.552 140.449 101.098 140.039C71.0701 131.597 49.0613 104.042 49.0613 71.3515C49.0613 31.945 81.0451 0 120.5 0C159.954 0 191.938 31.9449 191.938 71.3515Z" fill="#E6E6E6"/>
<path d="M75.7553 93.3739C75.6295 93.4411 75.5356 93.5554 75.4941 93.6917C75.4526 93.828 75.467 93.9752 75.534 94.101L102.393 144.347C102.46 144.473 102.575 144.566 102.711 144.608C102.848 144.649 102.995 144.635 103.121 144.568L141.089 124.322C141.214 124.255 141.308 124.14 141.35 124.004C141.391 123.868 141.377 123.72 141.31 123.595L114.451 73.3485C114.384 73.2229 114.269 73.1291 114.133 73.0877C113.996 73.0463 113.849 73.0606 113.723 73.1276L75.7553 93.3739Z" fill="#3F3D56"/>
<path d="M79.2844 94.8422L103.863 140.822L137.559 122.854L112.981 76.8735L79.2844 94.8422ZM77.1492 95.9806L77.1539 95.9783L77.1487 95.9809L77.1492 95.9806Z" fill="white"/>
<path d="M87.7804 99.8971C87.257 100.176 87.1455 100.991 87.5316 101.713C87.9177 102.436 88.6576 102.797 89.1811 102.517L113.86 89.3573C114.384 89.0781 114.495 88.2632 114.109 87.541C113.723 86.8187 112.983 86.4579 112.459 86.737L87.7804 99.8971Z" fill="#005CA9"/>
<path d="M90.8211 105.585C90.2976 105.864 90.1862 106.679 90.5723 107.401C90.9583 108.124 91.6983 108.484 92.2218 108.205L116.901 95.0453C117.424 94.7661 117.536 93.9512 117.15 93.229C116.764 92.5067 116.024 92.1458 115.5 92.425L90.8211 105.585Z" fill="#005CA9"/>
<path d="M93.8617 111.274C93.3383 111.553 93.2268 112.368 93.6129 113.09C93.999 113.812 94.7389 114.173 95.2624 113.894L119.941 100.734C120.465 100.455 120.576 99.6397 120.19 98.9175C119.804 98.1952 119.064 97.8343 118.541 98.1135L93.8617 111.274Z" fill="#005CA9"/>
<path d="M96.9024 116.962C96.3789 117.241 96.2675 118.056 96.6536 118.778C97.0396 119.501 97.7796 119.861 98.3031 119.582L122.982 106.422C123.506 106.143 123.617 105.328 123.231 104.606C122.845 103.884 122.105 103.523 121.581 103.802L96.9024 116.962Z" fill="#005CA9"/>
<path d="M99.943 122.65C99.4196 122.929 99.3081 123.744 99.6942 124.466C100.08 125.188 100.82 125.549 101.344 125.27L126.023 112.11C126.546 111.831 126.658 111.016 126.272 110.294C125.885 109.572 125.146 109.211 124.622 109.49L99.943 122.65Z" fill="#005CA9"/>
<path d="M104.735 71.6657L127.097 73.0295L133.36 54.376L113.746 50.2368L104.735 71.6657Z" fill="#2F2E41"/>
<path d="M120.863 66.9489C125.802 66.9489 129.806 62.9496 129.806 58.0162C129.806 53.0828 125.802 49.0835 120.863 49.0835C115.923 49.0835 111.919 53.0828 111.919 58.0162C111.919 62.9496 115.923 66.9489 120.863 66.9489Z" fill="#FFB8B8"/>
<path d="M143.829 138.096L143.887 138.791C132.629 142.662 120.584 143.681 108.835 141.755L105.513 141.129L108.674 134.128L110.746 129.539L110 113.662L109.921 112.019L109.823 109.924L111.173 109.916L120.768 109.858L129.913 109.8L131.308 109.792C140.051 120.534 147.266 129.265 143.829 138.096Z" fill="#2F2E41"/>
<path d="M131.176 109.66L109.823 112.03L109.032 97.2857C106.527 90.9024 108.181 85.2049 113.381 80.092L114.439 75.912C114.716 74.8149 115.29 73.8148 116.097 73.0204C116.903 72.2261 117.913 71.6679 119.015 71.4066C122.511 69.4045 126.47 68.4502 130.912 68.5871C132.686 69.279 134.19 70.5225 135.203 72.1338C136.215 73.7452 136.681 75.6389 136.533 77.5354C135.615 89.1227 133.965 99.9694 131.176 109.66Z" fill="#005CA9"/>
<path d="M114.097 47.4623C114.097 47.4623 109.473 49.1478 109.354 55.2758C109.347 56.307 109.485 57.3341 109.763 58.3272C110.063 59.4534 110.304 61.8971 108.287 65.1545C106.97 67.2689 105.778 69.4593 104.72 71.7142L109.927 72.216L110.788 63.5946C111.205 59.4147 112.237 55.319 113.849 51.4393L113.882 51.3583C113.882 51.3583 116.271 55.5052 120.812 55.3775L119.144 53.8036C119.144 53.8036 124.831 55.9424 127.923 56.3719C128.276 56.4209 128.609 56.5653 128.886 56.7893C129.163 57.0133 129.373 57.3085 129.494 57.6431C129.616 57.9777 129.643 58.339 129.574 58.6881C129.505 59.0372 129.342 59.3609 129.102 59.6243C129.084 59.6442 129.066 59.6641 129.047 59.684C127.156 61.6822 123.392 66.3264 125.763 69.8255C128.133 73.3246 126.215 74.351 126.215 74.351L129.727 72.3072L131.322 71.2899L131.358 72.5855L139.762 71.3766C139.762 71.3766 142.023 70.9888 137.004 65.6192C137.004 65.6192 135.659 63.5171 136.169 61.657C136.591 60.2424 136.67 58.7478 136.4 57.2965C135.139 51.255 130.523 39.303 114.097 47.4623Z" fill="#2F2E41"/>
<path d="M120.5 179.342C138.261 179.342 152.66 178.517 152.66 177.499C152.66 176.481 138.261 175.656 120.5 175.656C102.738 175.656 88.3391 176.481 88.3391 177.499C88.3391 178.517 102.738 179.342 120.5 179.342Z" fill="#E6E6E6"/>
<path d="M0.19581 84.9194C0.12829 84.9374 0.0706949 84.9815 0.035663 85.0419C0.000631065 85.1023 -0.00897736 85.1741 0.00895044 85.2416L7.2029 112.21C7.22097 112.277 7.26507 112.334 7.32555 112.369C7.38603 112.404 7.45794 112.414 7.52549 112.396L27.9034 106.973C27.9709 106.955 28.0285 106.911 28.0635 106.851C28.0986 106.79 28.1082 106.719 28.0902 106.651L20.8963 79.6832C20.8782 79.6158 20.8341 79.5583 20.7737 79.5233C20.7132 79.4883 20.6413 79.4787 20.5737 79.4966L0.19581 84.9194Z" fill="#F2F2F2"/>
<path d="M5.20311 89.3733C4.92214 89.4481 4.77784 89.8244 4.88124 90.212C4.98464 90.5997 5.2973 90.8544 5.57826 90.7796L18.8239 87.2548C19.1049 87.18 19.2492 86.8037 19.1458 86.4161C19.0424 86.0285 18.7297 85.7737 18.4487 85.8485L5.20311 89.3733Z" fill="white"/>
<path d="M6.01756 92.4265C5.7366 92.5013 5.59229 92.8776 5.69569 93.2653C5.7991 93.6529 6.11175 93.9076 6.39272 93.8329L19.6384 90.3081C19.9193 90.2333 20.0636 89.8569 19.9602 89.4693C19.8568 89.0817 19.5442 88.8269 19.2632 88.9017L6.01756 92.4265Z" fill="white"/>
<path d="M6.83189 95.4793C6.55093 95.554 6.40662 95.9304 6.51002 96.318C6.61343 96.7056 6.92608 96.9604 7.20705 96.8856L20.4527 93.3608C20.7336 93.286 20.878 92.9097 20.7746 92.522C20.6711 92.1344 20.3585 91.8797 20.0775 91.9544L6.83189 95.4793Z" fill="white"/>
<path d="M7.64635 98.5325C7.36538 98.6073 7.22107 98.9836 7.32448 99.3712C7.42788 99.7589 7.74054 100.014 8.0215 99.9388L21.2671 96.414C21.5481 96.3392 21.6924 95.9629 21.589 95.5753C21.4856 95.1876 21.1729 94.9329 20.892 95.0077L7.64635 98.5325Z" fill="white"/>
<path d="M8.4608 101.585C8.17983 101.66 8.03553 102.036 8.13893 102.424C8.24234 102.812 8.55499 103.066 8.83596 102.992L22.0816 99.4667C22.3626 99.392 22.5069 99.0156 22.4035 98.628C22.3001 98.2404 21.9874 97.9856 21.7064 98.0604L8.4608 101.585Z" fill="white"/>
<path d="M9.27513 104.638C8.99417 104.713 8.84986 105.09 8.95326 105.477C9.05666 105.865 9.36932 106.12 9.65029 106.045L22.8959 102.52C23.1769 102.445 23.3212 102.069 23.2178 101.681C23.1144 101.294 22.8017 101.039 22.5208 101.114L9.27513 104.638Z" fill="white"/>
<path d="M52.2729 179.939C52.2729 179.973 52.3911 180 52.5366 180H80.4792C80.6247 180 80.7428 179.973 80.7428 179.939V175.059C80.7428 175.025 80.6247 174.998 80.4792 174.998H52.5366C52.3911 174.998 52.2729 175.025 52.2729 175.059V179.939Z" fill="#F2F2F2"/>
<path d="M57.871 179.085C57.871 179.152 58.1979 179.207 58.5996 179.207C59.0012 179.207 59.3281 179.152 59.3281 179.085V175.913C59.3281 175.845 59.0012 175.791 58.5996 175.791C58.1979 175.791 57.871 175.845 57.871 175.913V179.085Z" fill="white"/>
<path d="M61.0343 179.085C61.0343 179.152 61.3612 179.207 61.7629 179.207C62.1645 179.207 62.4915 179.152 62.4915 179.085V175.913C62.4915 175.845 62.1645 175.791 61.7629 175.791C61.3612 175.791 61.0343 175.845 61.0343 175.913V179.085Z" fill="white"/>
<path d="M64.1976 179.085C64.1976 179.152 64.5246 179.207 64.9262 179.207C65.3279 179.207 65.6548 179.152 65.6548 179.085V175.913C65.6548 175.845 65.3279 175.791 64.9262 175.791C64.5246 175.791 64.1976 175.845 64.1976 175.913V179.085Z" fill="white"/>
<path d="M67.361 179.085C67.361 179.152 67.6879 179.207 68.0895 179.207C68.4912 179.207 68.8181 179.152 68.8181 179.085V175.913C68.8181 175.845 68.4912 175.791 68.0895 175.791C67.6879 175.791 67.361 175.845 67.361 175.913V179.085Z" fill="white"/>
<path d="M70.5243 179.085C70.5243 179.152 70.8512 179.207 71.2529 179.207C71.6545 179.207 71.9815 179.152 71.9815 179.085V175.913C71.9815 175.845 71.6545 175.791 71.2529 175.791C70.8512 175.791 70.5243 175.845 70.5243 175.913V179.085Z" fill="white"/>
<path d="M73.6876 179.085C73.6876 179.152 74.0146 179.207 74.4162 179.207C74.8179 179.207 75.1448 179.152 75.1448 179.085V175.913C75.1448 175.845 74.8179 175.791 74.4162 175.791C74.0146 175.791 73.6876 175.845 73.6876 175.913V179.085Z" fill="white"/>
<path d="M0.943195 65.4585C0.881574 65.4915 0.835552 65.5475 0.815232 65.6143C0.794912 65.681 0.801953 65.7532 0.834809 65.8148L13.9951 90.4343C14.0281 90.4959 14.0842 90.5418 14.151 90.5621C14.2179 90.5824 14.2901 90.5754 14.3518 90.5426L32.9552 80.6223C33.0168 80.5894 33.0628 80.5334 33.0832 80.4666C33.1035 80.3998 33.0965 80.3277 33.0636 80.2661L19.9033 55.6465C19.8703 55.585 19.8142 55.539 19.7473 55.5187C19.6805 55.4984 19.6083 55.5054 19.5466 55.5383L0.943195 65.4585Z" fill="#E6E6E6"/>
<path d="M2.67244 66.1778L14.7155 88.7068L31.226 79.9028L19.183 57.3735L2.67244 66.1778ZM1.62623 66.7356L1.62855 66.7345L1.62598 66.7357L1.62623 66.7356Z" fill="white"/>
<path d="M6.83544 68.6546C6.57895 68.7914 6.52433 69.1906 6.7135 69.5445C6.90267 69.8984 7.26524 70.0752 7.52173 69.9385L19.6139 63.4903C19.8704 63.3535 19.925 62.9542 19.7359 62.6004C19.5467 62.2465 19.1841 62.0696 18.9276 62.2064L6.83544 68.6546Z" fill="#005CA9"/>
<path d="M8.32519 71.4417C8.06869 71.5785 8.01408 71.9778 8.20325 72.3316C8.39242 72.6855 8.75498 72.8624 9.01147 72.7256L21.1037 66.2774C21.3602 66.1406 21.4148 65.7414 21.2256 65.3875C21.0364 65.0336 20.6739 64.8568 20.4174 64.9935L8.32519 71.4417Z" fill="#005CA9"/>
<path d="M9.81505 74.2288C9.55856 74.3656 9.50395 74.7649 9.69312 75.1188C9.88229 75.4726 10.2449 75.6495 10.5013 75.5127L22.5936 69.0645C22.8501 68.9277 22.9047 68.5285 22.7155 68.1746C22.5263 67.8207 22.1638 67.6439 21.9073 67.7806L9.81505 74.2288Z" fill="#005CA9"/>
<path d="M11.3049 77.0159C11.0484 77.1527 10.9938 77.552 11.183 77.9059C11.3722 78.2598 11.7347 78.4366 11.9912 78.2998L24.0834 71.8516C24.3399 71.7149 24.3945 71.3156 24.2054 70.9617C24.0162 70.6078 23.6536 70.431 23.3971 70.5678L11.3049 77.0159Z" fill="#005CA9"/>
<path d="M12.7948 79.803C12.5383 79.9398 12.4837 80.3391 12.6729 80.693C12.862 81.0469 13.2246 81.2237 13.4811 81.0869L25.5733 74.6387C25.8298 74.502 25.8844 74.1027 25.6952 73.7488C25.5061 73.3949 25.1435 73.2181 24.887 73.3549L12.7948 79.803Z" fill="#005CA9"/>
<path d="M14.2847 82.5901C14.0282 82.7269 13.9736 83.1262 14.1627 83.4801C14.3519 83.834 14.7145 84.0108 14.971 83.874L27.0632 77.4258C27.3197 77.2891 27.3743 76.8898 27.1851 76.5359C26.9959 76.182 26.6334 76.0052 26.3769 76.142L14.2847 82.5901Z" fill="#005CA9"/>
<path d="M181.715 128.373C181.655 128.338 181.583 128.328 181.515 128.345C181.447 128.363 181.389 128.406 181.354 128.466L167.138 152.493C167.103 152.553 167.092 152.625 167.11 152.693C167.127 152.76 167.171 152.818 167.231 152.854L185.386 163.57C185.447 163.605 185.519 163.615 185.586 163.598C185.654 163.581 185.712 163.537 185.748 163.477L199.963 139.45C199.999 139.39 200.009 139.318 199.992 139.251C199.974 139.183 199.931 139.125 199.871 139.089L181.715 128.373Z" fill="#E6E6E6"/>
<path d="M181.999 130.223L168.99 152.21L185.103 161.72L198.112 139.733L181.999 130.223ZM180.978 129.62L180.98 129.622L180.977 129.62L180.978 129.62Z" fill="white"/>
<path d="M182.044 135.062C181.794 134.914 181.424 135.075 181.22 135.421C181.015 135.766 181.052 136.167 181.303 136.315L193.104 143.281C193.354 143.428 193.724 143.267 193.928 142.922C194.133 142.577 194.096 142.175 193.845 142.028L182.044 135.062Z" fill="#005CA9"/>
<path d="M180.435 137.782C180.185 137.635 179.815 137.796 179.61 138.141C179.406 138.486 179.443 138.888 179.693 139.035L191.495 146.001C191.745 146.148 192.115 145.988 192.319 145.642C192.524 145.297 192.486 144.895 192.236 144.748L180.435 137.782Z" fill="#005CA9"/>
<path d="M178.825 140.503C178.575 140.355 178.205 140.516 178.001 140.861C177.797 141.207 177.834 141.608 178.084 141.756L189.885 148.721C190.136 148.869 190.505 148.708 190.71 148.362C190.914 148.017 190.877 147.616 190.627 147.468L178.825 140.503Z" fill="#005CA9"/>
<path d="M177.216 143.222C176.966 143.075 176.596 143.236 176.392 143.581C176.187 143.926 176.224 144.328 176.475 144.475L188.276 151.441C188.526 151.588 188.896 151.427 189.1 151.082C189.305 150.737 189.268 150.335 189.017 150.188L177.216 143.222Z" fill="#005CA9"/>
<path d="M175.607 145.943C175.356 145.795 174.987 145.956 174.782 146.301C174.578 146.647 174.615 147.048 174.865 147.196L186.667 154.161C186.917 154.309 187.287 154.148 187.491 153.802C187.695 153.457 187.658 153.056 187.408 152.908L175.607 145.943Z" fill="#005CA9"/>
<path d="M173.997 148.662C173.747 148.515 173.377 148.676 173.173 149.021C172.969 149.366 173.006 149.768 173.256 149.915L185.057 156.881C185.308 157.028 185.677 156.867 185.882 156.522C186.086 156.177 186.049 155.775 185.799 155.628L173.997 148.662Z" fill="#005CA9"/>
<path d="M116.15 84.6475L115.876 86.343L112.987 104.131L111.173 109.915L110.535 111.951L110 113.662L103.497 134.409L101.712 138.596C100.733 138.958 99.892 139.616 99.3059 140.479C98.7198 141.342 98.4183 142.366 98.4436 143.408C98.4689 144.45 98.8197 145.459 99.4469 146.292C100.074 147.125 100.946 147.742 101.942 148.056C102.937 148.37 104.006 148.365 104.999 148.043C105.991 147.72 106.858 147.096 107.478 146.257C108.098 145.418 108.44 144.407 108.456 143.364C108.472 142.322 108.162 141.3 107.568 140.443L120.297 110.868L120.768 109.857L122.213 106.764L124.941 86.2035L125.113 84.9108L116.15 84.6475Z" fill="#FFB8B8"/>
<path d="M126.694 86.7541C122.552 85.2672 118.577 85.1091 114.832 86.7541L116.054 76.1711C116.01 74.8496 116.486 73.5632 117.381 72.5886C118.275 71.614 119.517 71.0291 120.839 70.9596C122.178 70.8893 123.49 71.3528 124.486 72.2484C125.482 73.1439 126.081 74.398 126.152 75.7348L126.153 75.7522L126.694 86.7541Z" fill="#005CA9"/>
</g>
<defs>
<clipPath id="clip0_846_1520">
<rect width="200" height="180" fill="white"/>
</clipPath>
</defs>
</svg>
