<svg width="362" height="374" viewBox="0 0 362 374" fill="none" xmlns="http://www.w3.org/2000/svg">
<path d="M349.507 180.389C403.399 321.692 271.315 355.145 174.859 355.145C35.1411 427.045 0.211491 276.904 0.211491 180.389C0.211491 83.8735 -13.2614 18.6142 174.859 5.63232C291.125 -26.3232 349.507 83.8735 349.507 180.389Z" fill="#F3F6F7"/>
<path d="M183.07 158.747C183.118 158.739 183.29 158.716 183.632 158.772C184.168 158.86 184.759 159.095 185.195 159.368L185.248 159.401L185.302 159.432L292.395 221.166C292.302 221.256 292.197 221.353 292.078 221.453C291.58 221.877 290.952 222.304 290.262 222.684L290.215 222.709L290.169 222.737L182.644 286.272C179.338 288.137 175.273 288.1 171.994 286.215L171.986 286.211L69.6046 227.722H69.6055C69.3191 227.556 68.9812 227.141 69.0518 226.252C69.1249 225.333 69.6195 224.567 70.2051 224.228L70.2061 224.227L183.07 158.747Z" fill="#005CA9" stroke="black" stroke-width="7"/>
<path d="M211.8 164.9C211.45 165.2 211.1 165.4 210.7 165.6C210.75 165.7 210.65 165.8 210.55 165.85C210.55 165.85 210.55 165.85 210.5 165.85C210.3 165.85 210.1 165.85 209.9 165.85C208.6 166.15 207.25 165.9 206.2 165.1C205.3 164.7 204.45 164.2 203.7 163.6C201.85 162.15 200 160 197.9 158.45C197.95 158.9 197.95 159.3 198 159.7C198.15 161.05 198.3 162.4 198.45 163.8C198.7 166.2 199 168.65 199.25 171.05C199.25 171.15 199.25 171.55 199.3 171.65C202.8 176.15 212.4 174.55 212.4 174.55C212.4 174.55 218.1 159.9 211.8 164.9Z" fill="#F47A63"/>
<path d="M220.75 210.7C220.75 210.7 219.75 216.3 221.4 216.95C223.05 217.6 229.7 222.8 228.7 224.9C226.4 229.7 212.75 219.3 212.75 219.3L214.45 207.4" fill="#D46A00"/>
<path d="M212.15 189.25C212.15 190.35 211.2 209 211.2 209C211.2 209 218.8 216 224.45 215.55L227.25 197.45" fill="#FFF7E1"/>
<path d="M198.8 204.4C198.8 204.4 208.9 205.55 214.8 199.4C218.25 195.85 224.75 189.7 224.75 189.7L200.7 187.95" fill="#FFF7E1"/>
<path d="M150.6 83.3C139.75 89.7 113 105.55 104.95 110.2C103.55 111 102.7 112.5 102.7 114.1V224.1C102.55 226.35 105.1 228.4 107.15 227.25L152.2 201.6C154 200.55 155.15 199.1 155.15 197V85.9C155.15 84.2 153.8 82.85 152.1 82.85C151.6 82.85 151.05 83 150.6 83.3Z" fill="#68E1FD"/>
<path d="M137.75 129.9C137.4 129.9 137.1 129.85 136.75 129.8C134.5 129.4 132.7 127.75 131.6 125.1C130.55 122.35 130.3 119.35 130.85 116.45C132 109.8 136.5 105.2 141 106C143.25 106.4 145.05 108.05 146.15 110.7C147.2 113.45 147.45 116.45 146.9 119.35C146.45 122.25 145.15 125 143.2 127.2C141.55 128.95 139.65 129.9 137.75 129.9ZM140 107.95C136.95 107.95 133.75 111.8 132.85 116.8C132.35 119.3 132.55 121.9 133.45 124.3C134.25 126.25 135.55 127.5 137.1 127.75C138.65 128 140.25 127.3 141.7 125.75C143.35 123.85 144.45 121.5 144.85 118.95C145.35 116.45 145.15 113.85 144.25 111.45C143.45 109.5 142.15 108.25 140.6 108C140.4 108 140.2 107.95 140 107.95Z" fill="#F2F2F2"/>
<path opacity="0.6" d="M111.65 122V214.35L121.6 208V116.3L111.65 122Z" fill="white"/>
<path d="M154.9 84.6L140.55 92.9V95.95C140.55 96.45 140.25 96.95 139.8 97.2L128.85 103.55C128.4 103.8 127.8 103.65 127.5 103.2C127.4 103.05 127.35 102.9 127.35 102.7V100.45L106.75 112.5C106.35 112.75 106.1 113.15 106.1 113.6V223.55C106.1 224.05 106.5 224.45 107 224.45C107.15 224.45 107.3 224.4 107.45 224.35L155.15 196.7C155.3 198.45 154.5 200.1 153.05 201.1C150.6 202.7 107.15 227.25 107.15 227.25C107.15 227.25 103.7 228.8 102.7 224.7V114.1C102.7 112.65 103.4 111.3 104.55 110.45C106.55 109 150.55 83.3 150.55 83.3C150.55 83.3 153.35 81.8 154.9 84.6Z" fill="#005CA9"/>
<path d="M216.2 84.1C226.5 90.55 252.5 105.6 261.35 111.05C263.35 112.3 263.65 114.1 263.7 116.45V226.4C262.55 227.7 260.65 228 259.2 227.1L215.6 202.45C213.45 201.2 211.7 199.85 211.7 197.35L212.1 86.1C212.05 83.7 214.15 82.85 216.2 84.1Z" fill="#68E1FD"/>
<path d="M212.15 85.35L226.35 93.5V96.55C226.35 97.05 226.65 97.55 227.1 97.8L238.05 104.15C238.5 104.45 239.1 104.3 239.4 103.8C239.5 103.65 239.55 103.5 239.55 103.3V101.05L260.15 113.1C260.55 113.35 260.8 113.75 260.8 114.25V224.15C260.8 224.65 260.4 225.05 259.9 225.05C259.75 225.05 259.6 225 259.45 224.95L211.75 197.3C211.6 199.05 212.4 200.75 213.85 201.7C216.3 203.25 259.75 227.85 259.75 227.85C259.75 227.85 263.2 229.4 264.2 225.3V114.75C264.2 113.3 263.5 111.95 262.35 111.1C260.35 109.65 216.05 83.9 216.05 83.9C216.05 83.9 212.85 82.45 212.15 85.35Z" fill="#005CA9"/>
<path d="M237.102 147.052C242.816 146.244 246.502 138.896 245.334 130.639C244.167 122.382 238.588 116.343 232.874 117.151C227.16 117.959 223.474 125.308 224.641 133.565C225.809 141.822 231.388 147.86 237.102 147.052Z" fill="#005CA9"/>
<path d="M227.75 133.05L229.45 130.35L232.5 135L239.2 124.6L241.9 126.75L232.75 140.65L227.75 133.05Z" fill="white"/>
<path d="M133.1 165.8C132.8 165.8 132.6 165.6 132.6 165.3C132.65 164.95 132.7 164.55 132.8 164.2C132.85 163.95 133.1 163.75 133.4 163.8C133.65 163.85 133.85 164.1 133.8 164.4C133.75 164.7 133.7 165 133.65 165.3C133.55 165.6 133.35 165.8 133.1 165.8Z" fill="#124577"/>
<path d="M134.4 160.45C134.35 160.45 134.3 160.45 134.25 160.45C134 160.35 133.85 160.1 133.9 159.85C134.1 159.25 134.3 158.6 134.5 157.9C134.55 157.65 134.85 157.45 135.1 157.55C135.35 157.65 135.55 157.9 135.45 158.15V158.2C135.25 158.85 135 159.5 134.85 160.1C134.8 160.3 134.6 160.45 134.4 160.45ZM220.1 155.55C219.85 155.55 219.65 155.4 219.6 155.15C219.45 154.5 219.3 153.85 219.1 153.2C219 152.95 219.2 152.65 219.45 152.6C219.7 152.55 220 152.7 220.05 152.95C220.25 153.6 220.4 154.25 220.55 154.95C220.6 155.2 220.45 155.5 220.2 155.55C220.15 155.55 220.1 155.55 220.1 155.55ZM136.6 154.25C136.3 154.25 136.1 154.05 136.1 153.75C136.1 153.7 136.1 153.6 136.15 153.55C136.4 152.95 136.65 152.3 136.95 151.65C137.05 151.4 137.35 151.3 137.6 151.4C137.85 151.5 137.95 151.8 137.85 152.05C137.55 152.7 137.3 153.3 137.05 153.9C137 154.1 136.8 154.25 136.6 154.25ZM218.15 149.25C217.95 149.25 217.75 149.1 217.7 148.95C217.45 148.35 217.2 147.7 216.95 147.1C216.85 146.85 216.95 146.55 217.2 146.45C217.45 146.35 217.75 146.45 217.85 146.7C217.85 146.7 217.85 146.7 217.85 146.75C218.1 147.35 218.35 148 218.6 148.65C218.7 148.9 218.55 149.2 218.3 149.3C218.25 149.25 218.2 149.25 218.15 149.25ZM139.4 148.3C139.1 148.3 138.9 148.05 138.9 147.8C138.9 147.7 138.9 147.65 138.95 147.55C139.25 146.95 139.6 146.35 139.95 145.75C140.1 145.5 140.4 145.45 140.65 145.55C140.9 145.7 140.95 146 140.85 146.25C140.5 146.85 140.2 147.45 139.9 148C139.75 148.2 139.6 148.3 139.4 148.3ZM215.45 143.3C215.25 143.3 215.1 143.2 215 143C214.7 142.4 214.35 141.8 214 141.25C213.85 141 213.95 140.7 214.15 140.55C214.4 140.4 214.7 140.5 214.85 140.7C215.2 141.3 215.55 141.9 215.85 142.5C216 142.75 215.9 143.05 215.65 143.2C215.6 143.25 215.5 143.25 215.45 143.3ZM142.8 142.7C142.7 142.7 142.6 142.65 142.5 142.6C142.25 142.45 142.2 142.15 142.35 141.9C142.75 141.35 143.15 140.8 143.55 140.25C143.75 140.05 144.05 140 144.25 140.2C144.45 140.35 144.5 140.65 144.35 140.85C143.95 141.4 143.55 141.95 143.2 142.5C143.1 142.6 142.95 142.65 142.8 142.7ZM211.95 137.75C211.8 137.75 211.65 137.7 211.55 137.55C211.15 137 210.75 136.5 210.3 136C210.1 135.8 210.15 135.45 210.35 135.3C210.55 135.15 210.9 135.15 211.05 135.35C211.5 135.85 211.9 136.4 212.3 136.95C212.45 137.15 212.4 137.5 212.2 137.65C212.15 137.7 212.05 137.75 211.95 137.75ZM146.8 137.5C146.5 137.5 146.3 137.3 146.3 137C146.3 136.9 146.35 136.75 146.4 136.65C146.85 136.15 147.3 135.65 147.8 135.15C148 134.95 148.3 134.95 148.5 135.15C148.7 135.35 148.7 135.65 148.5 135.85C148.05 136.35 147.6 136.8 147.15 137.35C147.05 137.45 146.95 137.45 146.8 137.5ZM207.55 132.85C207.4 132.85 207.3 132.8 207.2 132.7C206.7 132.25 206.2 131.8 205.7 131.4C205.5 131.2 205.5 130.9 205.7 130.7C205.85 130.5 206.15 130.5 206.35 130.65C206.85 131.1 207.4 131.55 207.9 132C208.1 132.2 208.1 132.5 207.9 132.7C207.8 132.8 207.7 132.85 207.55 132.85ZM151.45 132.85C151.15 132.85 150.95 132.65 150.95 132.35C150.95 132.2 151 132.05 151.15 131.95C151.65 131.5 152.2 131.05 152.75 130.65C152.95 130.5 153.3 130.5 153.45 130.75C153.6 131 153.6 131.3 153.35 131.45C152.85 131.85 152.3 132.3 151.8 132.7C151.7 132.8 151.55 132.85 151.45 132.85ZM156.75 128.95C156.45 128.95 156.25 128.75 156.25 128.45C156.25 128.3 156.35 128.1 156.5 128C157.05 127.65 157.65 127.3 158.25 126.95C158.5 126.8 158.8 126.9 158.95 127.15C159.1 127.4 159 127.7 158.75 127.85C158.15 128.15 157.6 128.5 157.05 128.85C156.95 128.95 156.85 128.95 156.75 128.95ZM202.4 128.85C202.3 128.85 202.2 128.8 202.15 128.75C201.6 128.4 201 128.05 200.45 127.75C200.2 127.6 200.15 127.3 200.25 127.05C200.4 126.8 200.7 126.75 200.95 126.85C201.55 127.2 202.15 127.55 202.7 127.9C202.95 128.05 203 128.35 202.85 128.6C202.7 128.75 202.55 128.8 202.4 128.85ZM162.55 125.95C162.25 125.95 162.05 125.75 162.05 125.45C162.05 125.25 162.15 125.05 162.35 125C163 124.75 163.6 124.5 164.25 124.25C164.5 124.15 164.8 124.3 164.9 124.55C165 124.8 164.85 125.1 164.6 125.2C164 125.4 163.35 125.65 162.75 125.9C162.7 125.95 162.6 125.95 162.55 125.95ZM196.55 125.8C196.5 125.8 196.4 125.8 196.35 125.75C195.75 125.5 195.1 125.25 194.5 125.05C194.25 124.95 194.1 124.65 194.2 124.4C194.3 124.15 194.6 124 194.85 124.1C195.5 124.3 196.15 124.55 196.75 124.8C197 124.9 197.1 125.2 197 125.45C196.95 125.7 196.75 125.8 196.55 125.8ZM168.8 123.95C168.55 123.95 168.35 123.8 168.3 123.55C168.25 123.3 168.4 123 168.65 122.95C169.3 122.8 170 122.65 170.65 122.55C170.95 122.5 171.2 122.7 171.25 122.95C171.3 123.2 171.1 123.5 170.85 123.55C170.2 123.65 169.55 123.8 168.9 123.95H168.8ZM190.3 123.85C190.25 123.85 190.25 123.85 190.2 123.85C189.55 123.7 188.9 123.55 188.25 123.45C187.95 123.4 187.8 123.15 187.85 122.85C187.9 122.55 188.15 122.4 188.45 122.45C189.1 122.55 189.8 122.7 190.45 122.85C190.75 122.9 190.95 123.15 190.9 123.4C190.8 123.7 190.55 123.9 190.3 123.85ZM175.25 122.9C174.95 122.9 174.75 122.7 174.75 122.4C174.75 122.1 174.95 121.9 175.25 121.9C175.95 121.85 176.6 121.8 177.3 121.75C177.6 121.75 177.8 121.95 177.8 122.2C177.8 122.2 177.8 122.2 177.8 122.25C177.8 122.5 177.6 122.75 177.35 122.75C176.6 122.8 175.95 122.85 175.25 122.9ZM183.8 122.9C183.1 122.85 182.45 122.8 181.75 122.8C181.45 122.8 181.25 122.55 181.25 122.3C181.25 122 181.5 121.8 181.75 121.8C182.45 121.85 183.1 121.85 183.8 121.9C184.1 121.9 184.3 122.15 184.3 122.4C184.3 122.65 184.05 122.9 183.8 122.9Z" fill="#124577"/>
<path d="M221.05 161.05C220.8 161.05 220.55 160.85 220.55 160.6C220.55 160.6 220.5 160.25 220.45 159.65C220.4 159.35 220.6 159.1 220.9 159.1C221.2 159.05 221.45 159.25 221.45 159.55C221.55 160.2 221.55 160.55 221.55 160.55C221.6 160.75 221.4 161 221.05 161.05Z" fill="#124577"/>
<path d="M219.8 160.95V160.75C219.8 159.4 220.9 158.3 222.25 158.3C222.7 158.3 223.1 158.4 223.5 158.65L246.6 172.15C247.35 172.6 247.85 173.4 247.85 174.3C247.85 175.65 246.75 176.75 245.35 176.75C244.9 176.75 244.5 176.65 244.15 176.4L221.05 163.1C220.25 162.65 219.8 161.85 219.8 160.95Z" fill="#005CA9"/>
<path d="M233.05 160.15C231.25 160.2 229.5 160.6 227.85 161.25C225.25 162.35 232.95 164.65 232.95 164.65" fill="#FFD008"/>
<path d="M233.75 170.35C236 171.6 238.1 173.05 240.35 174.4C241.95 172.05 242.35 169.1 241.45 166.45C239.95 161.8 235.3 159.15 231.05 160.55C228.55 161.4 226.65 163.45 226 166.05C228.55 167.4 231.15 168.9 233.75 170.35Z" fill="#D46A00"/>
<path d="M233.75 170.35C235.45 171.3 237.05 172.35 238.75 173.4C239.65 171.35 239.7 169.05 239 166.9C237.5 162.25 232.85 159.6 228.6 161C226.6 161.65 225 163.1 224.1 165C227.35 166.7 230.55 168.55 233.75 170.35Z" fill="#FFD008"/>
<path d="M238.2 172.95L237.6 172.6C236.4 171.85 235.1 171.05 233.85 170.3L231.1 168.75C229.15 167.65 227.15 166.5 225.15 165.4L224.95 165.3L225.05 165.1C226.7 161.7 230.8 160.25 234.2 161.85C234.4 161.95 234.6 162.05 234.75 162.15C238.4 164.3 239.9 168.75 238.3 172.7L238.2 172.95ZM234.15 169.9C235.4 170.6 236.7 171.4 237.9 172.2L238 172.25C238.6 170.6 238.65 168.75 238.1 167.05C237.5 165.2 236.25 163.6 234.55 162.65C231.55 160.85 227.65 161.8 225.85 164.8C225.8 164.9 225.7 165 225.65 165.15C227.6 166.2 229.55 167.3 231.4 168.35L234.15 169.9Z" fill="#D46A00"/>
<path d="M233.75 170.35L234.2 170.6C234.2 170.15 234.1 169.75 233.8 169.4C233.55 169.05 233.2 168.8 232.8 168.65C232.4 168.5 232.05 168.35 231.65 168.25C231.3 168.15 230.95 168 230.65 167.8C230.4 167.65 230.25 167.4 230.25 167.15C230.25 166.9 230.35 166.7 230.55 166.55C230.8 166.4 231.05 166.3 231.35 166.3C231.65 166.3 231.9 166.4 232.15 166.5C232.35 166.6 232.5 166.7 232.65 166.8C232.7 166.9 232.8 166.95 232.85 167L233.9 165.9L233.7 165.7C233.5 165.5 233.3 165.35 233.05 165.25C232.75 165.05 232.4 164.95 232.05 164.85V163.75L230.55 163.7V164.8C229.95 164.9 229.4 165.15 229 165.6C228.6 166 228.4 166.5 228.4 167.05C228.4 167.15 228.4 167.25 228.4 167.35L233.75 170.35Z" fill="#D46A00"/>
<path d="M181.25 107.7C178.2 107.85 175.15 108.6 172.35 109.85C167.9 111.9 181.3 115.5 181.3 115.5" fill="#FFD008"/>
<path d="M187.832 137.186C195.08 134.657 198.707 126.161 195.933 118.208C193.158 110.256 185.033 105.859 177.785 108.388C170.536 110.916 166.909 119.413 169.684 127.365C172.458 135.318 180.583 139.715 187.832 137.186Z" fill="#D46A00"/>
<path d="M183.628 138.1C190.876 135.572 194.503 127.075 191.729 119.123C188.954 111.17 180.829 106.774 173.581 109.302C166.333 111.831 162.706 120.328 165.48 128.28C168.254 136.232 176.379 140.629 183.628 138.1Z" fill="#FFD008"/>
<path d="M179.3 137.2C174 137.2 168.85 133.55 166.85 127.8C164.4 120.7 167.65 113.1 174.1 110.85C177.3 109.75 180.8 110.1 183.75 111.7C190.15 115.3 192.85 123.05 190.1 129.85C188.8 132.95 186.3 135.4 183.1 136.5C181.9 136.95 180.6 137.2 179.3 137.2ZM167.3 127.65C169.7 134.45 176.7 138.25 182.9 136.1C185.95 135 188.4 132.7 189.6 129.7C192.25 123.15 189.65 115.65 183.5 112.2C180.7 110.6 177.35 110.3 174.3 111.35C168.05 113.5 164.95 120.85 167.3 127.65Z" fill="#D46A00"/>
<path d="M181.55 116.5C181.95 116.7 182.35 116.95 182.65 117.25L182.95 117.6L181.15 119.5C180.85 119.1 180.4 118.8 179.95 118.65C179.5 118.45 179.05 118.3 178.55 118.3C178.05 118.25 177.55 118.45 177.15 118.75C176.85 119 176.65 119.4 176.65 119.8C176.65 120.3 176.95 120.7 177.35 120.9C177.9 121.2 178.45 121.45 179.05 121.6C179.75 121.8 180.4 122 181.1 122.25C181.8 122.5 182.4 122.95 182.85 123.55C183.35 124.2 183.6 125 183.55 125.8C183.55 126.8 183.2 127.8 182.55 128.55C181.8 129.35 180.85 129.9 179.75 130.05V132H177.15V130.15C176.65 130.1 176.15 129.95 175.65 129.75C175.25 129.6 174.85 129.4 174.45 129.2C174.15 129 173.9 128.85 173.65 128.6C173.45 128.45 173.3 128.3 173.15 128.15L173 127.95L174.8 126.15C174.9 126.25 175 126.4 175.2 126.55C175.55 126.8 175.9 127.05 176.3 127.2C176.85 127.45 177.45 127.6 178.1 127.6C178.7 127.65 179.3 127.45 179.8 127.1C180.2 126.8 180.4 126.3 180.4 125.8C180.4 125.3 180.1 124.9 179.7 124.65C179.15 124.35 178.6 124.1 178 123.95C177.3 123.75 176.65 123.55 175.95 123.3C175.25 123.05 174.7 122.6 174.25 122C173.75 121.35 173.5 120.55 173.55 119.75C173.55 118.8 173.9 117.9 174.55 117.2C175.25 116.45 176.2 115.9 177.25 115.75V113.85H179.85V115.8C180.45 116 181 116.2 181.55 116.5Z" fill="#D46A00"/>
<path d="M148.9 156.4V156.2C148.9 154.85 147.8 153.75 146.45 153.75C146 153.75 145.6 153.85 145.2 154.1L122.1 167.6C121.35 168.05 120.85 168.85 120.9 169.75C120.9 171.1 122 172.2 123.4 172.2C123.85 172.2 124.25 172.1 124.6 171.85L147.7 158.55C148.45 158.1 148.9 157.3 148.9 156.4Z" fill="#005CA9"/>
<path d="M135.65 155.65C137.45 155.7 139.2 156.1 140.85 156.75C143.45 157.85 135.75 160.15 135.75 160.15" fill="#FFD008"/>
<path d="M134.95 165.85C132.7 167.1 130.6 168.55 128.35 169.9C126.75 167.55 126.35 164.6 127.25 161.95C128.75 157.3 133.4 154.65 137.65 156.05C140.15 156.9 142.05 158.95 142.7 161.5C140.15 162.9 137.55 164.4 134.95 165.85Z" fill="#D46A00"/>
<path d="M134.95 165.85C133.25 166.8 131.65 167.85 129.95 168.9C129.1 166.85 129 164.55 129.7 162.4C131.2 157.75 135.85 155.1 140.1 156.5C142.1 157.15 143.7 158.6 144.6 160.5C141.35 162.2 138.15 164.05 134.95 165.85Z" fill="#FFD008"/>
<path d="M130.5 168.45L130.4 168.2C128.8 164.3 130.35 159.85 133.95 157.7C137.2 155.75 141.4 156.8 143.35 160.05C143.45 160.25 143.55 160.4 143.65 160.6L143.75 160.8L143.55 160.9C141.55 162 139.55 163.15 137.6 164.25L134.85 165.8C133.6 166.5 132.35 167.3 131.1 168.05L130.5 168.45ZM137.5 157.15C136.35 157.15 135.2 157.45 134.2 158.05C130.9 160 129.45 164.05 130.75 167.65L130.85 167.6C132.05 166.85 133.35 166.05 134.6 165.3C135.5 164.8 136.45 164.25 137.35 163.75C139.25 162.7 141.15 161.6 143.1 160.55C142.35 159.1 141 157.95 139.45 157.45C138.8 157.25 138.15 157.15 137.5 157.15Z" fill="#D46A00"/>
<path d="M134.95 165.85L134.5 166.1C134.5 165.65 134.6 165.25 134.9 164.9C135.15 164.55 135.5 164.3 135.9 164.15C136.3 164 136.7 163.85 137.05 163.75C137.4 163.65 137.75 163.5 138.05 163.3C138.3 163.15 138.45 162.9 138.45 162.65C138.45 162.4 138.35 162.2 138.15 162.05C137.9 161.9 137.65 161.8 137.35 161.8C137.05 161.8 136.8 161.9 136.55 162C136.35 162.1 136.2 162.2 136.05 162.3C135.95 162.4 135.9 162.45 135.85 162.5L134.8 161.45L135 161.25C135.2 161.05 135.4 160.9 135.65 160.8C135.95 160.6 136.3 160.5 136.65 160.4V159.3L138.15 159.25V160.35C138.75 160.45 139.3 160.7 139.7 161.15C140.1 161.55 140.3 162.05 140.3 162.6C140.3 162.7 140.3 162.8 140.3 162.9L134.95 165.85Z" fill="#D46A00"/>
<path d="M175.15 194.65C175.15 194.65 172.1 192.4 170.95 192.75C169.8 193.1 169.35 205.9 170.15 206.7C170.95 207.5 173.65 210.4 175.2 209.8C176.75 209.2 177.65 206.7 177.65 206.7" fill="#D46A00"/>
<path d="M203.4 186.8L185.1 187.9L188.55 200.75L176.75 191.85C174.45 194.3 174.85 196.9 174.7 200.15C174.55 202.25 174.75 204.35 175.3 206.4C175.35 206.6 175.45 206.85 175.5 207.05C176.6 208.05 177.9 208.95 178.75 209.65C180.85 211.3 182.9 213.1 185 214.8C187.95 217.25 190.75 219.55 194.45 220.65C198.15 221.75 204.7 219 205.45 214.65C206.9 206.85 204.45 194.55 203.4 186.8Z" fill="#FFF7E1"/>
<path d="M186.9 155.7C186.2 154.5 184 152.85 182.75 154.3C182.25 154.95 182.35 155.85 182.95 156.4C183.6 157 184.7 157.2 185.5 157.45C185.85 157.55 186.25 157.35 186.35 157C186.35 156.95 186.4 156.85 186.4 156.8C186.8 156.75 187.05 156.4 187 156C186.95 155.85 186.95 155.8 186.9 155.7Z" fill="#FBB5AD"/>
<path d="M202.5 178.95L183.75 174.35C183.75 174.35 184.35 182.5 185.05 187.9C188.4 189.4 192.5 189.4 196.05 188.85C198.6 188.55 201.05 187.85 203.35 186.8C204.1 186.4 204.8 185.95 205.5 185.45C205.25 183.5 202.75 180.95 202.5 178.95Z" fill="#F47A63"/>
<path d="M206.8 182.9C206.8 184.35 206.4 188 206.3 189.45C198.4 187.35 181.3 181.6 180.15 169.85C180 168.25 180.15 166.65 180.7 165.1C181.7 163.5 183.3 162.2 184.65 160.95C186.65 159.05 189.15 157.2 191.95 156.7C195.35 156.1 198.05 158.3 200.5 160.6C201.45 162.75 198.75 164.85 199.1 167L203.85 181.35L206.8 182.9Z" fill="#F47A63"/>
<path d="M192.05 151.7C192.05 151.7 194.1 161.3 190.95 162.55C187.8 163.8 184.55 161.55 184 159.75C183.45 157.95 183.8 155.15 183.8 155.15C183.8 155.15 186.1 151.75 192.05 151.7Z" fill="#FBB5AD"/>
<path d="M192.4 150C192.5 147.65 189.25 146.2 187.7 148.15C186.95 147.5 185.95 147.2 184.95 147.35C183.55 147.6 183.1 148.55 183.2 149.9C182.4 149.9 181.6 150.25 181.15 150.9C180.6 151.7 180.6 152.75 181.15 153.5C180.1 153.8 179.6 154.95 179.7 156.05C179.75 156.55 179.9 157 180.2 157.4C180.15 157.55 180.1 157.7 180.05 157.85C179.9 158.75 180.35 159.6 181.1 160.1C181.55 160.4 182.05 160.55 182.55 160.55C182.9 161.25 183.6 161.65 184.35 161.6C185.3 161.55 186.1 160.8 186.2 159.85C186.2 159.6 186.2 159.3 186.1 159.05C186.55 158.1 186.6 157 186.35 155.95C186.5 155.9 186.6 155.85 186.75 155.75C187.15 155.5 187.4 155.1 187.5 154.65C187.95 154.8 188.4 154.85 188.9 154.75C189.35 154.65 189.7 154.35 189.85 153.9C191 154.2 192.55 153.75 193.15 152.75C193.6 151.8 193.3 150.6 192.4 150Z" fill="#D46A00"/>
<path d="M186.95 158.35C186.85 157.75 186.45 157.2 185.95 156.85C185.4 156.5 184.65 156.4 184.2 157C183.9 157.5 183.9 158.15 184.25 158.6C184.7 159.15 185.35 159.15 186 159.4C186.35 159.55 186.55 159.2 186.5 158.9C186.75 158.9 186.95 158.65 186.95 158.4V158.35Z" fill="#FBB5AD"/>
<path d="M191.4 155.9C191.35 155.7 191 155.8 191.05 156C191.15 156.5 191.25 157 191.35 157.5C191.4 157.75 191.45 157.95 191.5 158.2C191.5 158.6 191.3 158.7 191 158.9C190.8 159 191 159.35 191.2 159.2C191.6 158.95 191.95 158.85 191.9 158.3C191.75 157.5 191.6 156.7 191.4 155.9Z" fill="#124577"/>
<path d="M192.2 155.5C192.1 155.5 192.05 155.6 192.05 155.7C192.05 155.8 192.1 155.85 192.2 155.85C192.3 155.85 192.35 155.75 192.35 155.65C192.35 155.55 192.3 155.5 192.2 155.5Z" fill="#124577"/>
<path d="M188.8 156.65C188.7 156.65 188.65 156.75 188.65 156.85C188.65 156.95 188.7 157 188.8 157C188.9 157 188.95 156.9 188.95 156.8C188.9 156.75 188.85 156.65 188.8 156.65Z" fill="#124577"/>
<path d="M190.6 159.9C190.05 160.15 189.4 159.95 189.05 159.4C189 159.3 188.9 159.3 188.8 159.35C188.7 159.4 188.7 159.5 188.75 159.6C189.15 160.3 190 160.55 190.75 160.25C191 160.1 190.8 159.8 190.6 159.9Z" fill="#124577"/>
<path d="M212.4 180.8C211.55 180.7 210.8 181.4 210.4 182.1C210.1 182.6 209.9 183.1 209.6 183.6C209.1 184.35 208.65 184.05 207.9 183.7C207.15 183.35 206.35 184.55 207.2 184.9C207.8 185.2 208.65 185.7 209.3 185.65C209.75 185.55 210.2 185.25 210.4 184.85C210.5 185.2 210.85 185.4 211.2 185.3C211.3 185.25 211.45 185.2 211.5 185.1C212.1 184.35 213 183.5 213.25 182.5C213.55 181.75 213.25 180.9 212.4 180.8Z" fill="#FBB5AD"/>
<path d="M216.65 186.5C213.4 185.4 210.1 184.3 206.8 183.2C206.6 184.85 206.5 186.55 206.35 188.2C207.8 189.85 209.3 191.45 211.2 192.65C211.6 192.85 212.05 192.75 212.3 192.35C212.35 192.25 212.4 192.1 212.4 191.95C212.35 191.65 212.3 191.35 212.15 191.05C212.8 191.5 213.55 191.85 214.3 192.15C214.75 192.25 215.15 192 215.25 191.55C215.3 191.3 215.25 191 215.05 190.85C214.85 190.65 214.6 190.5 214.4 190.3C214.95 190.4 215.5 190.4 216.05 190.35C216.9 190.3 217.2 189 216.25 188.8C215.9 188.7 215.5 188.6 215.15 188.5C215.8 188.4 216.45 188.15 216.95 187.75C217.5 187.4 217.15 186.65 216.65 186.5Z" fill="#FBB5AD"/>
<path d="M213.15 160.15C210.85 160.95 209.6 163.5 210.45 165.8C210.5 165.9 210.55 166.05 210.6 166.15C210.7 166.4 210.95 166.55 211.2 166.5C211.25 165.3 211.85 164.15 212.75 163.35H212.8C213.5 162.75 214.4 162.25 214.65 161.5C215 160.5 214.15 159.8 213.15 160.15Z" fill="#FBB5AD"/>
<path d="M204.85 191.8C204.75 191.25 203.9 191.5 204 192.05C204.8 196.2 205.35 200.4 205.7 204.6C205.75 205.15 206.65 205.15 206.6 204.6C206.2 200.3 205.65 196.05 204.85 191.8Z" fill="#124577"/>
<path d="M192.15 213.1C190.85 209.25 189.85 205.35 189.05 201.4C188.95 200.85 188.1 201.1 188.2 201.65C189 205.6 190 209.55 191.3 213.35C191.45 213.85 192.3 213.65 192.15 213.1Z" fill="#124577"/>
<path d="M200.25 187.8C193.95 185.9 188.25 182.4 183.75 177.55C183.45 177.25 183 177.7 183.3 178C187.85 182.9 193.65 186.5 200.05 188.4C200.25 188.45 200.4 188.35 200.45 188.2C200.5 188.05 200.45 187.85 200.25 187.8Z" fill="#124577"/>
<path d="M207.2 182.5C202.8 180.75 198.7 178.4 194.9 175.6C194.55 175.35 194.25 175.9 194.55 176.15C198.4 179 202.6 181.35 207 183.1C207.4 183.3 207.55 182.7 207.2 182.5Z" fill="#124577"/>
<path d="M203.05 176.65C202.05 173.55 201.05 170.45 200 167.4C199.85 167 199.25 167.15 199.35 167.6L202.4 176.85C202.55 177.25 203.2 177.05 203.05 176.65Z" fill="#124577"/>
<path d="M158.4 260.7C167.375 260.7 174.65 256.447 174.65 251.2C174.65 245.953 167.375 241.7 158.4 241.7C149.425 241.7 142.15 245.953 142.15 251.2C142.15 256.447 149.425 260.7 158.4 260.7Z" fill="#D46A00"/>
<path d="M142.1 251.2V248.45L143.9 250.6L142.1 251.2Z" fill="#D46A00"/>
<path d="M174.65 248.45V251.2H172.55L174.05 248.95L174.65 248.45Z" fill="#D46A00"/>
<path d="M158.4 257.95C167.375 257.95 174.65 253.697 174.65 248.45C174.65 243.203 167.375 238.95 158.4 238.95C149.425 238.95 142.15 243.203 142.15 248.45C142.15 253.697 149.425 257.95 158.4 257.95Z" fill="#FFD008"/>
<path d="M166.6 247.15C166.7 247.35 166.75 247.6 166.75 247.85L166.7 248.1H163.75C163.8 248 163.8 247.95 163.8 247.85C163.8 247.65 163.75 247.45 163.6 247.3C163.45 247 163.2 246.8 162.9 246.65C162.45 246.45 162 246.3 161.5 246.3C161.05 246.25 160.6 246.35 160.2 246.5C159.8 246.7 159.6 246.9 159.7 247.2C159.85 247.55 160.05 247.85 160.35 248.15C160.65 248.5 160.95 248.8 161.25 249.2C161.5 249.5 161.6 249.95 161.4 250.35C161.25 250.75 160.75 251.15 159.95 251.45C158.95 251.85 157.9 252.1 156.8 252.1C155.65 252.15 154.45 251.95 153.35 251.6L151.65 252.35L149.65 251.4L151.3 250.7C151 250.5 150.75 250.3 150.5 250.05C150.35 249.85 150.2 249.65 150.1 249.4C150.05 249.25 150 249.05 150 248.85C150 248.7 150 248.6 150.05 248.45L150.1 248.3H153.05C153.05 248.35 153 248.5 153 248.6C153 248.85 153.1 249.1 153.25 249.25C153.5 249.6 153.85 249.9 154.25 250.1C154.8 250.35 155.4 250.5 155.95 250.55C156.5 250.6 157.05 250.5 157.55 250.3C157.95 250.1 158.1 249.9 158 249.6C157.85 249.25 157.65 248.95 157.35 248.65C157 248.35 156.7 248 156.45 247.6C156.2 247.3 156.15 246.85 156.35 246.45C156.55 246.05 157.05 245.65 157.85 245.3C158.8 244.9 159.8 244.7 160.85 244.7C161.95 244.65 163.05 244.85 164.05 245.2L165.75 244.45L167.6 245.45L165.9 246.2C166.2 246.5 166.45 246.8 166.6 247.15Z" fill="#D46A00"/>
<path d="M158.4 258.05C149.9 258.05 143.25 253.9 143.25 248.55C143.25 243.2 149.9 239.05 158.4 239.05C166.9 239.05 173.55 243.2 173.55 248.55C173.55 253.9 166.9 258.05 158.4 258.05ZM158.4 242.05C151.8 242.05 146.25 245.05 146.25 248.55C146.25 252.05 151.8 255.05 158.4 255.05C165 255.05 170.55 252.05 170.55 248.55C170.55 245.05 165 242.05 158.4 242.05Z" fill="#D46A00"/>
<path d="M158.4 253.8C167.375 253.8 174.65 249.547 174.65 244.3C174.65 239.053 167.375 234.8 158.4 234.8C149.425 234.8 142.15 239.053 142.15 244.3C142.15 249.547 149.425 253.8 158.4 253.8Z" fill="#D46A00"/>
<path d="M142.1 244.3V241.55L143.9 243.75L142.1 244.3Z" fill="#D46A00"/>
<path d="M174.65 241.55V244.3H172.55L174.05 242.1L174.65 241.55Z" fill="#D46A00"/>
<path d="M158.4 251.05C167.375 251.05 174.65 246.797 174.65 241.55C174.65 236.303 167.375 232.05 158.4 232.05C149.425 232.05 142.15 236.303 142.15 241.55C142.15 246.797 149.425 251.05 158.4 251.05Z" fill="#FFD008"/>
<path d="M166.6 240.3C166.7 240.5 166.75 240.75 166.75 241L166.7 241.25H163.75C163.8 241.15 163.8 241.1 163.8 241C163.8 240.8 163.75 240.6 163.6 240.45C163.45 240.15 163.2 239.95 162.9 239.8C162.45 239.55 162 239.45 161.5 239.45C161.05 239.4 160.6 239.5 160.2 239.65C159.8 239.85 159.6 240.05 159.7 240.35C159.85 240.7 160.05 241 160.35 241.3C160.65 241.65 160.95 241.95 161.25 242.35C161.5 242.65 161.6 243.1 161.4 243.5C161.25 243.9 160.75 244.3 159.95 244.6C158.95 245 157.9 245.25 156.8 245.25C155.65 245.3 154.45 245.1 153.35 244.75L151.65 245.5L149.65 244.5L151.3 243.8C151 243.6 150.75 243.35 150.5 243.1C150.35 242.9 150.2 242.7 150.1 242.45C150.05 242.3 150 242.1 150 241.9C150 241.75 150 241.65 150.05 241.5L150.1 241.35H153.05C153.05 241.4 153 241.55 153 241.65C153 241.9 153.1 242.15 153.25 242.35C153.5 242.7 153.85 243 154.25 243.2C154.8 243.45 155.35 243.6 155.95 243.65C156.5 243.7 157.05 243.6 157.55 243.4C157.95 243.2 158.1 243 158 242.7C157.85 242.35 157.65 242.05 157.35 241.75C157 241.45 156.7 241.1 156.45 240.7C156.2 240.4 156.15 239.9 156.35 239.55C156.55 239.15 157.05 238.75 157.85 238.4C158.8 238 159.8 237.8 160.85 237.8C161.95 237.75 163.05 237.95 164.05 238.3L165.75 237.55L167.6 238.55L165.9 239.3C166.2 239.6 166.45 239.95 166.6 240.3Z" fill="#D46A00"/>
<path d="M158.4 250.15C150.6 250.15 144.25 246.35 144.25 241.65C144.25 236.95 150.6 233.15 158.4 233.15C166.2 233.15 172.55 236.95 172.55 241.65C172.55 246.35 166.2 250.15 158.4 250.15ZM158.4 234.15C151.15 234.15 145.25 237.5 145.25 241.65C145.25 245.8 151.15 249.15 158.4 249.15C165.65 249.15 171.55 245.8 171.55 241.65C171.55 237.5 165.65 234.2 158.4 234.15Z" fill="#D46A00"/>
<path d="M158.35 249.8C167.325 249.8 174.6 245.547 174.6 240.3C174.6 235.053 167.325 230.8 158.35 230.8C149.375 230.8 142.1 235.053 142.1 240.3C142.1 245.547 149.375 249.8 158.35 249.8Z" fill="#D46A00"/>
<path d="M142.1 240.3V237.55L143.85 239.75L142.1 240.3Z" fill="#D46A00"/>
<path d="M174.6 237.55V240.3H172.55L174.05 238.05L174.6 237.55Z" fill="#D46A00"/>
<path d="M158.35 247.05C167.325 247.05 174.6 242.797 174.6 237.55C174.6 232.303 167.325 228.05 158.35 228.05C149.375 228.05 142.1 232.303 142.1 237.55C142.1 242.797 149.375 247.05 158.35 247.05Z" fill="#FFD008"/>
<path d="M166.6 236.25C166.7 236.45 166.75 236.7 166.75 236.95L166.7 237.2H163.75C163.8 237.1 163.8 237.05 163.8 236.95C163.8 236.75 163.75 236.55 163.6 236.4C163.45 236.1 163.2 235.9 162.9 235.75C162.45 235.55 162 235.4 161.5 235.4C161.05 235.35 160.6 235.45 160.2 235.6C159.8 235.8 159.65 236 159.7 236.3C159.85 236.65 160.05 236.95 160.35 237.25C160.65 237.6 160.95 237.9 161.25 238.3C161.5 238.6 161.6 239.05 161.4 239.45C161.25 239.85 160.75 240.25 159.95 240.55C158.95 240.95 157.9 241.2 156.8 241.2C155.65 241.25 154.45 241.05 153.35 240.7L151.65 241.5L149.65 240.55L151.3 239.85C151 239.65 150.75 239.4 150.5 239.15C150.35 238.95 150.2 238.75 150.1 238.5C150.05 238.35 150 238.15 150 237.95C150 237.8 150 237.7 150 237.55L150.05 237.4H153C152.95 237.5 152.95 237.6 152.95 237.7C152.95 237.95 153.05 238.2 153.2 238.4C153.45 238.75 153.8 239.05 154.2 239.25C154.75 239.5 155.3 239.65 155.9 239.7C156.45 239.75 157 239.65 157.5 239.45C157.9 239.25 158.05 239.05 157.95 238.75C157.8 238.4 157.6 238.1 157.3 237.8C156.95 237.5 156.65 237.15 156.4 236.75C156.15 236.45 156.1 236 156.3 235.6C156.5 235.2 157 234.8 157.8 234.45C158.75 234.05 159.75 233.85 160.8 233.85C161.9 233.8 163 234 164 234.35L165.7 233.6L167.55 234.6L165.85 235.35C166.15 235.55 166.45 235.9 166.6 236.25Z" fill="#D46A00"/>
<path d="M158.4 247.15C149.9 247.15 143.25 243 143.25 237.65C143.25 232.3 149.9 228.15 158.4 228.15C166.9 228.15 173.55 232.3 173.55 237.65C173.55 243 166.85 247.15 158.4 247.15ZM158.4 231.15C151.8 231.15 146.25 234.15 146.25 237.65C146.25 241.15 151.8 244.15 158.4 244.15C165 244.15 170.55 241.15 170.55 237.65C170.55 234.15 164.95 231.15 158.4 231.15Z" fill="#D46A00"/>
<path d="M158.35 242.3C167.325 242.3 174.6 238.047 174.6 232.8C174.6 227.553 167.325 223.3 158.35 223.3C149.375 223.3 142.1 227.553 142.1 232.8C142.1 238.047 149.375 242.3 158.35 242.3Z" fill="#D46A00"/>
<path d="M142.1 232.8V230.05L143.85 232.25L142.1 232.8Z" fill="#D46A00"/>
<path d="M174.6 230.05V232.8H172.55L174.05 230.6L174.6 230.05Z" fill="#D46A00"/>
<path d="M158.35 239.55C167.325 239.55 174.6 235.297 174.6 230.05C174.6 224.803 167.325 220.55 158.35 220.55C149.375 220.55 142.1 224.803 142.1 230.05C142.1 235.297 149.375 239.55 158.35 239.55Z" fill="#FFD008"/>
<path d="M166.6 228.8C166.7 229 166.75 229.25 166.75 229.5L166.7 229.75H163.75C163.8 229.65 163.8 229.6 163.8 229.5C163.8 229.3 163.75 229.1 163.6 228.95C163.45 228.65 163.2 228.45 162.9 228.3C162.45 228.05 162 227.95 161.5 227.95C161.05 227.9 160.6 228 160.2 228.15C159.8 228.35 159.65 228.55 159.7 228.85C159.85 229.2 160.05 229.5 160.35 229.8C160.65 230.15 160.95 230.45 161.25 230.85C161.5 231.15 161.6 231.6 161.4 232C161.25 232.4 160.75 232.8 159.95 233.1C158.95 233.5 157.9 233.75 156.8 233.75C155.65 233.8 154.45 233.6 153.35 233.25L151.65 234L149.65 233L151.3 232.3C151 232.1 150.75 231.85 150.5 231.6C150.2 231.25 150 230.85 150 230.4C150 230.25 150 230.15 150.05 230L150.1 229.85H153.05C153 229.95 153 230.05 153 230.15C153 230.4 153.1 230.65 153.25 230.85C153.5 231.2 153.85 231.5 154.25 231.7C154.8 231.95 155.35 232.15 155.95 232.15C156.5 232.2 157.05 232.1 157.55 231.9C157.95 231.7 158.1 231.5 158 231.2C157.85 230.85 157.65 230.55 157.35 230.25C157 229.95 156.7 229.6 156.45 229.2C156.2 228.85 156.15 228.4 156.35 228.05C156.55 227.65 157.05 227.25 157.85 226.9C158.8 226.5 159.8 226.3 160.85 226.3C161.95 226.25 163.05 226.45 164.05 226.8L165.75 226.05L167.6 227.05L165.9 227.8C166.2 228.1 166.45 228.4 166.6 228.8Z" fill="#D46A00"/>
<path d="M158.4 238.65C150.6 238.65 144.25 234.85 144.25 230.15C144.25 225.45 150.6 221.65 158.4 221.65C166.2 221.65 172.5 225.5 172.5 230.15C172.5 234.8 166.2 238.65 158.4 238.65ZM158.4 222.65C151.15 222.65 145.25 226 145.25 230.15C145.25 234.3 151.15 237.65 158.4 237.65C165.65 237.65 171.55 234.3 171.55 230.15C171.55 226 165.6 222.7 158.4 222.65Z" fill="#D46A00"/>
<path d="M152 234.15C160.975 234.15 168.25 229.897 168.25 224.65C168.25 219.403 160.975 215.15 152 215.15C143.025 215.15 135.75 219.403 135.75 224.65C135.75 229.897 143.025 234.15 152 234.15Z" fill="#D46A00"/>
<path d="M135.75 224.65V221.9L137.5 224.1L135.75 224.65Z" fill="#D46A00"/>
<path d="M168.25 221.9V224.65H166.2L167.7 222.45L168.25 221.9Z" fill="#D46A00"/>
<path d="M152 231.4C160.975 231.4 168.25 227.147 168.25 221.9C168.25 216.653 160.975 212.4 152 212.4C143.025 212.4 135.75 216.653 135.75 221.9C135.75 227.147 143.025 231.4 152 231.4Z" fill="#FFD008"/>
<path d="M160.25 220.65C160.35 220.85 160.4 221.15 160.4 221.4L160.35 221.65H157.4C157.4 221.55 157.45 221.5 157.45 221.4C157.45 221.2 157.4 221 157.25 220.85C157.1 220.55 156.85 220.35 156.55 220.2C156.1 219.95 155.65 219.85 155.15 219.85C154.7 219.8 154.25 219.9 153.85 220.05C153.45 220.25 153.3 220.45 153.35 220.75C153.5 221.1 153.7 221.4 154 221.7C154.3 222.05 154.6 222.35 154.9 222.75C155.15 223.05 155.25 223.5 155.05 223.9C154.9 224.3 154.4 224.7 153.6 225C152.6 225.4 151.55 225.65 150.45 225.65C149.3 225.7 148.1 225.5 147 225.15L145.3 225.9L143.3 224.9L144.95 224.2C144.65 224 144.4 223.75 144.15 223.5C144 223.3 143.85 223.1 143.75 222.85C143.7 222.65 143.65 222.5 143.65 222.3C143.65 222.15 143.65 222.05 143.7 221.9L143.75 221.75H146.7C146.65 221.85 146.65 221.95 146.65 222.05C146.65 222.3 146.75 222.55 146.9 222.75C147.15 223.1 147.5 223.4 147.9 223.6C148.45 223.85 149 224.05 149.6 224.05C150.15 224.1 150.7 224 151.2 223.8C151.6 223.6 151.75 223.4 151.65 223.1C151.5 222.75 151.3 222.45 151 222.15C150.65 221.85 150.35 221.5 150.1 221.1C149.85 220.8 149.8 220.35 149.95 219.95C150.15 219.55 150.65 219.15 151.45 218.8C152.4 218.4 153.4 218.2 154.45 218.2C155.55 218.15 156.65 218.35 157.65 218.7L159.35 217.95L161.2 218.95L159.5 219.7C159.8 219.9 160.1 220.25 160.25 220.65Z" fill="#D46A00"/>
<path d="M152.05 230.5C144.25 230.5 137.9 226.7 137.9 222C137.9 217.3 144.25 213.5 152.05 213.5C159.85 213.5 166.2 217.3 166.2 222C166.2 226.7 159.8 230.5 152.05 230.5ZM152.05 214.5C144.8 214.5 138.9 217.85 138.9 222C138.9 226.15 144.8 229.5 152.05 229.5C159.3 229.5 165.2 226.15 165.2 222C165.2 217.85 159.25 214.55 152.05 214.5Z" fill="#D46A00"/>
</svg>
