<svg width="362" height="374" viewBox="0 0 362 374" fill="none" xmlns="http://www.w3.org/2000/svg">
<path d="M349.507 180.389C403.399 321.692 271.315 355.145 174.859 355.145C35.1411 427.045 0.211491 276.904 0.211491 180.389C0.211491 83.8735 -13.2614 18.6142 174.859 5.63232C291.125 -26.3232 349.507 83.8735 349.507 180.389Z" fill="#F3F6F7"/>
<path d="M184.4 286L290.6 223.25C294 221.35 296.9 218.25 293.6 216.2L187 154.75C185.4 153.75 182.95 153.1 181.35 154.05L69.8502 218.75C66.4502 220.7 65.8502 226.2 69.2502 228.15L170.4 285.9C174.7 288.4 180 288.45 184.4 286Z" fill="#005CA9"/>
<path d="M91.8003 207.25V220.55H113.3V207.25" fill="#F8997C"/>
<path d="M102.55 212.55C108.487 212.55 113.3 210.177 113.3 207.25C113.3 204.323 108.487 201.95 102.55 201.95C96.6132 201.95 91.8003 204.323 91.8003 207.25C91.8003 210.177 96.6132 212.55 102.55 212.55Z" fill="#2C1D1A"/>
<path d="M102.55 226.35C108.487 226.35 113.3 223.977 113.3 221.05C113.3 218.123 108.487 215.75 102.55 215.75C96.6132 215.75 91.8003 218.123 91.8003 221.05C91.8003 223.977 96.6132 226.35 102.55 226.35Z" fill="#F8997C"/>
<path d="M114.6 176.4C112.35 175.45 109.2 172.4 106.45 172.5C105.4 175.05 105.1 178.05 104.8 180.65C104.3 185.15 104.2 189.7 104.5 194.25C104.55 195.25 104.65 196.25 104.75 197.25C104.75 197.55 104.85 197.85 105 198.1V208.6C105 208.8 105.15 208.95 105.35 208.95C105.55 208.95 105.7 208.8 105.7 208.6V198.5C106.8 198.15 107.8 197.65 108.8 197.1C110.8 195.85 112.35 193.9 113.1 191.65C114.85 186.85 113.75 181.45 115.4 176.65C115.05 176.55 114.85 176.5 114.6 176.4Z" fill="#5FAD00"/>
<path d="M109.95 168.5C108.65 169.25 107.6 170.35 106.9 171.65C106.7 171.95 106.55 172.25 106.4 172.6L106.3 172.8C106.1 173.35 105.95 173.9 105.8 174.45C106.05 174 106.45 173.7 106.95 173.55C107.5 173.3 108.15 173.25 108.75 173.4C109.35 173.6 109.9 173.9 110.4 174.3C111.15 174.75 111.9 175.3 112.65 175.75C116.2 178 120.95 178.25 123.7 174.95C123.75 174.8 123.75 174.7 123.8 174.55C124.15 172.25 117.8 163.9 109.95 168.5Z" fill="#5FAD00"/>
<path d="M122.1 176.3C122.25 176.2 122.4 176.1 122.55 176C122.55 175.9 122.55 175.8 122.45 175.75C120.3 173.55 118 171.35 115.05 170.3C112.95 169.5 110.65 169.25 108.45 169.65C108.2 169.95 108 170.2 107.8 170.5C110.2 169.7 113.2 170.2 115.4 171.15C118 172.25 120.05 174.25 122 176.25C122 176.25 122.05 176.3 122.1 176.3Z" fill="#5FAD00"/>
<path d="M86.0002 181.1C82.8502 182.75 80.9502 186.15 81.2002 189.7C81.4502 196.05 91.9002 189.85 94.7002 184.5C97.5002 179.15 97.9002 186.8 97.9002 186.8" fill="#5FAD00"/>
<path d="M95.4 178.9C93.45 178.85 91.5 179.15 89.6 179.7C88.35 180 87.1 180.45 86 181.1C86.65 181.55 87.35 181.9 88.1 182.2C89.4 182.75 90.8 183.4 91.5 184.6C91.65 184.9 91.8 185.2 91.9 185.55C92.55 187.65 92 190.15 92.85 192.25C93.75 194.45 95.45 196.2 97.95 196.35C100.9 196.55 102.25 193.7 102.85 191.25C103.45 188.8 104.25 185.45 103.3 182.95C102.15 180.1 98.2 179.05 95.4 178.9Z" fill="#5FAD00"/>
<path d="M99.3003 188.8C98.0503 184.8 95.4503 181 91.6003 179.25H91.4503L91.2503 179.3C91.0003 179.35 90.8003 179.4 90.5503 179.5C95.0003 181.15 97.8003 185.55 98.9503 190.05C100.4 195.8 99.9003 202.05 99.9503 207.9C99.9503 208.05 100.1 208.2 100.25 208.2C100.4 208.2 100.55 208.05 100.55 207.9C100.6 201.6 101.15 194.9 99.3003 188.8Z" fill="#5FAD00"/>
<path d="M259.4 208.95C259 208.95 258.6 208.85 258.2 208.7L258 209.9L277.35 210.4V208.95H259.4Z" fill="#2C1D1A"/>
<path d="M258.2 208.75L258 209.9L268.7 216.1V214.6C265.1 212.85 261.6 210.8 258.2 208.75Z" fill="#2C1D1A"/>
<path d="M269 125.25C268.35 125.35 267.7 125.25 267.15 125L254.85 219.7C255.6 220.15 256.35 220.55 257.1 221L269.5 125.25C269.35 125.2 269.15 125.2 269 125.25Z" fill="#2C1D1A"/>
<path d="M271.8 125.15C271.35 125.2 270.9 125.2 270.45 125.15C270.1 125.15 269.7 125.15 269.35 125.2L277.65 222.3C278.3 222 278.95 221.7 279.6 221.45L279.95 221.3H280L271.8 125.15Z" fill="#2C1D1A"/>
<path d="M270.45 125.15C269.95 125.15 269.45 125.2 268.95 125.25C268.75 125.3 268.55 125.3 268.35 125.3L267.55 227.9C267.95 227.75 268.4 227.7 268.85 227.8H269.55L269.95 227.75L270.75 125.2L270.45 125.15Z" fill="#2C1D1A"/>
<path d="M257.1 126.8V148C257.1 148 281.5 148.7 281.5 148V126.8" fill="#F8997C"/>
<path d="M269.3 132.4C276.038 132.4 281.5 129.87 281.5 126.75C281.5 123.63 276.038 121.1 269.3 121.1C262.562 121.1 257.1 123.63 257.1 126.75C257.1 129.87 262.562 132.4 269.3 132.4Z" fill="#D43500"/>
<path d="M269.3 153.95C276.038 153.95 281.5 151.42 281.5 148.3C281.5 145.18 276.038 142.65 269.3 142.65C262.562 142.65 257.1 145.18 257.1 148.3C257.1 151.42 262.562 153.95 269.3 153.95Z" fill="#F8997C"/>
<path d="M159.05 188.45L213.85 219.95V121.3C213.85 121.3 214.25 116.45 210.5 116L159.05 96.35V188.45Z" fill="#68E1FD"/>
<path opacity="0.14" d="M159.05 188.45L213.85 219.95V121.3C213.85 121.3 214.25 116.45 210.5 116L159.05 96.35V188.45Z" fill="#2C1D1A"/>
<path d="M205.5 129.3C205.5 129.3 204.55 118.3 212.4 117L159.45 86.65C159.45 86.65 155.65 84.95 153.4 88.25C151.15 91.55 151 95.2 151.25 97.9L205.5 129.3Z" fill="#68E1FD"/>
<path d="M167.05 167.8L179 174.6L197.85 185.3L202.15 187.75C202.4 187.9 202.75 187.8 202.9 187.55C203.05 187.3 202.95 186.95 202.7 186.8L190.75 180L171.9 169.25L167.6 166.8C167.35 166.65 167 166.75 166.85 167C166.7 167.25 166.8 167.65 167.05 167.8Z" fill="white"/>
<path d="M167.05 173L179 179.8L197.85 190.5L202.15 192.95C202.4 193.1 202.75 193 202.9 192.75C203.05 192.5 202.95 192.15 202.7 192L190.75 185.2L171.9 174.45L167.6 172C167.3 171.85 167 172 166.85 172.25C166.75 172.5 166.85 172.8 167.05 173Z" fill="white"/>
<path d="M167.05 178.25L179 185.05L197.85 195.8L202.15 198.25C202.45 198.4 202.75 198.25 202.9 198C203 197.75 202.95 197.45 202.7 197.3L190.75 190.5L171.9 179.75L167.6 177.3C167.35 177.15 167 177.25 166.85 177.5C166.7 177.75 166.8 178.1 167.05 178.25Z" fill="white"/>
<path d="M166.2 148.3L178.15 155.1L197 165.85L201.3 168.3C201.6 168.45 201.9 168.3 202.05 168.05C202.15 167.8 202.1 167.5 201.85 167.35L189.9 160.5L171.05 149.75L166.75 147.3C166.5 147.15 166.15 147.25 166 147.55C165.85 147.8 165.95 148.15 166.2 148.3Z" fill="white"/>
<path d="M166.2 153.5L178.15 160.3L197 171L201.3 173.45C201.6 173.6 201.95 173.5 202.1 173.25C202.25 173 202.15 172.6 201.9 172.45L189.95 165.7L171.1 154.95L166.8 152.5C166.5 152.35 166.2 152.5 166.05 152.75C165.9 153.05 166 153.35 166.2 153.5Z" fill="white"/>
<path d="M166.2 158.75L178.15 165.55L197 176.3L201.3 178.75C201.6 178.9 201.9 178.75 202.05 178.5C202.15 178.25 202.1 177.95 201.85 177.8L189.9 171L171.05 160.3L166.75 157.85C166.45 157.7 166.15 157.85 166 158.1C165.9 158.3 166 158.6 166.2 158.75Z" fill="white"/>
<path d="M187.834 150.611C193.001 149.093 195.473 142.021 193.357 134.814C191.24 127.607 185.336 122.995 180.169 124.512C175.002 126.03 172.53 133.102 174.646 140.309C176.763 147.516 182.667 152.128 187.834 150.611Z" fill="#5FAD00"/>
<path d="M177.65 136.9L180.95 143.9C181.2 144.45 181.95 144.3 182.25 143.9L188.8 135.35L189.75 134.15C189.95 133.8 189.85 133.35 189.5 133.1C189.15 132.9 188.7 133 188.5 133.35L181.95 141.9L181 143.1H182.3L179 136.1C178.5 135.25 177.25 136.05 177.65 136.9Z" fill="white"/>
<path d="M186 152.6C180.7 152.6 175.3 147.65 173.2 140.5C172.05 136.5 172.05 132.45 173.25 129.05C174.45 125.65 176.7 123.25 179.6 122.4C185.55 120.65 192.3 125.95 194.75 134.15C195.9 138.15 195.9 142.2 194.75 145.6C193.6 149 191.3 151.4 188.4 152.25C187.6 152.5 186.8 152.65 186 152.6ZM181.9 122.6C181.15 122.6 180.4 122.7 179.7 122.9C177 123.7 174.85 125.95 173.7 129.25C172.55 132.55 172.55 136.5 173.65 140.4C175.7 147.35 180.9 152.15 185.95 152.15C186.7 152.15 187.45 152.05 188.15 151.85C190.9 151.05 193 148.8 194.15 145.55C195.3 142.3 195.3 138.3 194.15 134.4C192.2 127.4 186.95 122.6 181.9 122.6Z" fill="#5FAD00"/>
<path d="M180.45 161.15C180 159.95 179.6 158.7 179.3 157.45C179.15 156.55 180.05 153.2 179.4 153C178.75 152.8 178 155.1 178 155.1C178 155.1 176.15 150.95 175.65 150.75C175.15 150.55 173.65 150.4 173.3 150.8C172.95 151.2 171.95 153.6 172.4 154.4C173.35 155.85 174.4 157.25 175.5 158.6C175.65 158.7 177.6 162.9 177.85 163C178.1 163.1 180.25 162.05 180.45 161.15Z" fill="#F8997C"/>
<path d="M200.55 174.5C200.55 174.5 190.5 170.5 188.75 169.05C187 167.6 180.65 160.15 180.65 160.15C180.65 160.15 177 161.5 177.05 163.35C177.05 163.35 182.15 171.9 184.55 174.2C186.95 176.5 195.65 182.25 197.55 182.15C199.45 182.05 200.55 174.5 200.55 174.5Z" fill="#F9AA43"/>
<path opacity="0.3" d="M200.55 174.5C200.55 174.5 190.5 170.5 188.75 169.05C187 167.6 180.65 160.15 180.65 160.15C180.65 160.15 177 161.5 177.05 163.35C177.05 163.35 182.15 171.9 184.55 174.2C186.95 176.5 195.65 182.25 197.55 182.15C199.45 182.05 200.55 174.5 200.55 174.5Z" fill="#2C1D1A"/>
<path d="M194.15 256.05C194.15 256.05 191.75 254 189.05 254.8C186.35 255.6 186.9 257.6 188.6 258.9C190.3 260.2 196.85 264.6 198.85 264.55C200.85 264.5 201.3 262.9 201.35 261.75C201.4 260.6 200.75 256.65 200.75 256.65" fill="#D43500"/>
<path d="M195.6 255.9C195.55 256.15 195.35 256.4 195.05 256.35C195 256.35 194.95 256.35 194.95 256.3C194.2 256.05 193.5 255.8 192.8 255.5C192.8 255.5 190.5 255.5 191.9 257.8C193.3 260.1 198.2 260.8 199.7 259.95C201.2 259.1 200.2 256.65 200.2 256.65" fill="#F8997C"/>
<path d="M188.45 260.55C188.45 260.55 186.05 258.5 183.35 259.3C180.65 260.1 181.2 262.1 182.9 263.4C184.6 264.65 191.15 269.1 193.2 269.05C195.25 269 195.65 267.4 195.7 266.25C195.75 265.1 195.1 261.15 195.1 261.15" fill="#D43500"/>
<path d="M189.95 260.45C189.9 260.7 189.7 260.95 189.4 260.9C189.35 260.9 189.3 260.9 189.25 260.85C188.5 260.6 187.8 260.35 187.1 260.05C187.1 260.05 184.8 260.05 186.2 262.35C187.6 264.65 192.5 265.35 194 264.5C195.5 263.65 194.5 261.2 194.5 261.2" fill="#F8997C"/>
<path d="M187.45 197.2C186.65 198.95 186.25 224.4 186.55 230.9C186.85 237.4 190 260.45 190 260.45C190 260.45 191.8 263.15 194.8 262.95C197.8 262.75 197.25 260.35 197.25 260.35C197.25 260.35 201.1 262.15 202.75 258.2C203.35 256.75 206.3 216.25 206.3 211.65C206.2 206.15 204.7 200.75 201.9 196" fill="#124577"/>
<path opacity="0.3" d="M197.2 260.35C197.2 260.35 199 209 198.8 207.5C198.6 206 199.3 218.75 199.25 222.25C199.2 224.75 197.65 256.85 197.2 260.35Z" fill="#2C1D1A"/>
<path d="M187.45 197.2C187.45 197.2 184.8 179 188.55 175.6C192.3 172.2 202.8 169.75 204.8 171.45C206.8 173.15 203.8 192.45 201.85 196C199.9 199.55 188.85 198.6 187.45 197.2Z" fill="#F9AA43"/>
<path d="M192.2 162.2C192.1 162.45 190.25 169.55 193.5 170.55C196.75 171.55 197.4 167.7 197.75 167.5C198.1 167.3 199.1 166.95 199.05 166.15C199 165.35 197.75 165.35 197.75 165.35C197.75 165.35 197.25 163.3 195.8 162.45C194.35 161.6 192.2 162.2 192.2 162.2Z" fill="#F8997C"/>
<path d="M195.25 164.2C195.25 164.2 192.55 164.25 191.35 163.1C190.45 162.2 190.5 160.75 191.4 159.9C191.45 159.85 191.5 159.8 191.55 159.75C191.55 159.75 190.5 157.6 192.5 157.05C192.5 157.05 192.7 155.1 196.7 156C200.7 156.9 204.4 159.75 204.45 163.45C204.5 167.15 204.75 167.55 206.1 168.4C207.45 169.25 207.05 172.45 203.55 172.6C200.05 172.75 195.3 172.4 194.85 170.7C194.4 169 197.05 168.8 197.4 167.05C197.75 165.3 196.15 164.25 195.25 164.2Z" fill="#2C1D1A"/>
<path d="M182.2 194.55C182.2 194.55 179.4 197.55 178.6 197.85C177.35 198.4 176.2 199.1 175.05 199.85C175.45 200.2 175.75 200.55 176.05 201V201.05C176.4 200.8 176.65 200.6 176.65 200.75C176.6 201.15 173.9 204.75 173.5 205.3C173.1 205.85 174.25 207.6 174.25 207.6C176.05 208.2 178.05 206.4 179.35 205.2C180.65 204 181.25 201.15 181.75 200.8C182.25 200.45 185.95 197.95 186.2 197.2C186.45 196.45 182.2 194.55 182.2 194.55Z" fill="#F8997C"/>
<path d="M187.7 176.9C186.95 178.5 187 180.3 186.65 182C186.4 183.25 186.15 184.55 185.9 185.8C185.7 187.05 185.3 188.3 184.7 189.45C183.7 191.15 182.35 192.65 181.15 194.25C180.85 194.6 180.6 195 180.45 195.5C180.35 196.6 181.75 199.8 185.65 199.4C187.65 197.8 189.5 196.05 191.2 194.15C193.4 191.55 195.5 182.8 195.25 179.9C195.1 177.9 194.05 175.7 192.15 174.85C190.85 174.3 189.4 174.65 188.45 175.7C188.2 176 187.9 176.45 187.7 176.9Z" fill="#F9AA43"/>
<path opacity="0.3" d="M187.9 197.5C187.9 197.5 191.2 194.7 192 193.05C192.8 191.4 193.85 188.35 193.85 188.35C193.85 188.35 192.35 197.1 190.9 198.25C190.9 198.25 188.4 197.8 187.9 197.5Z" fill="#2C1D1A"/>
</svg>
