<svg width="340" height="352" viewBox="0 0 340 352" fill="none" xmlns="http://www.w3.org/2000/svg">
    <path
        d="M328.267 169.426C378.883 302.142 254.826 333.562 164.233 333.562C33.0054 401.092 0.198638 260.076 0.198638 169.426C0.198638 78.7762 -12.4554 17.483 164.233 5.29003C273.432 -24.7234 328.267 78.7762 328.267 169.426Z"
        fill="#F3F6F7" />
    <path
        d="M170 253.728C215.155 253.728 251.76 217.123 251.76 171.968C251.76 126.813 215.155 90.208 170 90.208C124.845 90.208 88.2402 126.813 88.2402 171.968C88.2402 217.123 124.845 253.728 170 253.728Z"
        fill="#005CA9" fill-opacity="0.3" />
    <path
        d="M170 254.064C124.696 254.064 87.9043 217.216 87.9043 171.968C87.9043 126.72 124.696 89.816 170 89.816C215.304 89.816 252.096 126.664 252.096 171.912C252.096 217.16 215.304 254.064 170 254.064ZM170 90.6C125.144 90.6 88.6883 127.112 88.6883 171.912C88.6883 216.712 125.144 253.28 170 253.28C214.856 253.28 251.312 216.768 251.312 171.968C251.312 127.168 214.856 90.6 170 90.6Z"
        fill="#D1D3D4" />
    <path
        d="M237.2 235.416C237.2 235.416 228.688 215.368 226.504 207.528C224.32 199.688 224.824 191.12 224.824 191.12L218.776 160.32C218.776 160.32 176.272 138.48 163.728 130.92C151.184 123.36 136.008 111.6 131.584 114.176C127.16 116.752 127.944 122.52 133.152 128.288C135.28 130.64 138.192 133.104 139.984 135.68C141.44 137.808 143.232 144.416 141.496 146.768C139.424 149.568 133.88 140.832 130.968 143.576C129.456 145.032 129.12 150.24 132.2 154.72C133.376 156.456 136.176 159.088 137.8 160.432C142.056 164.072 142.952 166.928 146.312 171.352C149.784 175.888 147.152 169.112 146.872 174.376C146.536 180.704 145.64 188.32 147.432 194.536C150.288 204.448 167.144 216.768 174.48 223.04C181.816 229.312 178.12 250.76 178.12 250.76L237.2 235.416Z"
        fill="white" />
    <path
        d="M178.064 251.152C177.952 251.152 177.896 251.096 177.84 251.04C177.728 250.928 177.672 250.816 177.728 250.704C177.784 250.48 181.312 229.424 174.2 223.376C173.024 222.368 171.512 221.136 169.944 219.848C161.768 213.184 149.448 203.104 147.04 194.704C145.472 189.384 145.92 183.056 146.256 177.456C146.312 176.448 146.368 175.44 146.424 174.432C146.424 173.816 146.536 173.2 146.704 172.64C146.48 172.416 146.2 172.08 145.92 171.688C144.8 170.176 143.96 168.888 143.12 167.656C141.552 165.304 140.264 163.232 137.464 160.824C137.016 160.488 133.32 157.24 131.808 155C128.56 150.296 128.952 144.976 130.632 143.352C132.312 141.728 134.776 143.464 136.904 145.032C137.744 145.704 138.64 146.264 139.592 146.768C140.544 147.16 140.936 146.88 141.16 146.544C142.728 144.416 141.104 138.032 139.648 135.904C138.36 134.168 136.904 132.544 135.28 131.032C134.384 130.192 133.6 129.352 132.872 128.512C129.512 124.816 127.944 121.12 128.392 118.096C128.672 116.304 129.792 114.736 131.36 113.84C134.888 111.768 143.848 117.592 154.208 124.368C157.456 126.496 160.816 128.68 163.952 130.584C176.328 138.088 218.552 159.76 218.944 159.984C219.056 160.04 219.112 160.152 219.168 160.264L225.216 191.064C225.216 191.12 225.216 191.12 225.216 191.176C225.216 191.232 224.712 199.744 226.896 207.416C229.08 215.088 237.536 235.08 237.592 235.248C237.648 235.36 237.648 235.472 237.592 235.584C237.536 235.696 237.424 235.752 237.312 235.808L178.176 251.208L178.064 251.152ZM147.376 173.2C147.264 173.592 147.264 173.984 147.208 174.432C147.152 175.44 147.096 176.448 147.04 177.456C146.704 183 146.312 189.272 147.768 194.424C150.12 202.6 162.328 212.568 170.392 219.176C171.96 220.464 173.472 221.696 174.648 222.704C181.424 228.528 179.072 246.56 178.512 250.2L236.584 235.08C235.352 232.168 228.072 214.696 226 207.528C223.872 200.024 224.264 191.792 224.32 191.064L218.328 160.488C215.36 158.976 175.432 138.424 163.448 131.144C160.312 129.24 156.952 127.056 153.704 124.928C144.408 118.88 134.832 112.608 131.696 114.4C130.296 115.184 129.288 116.584 129.064 118.152C128.672 120.896 130.184 124.424 133.376 127.896C134.104 128.68 134.944 129.52 135.784 130.36C137.408 131.872 138.92 133.552 140.264 135.344C141.72 137.472 143.68 144.304 141.776 146.88C141.216 147.664 140.376 147.776 139.256 147.328C138.248 146.824 137.296 146.208 136.4 145.536C134.44 144.08 132.424 142.568 131.136 143.744C129.848 144.92 129.344 149.96 132.424 154.384C133.6 156.12 136.456 158.752 137.968 160.04C140.824 162.504 142.168 164.576 143.736 167.04C144.52 168.272 145.36 169.56 146.48 171.016C146.76 171.352 146.984 171.632 147.152 171.8C147.208 171.8 147.264 171.744 147.376 171.744C147.824 171.744 148.216 172.08 148.328 172.528C148.44 172.808 148.328 173.088 148.104 173.256C147.936 173.536 147.712 173.48 147.376 173.2Z"
        fill="#231F20" />
    <path
        d="M195.536 210.888H140.656C138.416 210.888 136.624 209.096 136.624 206.856V89.536C136.624 87.296 138.416 85.504 140.656 85.504H195.536C197.776 85.504 199.568 87.296 199.568 89.536V206.912C199.568 209.096 197.72 210.888 195.536 210.888Z"
        fill="white" />
    <path
        d="M195.536 211.28H140.656C138.248 211.28 136.232 209.32 136.232 206.856V89.536C136.232 87.128 138.192 85.168 140.656 85.112H195.536C197.944 85.112 199.96 87.072 199.96 89.536V206.912C199.96 209.32 197.944 211.28 195.536 211.28ZM140.656 85.896C138.64 85.896 137.072 87.52 137.072 89.536V206.856C137.072 208.872 138.696 210.496 140.656 210.496H195.536C197.552 210.496 199.176 208.872 199.176 206.856V89.536C199.176 87.52 197.552 85.896 195.536 85.896H140.656Z"
        fill="#231F20" />
    <path d="M196.096 96.816H139.816V193.304H196.096V96.816Z" fill="#005CA9" />
    <path
        d="M172.8 207.416H162.104C160.536 207.416 159.248 206.128 159.248 204.56V200.472C159.248 198.904 160.536 197.616 162.104 197.616H172.8C174.368 197.616 175.656 198.904 175.656 200.472V204.56C175.656 206.184 174.368 207.416 172.8 207.416ZM162.104 198.4C160.984 198.4 160.032 199.352 160.032 200.472V204.56C160.032 205.68 160.984 206.632 162.104 206.632H172.8C173.92 206.632 174.872 205.68 174.872 204.56V200.472C174.872 199.352 173.92 198.4 172.8 198.4H162.104Z"
        fill="#D1D3D4" />
    <path
        d="M179.408 91.496H163.392C163.168 91.496 163 91.328 163 91.104C163 90.88 163.168 90.712 163.392 90.712H179.408C179.632 90.712 179.8 90.88 179.8 91.104C179.8 91.328 179.632 91.496 179.408 91.496Z"
        fill="#D1D3D4" />
    <path
        d="M161.152 91.328H159.024C158.8 91.328 158.632 91.16 158.632 90.936C158.632 90.712 158.8 90.544 159.024 90.544H161.152C161.376 90.544 161.544 90.712 161.544 90.936C161.544 91.16 161.376 91.328 161.152 91.328Z"
        fill="#D1D3D4" />
    <path
        d="M147.992 149.176C148.16 151.304 146.872 153.32 144.688 154.44C142.168 155.56 139.368 155.728 136.736 154.832C135.224 154.384 133.88 153.6 132.648 152.592C130.576 150.856 129.344 148.504 129.624 146.32C130.072 142.792 134.72 140.552 139.424 141.112C143.904 141.56 147.712 146.096 147.992 149.176Z"
        fill="white" />
    <path
        d="M140.32 155.784C139.088 155.784 137.8 155.616 136.624 155.224C135.056 154.72 133.656 153.936 132.424 152.872C130.184 150.968 129.008 148.504 129.288 146.264C129.736 142.624 134.328 140.104 139.536 140.664C144.128 141.168 148.16 145.704 148.44 149.12C148.608 151.416 147.264 153.544 144.912 154.72C143.456 155.448 141.888 155.784 140.32 155.784ZM138.024 141.392C133.88 141.392 130.352 143.52 130.016 146.376C129.792 148.336 130.856 150.576 132.872 152.312C134.048 153.264 135.392 154.048 136.848 154.496C139.368 155.336 142.112 155.224 144.52 154.104C146.592 153.096 147.768 151.192 147.6 149.232C147.376 146.488 143.848 142.008 139.424 141.504C138.976 141.392 138.472 141.392 138.024 141.392Z"
        fill="#231F20" />
    <path
        d="M147.152 165.024C148.048 166.312 148.328 167.936 147.88 169.448C147.488 170.344 146.928 171.128 146.256 171.744C144.352 173.536 141.776 174.768 139.2 174.432C137.632 174.096 136.176 173.424 134.888 172.472C132.592 170.904 130.408 168.944 129.68 166.312C128.616 162.504 131.36 156.848 135.84 157.464C139.592 157.856 145.192 162 147.152 165.024Z"
        fill="white" />
    <path
        d="M140.152 174.88C139.816 174.88 139.48 174.88 139.144 174.824C137.52 174.488 136.008 173.816 134.664 172.808C131.64 170.736 129.96 168.72 129.288 166.424C128.672 163.848 129.288 161.104 131.024 159.088C132.2 157.632 134.048 156.848 135.896 157.072C139.704 157.576 145.472 161.776 147.488 164.912C148.44 166.312 148.72 168.104 148.272 169.728C147.88 170.68 147.32 171.52 146.536 172.192C144.576 173.872 142.336 174.88 140.152 174.88ZM135.28 157.744C133.88 157.744 132.536 158.416 131.64 159.536C130.072 161.384 129.512 163.848 130.072 166.144C130.688 168.272 132.256 170.176 135.112 172.136C136.344 173.088 137.744 173.704 139.256 174.04C141.44 174.376 143.904 173.424 145.976 171.464C146.648 170.904 147.152 170.176 147.544 169.336C147.936 167.936 147.712 166.424 146.872 165.248C144.968 162.336 139.424 158.248 135.84 157.8C135.672 157.744 135.448 157.744 135.28 157.744Z"
        fill="#231F20" />
    <path
        d="M144.968 177.344C145.864 177.96 146.592 178.744 147.096 179.64C148.216 181.712 147.824 184.456 146.424 186.304C144.912 188.152 142.672 189.328 140.32 189.496C137.52 189.832 134.664 188.992 132.536 187.088C130.408 185.184 129.512 182.272 130.072 179.472C131.752 172.304 140.488 174.04 144.968 177.344Z"
        fill="white" />
    <path
        d="M139.144 189.944C136.624 189.944 134.16 189.048 132.256 187.368C130.016 185.352 129.064 182.328 129.68 179.36C130.24 176.952 131.64 175.328 133.712 174.544C137.24 173.256 142.168 174.768 145.192 176.952C146.088 177.568 146.872 178.408 147.432 179.36C148.552 181.656 148.272 184.456 146.704 186.472C145.136 188.432 142.84 189.608 140.32 189.832C139.928 189.944 139.536 189.944 139.144 189.944ZM136.624 174.88C135.728 174.88 134.832 174.992 133.936 175.328C132.088 176 130.912 177.456 130.408 179.584C129.848 182.216 130.744 185.016 132.76 186.808C134.832 188.6 137.52 189.44 140.208 189.104C142.504 188.936 144.576 187.816 146.032 186.08C147.432 184.288 147.712 181.88 146.704 179.864C146.2 179.024 145.528 178.24 144.688 177.68C142.336 175.944 139.536 174.992 136.624 174.88Z"
        fill="#231F20" />
    <path d="M233 218.336L227.232 206.128L171.792 225.28L175.376 238.664L233 218.336Z"
        fill="#68E1FD" />
    <path d="M171.288 233.456L232.44 213.632L249.912 245.832L181.872 266.496L171.288 233.456Z"
        fill="#231F20" />
    <path
        d="M181.872 266.888C181.704 266.888 181.536 266.776 181.48 266.608L170.896 233.568C170.84 233.344 170.952 233.12 171.12 233.064L232.272 213.184C232.44 213.128 232.664 213.184 232.72 213.352L250.136 245.552C250.248 245.72 250.192 246 249.968 246.056C249.968 246.056 249.912 246.056 249.912 246.112L181.872 266.776C181.928 266.888 181.928 266.888 181.872 266.888ZM171.792 233.736L182.096 265.992L249.296 245.608L232.272 214.08L171.792 233.736Z"
        fill="#231F20" />
    <path
        d="M224.768 192.968C224.768 192.968 224.376 159.368 220.456 152.704C216.536 146.04 204.16 117.984 200.856 117.816C197.552 117.648 194.136 127.728 197.048 136.744C198.728 142.064 201.248 147.104 204.496 151.64C204.496 151.64 195.928 159.088 202.368 183.84"
        fill="white" />
    <path
        d="M224.768 193.36C224.544 193.36 224.376 193.192 224.376 192.968C224.376 192.632 223.928 159.368 220.12 152.872C218.888 150.8 216.928 146.768 214.576 142.064C210.208 133.16 202.872 118.32 200.744 118.152C199.96 118.096 199.288 118.768 198.84 119.328C196.432 122.464 195.144 129.912 197.328 136.576C199.008 141.84 201.528 146.824 204.72 151.36C204.888 151.528 204.832 151.752 204.664 151.92C204.608 151.976 196.376 159.592 202.704 183.728C202.76 183.952 202.648 184.176 202.424 184.232C202.2 184.288 201.976 184.176 201.92 183.952C196.04 161.44 202.48 153.152 203.88 151.64C200.744 147.104 198.28 142.12 196.6 136.912C194.36 130.024 195.704 122.24 198.224 118.936C199.008 117.928 199.904 117.368 200.744 117.424C203.096 117.536 208.248 127.616 215.192 141.784C217.488 146.488 219.504 150.52 220.68 152.536C224.6 159.2 225.048 191.624 225.048 193.024C225.16 193.192 224.992 193.36 224.768 193.36Z"
        fill="#231F20" />
    <path
        d="M228.913 237.768C231.201 237.768 233.057 235.912 233.057 233.624C233.057 231.335 231.201 229.48 228.913 229.48C226.624 229.48 224.769 231.335 224.769 233.624C224.769 235.912 226.624 237.768 228.913 237.768Z"
        fill="white" />
    <path
        d="M179.072 94.128H106.384C102.576 94.128 99.4961 97.208 99.4961 101.016V137.584C99.4961 141.392 102.576 144.472 106.384 144.472H167.984L178.12 157.408V144.528H179.016C182.824 144.528 185.904 141.448 185.904 137.64V101.072C185.904 97.208 182.88 94.128 179.072 94.128Z"
        fill="white" />
    <path
        d="M178.176 157.744C178.064 157.744 177.952 157.688 177.896 157.576L167.872 144.808H106.384C102.352 144.808 99.1045 141.56 99.1045 137.528V100.96C99.1045 96.9281 102.352 93.6801 106.384 93.6801H179.072C183.104 93.6801 186.352 96.9281 186.352 100.96V137.528C186.352 141.56 183.104 144.808 179.072 144.808H178.568V157.352C178.568 157.52 178.456 157.688 178.288 157.744C178.232 157.744 178.176 157.744 178.176 157.744ZM106.384 94.5201C102.8 94.5201 99.8885 97.4321 99.8885 101.016V137.584C99.8885 141.168 102.8 144.08 106.384 144.08H167.984C168.096 144.08 168.208 144.136 168.32 144.248L177.784 156.232V144.472C177.784 144.248 177.952 144.08 178.176 144.08H179.072C182.656 144.08 185.568 141.168 185.568 137.584V101.016C185.568 97.4321 182.656 94.5201 179.072 94.5201H106.384Z"
        fill="#231F20" />
    <path
        d="M134.945 106.672H150.569C152.137 106.672 153.425 107.96 153.425 109.528V117.424C153.425 118.992 152.137 120.28 150.569 120.28H134.945C133.377 120.28 132.089 118.992 132.089 117.424V109.528C132.089 107.96 133.321 106.672 134.945 106.672Z"
        fill="#005CA9" />
    <path
        d="M148.049 109.92H137.409C136.569 109.92 135.841 109.192 135.841 108.352V104.096C135.729 100.288 138.753 97.096 142.561 96.984C146.369 96.872 149.561 99.896 149.673 103.704C149.673 103.816 149.673 103.984 149.673 104.096V108.352C149.617 109.192 148.945 109.92 148.049 109.92ZM138.977 106.784H146.481V104.096C146.537 102.024 144.969 100.288 142.841 100.176C140.769 100.12 139.033 101.688 138.921 103.816C138.921 103.928 138.921 103.984 138.921 104.096L138.977 106.784Z"
        fill="#005CA9" />
    <path
        d="M142.729 113.392C143.842 113.392 144.745 112.489 144.745 111.376C144.745 110.263 143.842 109.36 142.729 109.36C141.615 109.36 140.713 110.263 140.713 111.376C140.713 112.489 141.615 113.392 142.729 113.392Z"
        fill="#231F20" />
    <path d="M143.288 111.768H142.168V116.528H143.288V111.768Z" fill="#231F20" />
    <path
        d="M175.768 136.24H109.352C107.952 136.24 106.832 135.12 106.832 133.72V126.664C106.832 125.264 107.952 124.144 109.352 124.144H175.768C177.168 124.144 178.288 125.264 178.288 126.664V133.72C178.288 135.064 177.168 136.24 175.768 136.24ZM109.352 124.928C108.4 124.928 107.616 125.712 107.616 126.664V133.72C107.616 134.672 108.4 135.456 109.352 135.456H175.768C176.72 135.456 177.504 134.672 177.504 133.72V126.664C177.504 125.712 176.72 124.928 175.768 124.928H109.352Z"
        fill="#D1D3D4" />
    <path
        d="M114 130.528L114.896 131.704L113.888 132.376L112.992 131.2L112.152 132.32L111.2 131.648L112.096 130.528L110.696 130.024L111.088 128.904L112.488 129.408V128.008H113.664V129.408L115.064 128.96L115.456 130.024L114 130.528Z"
        fill="#231F20" />
    <path
        d="M120.441 130.528L121.337 131.704L120.329 132.376L119.433 131.2L118.593 132.32L117.641 131.648L118.537 130.528L117.137 130.08L117.529 128.96L118.929 129.464V128.064H120.105V129.464L121.505 129.016L121.897 130.136L120.441 130.528Z"
        fill="#231F20" />
    <path
        d="M126.88 130.528L127.776 131.704L126.768 132.376L125.872 131.2L124.976 132.32L124.024 131.648L124.92 130.528L123.464 130.024L123.856 128.904L125.256 129.408V128.008H126.432V129.408L127.832 128.96L128.224 130.024L126.88 130.528Z"
        fill="#231F20" />
    <path
        d="M133.32 130.528L134.216 131.704L133.208 132.376L132.312 131.2L131.416 132.32L130.464 131.648L131.36 130.528L129.96 130.08L130.352 128.96L131.752 129.464V128.064H132.928V129.464L134.328 129.016L134.664 130.136L133.32 130.528Z"
        fill="#231F20" />
    <path
        d="M139.816 130.528L140.712 131.704L139.704 132.376L138.808 131.2L137.968 132.32L136.96 131.648L137.856 130.528L136.456 130.08L136.848 128.96L138.248 129.464V128.064H139.48V129.464L140.88 129.016L141.272 130.08L139.816 130.528Z"
        fill="#231F20" />
</svg>
    