<svg width="300" height="310" viewBox="0 0 300 310" fill="none" xmlns="http://www.w3.org/2000/svg">
<path d="M289.647 149.52C334.308 266.643 222.5 294.372 144.911 294.372C29.1224 353.968 0.175269 229.519 0.175269 149.52C0.175269 69.5208 -10.9901 15.4289 144.911 4.6685C241.264 -21.8187 289.647 69.5208 289.647 149.52Z" fill="#E9EEF1" fill-opacity="0.5"/>
<path d="M118.823 89.3364H190.569C195.785 89.3364 200.049 93.5592 200.049 98.817V211.963C200.049 217.18 195.827 221.444 190.569 221.444H118.823C113.606 221.444 109.342 217.221 109.342 211.963V98.817C109.383 93.6006 113.606 89.3364 118.823 89.3364Z" fill="#68E1FD"/>
<path d="M189.865 222.23H119.485C113.482 222.23 108.597 217.345 108.597 211.301V99.4794C108.597 93.435 113.482 88.5912 119.527 88.5498H189.907C195.951 88.5498 200.795 93.435 200.836 99.4794V211.301C200.795 217.345 195.91 222.23 189.865 222.23ZM119.485 90.123C114.31 90.123 110.129 94.3044 110.087 99.5208V211.342C110.087 216.517 114.269 220.699 119.485 220.74H189.865C195.04 220.74 199.263 216.559 199.263 211.342V99.4794C199.263 94.3044 195.04 90.123 189.865 90.0816L119.485 90.123Z" fill="#093F68"/>
<path d="M200.049 100.556H109.383V206.54H200.049V100.556Z" fill="#093F68"/>
<path d="M200.008 207.285H109.342C108.928 207.285 108.555 206.954 108.555 206.498V100.514C108.555 100.1 108.887 99.7692 109.342 99.7692H200.008C200.422 99.7692 200.795 100.1 200.795 100.514V206.498C200.795 206.954 200.422 207.285 200.008 207.285ZM110.129 205.753H199.263V101.342H110.129V205.753Z" fill="#093F68"/>
<path d="M154.675 217.552C152.522 217.552 150.783 215.813 150.783 213.661C150.783 211.508 152.522 209.769 154.675 209.769C156.828 209.769 158.567 211.508 158.567 213.661C158.567 215.813 156.828 217.552 154.675 217.552ZM154.675 211.342C153.392 211.342 152.315 212.377 152.315 213.702C152.315 214.985 153.35 216.062 154.675 216.062C155.958 216.062 157.035 215.027 157.035 213.702C157.035 212.419 156 211.342 154.675 211.342C154.716 211.342 154.716 211.342 154.675 211.342Z" fill="#093F68"/>
<path d="M162.996 95.8362H151.073C150.659 95.8776 150.287 95.5464 150.245 95.1324C150.204 94.7184 150.535 94.3458 150.949 94.3044C150.99 94.3044 151.032 94.3044 151.073 94.3044H162.996C163.41 94.3458 163.742 94.7184 163.7 95.1324C163.659 95.505 163.369 95.8362 162.996 95.8362Z" fill="#093F68"/>
<path d="M148.258 95.8362H146.395C145.981 95.8776 145.608 95.5464 145.567 95.1324C145.526 94.7184 145.857 94.3458 146.271 94.3044C146.312 94.3044 146.354 94.3044 146.395 94.3044H148.258C148.672 94.263 149.045 94.5942 149.086 95.0082C149.127 95.4222 148.796 95.7948 148.382 95.8362C148.341 95.8362 148.299 95.8362 148.258 95.8362Z" fill="#093F68"/>
<path d="M95.6799 114.715H187.05C188.126 114.715 188.996 115.584 188.996 116.66V185.012C188.996 186.088 188.126 186.958 187.05 186.958H95.6799C94.6035 186.958 93.7341 186.088 93.7341 185.012V116.66C93.7341 115.584 94.6035 114.715 95.6799 114.715Z" fill="white"/>
<path d="M185.394 187.703H97.336C94.9348 187.703 92.989 185.757 92.989 183.356V118.316C92.989 115.915 94.9348 113.969 97.336 113.969H185.394C187.795 113.969 189.741 115.915 189.741 118.316V183.356C189.741 185.757 187.795 187.703 185.394 187.703ZM97.336 115.501C95.7628 115.501 94.5208 116.785 94.5208 118.316V183.356C94.5208 184.929 95.8042 186.171 97.336 186.171H185.394C186.967 186.171 188.209 184.888 188.209 183.356V118.316C188.209 116.743 186.926 115.501 185.394 115.501H97.336Z" fill="#093F68"/>
<path d="M134.803 137.981C134.43 137.981 134.141 137.733 134.058 137.36L132.402 129.784C131.408 125.189 134.348 120.635 138.943 119.641C143.538 118.648 148.092 121.587 149.086 126.182C149.169 126.596 148.879 127.01 148.465 127.052C148.092 127.093 147.72 126.886 147.596 126.514C146.892 122.705 143.207 120.221 139.44 120.925C135.672 121.628 133.147 125.313 133.851 129.08C133.892 129.205 133.892 129.329 133.934 129.453L135.59 137.029C135.672 137.443 135.424 137.857 135.01 137.94C134.927 137.981 134.886 137.981 134.803 137.981Z" fill="#093F68"/>
<path d="M130.415 135.746H152.481V151.188C152.481 153.299 150.783 154.997 148.672 154.997H134.182C132.071 154.997 130.373 153.299 130.373 151.188L130.415 135.746Z" fill="#68E1FD"/>
<path d="M145.443 155.742H137.411C133.106 155.742 129.628 152.264 129.628 147.959V135.704C129.628 135.29 129.959 134.959 130.373 134.959H152.439C152.853 134.959 153.185 135.29 153.185 135.704V147.959C153.226 152.264 149.748 155.742 145.443 155.742ZM131.16 136.491V147.959C131.16 151.395 133.975 154.21 137.411 154.21H145.443C148.879 154.21 151.694 151.395 151.694 147.959V136.491H131.16Z" fill="#093F68"/>
<path d="M141.551 144.688C142.809 144.688 143.828 143.669 143.828 142.411C143.828 141.154 142.809 140.134 141.551 140.134C140.294 140.134 139.274 141.154 139.274 142.411C139.274 143.669 140.294 144.688 141.551 144.688Z" fill="#093F68"/>
<path d="M141.551 145.433C139.895 145.433 138.529 144.067 138.529 142.411C138.529 140.755 139.895 139.389 141.551 139.389C143.207 139.389 144.573 140.755 144.573 142.411C144.573 144.067 143.249 145.433 141.551 145.433ZM141.551 140.921C140.723 140.921 140.061 141.583 140.061 142.411C140.061 143.239 140.723 143.902 141.551 143.902C142.379 143.902 143.042 143.239 143.042 142.411C143.042 141.583 142.379 140.921 141.551 140.921Z" fill="#093F68"/>
<path d="M141.551 150.857C141.137 150.857 140.806 150.526 140.806 150.112V143.322C140.765 142.908 141.096 142.535 141.51 142.494C141.924 142.453 142.296 142.784 142.338 143.198C142.338 143.239 142.338 143.281 142.338 143.322V150.112C142.338 150.484 141.965 150.857 141.551 150.857Z" fill="#093F68"/>
<path d="M170.407 180.582H112.281C108.224 180.582 104.954 177.311 104.954 173.254V167.458C104.954 163.401 108.224 160.13 112.281 160.13H170.407C174.464 160.13 177.735 163.401 177.735 167.458V173.213C177.735 177.27 174.464 180.582 170.407 180.582ZM112.281 161.662C109.094 161.662 106.485 164.27 106.485 167.458V173.213C106.485 176.401 109.094 179.009 112.281 179.009H170.407C173.595 179.009 176.203 176.401 176.203 173.213V167.458C176.203 164.27 173.595 161.662 170.407 161.662H112.281Z" fill="#DFEAEF"/>
<path d="M117.084 176.028C116.67 176.028 116.339 175.697 116.339 175.283V165.43C116.339 165.016 116.67 164.643 117.084 164.643C117.498 164.643 117.87 164.974 117.87 165.388V175.241C117.829 175.697 117.498 176.028 117.084 176.028Z" fill="#093F68"/>
<path d="M112.778 173.544C112.364 173.544 112.033 173.213 112.033 172.757C112.033 172.468 112.199 172.219 112.406 172.095L120.975 167.251C121.348 167.044 121.803 167.168 122.01 167.5C122.217 167.872 122.093 168.328 121.762 168.535H121.721L113.151 173.378C113.068 173.503 112.902 173.544 112.778 173.544Z" fill="#093F68"/>
<path d="M121.348 173.544C121.224 173.544 121.1 173.503 120.976 173.461L112.406 168.617C112.033 168.41 111.909 167.914 112.157 167.582C112.364 167.251 112.82 167.127 113.192 167.293L121.762 172.136C122.135 172.343 122.259 172.799 122.052 173.171C121.886 173.378 121.638 173.544 121.348 173.544Z" fill="#093F68"/>
<path d="M133.271 176.028C132.857 176.028 132.526 175.697 132.526 175.283V165.43C132.526 165.016 132.857 164.684 133.313 164.684C133.727 164.684 134.058 165.016 134.058 165.43V175.283C134.017 175.697 133.685 176.028 133.271 176.028Z" fill="#093F68"/>
<path d="M128.966 173.544C128.552 173.544 128.22 173.213 128.22 172.757C128.22 172.468 128.386 172.219 128.593 172.095L137.163 167.251C137.535 167.044 137.991 167.21 138.198 167.582C138.405 167.955 138.281 168.369 137.908 168.617L129.338 173.461C129.255 173.503 129.09 173.544 128.966 173.544Z" fill="#093F68"/>
<path d="M137.535 173.544C137.411 173.544 137.287 173.503 137.163 173.461L128.593 168.617C128.22 168.41 128.096 167.914 128.345 167.582C128.552 167.251 129.007 167.127 129.38 167.293L137.949 172.136C138.322 172.343 138.446 172.799 138.239 173.171C138.074 173.378 137.825 173.544 137.535 173.544Z" fill="#093F68"/>
<path d="M149.459 176.028C149.045 176.028 148.713 175.697 148.713 175.283V165.43C148.713 165.016 149.045 164.684 149.5 164.684C149.914 164.684 150.245 165.016 150.245 165.43V175.283C150.204 175.697 149.873 176.028 149.459 176.028Z" fill="#093F68"/>
<path d="M145.153 173.544C144.739 173.544 144.408 173.213 144.408 172.757C144.408 172.468 144.573 172.219 144.78 172.095L153.35 167.251C153.723 167.086 154.178 167.21 154.385 167.624C154.551 167.955 154.427 168.41 154.095 168.617L145.526 173.461C145.443 173.503 145.319 173.544 145.153 173.544Z" fill="#093F68"/>
<path d="M153.723 173.544C153.599 173.544 153.474 173.503 153.35 173.461L144.78 168.617C144.408 168.41 144.284 167.914 144.532 167.582C144.739 167.251 145.194 167.127 145.567 167.293L154.137 172.136C154.509 172.343 154.634 172.799 154.427 173.171C154.261 173.378 154.013 173.544 153.723 173.544Z" fill="#093F68"/>
<path d="M165.646 176.028C165.232 176.028 164.901 175.697 164.901 175.283V165.43C164.901 165.016 165.232 164.643 165.687 164.643C166.143 164.643 166.474 164.974 166.474 165.43V175.283C166.391 175.697 166.06 176.028 165.646 176.028Z" fill="#093F68"/>
<path d="M161.34 173.544C160.926 173.544 160.595 173.213 160.595 172.757C160.595 172.468 160.761 172.219 160.968 172.095L169.538 167.251C169.91 167.086 170.366 167.21 170.573 167.624C170.738 167.955 170.614 168.41 170.283 168.617L161.713 173.461C161.63 173.503 161.506 173.544 161.34 173.544Z" fill="#093F68"/>
<path d="M169.952 173.544C169.827 173.544 169.703 173.503 169.579 173.461L161.009 168.617C160.637 168.41 160.512 167.914 160.761 167.582C160.968 167.251 161.423 167.127 161.796 167.293L170.366 172.136C170.738 172.343 170.862 172.799 170.655 173.171C170.448 173.378 170.2 173.544 169.952 173.544Z" fill="#093F68"/>
<path d="M124.991 131.73C124.826 131.73 124.66 131.689 124.494 131.564L120.147 128.045C119.816 127.797 119.775 127.3 120.023 126.969C120.272 126.638 120.768 126.596 121.1 126.845L125.488 130.364C125.819 130.612 125.861 131.109 125.612 131.44C125.447 131.647 125.24 131.73 124.991 131.73Z" fill="#DFEAEF"/>
<path d="M122.838 136.491C122.797 136.491 122.714 136.491 122.673 136.491L116.918 135.208C116.504 135.083 116.256 134.669 116.38 134.255C116.463 133.883 116.877 133.634 117.249 133.676L123.004 134.918C123.418 135.001 123.666 135.415 123.584 135.829C123.501 136.243 123.211 136.491 122.838 136.491Z" fill="#DFEAEF"/>
<path d="M117.87 144.067C117.456 144.067 117.084 143.736 117.084 143.322C117.084 142.991 117.291 142.701 117.622 142.577L122.59 141.045C123.004 140.921 123.418 141.128 123.542 141.542C123.666 141.956 123.459 142.37 123.045 142.494L118.077 144.026C117.995 144.067 117.912 144.067 117.87 144.067Z" fill="#DFEAEF"/>
<path d="M194.667 134.504C198.186 134.587 201.498 136.325 203.61 139.141C206.632 143.115 207.129 147.421 205.017 151.975C202.865 156.611 197.979 159.385 192.887 158.806C188.333 158.35 185.021 155.949 182.993 151.809C182.827 151.436 182.579 151.229 182.165 151.271C180.467 151.478 178.77 151.064 177.362 150.112L177.279 150.07C177.031 149.905 176.7 149.905 176.493 150.112C175.748 150.608 175.002 151.105 174.257 151.602C173.967 151.892 173.512 151.892 173.222 151.602C172.518 151.105 171.773 150.65 171.111 150.153C170.904 149.946 170.531 149.946 170.324 150.153C169.579 150.691 168.792 151.147 168.047 151.685C167.84 151.933 167.468 151.933 167.219 151.726C167.178 151.685 167.136 151.643 167.095 151.602C166.681 151.147 166.226 150.774 165.812 150.319C165.687 150.112 165.398 150.029 165.149 150.194C165.108 150.194 165.108 150.236 165.066 150.236C164.363 150.733 163.617 151.188 162.914 151.685C162.665 151.892 162.334 151.892 162.086 151.685C160.512 150.484 158.898 149.284 157.283 148.124C156.911 147.876 156.911 147.71 157.242 147.379C158.691 145.972 160.14 144.523 161.589 143.032C161.92 142.701 162.375 142.494 162.831 142.494C169.124 142.494 175.458 142.494 181.751 142.535C182.206 142.577 182.62 142.328 182.744 141.873C184.938 137.112 188.706 134.711 193.922 134.421L194.667 134.504ZM195.081 142.66C192.846 142.66 191.066 144.481 191.107 146.675C191.107 148.911 192.929 150.691 195.123 150.65C197.317 150.608 199.139 148.828 199.097 146.634C199.097 144.44 197.276 142.66 195.081 142.66Z" fill="#FFBC0E"/>
<path d="M194.171 159.675C193.715 159.675 193.301 159.634 192.846 159.592C188.043 159.095 184.524 156.611 182.372 152.182C182.372 152.14 182.33 152.099 182.33 152.057C180.467 152.264 178.604 151.809 177.031 150.774C177.031 150.774 177.031 150.774 176.99 150.774L175.955 151.478C175.541 151.726 175.168 152.016 174.754 152.264C174.174 152.72 173.346 152.72 172.808 152.264C172.436 151.975 172.022 151.726 171.649 151.478C171.359 151.271 171.028 151.064 170.738 150.857C170.407 151.105 170.076 151.312 169.786 151.519C169.372 151.809 168.958 152.057 168.544 152.389C167.964 152.885 167.136 152.803 166.64 152.264C166.598 152.223 166.598 152.182 166.557 152.182C166.35 151.933 166.101 151.726 165.894 151.478C165.729 151.312 165.605 151.188 165.439 151.022L164.487 151.643C164.114 151.892 163.783 152.099 163.452 152.347C162.955 152.761 162.21 152.761 161.713 152.347C160.14 151.147 158.525 149.946 156.952 148.787C156.621 148.58 156.414 148.249 156.372 147.876C156.372 147.503 156.538 147.131 156.828 146.882C158.442 145.309 159.85 143.902 161.133 142.577C161.589 142.08 162.251 141.79 162.955 141.832H172.063C175.334 141.832 178.604 141.832 181.875 141.832C181.958 141.832 181.999 141.832 182.082 141.79C182.123 141.749 182.165 141.666 182.165 141.625C184.442 136.698 188.416 134.048 193.964 133.717C194.005 133.717 194.005 133.717 194.046 133.717H194.295L194.709 133.759C198.476 133.841 201.995 135.663 204.231 138.685C207.419 142.867 207.957 147.545 205.721 152.306C203.651 156.818 199.139 159.675 194.171 159.675ZM182.33 150.567C182.951 150.567 183.489 150.981 183.696 151.519C185.601 155.411 188.747 157.646 192.97 158.06C197.731 158.557 202.285 155.99 204.314 151.643C206.301 147.379 205.845 143.322 202.989 139.596C201.002 136.946 197.897 135.332 194.585 135.249L194.171 135.208H193.964C188.954 135.497 185.518 137.774 183.489 142.204C183.241 142.908 182.537 143.363 181.792 143.281C178.521 143.281 175.251 143.281 171.98 143.281C168.958 143.281 165.894 143.281 162.872 143.281C162.582 143.239 162.334 143.363 162.168 143.57C160.926 144.854 159.56 146.22 158.07 147.669C159.56 148.787 161.092 149.905 162.582 151.022C162.955 150.774 163.286 150.526 163.617 150.319C163.949 150.112 164.321 149.863 164.694 149.615C165.232 149.201 165.977 149.284 166.391 149.78C166.557 149.946 166.722 150.153 166.929 150.319C167.178 150.567 167.426 150.815 167.675 151.064C168.089 150.774 168.503 150.484 168.958 150.194C169.289 149.987 169.62 149.78 169.91 149.532C170.407 149.159 171.069 149.159 171.566 149.532C171.856 149.739 172.187 149.946 172.477 150.153C172.891 150.443 173.305 150.691 173.719 150.981L173.802 151.022C173.843 150.981 173.843 150.981 173.885 150.981C174.299 150.691 174.713 150.401 175.127 150.153C175.458 149.946 175.789 149.698 176.12 149.491C176.576 149.118 177.238 149.077 177.735 149.408L177.859 149.449C179.101 150.319 180.633 150.691 182.123 150.484C182.206 150.567 182.247 150.567 182.33 150.567ZM195.081 151.436C193.798 151.436 192.556 150.898 191.645 149.987C190.734 149.118 190.238 147.876 190.238 146.634C190.279 144.026 192.39 141.873 194.999 141.873C197.648 141.873 199.801 143.984 199.801 146.634C199.842 149.284 197.731 151.436 195.081 151.436ZM195.081 143.405C193.301 143.405 191.852 144.854 191.811 146.634C191.811 147.503 192.142 148.29 192.763 148.911C193.384 149.532 194.212 149.905 195.081 149.905C196.862 149.905 198.269 148.497 198.269 146.717V146.675C198.311 144.937 196.903 143.488 195.164 143.446C195.164 143.405 195.123 143.405 195.081 143.405Z" fill="#093F68"/>
</svg>
