<svg width="200" height="207" viewBox="0 0 200 207" fill="none" xmlns="http://www.w3.org/2000/svg">
<g style="mix-blend-mode:multiply">
<path d="M3.728 153.586L92.5721 204.843C97.5427 207.719 105.6 207.719 110.571 204.843L194.078 156.62C199.049 153.743 199.049 149.088 194.078 146.211L105.234 94.9548C100.264 92.0782 92.2058 92.0782 87.2352 94.9548L3.728 143.178C-1.24267 146.055 -1.24267 150.71 3.728 153.586Z" fill="#E2E0E4"/>
</g>
<path d="M197.846 143.596V137.581L193.032 137.79L105.287 87.1614C100.316 84.2847 92.2587 84.2847 87.2881 87.1614L4.56575 134.914L0.0136719 134.495V140.562C0.0136719 142.445 1.26942 144.328 3.72859 145.74L92.5727 196.997C97.5433 199.874 105.601 199.874 110.572 196.997L194.079 148.774C196.59 147.309 197.794 145.427 197.794 143.544L197.846 143.596Z" fill="#8EBBE8"/>
<path d="M3.728 139.726L92.5721 190.982C97.5427 193.859 105.6 193.859 110.571 190.982L194.078 142.759C199.049 139.883 199.049 135.228 194.078 132.351L105.234 81.0945C100.264 78.2178 92.2058 78.2178 87.2352 81.0945L3.728 129.318C-1.24267 132.194 -1.24267 136.849 3.728 139.726Z" fill="#F5F5F5"/>
<path style="mix-blend-mode:multiply" d="M25.8601 142.289C29.732 144.538 36.0107 144.485 39.8826 142.289C43.7545 140.04 43.8068 136.431 39.8826 134.182C36.0107 131.933 29.732 131.985 25.8601 134.182C21.9882 136.431 21.9359 140.04 25.8601 142.289Z" fill="url(#paint0_linear_803_2445)"/>
<path d="M36.0636 34.9637C36.0636 34.9637 40.825 32.1917 42.9702 36.219C45.1154 40.2463 40.4587 45.4243 42.3423 47.9348C44.2783 50.4453 47.9932 50.7592 47.9932 50.7592C47.9932 50.7592 47.7316 55.7802 39.9878 56.774C32.2963 57.82 31.5115 38.0496 36.0113 34.9114L36.0636 34.9637Z" fill="#E85900"/>
<path d="M36.9522 33.5513C39.3067 33.7082 40.4055 36.1141 40.4055 38.2585C40.4055 40.4029 35.2256 40.9782 34.8593 40.0368C34.5454 39.043 36.9522 33.5513 36.9522 33.5513Z" fill="#EBF0FF"/>
<path d="M33.6561 127.644C34.9118 128.324 35.2257 129.422 34.9641 131.305C34.8072 132.508 34.8072 132.299 34.5979 133.45C34.4409 134.548 34.5979 135.646 34.2839 135.908C34.0223 136.169 33.3944 135.908 33.3944 135.908C33.3944 135.908 33.0805 134.287 33.0282 134.13C32.9759 134.025 32.0341 134.287 31.1446 136.117C30.2551 137.948 28.3191 139.778 24.6565 139.935C23.6101 140.04 22.5113 139.674 22.459 138.785C22.459 137.843 25.2844 135.228 26.3832 133.973C27.482 132.717 28.2145 130.887 29.4702 129.684C30.726 128.481 30.3074 127.54 30.883 127.383C31.4585 127.226 33.6037 127.696 33.6037 127.696L33.6561 127.644Z" fill="#2F3D7B"/>
<path d="M39.9869 130.468C41.0333 132.613 41.3473 133.659 41.0857 134.809C40.824 136.012 40.6148 135.96 40.7194 137.738C40.824 139.517 40.4578 139.883 40.4578 139.883C40.4578 139.883 40.1962 140.04 40.0392 139.987C39.8822 139.987 39.359 139.726 39.359 139.726C39.359 139.726 39.6206 136.954 39.359 136.849C39.1497 136.745 38.2602 140.563 36.5859 141.818C34.5976 143.23 31.8245 143.858 30.7781 142.864C30.1502 141.033 31.7199 139.36 32.4001 138.104C32.7663 137.477 34.0221 135.332 34.9639 133.711C35.9057 132.09 36.4813 130.991 37.3707 130.625C39.1497 129.893 39.9869 130.468 39.9869 130.468Z" fill="#2F3D7B"/>
<path d="M27.7963 48.9809C26.2266 48.144 24.186 49.7131 23.2442 51.8052C22.721 52.9559 21.4652 55.6756 20.0525 60.2782C19.6339 61.6381 18.5351 66.7115 17.541 67.8621C16.5469 69.0128 18.0642 73.7723 19.8432 73.72C21.6745 73.72 23.6628 66.7115 24.9708 65.8746C26.2266 65.0378 27.7439 49.0331 27.7439 49.0331L27.7963 48.9809Z" fill="#2C3873"/>
<path d="M20.6801 70.8954C20.4708 69.0648 18.9011 67.8618 17.8546 67.6526C16.8082 67.3911 14.9246 67.548 14.4013 67.2342C13.9304 66.9204 12.9886 65.299 12.7793 65.0375C12.57 64.776 10.6864 63.9391 10.1109 63.3115C9.53532 62.6839 8.48887 62.9454 8.69816 63.5207C8.90745 64.0961 8.69816 68.0711 8.69816 68.0711C8.69816 68.0711 9.9539 70.1109 10.6864 70.2155C11.4189 70.3201 11.9422 70.2155 12.5177 70.0063C13.1456 70.0063 13.0933 70.1109 13.3549 70.4247C13.6165 70.7385 16.128 74.5043 19.8429 73.6674C20.6278 73.3013 20.8894 72.0461 20.6278 70.8954H20.6801Z" fill="#FF9C78"/>
<path d="M23.8711 94.6411C23.9757 96.1579 26.4349 107.926 26.5919 108.92C26.6965 109.913 29.9929 128.167 29.4173 129.632C28.8418 131.096 28.4755 131.828 28.4755 131.828C28.4755 131.828 30.6731 131.985 32.3474 131.044C34.0217 130.102 34.5449 128.795 34.5449 128.795C34.5449 128.795 34.0217 121.263 34.5449 117.602C35.1205 113.941 33.0276 98.25 33.0276 98.25L23.8711 94.6411Z" fill="#FF9C78"/>
<path d="M29.4179 128.638C29.4179 129.893 27.4296 132.77 26.8541 134.182C26.2262 135.594 29.7318 134.496 30.6736 133.293C31.5631 132.09 33.2374 131.619 34.1269 130.468C35.0164 129.318 34.2316 127.226 34.2316 127.226L29.4179 128.638Z" fill="#FF9C78"/>
<path d="M23.8714 78.8453C23.0866 83.1341 22.982 88.5736 23.3482 92.6532C23.7145 96.7328 25.9644 107.821 26.226 109.181C26.4353 110.541 28.8421 127.487 28.9991 128.637C29.156 129.736 34.4406 129.422 34.5976 126.65C34.7546 123.878 34.4406 117.34 35.6441 113.888C36.8475 110.436 35.5394 83.7094 32.557 81.565C29.5746 79.4729 23.9238 78.793 23.9238 78.793L23.8714 78.8453Z" fill="#005CA9"/>
<path d="M31.7197 102.33C31.7197 102.277 32.4522 107.507 32.6615 109.129C32.8708 110.803 33.6033 112.424 34.0219 113.104C34.4405 113.784 36.4288 123.564 36.1672 127.696C35.9055 131.881 35.6963 133.397 35.6963 133.397C35.6963 133.397 40.2483 134.443 40.3007 132.404C40.353 130.364 40.6669 128.429 41.3994 124.82C42.132 121.211 42.7075 118.02 41.8703 114.83C41.0855 111.639 40.8762 111.012 40.8762 111.012C40.8762 111.012 40.4576 101.911 40.2483 101.388C40.0391 100.813 31.7197 102.33 31.7197 102.33Z" fill="#FF9C78"/>
<path d="M40.3008 131.619C40.3008 131.619 40.667 132.77 39.4113 134.025C38.1555 135.28 36.1673 138.628 34.179 138.209C32.1907 137.791 35.2254 134.914 35.8533 131.41C36.0626 130.312 36.0103 129.37 36.0103 129.37L40.2484 131.671L40.3008 131.619Z" fill="#FF9C78"/>
<path d="M41.8705 78.3224C44.4867 86.5862 44.0681 90.352 42.8124 98.1451C41.5043 105.938 41.452 110.279 41.5566 111.378C41.6613 112.476 42.8647 115.614 42.2368 121.158C41.6089 126.702 41.0857 129.788 40.6671 130.73C40.2485 131.671 35.2779 133.345 35.5395 130.311C35.7488 127.278 34.7023 115.823 33.8128 113.941C32.9757 112.058 32.1385 109.129 31.7199 106.357C31.3013 103.532 29.9933 95.007 29.9933 92.5488C29.9933 90.0905 28.2143 89.306 27.7957 87.057C27.3771 84.808 28.3189 75.9165 28.3189 75.9165L41.8705 78.3224Z" fill="#005CA9"/>
<path d="M34.9636 84.0759C32.923 84.2852 30.8301 84.1806 28.7895 83.6575C27.7431 83.396 26.749 82.9776 25.8071 82.5069C24.9177 82.0884 24.1328 81.7746 23.5573 80.9378C22.8247 79.8394 22.8247 78.4796 22.8771 77.2766C22.9817 76.0736 22.9294 74.8184 22.7201 73.5631C22.3538 71.2618 21.8306 69.0128 21.569 66.6592C21.2027 63.6256 21.6736 59.2845 22.6678 56.8785C23.6619 54.4203 24.97 50.5499 26.6966 49.2424C27.5861 48.5624 28.9988 48.8762 30.1499 48.3009C31.301 47.7256 32.6614 48.9285 34.6497 49.347C36.638 49.7654 38.3123 49.7654 39.8297 50.4976C41.347 51.2822 45.1666 55.048 45.4805 55.9371C45.7945 56.8263 43.9108 66.1884 42.969 71.0003C42.3935 73.9292 44.0678 79.0549 41.8702 81.4085C40.5622 82.8207 38.6786 83.396 36.8473 83.7098C36.2194 83.8144 35.5915 83.919 34.9113 83.9713L34.9636 84.0759Z" fill="#202A54"/>
<path d="M39.9345 50.9158C39.9345 50.9158 41.2426 51.9619 38.5741 53.4787C35.8533 55.0477 26.8015 68.1757 26.8015 68.1757C26.8015 68.1757 26.6969 57.9244 27.7956 54.7862C28.8944 51.6481 28.6851 49.1375 31.8768 49.4513C35.0685 49.7129 39.9345 50.9158 39.9345 50.9158Z" fill="#EBF0FF"/>
<path d="M26.8012 70.7909L36.6902 59.9643L35.6438 58.2383L39.1494 57.663C39.1494 57.663 41.5563 55.1001 41.7656 53.6357C41.9749 52.1712 41.4516 51.0728 39.7773 50.5498C39.9343 51.6482 39.3064 52.5896 39.3064 52.5896C39.3064 52.5896 36.6379 54.5771 34.9636 56.5123C33.2893 58.4475 26.4873 68.5942 26.4873 68.5942L26.8012 70.7909Z" fill="#2C3873"/>
<path d="M29.8359 49.9223C28.5802 52.3805 27.2198 57.0355 27.2198 60.6444C27.2198 64.2532 26.7489 72.7786 26.8535 73.4062C26.9582 74.0338 25.4408 65.5608 25.1792 63.521C24.9176 61.4812 24.499 57.3493 24.499 57.3493L26.1734 56.9832L24.8653 55.571C24.8653 55.571 28.2663 49.4516 28.6325 49.2947C28.9988 49.1378 29.8883 49.9223 29.8883 49.9223H29.8359Z" fill="#2C3873"/>
<path d="M38.1031 74.6092C38.1031 73.7723 37.9461 73.2493 38.2601 71.7848C38.574 70.3203 39.7774 63.6256 40.4053 61.8996C41.0332 60.1736 41.9227 57.5062 43.3877 56.7216C44.8527 55.8848 45.219 55.8848 45.4283 55.9894C45.6899 56.094 46.1085 56.7739 46.2655 59.4937C46.3701 62.2134 46.4224 64.1486 45.7422 67.0776C45.062 70.0065 43.7016 77.3289 40.7192 79.4733C38.2601 79.0026 38.0508 74.6615 38.0508 74.6615L38.1031 74.6092Z" fill="#2C3873"/>
<path d="M29.5225 47.4117C30.1503 48.7193 30.7782 51.2821 30.5689 52.5897C30.3596 53.8972 32.0863 54.5249 33.6036 54.4202C35.121 54.3156 40.0393 51.1252 39.987 50.916C39.9347 50.7068 37.8941 50.236 37.5802 48.4577C37.2662 46.6795 36.9523 45.1627 37.2662 44.1166C37.5802 43.0706 38.2604 39.8278 35.3303 38.9387C32.4002 38.0495 29.8887 40.3508 29.8887 40.3508L29.5748 47.4117H29.5225Z" fill="#FF9C78"/>
<path d="M36.1673 41.3445C36.2196 43.0705 36.272 47.2024 35.6964 48.0916C35.1732 48.9807 30.7781 51.2297 29.6793 51.282C28.5805 51.282 28.1619 51.2297 27.691 50.3406C27.2201 49.4514 25.8597 46.7317 25.5458 44.6919C25.2319 42.6521 25.3365 41.8152 25.5458 40.1939C25.7551 38.5725 25.8597 37.4741 26.5399 37.0034C27.2201 36.4804 30.6211 35.5389 33.0803 36.0619C35.5394 36.585 36.2196 41.3445 36.2196 41.3445H36.1673Z" fill="#FF9C78"/>
<path d="M27.7956 37.9971C28.8944 38.3109 29.9409 37.4741 31.092 38.154C32.2431 38.8339 32.5047 40.7168 33.2895 41.2922C34.0744 41.8675 34.7546 42.3905 34.9639 43.2274C35.1731 44.0642 35.4348 46.8362 34.8592 48.0392C35.801 46.0517 36.0103 44.1165 36.2719 43.5412C36.5335 42.9135 36.6905 42.4428 37.4753 42.4951C38.2602 42.5997 37.1091 44.901 37.0568 45.5287C37.0044 46.1563 37.3184 47.3593 37.3184 47.3593C37.3184 47.3593 37.423 46.2609 38.1555 45.3195C38.8881 44.378 39.7775 42.3905 39.6729 40.7168C39.5683 38.9908 39.8822 35.8004 37.1614 33.6037C34.4406 31.4592 32.1384 32.0869 29.9932 32.8191C27.848 33.5514 26.3829 34.5451 25.5457 36.951C24.7086 39.3047 25.5457 39.9323 25.5457 39.9323C25.5457 39.9323 25.912 38.1017 26.069 37.8402C26.2259 37.5787 26.5922 37.4741 27.7956 38.0494V37.9971Z" fill="#E85900"/>
<path d="M36.4291 44.4828C36.4291 43.9075 36.5338 42.4953 37.371 42.2338C38.2081 41.9723 38.5744 42.4953 38.5221 43.0706C38.5221 43.646 38.5221 44.3782 37.6326 45.1104C36.6908 45.8427 36.5338 45.6858 36.4291 45.3196C36.2722 45.0058 36.4291 44.4828 36.4291 44.4828Z" fill="#FF9C78"/>
<mask id="mask0_803_2445" style="mask-type:luminance" maskUnits="userSpaceOnUse" x="25" y="80" width="2" height="2">
<path d="M25.3359 81.7748L26.1731 80.99C26.1731 80.99 26.1731 80.8853 26.1731 80.833L25.3359 81.6178C25.3359 81.7225 25.3359 81.7748 25.3359 81.7748Z" fill="white"/>
</mask>
<g mask="url(#mask0_803_2445)">
<path d="M26.225 80.7808L25.3879 81.5656C25.3879 81.6702 25.3879 81.7226 25.3879 81.7226L26.225 80.9377C26.225 80.9377 26.225 80.8331 26.225 80.7808Z" fill="#292B39"/>
</g>
<mask id="mask1_803_2445" style="mask-type:luminance" maskUnits="userSpaceOnUse" x="6" y="54" width="2" height="2">
<path d="M6.91627 55.0477L6.0791 55.8326C6.0791 55.8326 6.23607 55.8326 6.34072 55.8326L7.17788 55.0477C7.07324 54.9954 6.96859 54.9431 6.91627 55.0477Z" fill="white"/>
</mask>
<g mask="url(#mask1_803_2445)">
<path d="M6.91627 55.0477L6.0791 55.8326C6.0791 55.8326 6.23607 55.8326 6.34072 55.8326L7.17788 55.0477C7.07324 54.9954 6.96859 54.9431 6.91627 55.0477Z" fill="#292B39"/>
</g>
<path d="M21.2551 63.5205L20.418 64.305L25.3886 81.5649L26.2258 80.7804L21.2551 63.5205Z" fill="#1E202A"/>
<path d="M7.1272 55.0479L6.29004 55.8324L19.9463 63.7301L20.7834 62.9456L7.1272 55.0479Z" fill="#272937"/>
<mask id="mask2_803_2445" style="mask-type:luminance" maskUnits="userSpaceOnUse" x="19" y="62" width="3" height="3">
<path d="M20.7835 62.9453L19.9463 63.7302C20.1556 63.8348 20.3649 64.0964 20.4172 64.3057L21.2544 63.5209C21.202 63.3116 20.9927 63.05 20.7835 62.9453Z" fill="white"/>
</mask>
<g mask="url(#mask2_803_2445)">
<path d="M20.7835 62.9453L19.9463 63.7302C20.1556 63.8348 20.3649 64.0964 20.4172 64.3057L21.2544 63.5209C21.202 63.3116 20.9927 63.05 20.7835 62.9453Z" fill="#292B39"/>
</g>
<path d="M11.4705 73.8243L25.1268 81.722C25.3361 81.8266 25.4407 81.7743 25.3884 81.5651L20.4177 64.2529C20.3654 64.0437 20.1561 63.7821 19.9468 63.6775L6.29057 55.7798C6.08128 55.6752 5.97664 55.7275 6.02896 55.9368L10.9996 73.2489C11.0519 73.4581 11.2612 73.7197 11.4705 73.8243Z" fill="#303344"/>
<path d="M9.2212 65.9792C9.2212 65.9792 10.477 65.77 10.8432 65.8223C11.1571 65.8223 11.6281 66.0315 11.5757 66.3976C11.5757 66.7637 11.3141 66.973 11.3141 66.973C11.3141 66.973 11.8897 66.7114 12.0466 66.7114C12.2036 66.7114 12.4652 67.1822 12.4129 67.3914V67.6529C12.4129 67.6529 12.7268 67.6529 12.6745 68.019C12.6222 68.3328 11.8897 68.9605 11.8897 68.9605C11.8897 68.9605 10.9479 69.9542 10.6339 70.1634C10.2677 70.4249 10.006 70.5295 9.63979 70.4249C9.27353 70.3203 9.01191 69.7973 8.90727 69.5358C8.80262 69.2743 8.22707 68.8558 8.22707 68.8558L8.0701 67.9667C8.0701 67.9667 7.65152 67.7052 7.5992 67.496C7.5992 67.2868 7.86081 66.816 7.75616 66.5022C7.65152 66.1884 7.54688 65.9269 7.54688 65.6131C7.54688 65.2993 7.65152 65.0378 7.91313 64.6193C8.22707 64.2532 9.06423 63.9917 9.06423 63.9917C9.06423 63.9917 9.63978 64.3578 9.48282 64.6716C9.32585 64.9331 8.85494 65.1424 8.7503 65.3516C8.64565 65.5608 8.54101 66.0315 8.54101 66.0315H9.11656L9.2212 65.9792Z" fill="#FF9C78"/>
<path d="M24.2379 68.1235C23.7147 68.0189 22.0404 67.6527 21.6741 67.6527C21.3078 67.6527 20.6277 67.5481 20.6277 67.5481C20.6277 67.5481 20.1044 67.0251 19.7905 67.0774C19.4766 67.1297 19.5289 67.3912 19.5812 67.6004C19.6335 67.8096 20.0521 68.4373 20.5753 68.6465C21.0986 68.8557 21.4648 68.8034 21.6218 68.8034C21.7264 68.8034 22.9299 69.0649 23.2961 69.7448C22.6682 69.7448 22.0927 69.5879 22.0927 69.5879C22.0927 69.5879 20.9416 69.2741 20.7323 69.1695C20.523 69.0649 18.8487 68.1758 18.5347 68.1235C18.2208 68.1235 18.0638 68.2281 18.1162 68.6988C17.9069 68.9603 18.0115 69.3787 18.0115 69.3787L18.3778 70.0587C18.3778 70.0587 18.3778 70.634 18.5871 71.0001C18.744 71.3662 19.5289 72.36 19.5289 72.36C19.5289 72.36 19.5289 72.6738 19.6335 72.883C19.6858 73.0922 22.1973 74.7659 22.5113 74.9228C22.8252 75.0274 25.0228 74.9228 25.4937 74.7136C25.9646 74.5567 26.7494 74.7136 26.7494 74.7136C26.7494 74.7136 31.9817 77.9564 34.3885 78.8978C36.7431 79.8393 38.8883 80.0485 40.5626 79.6301C42.237 79.2116 39.9348 74.2952 39.0976 74.0337C38.3128 73.7198 37.7372 73.9291 35.4873 73.5106C33.2374 73.0922 27.3773 70.7909 26.9587 70.4248C26.5401 70.0587 24.9704 68.4896 24.2902 68.2281L24.2379 68.1235Z" fill="#FF9C78"/>
<path d="M28.2139 73.8246C28.5802 71.8371 29.679 71.2617 29.9406 71.2617C30.2022 71.2617 38.9401 73.04 39.6726 73.72C40.4051 74.3999 41.9225 77.695 41.0853 79.2117C40.2482 80.7285 37.946 80.1009 36.167 79.8394C34.4403 79.5255 28.2139 75.7598 28.2139 75.7598C28.2139 75.7598 27.9523 75.4459 28.2139 73.8769V73.8246Z" fill="#2C3873"/>
<path style="mix-blend-mode:multiply" d="M150.337 143.021C151.226 146.996 159.388 148.251 168.545 145.898C177.701 143.544 184.451 138.419 183.562 134.444C182.672 130.469 174.51 129.213 165.353 131.567C156.197 133.921 149.447 139.046 150.337 143.021Z" fill="url(#paint1_linear_803_2445)"/>
<path d="M182.358 133.554C182.724 133.711 182.724 133.868 182.724 134.444C182.724 135.019 182.62 135.751 181.102 136.379C179.585 137.006 177.911 136.64 176.655 135.908C175.399 135.176 175.295 134.601 173.673 133.711C172.051 132.822 172.155 133.607 170.952 133.084C169.748 132.561 168.702 132.038 168.597 131.253C168.493 130.469 168.597 129.789 168.597 129.579C168.597 129.37 169.591 129.213 169.591 129.213L182.306 133.502L182.358 133.554Z" fill="#191C21"/>
<path d="M174.562 126.493C175.242 127.958 180.056 130.782 181.364 131.567C182.672 132.403 182.568 133.188 182.568 134.025C182.568 134.705 181.155 136.431 178.539 135.855C175.923 135.28 174.771 133.345 173.411 132.926C172.051 132.508 168.807 131.671 168.807 129.318C168.807 126.964 169.435 124.14 169.435 124.14L174.562 126.493Z" fill="#292D36"/>
<path d="M162.999 144.381C163.365 144.799 163.418 145.165 163.418 145.636C163.418 146.107 163.208 146.473 162.057 146.944C160.959 147.414 159.441 147.676 158.029 147.153C156.093 146.421 154.471 145.322 153.738 144.224C153.006 143.126 153.11 142.446 152.692 142.184C152.221 141.87 151.279 141.609 151.227 140.458C151.227 139.308 151.227 139.255 151.331 139.046C151.488 138.68 152.064 138.785 152.535 138.889C153.006 138.994 162.947 144.433 162.947 144.433L162.999 144.381Z" fill="#191C21"/>
<path d="M156.772 134.81C157.819 135.856 158.028 134.862 158.446 136.379C159.284 139.778 162.423 141.295 163.051 143.126C163.312 143.91 163.312 144.067 163.26 144.956C163.26 145.323 162.998 145.689 162.632 145.846C160.225 146.944 158.656 146.525 158.656 146.525C158.656 146.525 157.4 146.055 156.092 145.166C154.941 144.433 153.79 143.335 153.319 142.027C153.109 141.452 153.057 141.4 152.743 141.243C152.168 140.825 151.383 140.668 151.383 139.308C151.383 137.686 151.592 134.496 151.906 133.659C152.115 133.084 154.156 132.875 154.156 132.875L156.772 134.862V134.81Z" fill="#292D36"/>
<path d="M166.923 84.0236C166.923 84.0236 167.027 87.5279 167.184 91.7121C167.341 96.3148 167.603 101.754 167.865 104.212C167.865 104.579 167.969 104.892 167.969 105.102C168.44 107.56 168.806 108.815 170.219 109.757C170.481 109.913 170.795 110.07 171.161 110.227C173.359 111.169 176.393 109.286 176.812 108.187C177.23 107.089 177.701 95.1641 178.015 88.1556C178.329 81.147 178.329 82.9776 177.806 77.0674L166.923 84.0236Z" fill="#3B4157"/>
<path d="M168.702 126.441C168.755 127.592 169.592 128.219 170.638 128.481C172.417 129.004 174.824 128.481 174.981 127.801C175.243 126.703 175.295 113.627 176.865 108.187C176.865 108.187 172.836 104.892 170.167 103.846C169.069 103.428 168.179 103.376 167.917 104.108C167.917 104.108 167.917 104.16 167.917 104.212C167.028 106.932 167.447 120.06 168.702 126.441Z" fill="#3B4157"/>
<path d="M167.865 104.212C166.975 106.932 167.394 120.06 168.65 126.441C168.702 127.592 169.539 128.219 170.586 128.481C170.324 124.82 170.062 121.211 169.853 118.648C169.33 113.051 170.062 108.449 170.115 106.88C170.324 102.748 169.958 94.0133 172.26 92.2873L167.185 91.6597C167.342 96.2623 167.603 101.702 167.865 104.16V104.212Z" fill="#363C53"/>
<path d="M155.098 94.9549C155.255 99.5052 155.464 107.664 155.778 111.221C155.83 111.849 155.883 112.319 155.987 112.581C156.197 113.627 156.72 114.725 157.296 115.614C157.819 116.504 158.447 117.183 158.813 117.393C159.65 117.863 162.423 118.23 163.208 116.608C163.313 116.399 163.47 115.876 163.679 115.144C164.882 110.541 167.446 97.4131 168.179 95.7917C169.068 93.9611 171.423 93.8042 172.103 92.6012C172.783 91.3983 173.097 87.1095 173.045 83.6052C173.045 83.6052 161.586 74.3476 159.65 75.6029C159.022 76.0213 158.29 77.4858 157.557 79.4733C156.144 83.4483 154.889 91.3983 155.046 94.9549H155.098Z" fill="#3B4157"/>
<path d="M151.959 134.182C151.959 134.182 151.959 135.489 153.894 136.222C154.208 136.326 154.47 136.431 154.784 136.535C157.557 137.32 158.551 135.908 158.551 135.908L159.545 128.69C160.539 121.472 162.318 119.328 163.365 116.294C163.522 115.928 163.574 115.562 163.679 115.196C164.202 112.685 163.365 110.803 163.365 110.803L157.819 107.978L157.557 107.821C157.557 107.821 156.772 109.129 155.778 111.221C154.836 113.156 153.685 115.771 152.743 118.596C150.755 124.558 151.959 134.182 151.959 134.182Z" fill="#3B4157"/>
<path d="M151.959 134.182C151.959 134.182 151.959 135.489 153.895 136.222C154.209 136.326 154.47 136.431 154.784 136.535C153.476 117.916 155.988 116.974 157.296 115.667C157.819 115.144 158.133 114.62 158.028 112.999C157.976 111.744 157.871 109.966 157.819 107.978C157.767 104.578 157.767 100.394 158.028 96.3146C158.394 91.1366 159.179 84.1803 160.749 80.9899C159.598 80.3622 158.499 79.8915 157.505 79.5254C156.092 83.5004 154.836 91.4504 154.993 95.007C155.15 99.5573 155.36 107.717 155.674 111.273C154.732 113.208 153.581 115.823 152.639 118.648C150.651 124.61 151.854 134.234 151.854 134.234L151.959 134.182Z" fill="#363C53"/>
<path d="M173.306 46.4703C176.341 46.3657 177.021 47.0456 179.846 54.5249C180.84 57.1923 183.038 65.2992 183.561 66.4499C184.084 67.6529 180.788 72.6216 178.852 71.0525C176.916 69.4835 175.085 66.3976 174.143 63.1025C173.201 59.8075 173.254 46.418 173.254 46.418L173.306 46.4703Z" fill="#DDE8F6"/>
<path d="M162.998 46.1562C160.487 47.3592 152.9 51.8049 152.638 52.5372C152.377 53.2694 157.818 76.4918 157.766 78.0086C157.713 79.5777 157.609 79.7869 157.609 79.7869C157.609 79.7869 158.341 82.402 166.242 82.5589C174.143 82.7158 176.864 79.2115 177.073 78.4793C177.23 77.7471 177.596 69.274 177.648 63.73C177.753 54.2632 176.445 49.7128 175.817 48.1961C175.399 47.2546 174.928 46.7316 174.509 46.627C172.364 45.9993 167.864 46.627 167.864 46.627L163.05 46.2086L162.998 46.1562Z" fill="#CBDCF1"/>
<path d="M169.277 54.2632C169.277 54.2632 172.312 73.5106 172.573 76.4918C171.736 80.2053 171.004 80.9375 171.004 80.9375C171.004 80.9375 168.911 79.2639 168.597 77.8517C168.283 76.4395 167.864 54.6293 167.864 54.6293L169.277 54.2632Z" fill="#3C424F"/>
<path d="M181.521 65.6129C182.515 65.1421 182.829 65.5083 183.247 65.6129C183.718 65.6652 185.549 68.4372 186.387 69.4833C187.171 70.5293 188.741 72.0461 189.264 73.0921C189.788 74.1382 187.852 76.2826 187.852 76.2826C187.852 76.2826 187.381 78.0086 184.451 76.6487C181.468 75.2366 178.433 71.6277 177.753 70.0063C177.073 68.4372 180.108 66.4497 181.573 65.6652L181.521 65.6129Z" fill="#DDE8F6"/>
<path d="M186.648 73.0921C187.066 72.5691 187.223 72.046 187.694 71.9414C188.113 71.8368 189.682 72.3076 189.682 72.3076L190.415 72.6737C190.415 72.6737 191.357 72.4645 191.618 72.5168C191.88 72.5691 192.037 73.1444 191.828 73.3536C191.618 73.5628 190.624 74.1905 190.624 74.1905L188.95 76.6487C188.95 76.6487 187.328 77.1194 186.281 76.8056C185.235 76.4918 185.078 76.3872 185.026 75.8118C184.973 75.1842 186.648 73.1967 186.648 73.1967V73.0921Z" fill="#FF9C78"/>
<path d="M175.503 74.1383C176.027 74.1383 178.276 75.2367 178.643 75.3413C179.009 75.4459 180.788 75.8643 181.05 76.0212C181.363 76.1781 181.206 76.6488 180.945 76.8057C180.631 76.9103 176.602 76.1258 176.602 76.1258C176.602 76.1258 177.805 77.538 177.858 77.7472C177.858 77.9564 178.015 79.5255 177.962 79.787C177.962 80.0485 177.544 80.8853 177.23 80.9376C176.916 80.9376 176.55 80.5192 176.55 80.5192L176.811 79.3163L176.55 78.3225L176.445 79.4732L176.027 80.2577L175.137 80.4146V80.1008C175.137 80.1008 174.771 80.5192 174.405 80.3623C174.038 80.2054 173.253 78.7409 172.835 78.584C172.416 78.4271 171.37 78.6886 170.951 78.584C170.585 78.4271 168.544 78.4794 168.23 77.4857C167.916 76.5442 168.387 75.0274 169.591 74.5044C170.794 74.0337 172.939 74.3475 173.201 74.2952C173.463 74.2429 175.399 74.0337 175.399 74.0337L175.503 74.1383Z" fill="#FF9C78"/>
<path d="M181.94 73.7196L177.335 83.1341L176.603 84.1279L177.335 84.8601L193.451 68.2278L192.666 67.4956L181.94 73.7196Z" fill="#4A5161"/>
<path d="M182.671 74.3997L178.067 83.8142L177.334 84.8603L188.008 78.6886L193.449 68.228L182.671 74.3997Z" fill="#2F343E"/>
<path d="M189.421 75.3934C189.421 75.3934 189.16 76.021 188.898 76.1256C188.637 76.2302 188.166 76.4917 188.009 76.7009C187.852 76.9102 188.009 77.2763 188.009 77.2763L187.328 77.4332L187.067 77.8516L186.596 78.1654C186.596 78.1654 186.387 78.6884 186.491 78.8453C186.596 79.0023 186.805 78.95 186.805 78.95C186.805 78.95 186.805 79.2638 187.067 79.2638C187.381 79.2638 187.956 78.8454 188.113 78.793C188.27 78.7407 189.683 77.9039 189.945 77.6947C190.206 77.4855 190.729 76.4394 190.834 75.8118C190.939 75.1842 190.782 74.818 190.782 74.818L190.416 74.6611L189.526 75.498L189.421 75.3934Z" fill="#FF9C78"/>
<path d="M152.691 52.3803C154.103 51.7003 157.138 54.2109 157.609 57.5582C158.08 60.9056 158.812 72.4645 158.237 73.7198C157.661 74.975 152.167 76.7533 151.54 75.2365C150.912 73.6675 149.656 54.2632 152.691 52.4326V52.3803Z" fill="#DDE8F6"/>
<path d="M166.87 73.3539C168.492 73.4585 170.166 73.72 170.428 74.2954C170.637 74.923 170.637 78.5319 169.224 79.2118C167.811 79.8918 161.585 79.2118 159.492 78.8457C157.399 78.4796 151.801 78.1135 151.487 74.8707C151.225 71.6279 156.719 70.7911 158.184 71.3664C159.649 71.9418 166.922 73.3016 166.922 73.3016L166.87 73.3539Z" fill="#DDE8F6"/>
<path d="M167.027 60.1733L167.393 66.2928L163.992 67.8618L160.487 66.8681L160.382 60.1733H167.027Z" fill="#DDE8F6"/>
<path d="M168.44 52.0664L169.8 53.6355L169.434 55.2046L167.864 55.5184L167.079 54.2631L167.916 52.2233L168.44 52.0664Z" fill="#3C424F"/>
<path d="M169.905 48.3006C169.905 48.3006 169.905 48.4052 169.853 48.4052C169.33 49.2943 169.173 50.6542 168.806 51.0203C168.44 51.3864 166.923 51.5433 165.719 51.0203C164.516 50.5496 162.58 47.5683 162.789 46.47C162.998 45.3193 163.469 43.8025 163.731 42.6519C163.993 41.4489 163.574 38.6246 164.202 37.6308C164.882 36.6371 166.347 36.3232 166.347 36.3232C166.347 36.3232 171.265 41.9196 171.265 44.2209C171.265 46.47 169.905 48.3006 169.905 48.3006Z" fill="#FF9C78"/>
<path d="M163.312 46.4177C163.312 46.47 165.301 49.1898 166.399 49.9743C167.446 50.7589 168.074 51.0204 168.074 51.0204L168.178 51.5957C168.178 51.5957 166.556 53.5832 166.138 53.6878C165.719 53.7924 162.109 49.9743 161.638 48.0914C161.167 46.2085 163.312 44.3779 163.312 44.3779C163.312 44.3779 162.946 45.3717 163.051 45.5286C163.155 45.6855 163.365 46.3654 163.365 46.3654L163.312 46.4177Z" fill="#DDE8F6"/>
<path d="M169.12 48.4053C169.12 48.5622 169.382 50.4451 168.022 51.0204L168.126 51.5957C168.126 51.5957 169.958 53.4786 170.271 53.5309C170.585 53.5309 170.742 49.8174 170.428 49.2944C170.167 48.7191 169.12 48.4053 169.12 48.4053Z" fill="#DDE8F6"/>
<path d="M165.928 40.0369C165.928 40.1415 164.672 44.7442 165.039 45.581C165.405 46.4702 168.754 49.9222 169.643 50.1837C170.533 50.4452 171.788 49.8698 172.207 49.5037C172.626 49.1376 174.614 44.535 175.242 42.3383C175.817 40.1938 176.079 37.9971 175.922 37.2126C175.765 36.4804 174.195 35.1205 171.788 34.5975C169.382 34.1267 165.981 39.9323 165.981 39.9323L165.928 40.0369Z" fill="#FF9C78"/>
<path d="M173.097 38.8863C172.364 39.0955 171.684 39.2001 170.428 38.9909C169.801 38.8863 169.696 38.5202 169.434 38.6248C169.225 38.7294 169.12 39.9323 169.068 40.1415C169.068 40.2462 168.754 40.7692 168.597 40.8215C168.597 40.8215 167.603 40.8215 167.341 41.1876C167.08 41.5537 166.661 42.7044 166.661 42.7044L165.719 42.4952C165.719 42.4952 166.086 41.083 165.458 40.2462C164.83 39.4093 163.993 40.2462 163.993 40.2462C163.993 40.2462 163.993 42.5998 163.574 43.2274C163.313 42.0244 162.789 40.1938 162.685 39.2524C162.58 38.3633 161.848 35.3297 162.946 33.5514C164.673 30.6748 167.708 30.7794 167.708 30.7794C167.708 30.7794 170.481 29.4195 172.626 30.5179C174.771 31.6162 176.132 33.9698 176.446 35.6435C176.707 37.3695 176.289 39.1478 175.661 40.7169C175.765 40.1415 175.713 39.5139 175.87 38.8863C175.87 38.6771 175.975 38.1017 175.975 37.8925C175.765 36.9511 175.399 38.0494 175.242 38.154C175.033 38.2587 173.725 38.7294 173.254 38.8863H173.097Z" fill="#32364C"/>
<path d="M164.672 43.4366C164.306 43.5412 163.783 42.9136 163.521 41.8152C163.26 40.7169 162.946 39.88 164.097 39.5662C165.248 39.2001 165.405 40.8215 165.3 41.1353C165.196 41.4491 165.248 43.2797 164.672 43.4366Z" fill="#FF9C78"/>
<path d="M96.8627 158.188C96.6534 158.188 96.4441 158.188 96.1825 158.188C86.3981 158.084 77.2416 155.782 70.4397 151.703C63.69 147.623 60.0274 142.288 60.1321 136.587C60.1321 133.711 61.1785 130.939 63.0621 128.324C65.0504 125.656 67.8758 123.25 71.5384 121.21C78.602 117.235 87.9155 115.143 97.7522 115.248C107.537 115.352 116.693 117.654 123.495 121.733C130.245 125.813 133.907 131.148 133.803 136.849C133.803 139.726 132.756 142.498 130.872 145.113C128.884 147.78 126.059 150.186 122.396 152.226C115.49 156.096 106.438 158.188 96.8627 158.188ZM97.072 115.928C88.0201 115.928 78.9159 117.863 71.9047 121.786C64.8934 125.708 60.9692 130.939 60.8646 136.535C60.7599 141.922 64.3179 147.1 70.8582 151.023C84.6715 159.339 107.641 159.548 122.03 151.546C129.041 147.623 132.965 142.393 133.07 136.797C133.175 131.409 129.617 126.231 123.076 122.309C116.013 118.072 106.542 115.928 97.072 115.928Z" fill="#2795E9"/>
<path d="M58.3542 83.0815L59.0344 83.4999C58.1449 82.9769 57.6217 81.8786 57.6217 80.3618L56.9415 79.9434C56.9415 81.5124 57.517 82.5585 58.3542 83.0815Z" fill="#3385FF"/>
<path d="M87.2367 4.5234L86.5565 4.10481C85.667 3.58159 84.4112 3.63391 83.0508 4.47107L83.731 4.88966C85.0914 4.10481 86.3472 4.05249 87.2367 4.5234Z" fill="#3385FF"/>
<path d="M83.7307 4.88929L83.0505 4.4707L79.2833 6.66826L79.9635 7.03452L83.7307 4.88929Z" fill="#3385FF"/>
<path d="M79.9632 7.03366L79.283 6.61523C78.6552 6.98135 78.1319 7.76589 77.975 8.49813C77.818 9.23037 77.3471 9.96261 76.7715 10.3287L77.4517 10.7471C78.0273 10.4333 78.5505 9.64879 78.6552 8.91655C78.8121 8.13201 79.3354 7.34747 79.9632 7.03366Z" fill="#3385FF"/>
<path d="M77.4515 10.747L76.7713 10.3809L67.9288 15.4542L68.609 15.8726L77.4515 10.747Z" fill="#3385FF"/>
<path d="M67.0391 15.5592L67.7193 15.9778C67.9286 16.1348 68.2949 16.0825 68.6088 15.8732L67.9286 15.4546C67.5623 15.6639 67.2484 15.6639 67.0391 15.5592Z" fill="#3385FF"/>
<path d="M67.04 14.9317L66.3598 14.5131C66.0982 14.3562 65.7843 14.4085 65.418 14.6178L66.0982 15.0364C66.4645 14.8271 66.7784 14.8271 67.04 14.9317Z" fill="#3385FF"/>
<path d="M57.4644 25.7055L56.7842 25.2871L56.9412 79.9434L57.6214 80.3618L57.4644 25.7055Z" fill="#3385FF"/>
<path d="M66.0979 15.0362L65.4177 14.6699L61.6505 16.8152L62.3306 17.2337L66.0979 15.0362Z" fill="#3385FF"/>
<path d="M62.4879 17.8605C60.0288 19.2727 58.0928 22.6723 58.0928 25.4444L58.2498 80.1007C58.2498 82.8727 60.2381 84.0234 62.6972 82.6112L84.0973 70.2678C86.5564 68.8556 88.4924 65.4559 88.4924 62.6839L88.3354 8.02759C88.3354 5.25555 86.3471 4.10489 83.888 5.51707L80.1207 7.66148C79.7545 7.87069 79.3882 8.39371 79.3359 8.86444C79.1266 9.85819 78.4464 10.9042 77.6092 11.375L68.7667 16.5006C67.9295 16.9714 67.2493 16.7621 67.04 15.9253C66.9354 15.5592 66.6215 15.4546 66.2552 15.6638L62.4879 17.8605Z" fill="url(#paint2_linear_803_2445)"/>
<path d="M57.4639 25.7058L57.6208 80.3621C57.6208 83.5002 59.8184 84.7555 62.5392 83.1864L83.9392 70.843C86.66 69.2739 88.8575 65.5081 88.8052 62.3699L88.6482 7.71365C88.6482 4.62779 86.4507 3.37253 83.7299 4.88931L79.9627 7.08602C79.3348 7.45214 78.8116 8.23668 78.6546 8.96892C78.4976 9.70115 78.0267 10.4334 77.4512 10.7995L68.6086 15.9252C68.0331 16.239 67.5098 16.0821 67.4052 15.5068C67.2482 14.9314 66.725 14.7222 66.0971 15.0883L62.3299 17.285C59.6091 18.8541 57.4115 22.6199 57.4639 25.7581V25.7058ZM58.2487 80.1529L58.0917 25.4966C58.0917 22.7245 60.0277 19.2725 62.4868 17.9127L66.2541 15.716C66.6204 15.5067 66.9866 15.6114 67.0389 15.9775C67.2482 16.762 67.9284 17.0235 68.7656 16.5528L77.6081 11.4271C78.4453 10.9564 79.1255 9.91036 79.3348 8.91661C79.4394 8.44589 79.7534 7.92286 80.1196 7.71365L83.8869 5.56924C86.346 4.15707 88.282 5.30773 88.3343 8.07977L88.4913 62.7361C88.4913 65.5081 86.5553 68.9601 84.0962 70.32L62.6961 82.6634C60.237 84.0756 58.301 82.9249 58.2487 80.1529Z" fill="url(#paint3_linear_803_2445)"/>
<path d="M62.3304 17.2329L61.6502 16.8145C58.9294 18.3835 56.7319 22.1493 56.7842 25.2875L57.4644 25.7059C57.4644 22.6201 59.6619 18.802 62.3304 17.2329Z" fill="#3385FF"/>
<path style="mix-blend-mode:screen" d="M88.1779 6.82422C88.2825 7.19034 88.3348 7.55646 88.3348 8.02718L88.4395 46.1558L63.2199 82.3493L62.6967 82.6631C60.2375 84.0753 58.3016 82.9246 58.2492 80.1526L58.1446 49.8693L88.1255 6.87652L88.1779 6.82422Z" fill="url(#paint4_linear_803_2445)"/>
<path d="M85.1427 12.5255V11.8456C84.9335 10.0673 83.6777 9.33507 82.2127 10.2242L79.7012 11.6887C78.2361 12.5255 77.1374 14.6176 77.2943 16.3959V17.0759C77.5036 18.8542 78.7594 19.5341 80.2244 18.6973L82.7359 17.2328C84.2009 16.3959 85.2997 14.3038 85.1427 12.5255Z" fill="#9CC0F8"/>
<path d="M82.0556 63.9916V63.2071C81.8464 61.2719 78.4454 61.8472 78.7593 61.3765L65.8356 68.8557C64.2136 69.7972 63.0102 72.1508 63.1148 74.1383V74.9229C63.3241 76.8581 64.7891 77.6949 66.4111 76.7534L79.3349 69.2742C80.9569 68.3327 82.1603 65.9791 82.0556 63.9916Z" fill="#9CC0F8"/>
<path d="M85.5613 10.3811L86.3985 10.7997C85.8753 10.5381 85.2474 10.5904 84.5149 11.009L83.6777 10.5904C84.3579 10.1718 85.0381 10.1195 85.5613 10.3811Z" fill="#DAE6FB"/>
<path d="M80.6952 19.6395L79.858 19.2209C79.2825 18.9593 78.9162 18.3315 78.8116 17.3896L79.6487 17.8082C79.7011 18.75 80.1196 19.3779 80.6952 19.6395Z" fill="#DAE6FB"/>
<path d="M82.056 12.4216L81.2188 12.003L83.7303 10.5903L84.5675 10.9566L82.056 12.4216Z" fill="#DAE6FB"/>
<path d="M79.6487 17.8083L78.8639 17.3897L78.8116 16.7095L79.5964 17.1281L79.6487 17.8083Z" fill="#DAE6FB"/>
<path d="M84.7763 11.8455C85.8751 11.2179 86.8692 11.7409 86.9738 13.1008V13.7807C87.1308 15.0883 86.2937 16.7097 85.1949 17.3373L82.6834 18.8018C81.5846 19.4294 80.5905 18.9064 80.4858 17.5465V16.8666C80.3289 15.559 81.166 13.9376 82.2648 13.31L84.7763 11.8455Z" fill="#F6F9FE"/>
<path d="M87.4973 13.3102V12.6303C87.288 10.852 86.0322 10.1197 84.5672 11.0089L82.0557 12.4734C80.5907 13.3102 79.4919 15.4023 79.6489 17.1806V17.8605C79.8581 19.6388 81.1139 20.3188 82.5789 19.4819L85.0904 18.0174C86.5555 17.1806 87.6542 15.0885 87.4973 13.3102ZM85.1951 17.2852L82.6836 18.7497C81.5848 19.3773 80.5907 18.8543 80.486 17.4944V16.8145C80.3291 15.5069 81.1662 13.8855 82.265 13.2579L84.7765 11.7934C85.8753 11.1658 86.8694 11.6888 86.974 13.0487V13.7286C87.131 15.0362 86.2938 16.6576 85.1951 17.2852Z" fill="#EBF2FD"/>
<path d="M79.5963 17.1281L78.7591 16.7097C78.6022 14.9314 79.701 12.8393 81.166 12.0024L82.0032 12.4209C80.5381 13.2577 79.4393 15.3498 79.5963 17.1281Z" fill="#DAE6FB"/>
<path d="M69.1312 27.2751C66.3058 25.7583 63.7419 29.3672 65.4686 32.4531C67.1953 35.5389 65.8349 39.2524 63.9512 38.834C64.9977 40.2985 69.8637 42.9136 71.0148 38.6771C72.1659 34.3883 69.0789 27.2751 69.0789 27.2751H69.1312Z" fill="#E85900"/>
<path d="M79.5429 42.8613C81.1126 43.2274 81.3219 43.9074 81.9498 44.9011C82.5253 45.8949 85.3508 49.5561 85.5601 49.8699C85.7693 50.1837 84.9845 53.9495 84.5136 53.8449C84.0427 53.7403 82.5253 52.9557 80.4847 50.2883C78.4442 47.5686 76.5605 43.5413 79.5429 42.8613Z" fill="#2C3873"/>
<path d="M74.2061 37.9971C77.7117 38.3632 78.8628 39.3046 80.1186 40.6122C81.3743 41.9198 84.8276 48.9283 84.8276 48.9283C84.8276 48.9283 80.8511 45.9994 79.4384 46.4178C78.0257 46.8885 74.2061 37.9971 74.2061 37.9971Z" fill="#2C3873"/>
<path d="M75.4097 72.7783C75.4097 73.3537 75.305 73.9813 75.2527 74.6089C75.2004 75.0274 75.148 75.4458 75.0434 75.8119L72.1656 77.4856L67.9275 79.9438C67.9275 79.6823 67.8752 79.3162 67.7705 78.8978C67.4043 76.8579 66.5671 73.6675 66.1485 71.3662C65.573 68.4372 65.7823 64.0438 66.3055 61.8994L71.3285 60.6964L73.7353 60.1211C73.7353 60.1211 75.5143 60.9056 75.8282 62.3178C76.1422 63.73 75.6189 69.2218 75.462 72.726L75.4097 72.7783Z" fill="#3B4157"/>
<path d="M81.3216 71.1049C81.2169 71.5233 81.1646 71.9417 81.06 72.3601L74.9905 75.8644L72.1128 77.5381V76.4397C72.0604 76.4397 71.2756 60.7489 71.2756 60.7489L71.171 59.0229H79.9612C80.3798 61.5858 80.6937 64.4624 80.746 65.1424C80.746 65.6131 81.8971 68.2282 81.3739 71.1049H81.3216Z" fill="#3B4157"/>
<path d="M70.2821 38.1018C67.2474 40.1416 64.9975 40.9261 63.8987 42.8613C62.8 44.7442 66.1486 56.1462 66.3056 57.2446C66.4625 58.3429 65.6254 62.4748 65.6254 63.6255C65.6254 64.7762 69.7589 67.5482 75.2005 66.1883C80.6943 64.8285 80.4327 62.9456 80.3281 61.638C80.2234 60.2781 80.5897 54.4202 80.6943 53.5834C80.799 52.6942 81.3745 51.5436 81.2699 49.033C81.1653 46.5225 78.4445 41.2923 77.5027 39.8801C76.5609 38.4679 74.8865 38.2064 73.8924 37.9972C72.8983 37.788 70.2821 38.1541 70.2821 38.1541V38.1018Z" fill="#202A54"/>
<path d="M69.5495 38.8862C67.7705 39.9846 67.2473 40.8214 69.7587 44.0119C72.2702 47.2024 77.3979 55.1001 77.3979 55.1001C77.3979 55.1001 79.5431 46.1563 75.4096 39.9846C73.7876 37.5787 69.6018 38.9385 69.6018 38.9385L69.5495 38.8862Z" fill="#EBF0FF"/>
<path d="M77.6069 56.3031L77.3453 54.9955C77.3453 54.9955 69.9155 44.1166 69.1306 42.7567C68.3458 41.3968 68.4504 40.1939 68.7643 39.7754C69.0783 39.357 69.1829 38.834 69.1829 38.834C69.1829 38.834 67.7702 39.5662 67.2993 40.8738C66.8284 42.1814 66.8807 43.332 68.7643 45.4764C70.2817 45.9472 70.5433 46.261 70.5433 46.261L70.0724 47.83C70.0724 47.83 71.6421 49.556 77.6592 56.3554L77.6069 56.3031Z" fill="#2C3873"/>
<path d="M74.2589 38.9907C75.8285 40.0368 77.9214 42.0243 77.3982 55.1L77.6598 56.1983C77.6598 56.1983 79.6481 49.3467 78.3924 44.3256L77.6075 43.698L78.0784 42.495C78.0784 42.495 77.2936 38.8338 74.3112 38.9907H74.2589Z" fill="#2C3873"/>
<path d="M82.4211 61.3243L83.3629 61.7429C82.7874 61.4813 82.0548 61.5336 81.27 61.9522L80.3282 61.5336C81.113 61.0627 81.8455 61.0104 82.4211 61.3243Z" fill="#DAE6FB"/>
<path d="M66.8811 77.5915L65.9392 77.1729C65.3114 76.859 64.8405 76.1265 64.7881 75.1323L65.73 75.5509C65.7823 76.5974 66.2532 77.3299 66.8811 77.5915Z" fill="#DAE6FB"/>
<path d="M68.3462 69.4836L67.4044 69.0652L80.3804 61.5859L81.2699 62.0044L68.3462 69.4836Z" fill="#DAE6FB"/>
<path d="M65.6772 75.4988L64.7877 75.0803L64.7354 74.2954L65.6249 74.7663L65.6772 75.4988Z" fill="#DAE6FB"/>
<path d="M81.5843 62.9977C82.8401 62.2655 83.9388 62.8931 84.0435 64.3576V65.1421C84.2005 66.6066 83.311 68.3849 82.0552 69.1171L69.1315 76.5964C67.8757 77.3287 66.777 76.701 66.6723 75.2365V74.452C66.5153 72.9875 67.4048 71.2092 68.6606 70.477L81.5843 62.9977Z" fill="#F6F9FE"/>
<path d="M84.5665 64.6193V63.8348C84.3573 61.8996 82.8922 61.0627 81.2702 62.0042L68.3465 69.4835C66.7245 70.4249 65.521 72.7785 65.6257 74.766V75.5506C65.835 77.4858 67.3 78.3226 68.922 77.3812L81.8458 69.9019C83.4678 68.9604 84.6712 66.6068 84.5665 64.6193ZM82.0027 69.1174L69.079 76.5966C67.8233 77.3289 66.7245 76.7012 66.6198 75.2368V74.4522C66.4629 72.9878 67.3523 71.2095 68.6081 70.4772L81.5318 62.9979C82.7876 62.2657 83.8863 62.8933 83.991 64.3578V65.1423C84.148 66.6068 83.2585 68.3851 82.0027 69.1174Z" fill="#EBF2FD"/>
<path d="M65.6255 74.7659L64.6837 74.3475C64.5268 72.4123 65.7302 70.0587 67.4045 69.0649L68.3463 69.4834C66.7243 70.4248 65.5209 72.7784 65.6255 74.7659Z" fill="#DAE6FB"/>
<path d="M69.5497 34.4406C70.2299 36.5327 69.0788 39.2524 68.6079 39.9846C68.1893 40.7169 70.6484 43.2797 72.1658 43.855C73.6832 44.4304 74.8343 43.4366 74.8343 43.4366C74.8343 43.4366 75.6714 42.5475 75.0436 40.8215L74.4157 39.0955L75.933 34.9636C75.933 34.9636 70.8054 28.5304 69.4973 34.4406H69.5497Z" fill="#FF9C78"/>
<path d="M72.4792 29.6286C72.4792 29.6286 71.485 31.5638 71.5897 33.6036C71.6943 35.6957 71.2757 36.8464 71.799 37.6309C72.2699 38.4154 75.043 40.1414 75.6185 40.1937C76.1941 40.1937 76.665 39.9845 76.7696 39.6707C76.9266 39.3569 77.6068 36.5849 77.7638 35.4865C77.8684 34.4927 77.8684 32.4529 77.6591 30.9362C77.4498 29.4194 76.7696 28.6871 76.351 28.4779C75.9325 28.2687 72.5315 29.6286 72.5315 29.6286H72.4792Z" fill="#FF9C78"/>
<path d="M63.6893 46.5747C63.6893 46.5747 62.7998 46.0517 62.4858 49.1898C62.2242 52.328 62.0149 57.8721 62.2765 58.4997C62.4858 59.1273 63.6369 59.6504 64.6311 59.4934C65.6775 59.3365 66.41 57.1398 66.41 57.1398L67.7181 49.0852L63.6369 46.5747H63.6893Z" fill="#2C3873"/>
<path d="M65.8341 56.9307C63.8458 57.0353 62.5377 58.4474 62.4854 58.9182C62.4854 59.3889 69.6013 64.2007 73.0023 65.6129C73.9964 66.3975 74.2057 66.5021 74.9382 66.5021C75.6708 66.5021 76.0893 66.6067 76.0893 66.6067C76.0893 66.6067 78.5485 67.6004 78.9148 67.6004C79.281 67.6004 79.5426 67.2343 79.5426 67.2343C79.5426 67.2343 79.9089 67.6004 80.1705 67.6004C80.4321 67.6004 80.5368 67.3912 80.5368 67.3912C80.5368 67.3912 80.9554 67.3912 81.06 67.0774C81.1646 66.7636 81.06 66.4498 81.06 66.4498C81.06 66.4498 81.06 66.1359 81.06 65.979C81.06 65.8221 79.6996 64.5145 79.2287 64.2007C78.8101 63.8346 77.8683 63.3116 77.3451 63.2593C76.8219 63.207 74.8336 63.5731 74.3104 63.3639C73.8395 63.1547 67.2991 57.9767 66.8805 57.2968C66.2003 56.983 65.7817 56.983 65.7817 56.983L65.8341 56.9307Z" fill="#FF9C78"/>
<path d="M74.2066 63.2069C73.2648 61.6901 66.5151 56.146 66.5151 56.146C66.5151 56.146 62.3816 57.4536 62.2247 58.6042C62.3293 59.2319 62.3816 59.1796 62.9049 59.6503C63.4281 60.121 70.2301 64.8282 71.3812 65.299C72.5323 65.7697 72.6892 65.4036 72.6892 65.4036C72.6892 65.4036 72.7939 63.4684 74.2589 63.2069H74.2066Z" fill="#2C3873"/>
<path d="M96.1821 47.7775C94.0892 48.1436 89.7464 49.3466 85.3512 49.6081C84.6187 50.6541 83.4153 52.7985 84.5141 53.8446C85.2466 54.0015 87.6534 53.74 89.1708 53.1647C90.6882 52.5893 95.1356 50.5495 95.7635 50.5495C96.3914 50.5495 97.5948 51.2295 98.5889 51.2295C99.583 51.2295 102.618 51.5433 102.618 50.7587C103.246 50.6018 103.455 50.4449 103.298 49.9742C103.717 49.8173 103.56 49.3989 103.507 49.2419C103.455 49.085 103.612 48.7712 103.193 48.6666C102.827 48.562 102.042 48.7712 101.257 48.6666C100.525 48.562 98.7982 47.8821 98.7982 47.8821C98.7982 47.8821 99.2691 47.3591 99.5307 47.3068C99.7923 47.2544 100.525 47.3068 101.205 47.0452C101.885 46.7314 101.728 46.313 101.205 46.3653C100.682 46.3653 98.7459 46.4699 98.2226 46.4176C97.6994 46.4176 96.1297 47.7775 96.1297 47.7775H96.1821Z" fill="#FF9C78"/>
<path d="M95.4485 50.6545C94.873 49.5039 94.9253 48.2486 95.2392 47.9871C95.6055 47.9348 95.7625 47.7779 94.1928 47.9871C92.6231 48.1963 86.0304 48.9808 85.1933 49.4516C84.3561 49.9746 83.8329 51.4914 83.6759 52.4328C83.5189 53.3743 83.8852 53.5835 83.8852 53.5835C83.8852 53.5835 84.3561 54.1065 85.2456 54.1065C86.1351 54.1065 89.4837 53.8973 95.4485 50.6545Z" fill="#2C3873"/>
<path d="M100.106 49.1378C99.5826 49.5564 98.6931 49.9227 97.8036 49.2425C96.9141 48.5623 95.92 48.7716 95.92 48.7716C95.92 48.7716 97.0711 49.2425 97.542 49.7657C98.0129 50.2889 99.7919 50.4459 99.7919 50.4459C99.7919 50.4459 101.675 50.6029 102.356 50.2889C103.036 50.0273 104.187 48.51 100.106 49.1378Z" fill="#FF926A"/>
<path d="M76.1422 29.0533C74.4679 29.5763 73.2645 29.8378 72.7413 31.4069C72.218 32.976 72.0611 34.7543 72.0611 34.7543L71.5378 35.4865C71.5378 35.4865 71.5378 34.4928 71.3809 34.2836C71.2239 34.0743 70.1251 33.7605 69.9681 34.3882C69.8635 35.0158 69.9681 37.5263 69.3926 38.1016C69.3926 36.6372 68.7647 36.1141 68.0322 35.2773C67.352 34.3882 66.6195 33.3944 66.6718 31.4069C66.7241 29.4194 67.2474 27.9026 69.6542 27.1181C72.2704 25.7059 76.0376 27.5365 76.5085 27.9549C76.9794 28.3734 77.1887 29.6809 77.1887 29.6809C77.1887 29.6809 76.7178 29.0533 76.6131 29.001C76.5085 28.9487 76.0376 29.1579 76.0376 29.1579L76.1422 29.0533Z" fill="#E85900"/>
<path d="M65.2592 42.5473C64.2651 42.2858 63.9511 42.8089 63.9511 42.8089C63.9511 42.8089 62.9047 44.1164 62.6431 45.947C62.3815 47.7776 62.3815 50.8635 62.3815 50.8635C62.3815 50.8635 62.1722 55.2569 66.6719 55.7276C66.9859 55.7276 68.1893 48.8237 68.2939 47.6207C68.3986 46.4177 67.9277 42.9658 65.2592 42.5473Z" fill="#2C3873"/>
<path d="M71.015 34.9118C71.1196 34.0746 70.1255 33.656 69.6546 33.97C69.1837 34.2316 69.4976 35.9059 70.1778 36.2198C70.858 36.5338 70.9626 36.3768 71.015 36.2198C71.1196 36.0629 71.015 34.9641 71.015 34.9641V34.9118Z" fill="#FF9C78"/>
<path d="M142.122 79.3686L141.441 79.7871C142.331 79.264 142.854 78.1657 142.854 76.6489L143.534 76.2305C143.534 77.7995 142.959 78.8456 142.122 79.3686Z" fill="#3385FF"/>
<path d="M113.24 0.757771L113.92 0.339189C114.809 -0.184039 116.065 -0.131716 117.425 0.705449L116.745 1.12403C115.385 0.339189 114.129 0.286866 113.24 0.757771Z" fill="#3385FF"/>
<path d="M116.745 1.12366L117.425 0.705078L121.193 2.90264L120.512 3.2689L116.745 1.12366Z" fill="#3385FF"/>
<path d="M120.513 3.26803L121.193 2.84961C121.821 3.21573 122.344 4.00027 122.501 4.73251C122.658 5.46474 123.129 6.19698 123.704 6.5631L123.024 6.98152C122.449 6.66771 121.925 5.88317 121.821 5.15093C121.664 4.36639 121.141 3.58185 120.513 3.26803Z" fill="#3385FF"/>
<path d="M123.024 7.03366L123.705 6.61523L132.495 11.7409L131.815 12.107L123.024 7.03366Z" fill="#3385FF"/>
<path d="M133.436 11.7936L132.756 12.2122C132.546 12.3692 132.18 12.3168 131.866 12.1075L132.546 11.689C132.913 11.8983 133.227 11.8983 133.436 11.7936Z" fill="#3385FF"/>
<path d="M133.436 11.2183L134.116 10.7998C134.377 10.6428 134.691 10.6951 135.058 10.9044L134.377 11.323C134.011 11.1137 133.697 11.1137 133.436 11.2183Z" fill="#3385FF"/>
<path d="M143.011 21.9399L143.691 21.5215L143.534 76.1778L142.854 76.5962L143.011 21.9399Z" fill="#3385FF"/>
<path d="M134.378 11.3229L135.058 10.9043L138.825 13.0495L138.145 13.4681L134.378 11.3229Z" fill="#3385FF"/>
<path d="M137.988 14.1471C140.447 15.5593 142.383 18.959 142.383 21.731L142.226 76.3873C142.226 79.1593 140.238 80.31 137.779 78.8978L116.379 66.5544C113.919 65.1422 111.983 61.7426 111.983 58.9705L112.14 4.31422C112.14 1.54217 114.129 0.391514 116.588 1.80369L120.355 3.9481C120.721 4.15731 121.088 4.68034 121.14 5.15106C121.349 6.14481 122.029 7.19086 122.867 7.66159L131.709 12.7872C132.546 13.258 133.226 13.0488 133.436 12.2119C133.54 11.8458 133.854 11.7412 134.221 11.9504L137.988 14.1471Z" fill="url(#paint5_linear_803_2445)"/>
<path d="M138.145 13.4672L134.378 11.2705C133.75 10.9044 133.227 11.1136 133.07 11.6889C132.913 12.2642 132.442 12.4211 131.866 12.1073L123.024 6.98165C122.448 6.66784 121.925 5.8833 121.82 5.15106C121.663 4.36652 121.14 3.58198 120.512 3.26816L116.745 1.12375C114.024 -0.445329 111.827 0.809936 111.827 3.9481L111.67 58.6044C111.67 61.7426 113.867 65.5084 116.536 67.0774L137.936 79.4209C140.657 80.9899 142.854 79.7347 142.854 76.5965L143.011 21.9402C143.011 18.8544 140.814 15.0363 138.145 13.4672ZM137.779 78.8978L116.379 66.5544C113.92 65.1422 111.984 61.7426 111.984 58.9705L112.141 4.31422C112.141 1.54217 114.129 0.391513 116.588 1.80369L120.355 3.9481C120.722 4.15731 121.088 4.68033 121.14 5.15106C121.35 6.14481 122.03 7.19086 122.867 7.66159L131.709 12.7872C132.547 13.258 133.227 13.0488 133.436 12.2119C133.541 11.8458 133.855 11.7412 134.221 11.9504L137.988 14.1471C140.447 15.5593 142.383 18.959 142.383 21.731L142.226 76.3873C142.226 79.1593 140.238 80.31 137.779 78.8978Z" fill="url(#paint6_linear_803_2445)"/>
<path d="M138.145 13.4673L138.825 13.0488C141.546 14.6179 143.743 18.3837 143.691 21.5219L143.011 21.9403C143.011 18.8544 140.813 15.0363 138.145 13.4673Z" fill="#3385FF"/>
<path style="mix-blend-mode:screen" d="M112.298 3.11084C112.193 3.47696 112.141 3.84308 112.141 4.3138L112.036 42.4425L137.256 78.6359L137.779 78.9497C140.238 80.3619 142.174 79.2112 142.226 76.4392L142.331 46.1559L112.35 3.16314L112.298 3.11084Z" fill="url(#paint7_linear_803_2445)"/>
<path d="M136.366 61.2719L119.465 51.5436C117.32 50.2884 115.332 51.439 115.07 54.0019L114.913 55.4663C114.599 58.0815 116.117 61.1673 118.262 62.4226L135.162 72.1509C137.308 73.4062 139.296 72.2555 139.557 69.6927L139.714 68.2282C140.028 65.6131 138.511 62.5272 136.366 61.2719Z" fill="#9CC0F8"/>
<path d="M118.263 28.1122C118.106 28.1122 116.693 27.8507 115.594 29.1582C114.705 30.2566 113.972 31.6164 113.397 32.7148C112.821 33.8132 110.466 38.102 110.466 38.102C110.466 38.102 109.158 40.874 109.158 41.0309C109.158 41.1878 107.536 43.4369 108.426 44.326C109.315 45.2151 111.461 45.4767 111.879 45.3198C114.966 43.803 117.268 38.3635 117.268 38.3635L118.21 28.1122H118.263Z" fill="#DDE8F6"/>
<path d="M127.785 57.1401L127.628 66.7115L127.523 72.3602V73.3017C127.523 73.3017 127.523 73.354 127.419 73.5109L119.466 68.9082C119.466 68.4898 119.361 68.0714 119.361 67.6007C119.309 66.9207 119.204 66.1885 119.152 65.3517C118.733 60.3306 119.152 55.5187 119.884 50.1839C119.884 50.1839 124.907 50.0793 126.896 50.8115C127.21 50.9161 127.471 51.073 127.576 51.2299C128.413 52.4329 127.785 57.1401 127.785 57.1401Z" fill="#373D4A"/>
<path d="M136.733 77.2242C136.628 77.7472 136.471 78.1656 136.262 78.4795C135.948 78.3748 135.634 78.2179 135.32 78.061L128.832 74.3475C128.78 73.9291 128.727 73.5107 128.675 73.04C128.361 70.7387 127.995 68.2281 127.628 66.7113C127.472 66.0837 127.315 65.6653 127.158 65.4561C126.216 64.3054 123.914 63.5209 123.338 62.4225C122.762 61.3242 123.809 52.9557 123.809 52.9557C123.809 52.9557 125.169 51.8051 126.844 50.8113C128.937 49.5561 131.605 48.4577 132.861 49.9222C135.111 52.5896 136.785 57.4015 136.523 62.2656C136.262 67.1298 136.628 72.7785 136.785 75.3413C136.785 76.0735 136.785 76.7535 136.68 77.2765L136.733 77.2242Z" fill="#373D4A"/>
<path d="M116.955 29.5764C118.577 27.955 124.908 27.432 124.908 27.432C124.908 27.432 126.111 27.1181 127.158 27.432C128.204 27.6935 133.541 30.6224 133.594 30.7793C133.646 30.9362 134.954 37.4741 134.692 40.1415C134.483 42.8089 134.64 50.4451 134.535 52.5895C131.396 55.6231 125.85 55.5185 123.757 54.7863C121.664 54.054 119.676 52.2757 119.519 51.8573C119.362 51.4389 117.531 44.6918 117.531 44.6918C117.531 44.6918 116.118 40.9783 115.909 38.4155C115.699 35.8527 115.333 31.1977 116.903 29.6287L116.955 29.5764Z" fill="#CBDCF1"/>
<path d="M121.559 34.3359C120.983 37.0034 122.972 52.485 122.972 52.485L124.437 54.734L125.274 52.5896L122.239 34.3359H121.559Z" fill="#595E71"/>
<path d="M119.466 27.6935C119.78 28.0596 120.408 29.681 120.408 30.6748C120.408 31.6685 121.193 32.1393 122.082 32.087C122.919 32.0346 124.018 31.6685 125.221 30.5179C126.425 29.3672 127.628 28.0596 127.314 27.6935C127 27.3274 126.111 25.8629 126.111 25.8629C126.111 25.8629 125.692 23.7708 125.64 22.9863C125.535 22.2017 125.431 19.482 124.803 19.2205C124.175 18.959 121.559 20.9465 121.559 20.9465L119.518 27.7458L119.466 27.6935Z" fill="#FF9C78"/>
<path d="M123.391 21.4695C123.391 21.4695 124.071 26.1244 123.914 26.5428C123.757 27.0136 120.356 29.5241 119.885 29.5764C119.414 29.5764 118.472 29.4718 117.897 28.8442C117.635 28.5826 115.804 24.3984 115.542 22.6724C115.281 20.9465 115.228 18.3836 115.647 17.9129C116.065 17.4422 118.839 16.2392 119.937 16.3438C121.036 16.3961 123.181 18.6974 123.181 18.6974L123.391 21.5218V21.4695Z" fill="#FF9C78"/>
<path d="M132.809 30.3608C131.658 30.3608 129.879 32.1391 130.245 35.1727C130.559 38.2062 134.954 47.6207 134.954 47.6207C134.954 47.6207 139.297 49.0329 139.611 48.0391C139.925 47.0454 137.78 38.6247 136.21 35.225C134.64 31.8776 133.908 30.5701 132.809 30.3608Z" fill="#DDE8F6"/>
<path d="M112.088 44.4826C112.141 43.0705 110.571 40.0369 109.943 39.7754C109.315 39.5139 101.833 38.3109 101.833 38.3109C101.833 38.3109 101.048 38.154 100.577 39.3047C100.106 40.4553 100.002 41.083 100.263 41.3445C100.525 41.606 108.844 45.7902 111.565 45.3195C112.35 44.7964 112.088 44.4826 112.088 44.4826Z" fill="#DDE8F6"/>
<path d="M100.055 38.3112C100.368 38.8865 100.212 40.4033 100.159 40.5602C100.107 40.7171 99.8453 40.874 99.8453 40.874L98.6418 40.7694C98.6418 40.7694 97.857 40.9786 97.2291 40.874C96.6012 40.7694 93.5142 39.3049 93.3572 38.7819C93.2003 38.2589 92.7294 36.2191 94.1944 35.853C95.6071 35.4345 97.1768 35.853 97.1768 35.853C97.1768 35.853 97.6477 35.9053 97.8047 36.4283C97.9616 36.9513 100.107 38.3112 100.107 38.3112H100.055Z" fill="#FF9C78"/>
<path d="M96.0256 28.3213L87.9679 31.0933L89.2237 45.1104L97.2814 42.3384L96.0256 28.3213Z" fill="#F8F7FB"/>
<path d="M95.2411 30.3086L89.1193 32.453L90.0088 43.1228L96.1829 40.9783L95.2411 30.3086Z" fill="#DDDEE2"/>
<path d="M95.8679 30.5181L88.4904 33.0809L88.5427 33.8131L95.9202 31.2503L95.8679 30.5181Z" fill="#F8F7FB"/>
<path d="M95.9724 31.6685L88.5949 34.179L88.6472 34.9635L96.0247 32.4007L95.9724 31.6685Z" fill="#F8F7FB"/>
<path d="M96.0779 32.7671L88.7004 35.3299L88.7527 36.0622L96.1302 33.5516L96.0779 32.7671Z" fill="#F8F7FB"/>
<path d="M96.1814 33.9175L88.8039 36.4803L88.8562 37.2126L96.2337 34.6497L96.1814 33.9175Z" fill="#F8F7FB"/>
<path d="M96.2869 35.0684L88.9093 37.6312L88.9617 38.3634L96.3392 35.8006L96.2869 35.0684Z" fill="#F8F7FB"/>
<path d="M96.3913 36.167L89.0138 38.7298L89.0662 39.4621L96.4437 36.9515L96.3913 36.167Z" fill="#F8F7FB"/>
<path d="M96.4958 37.3174L89.1183 39.8802L89.1706 40.6125L96.5482 38.0496L96.4958 37.3174Z" fill="#F8F7FB"/>
<path d="M96.6003 38.4683L89.2228 41.0311L89.2752 41.7633L96.6527 39.2005L96.6003 38.4683Z" fill="#F8F7FB"/>
<path d="M96.7048 39.6187L89.3273 42.1292L89.3796 42.9137L96.7572 40.3509L96.7048 39.6187Z" fill="#F8F7FB"/>
<path d="M97.857 37.6309C97.857 37.6309 96.1303 37.8924 95.8687 37.997C95.6071 38.1016 94.9792 37.997 94.613 38.2062C94.2467 38.3631 94.3514 38.9384 94.8223 39.0953C95.3455 39.2522 96.1303 39.0953 96.1303 39.0953C96.1303 39.0953 96.9152 39.1476 97.1245 39.4615C97.2815 39.7753 97.4384 40.0891 98.014 40.1937C98.5895 40.246 99.6883 40.4552 99.636 39.5661C99.636 38.6769 97.857 37.6832 97.857 37.6832V37.6309Z" fill="#FF9C78"/>
<path d="M116.798 19.482C118.786 20.2143 120.146 19.6912 120.198 19.8481C120.251 20.0051 120.46 21.6264 120.46 21.6264L121.559 21.9403L122.396 23.5093L123.286 23.3001C123.286 23.3001 123.181 22.1495 123.861 21.6264C124.594 21.1557 125.169 22.2018 125.117 22.8817C125.117 23.5616 125.849 24.8692 125.849 24.8692C125.849 24.8692 126.425 22.8294 126.634 22.3587C127.733 19.1682 128.622 16.5531 123.861 14.8794C120.774 12.0027 116.693 14.1995 115.699 15.8731C114.705 17.5991 115.332 18.7498 115.332 18.7498C115.332 18.7498 115.594 19.0636 116.745 19.482H116.798Z" fill="#32364C"/>
<path d="M123.6 22.777C123.495 21.6263 123.966 21.3125 124.698 21.3648C125.483 21.4694 125.274 22.4109 125.012 23.1954C124.751 24.0323 124.594 24.6076 123.966 24.4507C123.338 24.3461 123.547 22.7247 123.547 22.7247L123.6 22.777Z" fill="#FF9C78"/>
<path d="M127.001 27.3796C127.105 28.3734 124.855 31.4593 121.716 31.7208V32.0869L122.762 33.656C122.762 33.656 128.256 31.9823 128.361 28.3211C128.099 27.7981 126.53 26.6997 126.53 26.6997L126.948 27.3796H127.001Z" fill="#DDE8F6"/>
<path d="M121.716 31.7205C120.722 31.4067 120.513 30.8314 120.356 30.0991C119.624 30.9883 120.042 32.505 120.67 33.1327C121.141 32.7143 121.664 32.0866 121.664 32.0866V31.7205H121.716Z" fill="#DDE8F6"/>
<path d="M114.39 52.3281L115.175 52.0141C115.959 51.7002 116.849 51.7525 117.843 52.3281L117.058 52.642C116.116 52.0665 115.175 52.0141 114.39 52.3281Z" fill="#DAE6FB"/>
<path d="M136.104 73.2491L135.32 73.5629C136.261 73.1968 136.942 72.203 137.098 70.7909L137.883 70.4771C137.726 71.8892 137.046 72.883 136.104 73.2491Z" fill="#DAE6FB"/>
<path d="M117.059 52.6419L117.844 52.3281L134.692 62.0564L133.907 62.3702L117.059 52.6419Z" fill="#DAE6FB"/>
<path d="M137.255 69.3261L138.04 69.0122L137.883 70.4772L137.046 70.7912L137.255 69.3261Z" fill="#DAE6FB"/>
<path d="M133.593 63.6254C135.215 64.5668 136.314 66.9205 136.104 68.8557L135.947 70.3201C135.738 72.3076 134.221 73.1445 132.599 72.203L115.698 62.4747C114.076 61.5333 112.978 59.1797 113.187 57.2445L113.344 55.78C113.553 53.7925 115.07 52.9556 116.692 53.8971L133.593 63.6254Z" fill="#F6F9FE"/>
<path d="M133.907 62.3701L117.006 52.6418C114.861 51.3865 112.873 52.5372 112.611 55.1L112.454 56.5645C112.14 59.1796 113.658 62.2655 115.803 63.5207L132.703 73.249C134.849 74.5043 136.837 73.3536 137.098 70.7908L137.255 69.3263C137.569 66.7112 136.052 63.6253 133.907 62.3701ZM135.947 70.3201C135.738 72.3076 134.221 73.1444 132.599 72.203L115.698 62.4747C114.076 61.5332 112.978 59.1796 113.187 57.2444L113.344 55.7799C113.553 53.7924 115.071 52.9556 116.693 53.897L133.593 63.6253C135.215 64.5668 136.314 66.9204 136.104 68.8556L135.947 70.3201Z" fill="#EBF2FD"/>
<path d="M133.907 62.37L134.692 62.0562C136.837 63.3114 138.303 66.3973 138.041 69.0124L137.256 69.3262C137.57 66.7111 136.053 63.6252 133.907 62.37Z" fill="#DAE6FB"/>
<path d="M137.622 46.9407C136.209 46.1561 134.692 47.0453 134.692 47.0453C134.692 47.0453 127.681 55.466 127.367 56.0413C127.053 56.6167 129.093 58.7611 129.721 58.6565C130.349 58.5519 139.872 50.288 139.663 48.039C138.93 47.2545 137.674 46.9407 137.674 46.9407H137.622Z" fill="#DDE8F6"/>
<path d="M127.681 56.0938L125.641 57.2444C125.641 57.2444 124.019 57.6105 123.652 57.8197C123.286 58.029 122.344 59.3888 122.292 59.5457C122.24 59.7026 122.397 60.1734 122.397 60.1734C122.397 60.1734 122.292 61.0625 122.397 61.2194C122.501 61.3763 123.129 61.6378 123.129 61.6378C123.129 61.6378 123.234 62.004 123.496 62.1086C123.757 62.2132 123.966 62.1086 123.966 62.1086C123.966 62.1086 124.019 62.4224 124.751 62.2132C125.431 62.004 125.484 61.4286 126.112 61.1671C126.687 60.8533 127.734 60.4872 128.519 59.6503C129.303 58.8135 129.408 58.4474 129.408 58.4474C129.408 58.4474 129.67 58.1859 129.617 58.029C129.617 57.8197 128.675 56.5645 127.786 56.1461L127.681 56.0938Z" fill="#FF9C78"/>
<path d="M121.716 32.0869C121.716 32.0869 120.879 32.8715 120.879 33.656C120.879 34.4405 121.507 35.382 121.507 35.382L122.239 35.5912C122.239 35.5912 123.286 34.7544 122.815 33.7083C122.344 32.6622 121.716 32.1392 121.716 32.1392V32.0869Z" fill="#595E71"/>
<path d="M65.6257 144.695C65.6257 146.107 64.4746 147.258 63.0619 147.258C61.6491 147.258 60.498 146.107 60.498 144.695C60.498 143.282 61.6491 142.132 63.0619 142.132C64.4746 142.132 65.6257 143.282 65.6257 144.695Z" fill="#2795E9"/>
<path style="mix-blend-mode:multiply" d="M80.5385 158.188C81.3233 158.188 82.0035 158.032 82.5791 157.718L118.734 136.849C119.519 136.378 119.938 135.698 119.938 134.861C119.938 133.972 119.414 133.188 118.473 132.665L116.118 131.305C115.438 130.886 114.548 130.677 113.659 130.677C112.769 130.677 112.194 130.834 111.618 131.148L75.4632 152.017C74.6783 152.487 74.2598 153.167 74.2598 154.004C74.2598 154.893 74.783 155.678 75.7248 156.201L78.0793 157.561C78.7595 157.979 79.649 158.188 80.5385 158.188Z" fill="url(#paint8_linear_803_2445)"/>
<path d="M119.466 80.7283L114.286 77.7471C104.449 85.2264 100.002 87.6323 95.6067 88.8352C91.2116 92.7579 83.6248 97.256 73.7881 101.126V122.466C73.7881 131.096 77.1891 135.385 81.2179 137.529L86.3979 140.51L86.0839 139.098C90.3221 139.778 95.5544 139.883 95.5544 139.883C95.5544 139.883 114.234 120.112 114.234 99.0866V86.5339L119.414 80.7283H119.466Z" fill="#DD9700"/>
<path d="M73.7363 101.126L78.9163 104.107L91.6307 101.963L100.735 91.8162L95.5549 88.835C91.1598 92.7577 83.573 97.2557 73.7363 101.126Z" fill="#FFD33B"/>
<path d="M118.891 80.4145L114.234 77.7471C104.397 85.2264 99.9498 87.6323 95.5547 88.8352L100.735 91.8165H111.879L119.414 80.7283L118.838 80.4145H118.891Z" fill="#FFE359"/>
<path d="M100.735 91.8162C96.3395 95.7389 88.7527 100.237 78.916 104.107V125.447C78.916 146.472 100.735 142.864 100.735 142.864C100.735 142.864 119.414 123.093 119.414 102.068V80.728C109.577 88.2073 105.13 90.6132 100.735 91.8162Z" fill="#FFAF19"/>
<path d="M100.839 140.144C99.1128 140.353 95.7118 140.563 92.3109 139.569C86.2414 137.738 81.4277 131.88 81.4277 124.087V106.357C82.8404 105.677 84.2532 104.944 85.6136 104.108C91.4737 100.76 97.4908 97.9359 100.787 95.0592C104.083 94.1701 106.752 91.9211 112.612 88.5214C113.972 87.7368 115.385 86.8477 116.798 85.9062V103.637C116.798 111.43 115.385 120.844 109.263 129.736C105.915 134.652 102.461 138.366 100.735 140.144H100.839Z" fill="#FFAF19"/>
<path d="M92.3626 139.569C86.2932 137.738 81.4795 131.88 81.4795 124.087V106.356C82.8922 105.677 84.3049 104.944 85.6653 104.107C91.5255 100.76 97.5426 97.9357 100.839 95.0591V140.144C99.1123 140.353 95.7113 140.562 92.3103 139.569H92.3626Z" fill="#FFAF19"/>
<path d="M108.112 108.344C107.746 111.587 106.543 115.143 104.555 118.648C102.566 122.1 100.055 124.924 97.4909 126.859L93.933 133.031L90.2181 130.887C85.2997 128.01 85.2997 118.752 90.2181 110.227C95.1364 101.702 103.089 97.099 108.008 99.9757L111.723 102.12L108.112 108.344Z" fill="#00A658"/>
<path d="M93.9329 112.372C89.0146 120.897 89.0146 130.154 93.9329 133.031C98.8512 135.908 106.804 131.305 111.723 122.78C116.641 114.254 116.641 104.997 111.723 102.12C106.804 99.2435 98.8512 103.846 93.9329 112.372Z" fill="#00D158"/>
<path d="M99.5837 126.232L100.839 126.964C100.787 126.964 100.735 126.912 100.683 126.859L99.4268 126.127C99.4268 126.127 99.5314 126.232 99.5837 126.232Z" fill="#C6C0D0"/>
<path d="M111.723 109.6L110.467 108.867C110.049 108.605 109.473 108.71 108.898 109.024C108.374 109.338 107.851 109.861 107.433 110.489L108.688 111.222C109.107 110.541 109.63 110.018 110.153 109.757C110.729 109.443 111.305 109.338 111.723 109.6Z" fill="#D3E1FC"/>
<path d="M108.74 111.221L107.485 110.488L101.572 120.007L102.828 120.687L108.74 111.221Z" fill="#D3E1FC"/>
<path d="M97.0726 123.93L95.8691 123.198L99.4271 126.127L100.683 126.859L97.0726 123.93Z" fill="#D3E1FC"/>
<path d="M100.317 118.7L99.0609 117.968C98.6423 117.706 98.0668 117.811 97.4912 118.125L98.747 118.857C99.3225 118.543 99.8981 118.439 100.317 118.7Z" fill="#D3E1FC"/>
<path d="M98.7991 118.857L97.5433 118.125C97.0724 118.386 96.5492 118.857 96.1306 119.484C95.1888 120.897 95.0841 122.57 95.8167 123.198L97.0724 123.93C96.2876 123.302 96.4445 121.629 97.3863 120.217C97.8049 119.589 98.2758 119.118 98.7991 118.857Z" fill="#D3E1FC"/>
<path d="M98.7992 118.857C98.3283 119.118 97.805 119.589 97.3865 120.217C96.4446 121.629 96.34 123.302 97.0725 123.93L100.63 126.807C101.154 127.225 101.886 127.173 102.619 126.754C103.247 126.388 103.822 125.813 104.345 124.976L111.618 113.208C112.508 111.744 112.612 110.122 111.775 109.547C111.357 109.233 110.729 109.285 110.153 109.651C109.63 109.965 109.107 110.488 108.688 111.116L102.828 120.635L100.473 118.7C100.055 118.334 99.427 118.386 98.7992 118.752V118.857Z" fill="white"/>
<path d="M3.46597 18.5928L4.19849 19.0114C4.19849 19.0114 4.14617 19.0114 4.09385 18.9591L3.36133 18.5405C3.36133 18.5405 3.41365 18.5405 3.46597 18.5928Z" fill="#3689F5"/>
<path d="M10.3728 9.17831L9.6403 8.75973C9.37869 8.60276 9.06475 8.65508 8.69849 8.86437C8.38456 9.02134 8.07062 9.33528 7.86133 9.75386L8.59385 10.1724C8.85546 9.75386 9.1694 9.49225 9.43101 9.28295C9.74495 9.07366 10.1112 9.02134 10.3728 9.17831Z" fill="#3689F5"/>
<path d="M8.59372 10.1719L7.8612 9.70117L4.61719 14.9314L5.34971 15.3499L8.59372 10.1719Z" fill="#3689F5"/>
<path d="M2.31553 17.4943L1.58301 17.0757L3.36198 18.4884L4.0945 18.9593L2.31553 17.4943Z" fill="#3689F5"/>
<path d="M4.25148 14.4088L3.51896 13.9902C3.25734 13.8332 2.94341 13.8855 2.57715 14.0948L3.30967 14.5134C3.6236 14.3041 3.98986 14.2518 4.25148 14.4088Z" fill="#3689F5"/>
<path d="M3.3096 14.5131L2.57709 14.0947C2.26315 14.2516 2.00153 14.5131 1.73992 14.8793C1.21669 15.7161 1.11205 16.7099 1.58295 17.076L2.31547 17.4944C1.84457 17.1283 1.94921 16.1345 2.47244 15.2977C2.73405 14.9316 2.99567 14.6701 3.3096 14.5131Z" fill="#3689F5"/>
<path d="M3.3096 14.5131C2.99566 14.67 2.73405 14.9315 2.47243 15.2977C1.94921 16.1345 1.84456 17.1283 2.31547 17.4944L4.09444 18.9066C4.40838 19.1681 4.82696 19.1158 5.24554 18.9066C5.6118 18.6973 5.97806 18.3312 6.23968 17.8605L10.2685 11.3227C10.7918 10.4858 10.8441 9.49207 10.3732 9.17825C10.1116 9.02134 9.7453 9.02134 9.43136 9.23055C9.11743 9.38746 8.80349 9.70128 8.5942 10.1197L5.40251 15.2977L4.35605 14.4608C4.09444 14.2516 3.72818 14.3039 3.36192 14.4608L3.3096 14.5131Z" fill="#8CD1FF"/>
<g opacity="0.8">
<path d="M3.46597 28.3209L4.19849 28.7395C4.19849 28.7395 4.14617 28.7395 4.09385 28.6871L3.36133 28.2686C3.36133 28.2686 3.41365 28.2686 3.46597 28.3209Z" fill="#3689F5"/>
<path d="M10.3728 18.9591L9.6403 18.5405C9.37869 18.3835 9.06475 18.4358 8.69849 18.6451C8.38456 18.8021 8.07062 19.116 7.86133 19.5346L8.59385 19.9532C8.85546 19.5346 9.1694 19.273 9.43101 19.0637C9.74495 18.8544 10.1112 18.8021 10.3728 18.9591Z" fill="#3689F5"/>
<path d="M8.59372 19.9004L7.8612 19.4819L4.61719 24.6599L5.34971 25.0783L8.59372 19.9004Z" fill="#3689F5"/>
<path d="M2.31553 27.275L1.58301 26.8564L3.36198 28.2692L4.0945 28.6877L2.31553 27.275Z" fill="#3689F5"/>
<path d="M4.25148 24.1895L3.51896 23.771C3.25734 23.614 2.94341 23.6663 2.57715 23.8756L3.30967 24.2942C3.6236 24.0849 3.98986 24.0326 4.25148 24.1895Z" fill="#3689F5"/>
<path d="M3.3096 24.2939L2.57709 23.8755C2.26315 24.0324 2.00153 24.2939 1.73992 24.66C1.21669 25.4969 1.11205 26.4906 1.58295 26.8567L2.31547 27.2752C1.84457 26.909 1.94921 25.9153 2.47244 25.0784C2.73405 24.7123 2.99567 24.4508 3.3096 24.2939Z" fill="#3689F5"/>
<path d="M3.3096 24.2939C2.99566 24.4508 2.73405 24.7123 2.47243 25.0784C1.94921 25.9153 1.84456 26.909 2.31547 27.2751L4.09444 28.6873C4.40838 28.9488 4.82696 28.8965 5.24554 28.6873C5.6118 28.4781 5.97806 28.112 6.23968 27.6413L10.2685 21.1034C10.7918 20.2666 10.8441 19.2728 10.3732 18.959C10.1116 18.8021 9.7453 18.8021 9.43136 19.0113C9.11743 19.1682 8.80349 19.482 8.5942 19.9005L5.40251 25.0784L4.35605 24.2416C4.09444 24.0324 3.72818 24.0847 3.36192 24.2416L3.3096 24.2939Z" fill="#8CD1FF"/>
</g>
<g opacity="0.5">
<path d="M3.46597 38.1012L4.19849 38.5197C4.19849 38.5197 4.14617 38.5197 4.09385 38.4674L3.36133 38.0488C3.36133 38.0488 3.41365 38.0488 3.46597 38.1012Z" fill="#3689F5"/>
<path d="M10.3728 28.6871L9.6403 28.2685C9.37869 28.1115 9.06475 28.1639 8.69849 28.3732C8.38456 28.5301 8.07062 28.8441 7.86133 29.2626L8.59385 29.6812C8.85546 29.2626 9.1694 29.001 9.43101 28.7917C9.74495 28.5825 10.1112 28.5301 10.3728 28.6871Z" fill="#3689F5"/>
<path d="M8.59372 29.6806L7.8612 29.2622L4.61719 34.4402L5.34971 34.8586L8.59372 29.6806Z" fill="#3689F5"/>
<path d="M2.31553 37.0554L1.58301 36.5845L3.36198 38.0495L4.0945 38.4681L2.31553 37.0554Z" fill="#3689F5"/>
<path d="M4.25148 33.9698L3.51896 33.5512C3.25734 33.3943 2.94341 33.4466 2.57715 33.6559L3.30967 34.0745C3.6236 33.8652 3.98986 33.8128 4.25148 33.9698Z" fill="#3689F5"/>
<path d="M3.3096 34.0219L2.57709 33.6035C2.26315 33.7604 2.00153 34.0219 1.73992 34.3881C1.21669 35.2249 1.11205 36.2186 1.58295 36.5848L2.31547 37.0032C1.84457 36.6371 1.94921 35.6433 2.47244 34.8065C2.73405 34.4404 2.99567 34.1788 3.3096 34.0219Z" fill="#3689F5"/>
<path d="M3.3096 34.0219C2.99566 34.1788 2.73405 34.4403 2.47243 34.8065C1.94921 35.6433 1.84456 36.637 2.31547 37.0032L4.09444 38.4153C4.40838 38.6769 4.82696 38.6246 5.24554 38.4153C5.6118 38.2061 5.97806 37.84 6.23968 37.3693L10.2685 30.8315C10.7918 29.9946 10.8441 29.0009 10.3732 28.687C10.1116 28.5301 9.7453 28.5301 9.43136 28.7393C9.11743 28.8963 8.80349 29.2101 8.5942 29.6285L5.40251 34.8065L4.35605 33.9696C4.09444 33.7604 3.72818 33.8127 3.36192 33.9696L3.3096 34.0219Z" fill="#8CD1FF"/>
</g>
<g opacity="0.3">
<path d="M3.46597 47.8819L4.19849 48.3005C4.19849 48.3005 4.14617 48.3005 4.09385 48.2482L3.36133 47.8296C3.36133 47.8296 3.41365 47.8296 3.46597 47.8819Z" fill="#3689F5"/>
<path d="M10.3728 38.4679L9.6403 38.0493C9.37869 37.8923 9.06475 37.9446 8.69849 38.1539C8.38456 38.3109 8.07062 38.6248 7.86133 39.0434L8.59385 39.462C8.85546 39.0434 9.1694 38.7818 9.43101 38.5725C9.74495 38.3632 10.1112 38.3109 10.3728 38.4679Z" fill="#3689F5"/>
<path d="M8.59372 39.4614L7.8612 38.9907L4.61719 44.221L5.34971 44.6394L8.59372 39.4614Z" fill="#3689F5"/>
<path d="M2.31553 46.7838L1.58301 46.3652L3.36198 47.8303L4.0945 48.2488L2.31553 46.7838Z" fill="#3689F5"/>
<path d="M4.25148 43.6983L3.51896 43.2797C3.25734 43.1228 2.94341 43.1751 2.57715 43.3844L3.30967 43.803C3.6236 43.5937 3.98986 43.5414 4.25148 43.6983Z" fill="#3689F5"/>
<path d="M3.3096 43.8027L2.57709 43.3843C2.26315 43.5412 2.00153 43.8027 1.73992 44.1688C1.21669 45.0057 1.11205 45.9994 1.58295 46.3655L2.31547 46.784C1.84457 46.4178 1.94921 45.4241 2.47244 44.5872C2.73405 44.2211 2.99567 43.9596 3.3096 43.8027Z" fill="#3689F5"/>
<path d="M3.3096 43.8027C2.99566 43.9596 2.73405 44.2211 2.47243 44.5872C1.94921 45.4241 1.84456 46.4178 2.31547 46.7839L4.09444 48.1961C4.40838 48.4576 4.82696 48.4053 5.24554 48.1961C5.6118 47.9869 5.97806 47.6208 6.23968 47.1501L10.2685 40.6122C10.7918 39.7754 10.8441 38.7816 10.3732 38.4678C10.1116 38.3109 9.7453 38.3109 9.43136 38.5201C9.11743 38.677 8.80349 38.9908 8.5942 39.4093L5.40251 44.5872L4.35605 43.7504C4.09444 43.5412 3.72818 43.5935 3.36192 43.7504L3.3096 43.8027Z" fill="#8CD1FF"/>
</g>
<path d="M192.772 27.3795L193.504 27.7981C193.504 27.7981 193.452 27.7981 193.4 27.7457L192.667 27.3271C192.667 27.3271 192.719 27.3271 192.772 27.3795Z" fill="#3689F5"/>
<path d="M199.678 17.9654L198.946 17.5468C198.684 17.3899 198.37 17.4422 198.004 17.6515C197.69 17.8085 197.376 18.1224 197.167 18.541L197.9 18.9596C198.161 18.541 198.475 18.2794 198.737 18.0701C199.051 17.8608 199.417 17.8084 199.678 17.9654Z" fill="#3689F5"/>
<path d="M197.899 18.959L197.167 18.5405L193.923 23.7185L194.655 24.1369L197.899 18.959Z" fill="#3689F5"/>
<path d="M191.673 26.2814L190.888 25.8628L192.667 27.3278L193.399 27.7464L191.673 26.2814Z" fill="#3689F5"/>
<path d="M193.556 23.2481L192.824 22.8296C192.562 22.6726 192.248 22.7249 191.882 22.9342L192.614 23.3528C192.928 23.1435 193.295 23.0912 193.556 23.2481Z" fill="#3689F5"/>
<path d="M192.614 23.3003L191.882 22.8818C191.568 23.0387 191.306 23.3003 191.045 23.6664C190.521 24.5032 190.417 25.497 190.888 25.8631L191.62 26.2815C191.149 25.9154 191.254 24.9216 191.777 24.0848C192.039 23.7187 192.3 23.4572 192.614 23.3003Z" fill="#3689F5"/>
<path d="M192.614 23.3002C192.3 23.4571 192.039 23.7187 191.777 24.0848C191.254 24.9216 191.149 25.9154 191.62 26.2815L193.399 27.6937C193.713 27.9552 194.132 27.9029 194.55 27.6937C194.916 27.4844 195.283 27.1183 195.544 26.6476L199.573 20.1098C200.096 19.2729 200.149 18.2792 199.678 17.9654C199.416 17.8085 199.05 17.8085 198.736 18.0177C198.422 18.1746 198.108 18.4884 197.899 18.9068L194.707 24.0848L193.661 23.2479C193.399 23.0387 193.033 23.091 192.667 23.2479L192.614 23.3002Z" fill="#8CD1FF"/>
<g opacity="0.8">
<path d="M192.772 37.1602L193.504 37.5788C193.504 37.5788 193.452 37.5788 193.4 37.5265L192.667 37.1079C192.667 37.1079 192.719 37.1079 192.772 37.1602Z" fill="#3689F5"/>
<path d="M199.678 27.7462L198.946 27.3276C198.684 27.1706 198.37 27.2229 198.004 27.4322C197.69 27.5892 197.376 27.9031 197.167 28.3217L197.9 28.7403C198.161 28.3217 198.475 28.0601 198.737 27.8508C199.051 27.6415 199.417 27.5892 199.678 27.7462Z" fill="#3689F5"/>
<path d="M197.899 28.6875L197.167 28.269L193.923 33.4993L194.655 33.9177L197.899 28.6875Z" fill="#3689F5"/>
<path d="M191.673 36.0621L190.888 35.6436L192.667 37.0563L193.399 37.5272L191.673 36.0621Z" fill="#3689F5"/>
<path d="M193.556 32.9766L192.824 32.5581C192.562 32.4011 192.248 32.4534 191.882 32.6627L192.614 33.0813C192.928 32.872 193.295 32.8197 193.556 32.9766Z" fill="#3689F5"/>
<path d="M192.614 33.081L191.882 32.6626C191.568 32.8195 191.306 33.081 191.045 33.4471C190.521 34.284 190.417 35.2777 190.888 35.6439L191.62 36.0623C191.149 35.6962 191.254 34.7024 191.777 33.8656C192.039 33.4994 192.3 33.2379 192.614 33.081Z" fill="#3689F5"/>
<path d="M192.614 33.081C192.3 33.2379 192.039 33.4994 191.777 33.8655C191.254 34.7024 191.149 35.6961 191.62 36.0622L193.399 37.4744C193.713 37.7359 194.132 37.6836 194.55 37.4744C194.916 37.2652 195.283 36.8991 195.544 36.4284L199.573 29.8905C200.096 29.0537 200.149 28.0599 199.678 27.7461C199.416 27.5892 199.05 27.5892 198.736 27.7984C198.422 27.9553 198.108 28.2692 197.899 28.6876L194.707 33.8655L193.661 33.0287C193.399 32.8195 193.033 32.8718 192.667 33.0287L192.614 33.081Z" fill="#8CD1FF"/>
</g>
<g opacity="0.5">
<path d="M192.772 46.8883L193.504 47.3068C193.504 47.3068 193.452 47.3068 193.4 47.2545L192.667 46.8359C192.667 46.8359 192.719 46.8359 192.772 46.8883Z" fill="#3689F5"/>
<path d="M199.678 37.5265L198.946 37.1079C198.684 36.9509 198.37 37.0032 198.004 37.2125C197.69 37.3695 197.376 37.6834 197.167 38.102L197.9 38.5206C198.161 38.102 198.475 37.8404 198.737 37.6311C199.051 37.4218 199.417 37.3695 199.678 37.5265Z" fill="#3689F5"/>
<path d="M197.899 38.4677L197.167 38.0493L193.923 43.2273L194.655 43.6457L197.899 38.4677Z" fill="#3689F5"/>
<path d="M191.673 45.8424L190.888 45.4238L192.667 46.8365L193.399 47.2551L191.673 45.8424Z" fill="#3689F5"/>
<path d="M193.556 42.7569L192.824 42.3383C192.562 42.1814 192.248 42.2337 191.882 42.443L192.614 42.8616C192.928 42.6523 193.295 42.6 193.556 42.7569Z" fill="#3689F5"/>
<path d="M192.614 42.8613L191.882 42.4429C191.568 42.5998 191.306 42.8613 191.045 43.2274C190.521 44.0643 190.417 45.058 190.888 45.4241L191.62 45.8425C191.149 45.4764 191.254 44.4827 191.777 43.6458C192.039 43.2797 192.3 43.0182 192.614 42.8613Z" fill="#3689F5"/>
<path d="M192.614 42.8613C192.3 43.0182 192.039 43.2797 191.777 43.6458C191.254 44.4827 191.149 45.4764 191.62 45.8425L193.399 47.2547C193.713 47.5162 194.132 47.4639 194.55 47.2547C194.916 47.0455 195.283 46.6794 195.544 46.2086L199.573 39.6708C200.096 38.834 200.149 37.8402 199.678 37.5264C199.416 37.3695 199.05 37.3695 198.736 37.5787C198.422 37.7356 198.108 38.0494 197.899 38.4678L194.707 43.6458L193.661 42.809C193.399 42.5998 193.033 42.6521 192.667 42.809L192.614 42.8613Z" fill="#8CD1FF"/>
</g>
<g opacity="0.3">
<path d="M192.772 56.669L193.504 57.0876C193.504 57.0876 193.452 57.0876 193.4 57.0353L192.667 56.6167C192.667 56.6167 192.719 56.6167 192.772 56.669Z" fill="#3689F5"/>
<path d="M199.678 47.255L198.946 46.8364C198.684 46.6794 198.37 46.7317 198.004 46.941C197.69 47.098 197.376 47.4119 197.167 47.8305L197.9 48.2491C198.161 47.8305 198.475 47.5689 198.737 47.3596C199.051 47.1503 199.417 47.098 199.678 47.255Z" fill="#3689F5"/>
<path d="M197.899 48.2485L197.167 47.8301L193.923 53.008L194.655 53.4265L197.899 48.2485Z" fill="#3689F5"/>
<path d="M191.673 55.6232L190.888 55.1523L192.667 56.6174L193.399 57.036L191.673 55.6232Z" fill="#3689F5"/>
<path d="M193.556 52.5377L192.824 52.1191C192.562 51.9621 192.248 52.0145 191.882 52.2237L192.614 52.6423C192.928 52.433 193.295 52.3807 193.556 52.5377Z" fill="#3689F5"/>
<path d="M192.614 52.5898L191.882 52.1714C191.568 52.3283 191.306 52.5898 191.045 52.9559C190.521 53.7928 190.417 54.7865 190.888 55.1526L191.62 55.5711C191.149 55.2049 191.254 54.2112 191.777 53.3743C192.039 53.0082 192.3 52.7467 192.614 52.5898Z" fill="#3689F5"/>
<path d="M192.614 52.5898C192.3 52.7467 192.039 53.0082 191.777 53.3743C191.254 54.2112 191.149 55.2049 191.62 55.571L193.399 56.9832C193.713 57.2447 194.132 57.1924 194.55 56.9832C194.916 56.774 195.283 56.4079 195.544 55.9372L199.573 49.3993C200.096 48.5625 200.149 47.5687 199.678 47.2549C199.416 47.098 199.05 47.098 198.736 47.3072C198.422 47.4641 198.108 47.7779 197.899 48.1964L194.707 53.3743L193.661 52.5375C193.399 52.3283 193.033 52.3806 192.667 52.5375L192.614 52.5898Z" fill="#8CD1FF"/>
</g>
<defs>
<linearGradient id="paint0_linear_803_2445" x1="22.93" y1="138.209" x2="42.8127" y2="138.209" gradientUnits="userSpaceOnUse">
<stop offset="0.2" stop-color="#F3F4F5"/>
<stop offset="0.8" stop-color="#E8E9EC"/>
<stop offset="1" stop-color="#E4E5E9"/>
</linearGradient>
<linearGradient id="paint1_linear_803_2445" x1="150.284" y1="138.732" x2="183.614" y2="138.732" gradientUnits="userSpaceOnUse">
<stop offset="0.2" stop-color="#F3F4F5"/>
<stop offset="0.8" stop-color="#E8E9EC"/>
<stop offset="1" stop-color="#E4E5E9"/>
</linearGradient>
<linearGradient id="paint2_linear_803_2445" x1="91.9457" y1="62.7885" x2="54.6016" y2="25.43" gradientUnits="userSpaceOnUse">
<stop stop-color="#3385FF"/>
<stop offset="1" stop-color="#7BAEFA"/>
</linearGradient>
<linearGradient id="paint3_linear_803_2445" x1="93.8282" y1="55.989" x2="52.3965" y2="32.0206" gradientUnits="userSpaceOnUse">
<stop stop-color="#1F79FF"/>
<stop offset="0.5" stop-color="#7BAEFA"/>
<stop offset="1" stop-color="#90BBFB"/>
</linearGradient>
<linearGradient id="paint4_linear_803_2445" x1="89.172" y1="54.8381" x2="51.5082" y2="30.3995" gradientUnits="userSpaceOnUse">
<stop/>
<stop offset="0.5" stop-color="#20227A"/>
<stop offset="0.8" stop-color="#3639CB"/>
<stop offset="1" stop-color="#3F42EB"/>
</linearGradient>
<linearGradient id="paint5_linear_803_2445" x1="108.478" y1="59.0228" x2="145.822" y2="21.6643" gradientUnits="userSpaceOnUse">
<stop stop-color="#3385FF"/>
<stop offset="1" stop-color="#7BAEFA"/>
</linearGradient>
<linearGradient id="paint6_linear_803_2445" x1="106.595" y1="52.2235" x2="148.026" y2="28.3074" gradientUnits="userSpaceOnUse">
<stop stop-color="#1F79FF"/>
<stop offset="0.5" stop-color="#7BAEFA"/>
<stop offset="1" stop-color="#90BBFB"/>
</linearGradient>
<linearGradient id="paint7_linear_803_2445" x1="111.251" y1="51.1247" x2="148.915" y2="26.6338" gradientUnits="userSpaceOnUse">
<stop/>
<stop offset="0.5" stop-color="#20227A"/>
<stop offset="0.8" stop-color="#3639CB"/>
<stop offset="1" stop-color="#3F42EB"/>
</linearGradient>
<linearGradient id="paint8_linear_803_2445" x1="119.938" y1="144.433" x2="74.2598" y2="144.433" gradientUnits="userSpaceOnUse">
<stop offset="0.2" stop-color="#F3F4F5"/>
<stop offset="0.8" stop-color="#E8E9EC"/>
<stop offset="1" stop-color="#E4E5E9"/>
</linearGradient>
</defs>
</svg>
