<svg width="80" height="80" viewBox="0 0 80 80" fill="none" xmlns="http://www.w3.org/2000/svg">
<path d="M21.6667 66.6668C16.6 66.6668 12.2778 64.9224 8.70004 61.4335C5.12226 57.9224 3.33337 53.6446 3.33337 48.6002C3.33337 44.2668 4.63337 40.4002 7.23337 37.0002C9.8556 33.6002 13.2778 31.4335 17.5 30.5002C18.9 25.3891 21.6778 21.2557 25.8334 18.1002C30.0111 14.9224 34.7334 13.3335 40 13.3335C46.5111 13.3335 52.0223 15.6002 56.5334 20.1335C61.0667 24.6446 63.3334 30.1557 63.3334 36.6668C67.1778 37.1113 70.3556 38.7779 72.8667 41.6668C75.4 44.5113 76.6667 47.8446 76.6667 51.6668C76.6667 55.8446 75.2111 59.3891 72.3 62.3002C69.3889 65.2113 65.8445 66.6668 61.6667 66.6668H43.3334C41.5111 66.6668 39.9445 66.0113 38.6334 64.7002C37.3223 63.4113 36.6667 61.8446 36.6667 60.0002V42.8335L31.3334 48.0002L26.6667 43.3335L40 30.0002L53.3334 43.3335L48.6667 48.0002L43.3334 42.8335V60.0002H61.6667C64 60.0002 65.9667 59.1891 67.5667 57.5668C69.1889 55.9668 70 54.0002 70 51.6668C70 49.3335 69.1889 47.3668 67.5667 45.7668C65.9667 44.1446 64 43.3335 61.6667 43.3335H56.6667V36.6668C56.6667 32.0668 55.0445 28.1335 51.8 24.8668C48.5556 21.6224 44.6223 20.0002 40 20.0002C35.4 20.0002 31.4667 21.6224 28.2 24.8668C24.9556 28.1335 23.3334 32.0668 23.3334 36.6668H21.6667C18.4445 36.6668 15.7 37.8113 13.4334 40.1002C11.1445 42.3668 10 45.1113 10 48.3335C10 51.5557 11.1445 54.3335 13.4334 56.6668C15.7 58.889 18.4445 60.0002 21.6667 60.0002H30V66.6668" fill="#747474"/>
</svg>
