<svg width="24" height="20" viewBox="0 0 24 20" fill="none" xmlns="http://www.w3.org/2000/svg">
<path d="M7.87189 16.2205H11.0585L7.84017 19.4698H4.65321L7.87189 16.2205ZM0.354276 19.4698H3.54196L6.75922 16.2205H3.57297L0.354276 19.4698ZM14.9854 16.2205H11.7981L15.0168 19.4698H18.2038L14.9854 16.2205ZM19.2844 16.2205H16.0971L19.3154 19.4698H22.502L19.2844 16.2205ZM24 3.2202C23.5477 9.84061 18.5706 15.6389 11.1862 15.636C2.83293 15.6336 -0.396455 8.38836 0.0384064 2.89855L2.49181 2.11988C2.09295 5.24415 3.06248 7.4975 3.73081 8.53013C2.93487 4.11035 6.27939 0.532638 10.4655 0.529787C14.2309 0.527295 17.3452 3.27042 17.3302 7.20576C17.8827 5.70365 18.2673 3.41682 18.3464 1.81604L24 3.2202ZM15.0019 7.34468C15.0019 4.85161 12.9766 2.83087 10.4765 2.83087C7.9782 2.83087 5.95253 4.85161 5.95253 7.34468C5.95253 9.83776 7.9782 11.8585 10.4765 11.8585C12.9766 11.8585 15.0019 9.83777 15.0019 7.34468Z" fill="#005CA9"/>
</svg>
