<svg width="24" height="24" viewBox="0 0 24 24" fill="none" xmlns="http://www.w3.org/2000/svg">
<g clip-path="url(#clip0_846_1468)">
<path d="M18.7436 10.9928H18.0286V2.30294C18.0286 1.17042 17.1106 0.252441 15.978 0.252441H8.02189C6.88937 0.252441 5.97139 1.17042 5.97139 2.30294V10.9928H5.25634C2.35802 10.9928 0 13.3509 0 16.2493C0 19.1475 2.35798 21.5056 5.25634 21.5056H9.76877V23.1266C9.76877 23.3789 9.91934 23.6042 10.1524 23.7006C10.2281 23.7321 10.308 23.7479 10.3899 23.7479C10.556 23.7479 10.7121 23.6832 10.8294 23.566L13.5328 20.8626C13.6502 20.7453 13.7147 20.5893 13.7147 20.4233C13.7147 20.2574 13.6502 20.1013 13.5328 19.9839L10.8294 17.2805C10.7121 17.1631 10.556 17.0986 10.3899 17.0986C10.308 17.0986 10.2281 17.1144 10.1523 17.1459C9.91934 17.2424 9.76877 17.4677 9.76877 17.7198V19.3409H5.25634C3.55159 19.3409 2.1647 17.954 2.1647 16.2494C2.1647 14.5445 3.55159 13.1577 5.25634 13.1577H5.97139V17.5182C5.97139 17.7793 6.02069 18.0289 6.10977 18.2587H8.68647V17.7199C8.68647 17.0283 9.09927 16.4106 9.7381 16.146C9.94611 16.0598 10.1654 16.0164 10.3899 16.0164C10.8452 16.0164 11.2731 16.1935 11.5948 16.5153L11.6317 16.5522L14.2982 19.2187C14.4043 19.3247 14.4942 19.4425 14.5678 19.5689H15.9781C17.1107 19.5689 18.0286 18.6508 18.0286 17.5183V13.1578H18.7436C20.4484 13.1578 21.8353 14.5446 21.8353 16.2494C21.8353 17.954 20.4484 19.341 18.7436 19.341C18.1469 19.341 17.6613 19.8265 17.6613 20.4233C17.6613 21.0201 18.1469 21.5056 18.7436 21.5056C21.642 21.5056 24 19.1476 24 16.2493C23.9999 13.3509 21.6419 10.9928 18.7436 10.9928ZM15.2532 2.14379C15.4961 2.14379 15.693 2.34068 15.693 2.58355C15.693 2.82642 15.4963 3.02335 15.2532 3.02335C15.0104 3.02335 14.8134 2.82642 14.8134 2.58355C14.8134 2.34068 15.0104 2.14379 15.2532 2.14379ZM10.0969 2.22639H13.9031V2.94456H10.0969L10.0969 2.22639ZM16.6052 15.9496H7.39466V3.87132H16.6052V15.9496Z" fill="black"/>
<path d="M13.0521 11.8712C13.3368 11.8712 13.5683 11.6399 13.5683 11.3558C13.5683 11.072 13.3369 10.8408 13.0521 10.8403C12.7679 10.8403 12.5369 11.0715 12.5369 11.3558C12.5368 11.6399 12.7679 11.8712 13.0521 11.8712Z" fill="black"/>
<path d="M10.7876 11.8712C11.0722 11.8712 11.3037 11.6399 11.3037 11.3558C11.3037 11.072 11.0723 10.8408 10.7876 10.8403C10.5034 10.8403 10.2722 11.0715 10.2722 11.3558C10.2722 11.6399 10.5034 11.8712 10.7876 11.8712Z" fill="black"/>
<path d="M10.9806 12.9918C10.9147 13.0567 10.9037 13.159 10.9542 13.2364C11.127 13.5013 11.4971 13.6658 11.9199 13.6658C12.3432 13.6658 12.7132 13.5012 12.8854 13.2362C12.9358 13.1587 12.9246 13.0563 12.8584 12.9915C12.7924 12.9267 12.6899 12.9177 12.6133 12.9697C12.4494 13.0814 12.1965 13.1454 11.9199 13.1454C11.6441 13.1454 11.3909 13.0812 11.2257 12.9695C11.149 12.9176 11.0465 12.9269 10.9806 12.9918Z" fill="black"/>
<path d="M10.5123 14.5658C10.0169 14.7731 9.58091 15.0939 9.23638 15.4953H14.7628C14.3987 15.0714 13.9328 14.7375 13.4025 14.5323C14.5969 13.9727 15.4267 12.7595 15.4267 11.3556C15.4267 9.42208 13.8537 7.84912 11.9203 7.84912C11.1226 7.84912 10.3866 8.11739 9.79681 8.56773C9.45706 8.46022 9.25754 8.14938 9.25754 8.14938C9.29523 8.41536 9.42712 8.61181 9.57345 8.75277C9.546 8.77754 9.51942 8.80323 9.49275 8.82888C9.16646 8.77334 8.93398 8.53594 8.93398 8.53594C9.01419 8.75915 9.15534 8.9146 9.30571 9.0224C8.75147 9.64271 8.41382 10.4603 8.41382 11.3556C8.41377 12.7884 9.27807 14.0225 10.5123 14.5658ZM9.67228 9.48834C10.0519 9.83789 10.9153 10.0822 11.9202 10.0822C12.9252 10.0822 13.7885 9.83789 14.1683 9.48834C14.5898 9.99519 14.844 10.6462 14.844 11.3556C14.844 12.9678 13.5324 14.2793 11.9201 14.2793C10.308 14.2793 8.99634 12.9679 8.99634 11.3556C8.99639 10.6462 9.25052 9.99519 9.67228 9.48834Z" fill="black"/>
</g>
<defs>
<clipPath id="clip0_846_1468">
<rect width="24" height="24" fill="white"/>
</clipPath>
</defs>
</svg>
